<?xml version="1.0" encoding="utf-8"?>
<!-- Generator: Adobe Illustrator 23.0.3, SVG Export Plug-In . SVG Version: 6.00 Build 0)  -->
<svg version="1.1" id="Layer_1" xmlns="http://www.w3.org/2000/svg" xmlns:xlink="http://www.w3.org/1999/xlink" x="0px" y="0px"
	 viewBox="0 0 518.1 43.9" style="enable-background:new 0 0 518.1 43.9;" xml:space="preserve">
<style type="text/css">
	.st0{fill:#FFFFFF;}
</style>
<g>
	<path class="st0" d="M7.8,0.4C11.2,0.4,13,2,13,4.7v0.8c0,2.1-1.1,3.2-2.9,3.7v0.1c2,0.4,3.2,1.6,3.2,3.6v0.9
		c0,2.8-1.9,4.4-5.2,4.4H0V0.4H7.8z M3.7,7.8h3.5c1.3,0,2.1-0.7,2.1-1.9V5.2c0-1.1-0.8-1.7-2.1-1.7H3.7V7.8z M3.7,15.1h3.7
		c1.3,0,2.1-0.7,2.1-1.9v-0.8c0-1.2-0.8-1.9-2.3-1.9H3.7V15.1z"/>
	<path class="st0" d="M27.4,18.2h-3.9V0.4h7.7c3.7,0,5.7,1.9,5.7,4.9v1.3c0,2.3-1.2,3.9-3.2,4.5l3.9,6.9h-4.1L30,11.6h-2.5v6.6H27.4
		z M27.4,8.8h3.2c1.9,0,2.7-0.8,2.7-2.1V5.6c0-1.3-0.8-2.1-2.7-2.1h-3.2V8.8z"/>
	<path class="st0" d="M51.3,0.4v17.8h-3.9V0.4H51.3z"/>
	<path class="st0" d="M75.7,5.8v0.7H72V6.2c0-1.9-0.9-2.9-3.1-2.9c-2.3,0-3.6,1.6-3.6,4.1v4c0,2.5,1.3,4.1,3.5,4.1
		c2,0,3.3-1.3,3.3-3.2v-0.9H69V8.8h6.9v9.4h-1.7l-0.5-2.7c-0.9,1.6-2.4,3.1-5.3,3.1c-4,0-6.6-2.8-6.6-7.2v-4c0-4.4,2.8-7.3,7.4-7.3
		C73.3,0,75.7,2.3,75.7,5.8z"/>
	<path class="st0" d="M90.4,0.4v7h6.2v-7h3.9v17.8h-3.9v-7.3h-6.2v7.3h-3.9V0.4H90.4z"/>
	<path class="st0" d="M121.2,14.9h-6.4l-1.1,3.3H110l5.8-17.9h4.4l5.8,17.9h-4L121.2,14.9z M115.7,11.8h4.5L118,4.5l0,0L115.7,11.8z
		"/>
	<path class="st0" d="M141.1,0.4l4.1,12.2l0,0l4-12.2h5.4v17.8h-3.6V4.8l0,0l-4.4,13.4h-2.9l-4.5-13.4l0,0v13.4h-3.5V0.4H141.1z"/>
	<path class="st0" d="M179.8,0.4l3.7,7.6l3.7-7.6h4.1l-5.8,11v6.8h-3.9v-6.8l-5.8-11C175.8,0.4,179.8,0.4,179.8,0.4z"/>
	<path class="st0" d="M214.7,7.6V11c0,4.9-2.9,7.6-7.4,7.6c-4.7,0-7.4-2.5-7.4-7.6V7.6c0-4.9,2.9-7.6,7.4-7.6
		C211.8,0,214.7,2.5,214.7,7.6z M203.7,7.4v3.7c0,2.9,1.3,4.1,3.6,4.1c2.3,0,3.6-1.3,3.6-4.1V7.4c0-2.9-1.3-4.1-3.6-4.1
		C205,3.3,203.7,4.5,203.7,7.4z"/>
	<path class="st0" d="M228.7,0.4v11.4c0,2.3,1.1,3.5,3.2,3.5s3.2-1.2,3.2-3.5V0.4h3.7v11.3c0,4.4-2.3,6.9-6.9,6.9
		c-4.7,0-6.9-2.5-6.9-6.9V0.4H228.7z"/>
	<path class="st0" d="M253,0.4l6.8,11.4l0,0V0.4h3.5v17.8h-3.7l-6.9-11.6l0,0v11.6h-3.5V0.4H253z"/>
	<path class="st0" d="M287.8,5.8v0.7h-3.7V6.2c0-1.9-0.9-2.9-3.1-2.9c-2.3,0-3.6,1.6-3.6,4.1v4c0,2.5,1.3,4.1,3.5,4.1
		c2,0,3.3-1.3,3.3-3.2v-0.9H281V8.8h6.9v9.4h-1.7l-0.5-2.7c-0.9,1.6-2.4,3.1-5.3,3.1c-4,0-6.6-2.8-6.6-7.2v-4c0-4.4,2.8-7.3,7.4-7.3
		C285.4,0,287.8,2.3,287.8,5.8z"/>
	<path class="st0" d="M313.8,0.4v11.4c0,2.3,1.1,3.5,3.2,3.5c2,0,3.2-1.2,3.2-3.5V0.4h3.7v11.3c0,4.4-2.3,6.9-6.9,6.9
		s-6.9-2.5-6.9-6.9V0.4H313.8z"/>
	<path class="st0" d="M338.2,0.4l6.8,11.4l0,0V0.4h3.5v17.8h-3.7l-6.9-11.6l0,0v11.6h-3.5V0.4H338.2z"/>
	<path class="st0" d="M363.4,0.4v17.8h-3.9V0.4H363.4z"/>
	<path class="st0" d="M377.4,0.4l3.9,12.6l0,0l3.9-12.6h4l-6,17.9h-3.9l-6-17.9C373.2,0.4,377.4,0.4,377.4,0.4z"/>
	<path class="st0" d="M410.7,0.4v3.3h-8.4v4h6.5v3.1h-6.5V15h8.5v3.3h-12.2V0.4H410.7z"/>
	<path class="st0" d="M424,18.2h-3.9V0.4h7.7c3.7,0,5.7,1.9,5.7,4.9v1.3c0,2.3-1.2,3.9-3.2,4.5l3.9,6.9h-4.1l-3.5-6.5h-2.5v6.6H424z
		 M424,8.8h3.1c1.9,0,2.8-0.8,2.8-2.1V5.6c0-1.3-0.8-2.1-2.7-2.1H424V8.8z"/>
	<path class="st0" d="M456.8,5.4V6H453V5.6c0-1.3-0.9-2.4-3.1-2.4c-1.7,0-2.7,0.8-2.7,1.9c0,1.3,0.9,1.7,3.9,2.7
		c4.5,1.2,5.8,2.5,5.8,5.4c0,3.3-2.8,5.3-6.9,5.3c-4.8,0-6.9-2.1-6.9-5.4v-0.8h3.9v0.5c0,1.6,1.1,2.7,3.3,2.7c1.9,0,2.9-0.7,2.9-2
		c0-1.5-0.7-1.7-4-2.8c-4.3-1.1-5.7-2.4-5.7-5.4s2.5-5.2,6.6-5.2C454.7,0.1,456.8,2.3,456.8,5.4z"/>
	<path class="st0" d="M471,0.4v17.8h-3.9V0.4H471z"/>
	<path class="st0" d="M494.3,0.4v3.3h-5v14.5h-3.9V3.7h-5V0.4H494.3z"/>
	<path class="st0" d="M506.5,0.4l3.7,7.6l3.7-7.6h4.1l-5.8,11v6.8h-3.9v-6.8l-5.8-11C502.5,0.4,506.5,0.4,506.5,0.4z"/>
</g>
<g>
	<path class="st0" d="M4.4,29.7c2.2,0,3.3,1.2,3.3,3.1v0.9c0,2-1.2,3.1-3.4,3.1H2.3v4H0.4v-11H4.4z M2.3,35.2h1.8
		c1.3,0,1.8-0.6,1.8-1.6V33c0-1-0.5-1.6-1.8-1.6H2.3V35.2z"/>
	<path class="st0" d="M14.1,29.7c2.2,0,3.3,1.1,3.3,3v0.8c0,1.4-0.7,2.4-2,2.8l2.4,4.4h-2.1l-2.2-4.2h-1.8v4.2H9.8v-11H14.1z
		 M11.7,35h2c1.2,0,1.8-0.6,1.8-1.5v-0.6c0-1-0.5-1.5-1.8-1.5h-2.1V35z"/>
	<path class="st0" d="M28,34.1v2.3c0,3-1.7,4.6-4.3,4.6c-2.7,0-4.3-1.6-4.3-4.6v-2.3c0-3,1.7-4.6,4.3-4.6C26.3,29.5,28,31.2,28,34.1
		z M21.2,34.1v2.4c0,1.9,0.9,2.9,2.4,2.9c1.5,0,2.4-1,2.4-2.9v-2.4c0-1.9-0.9-2.9-2.4-2.9C22.1,31.2,21.2,32.2,21.2,34.1z"/>
	<path class="st0" d="M31.4,29.7l2.5,8.4h0l2.5-8.4h1.9l-3.6,11.1H33l-3.6-11.1H31.4z"/>
	<path class="st0" d="M48.4,34.1v2.3c0,3-1.7,4.6-4.3,4.6c-2.7,0-4.3-1.6-4.3-4.6v-2.3c0-3,1.7-4.6,4.3-4.6
		C46.8,29.5,48.4,31.2,48.4,34.1z M41.7,34.1v2.4c0,1.9,0.9,2.9,2.4,2.9c1.5,0,2.4-1,2.4-2.9v-2.4c0-1.9-0.9-2.9-2.4-2.9
		C42.6,31.2,41.7,32.2,41.7,34.1z"/>
	<path class="st0" d="M52.1,38.4v1.7c0,2.1-0.8,2.9-2.3,3.3v-0.6c1-0.6,1.2-1,1.2-2.1h-0.8v-2.3H52.1z"/>
	<path class="st0" d="M59.6,29.7V37c0,1.5,0.8,2.4,2.1,2.4c1.3,0,2.1-0.8,2.1-2.4v-7.2h1.8v7.1c0,2.6-1.4,4.1-4,4.1
		c-2.6,0-3.9-1.5-3.9-4.1v-7.1H59.6z"/>
	<path class="st0" d="M75.6,29.7v1.7h-3.1v9.3h-1.9v-9.3h-3.1v-1.7H75.6z"/>
	<path class="st0" d="M88.2,32.6v0.1c0,1.1-0.6,2-1.8,2.4c1.3,0.5,2,1.4,2,2.6V38c0,1.8-1.4,3-4,3c-2.6,0-4-1.3-4-3v-0.2
		c0-1.2,0.6-2.1,1.9-2.6c-1.2-0.5-1.8-1.3-1.8-2.4v-0.1c0-1.7,1.2-3.1,3.8-3.1C86.9,29.5,88.2,30.9,88.2,32.6z M86.5,37.8v-0.2
		c0-1.1-0.8-1.7-2.1-1.7c-1.3,0-2.2,0.6-2.2,1.7v0.2c0,1.1,0.8,1.7,2.2,1.7C85.7,39.5,86.5,38.8,86.5,37.8z M82.4,32.7v0.2
		c0,1,0.8,1.6,2,1.6c1.2,0,2-0.6,2-1.6v-0.2c0-1-0.8-1.7-2-1.7S82.4,31.7,82.4,32.7z"/>
	<path class="st0" d="M96.9,29.7v7h1.4v1.6h-1.4v2.5h-1.7v-2.5h-5.3v-1.4l4.7-7.2H96.9z M95.2,31.6l-3.5,5.2h3.5V31.6z"/>
	<path class="st0" d="M99.8,37v-3c0-2.8,1.4-4.4,4.1-4.4c2.7,0,3.6,1.6,3.6,3v0.5h-1.8v-0.2c0-1-0.7-1.6-1.8-1.6
		c-1.5,0-2.3,0.9-2.3,2.6v1.4c0.5-0.6,1.3-1.2,2.7-1.2c2.1,0,3.3,1.2,3.3,3v0.6c0,2.1-1.4,3.5-3.9,3.5C101.1,41,99.8,39.6,99.8,37z
		 M105.8,37.5v-0.3c0-1.2-0.8-1.8-2-1.8c-1.2,0-2.1,0.6-2.1,1.8v0.4c0,1.3,0.9,1.9,2.1,1.9C104.9,39.4,105.8,38.8,105.8,37.5z"/>
	<path class="st0" d="M117.5,34v2.6c0,2.8-1.5,4.5-4.1,4.5c-2.5,0-4-1.7-4-4.5V34c0-2.8,1.5-4.5,4-4.5C116,29.5,117.5,31.2,117.5,34
		z M111.3,34v2.5c0,1.8,0.7,2.9,2.2,2.9c1.5,0,2.2-1.1,2.2-2.9V34c0-1.8-0.7-2.9-2.2-2.9C112,31.2,111.3,32.2,111.3,34z"/>
	<path class="st0" d="M126.8,32.7c0,1.8-0.9,2.5-3.2,3.8c-1.8,1-2.3,1.5-2.3,2.6h5.4v1.7h-7.4v-0.6c0-2.5,0.7-3.6,3.4-5.1
		c1.8-1,2.3-1.4,2.3-2.4c0-1-0.7-1.5-1.8-1.5c-1.2,0-2,0.6-2,1.7v0.6h-1.8v-0.7c0-2,1.3-3.4,3.8-3.4S126.8,30.9,126.8,32.7z"/>
	<path class="st0" d="M130.9,38.4v1.7c0,2.1-0.8,2.9-2.3,3.3v-0.6c1-0.6,1.2-1,1.2-2.1h-0.8v-2.3H130.9z"/>
	<path class="st0" d="M138.3,29.7V37c0,1.5,0.8,2.4,2.1,2.4c1.3,0,2.1-0.8,2.1-2.4v-7.2h1.8v7.1c0,2.6-1.4,4.1-4,4.1
		c-2.6,0-3.9-1.5-3.9-4.1v-7.1H138.3z"/>
	<path class="st0" d="M154.3,32.8v0.4h-1.9v-0.4c0-0.9-0.5-1.7-2-1.7c-1.2,0-1.8,0.6-1.8,1.4c0,1,0.6,1.3,2.4,1.9
		c2.5,0.8,3.4,1.5,3.4,3.3c0,2-1.6,3.2-3.9,3.2c-2.7,0-4-1.3-4-3.3v-0.5h1.9v0.4c0,1.2,0.7,1.9,2.2,1.9c1.2,0,2-0.5,2-1.5
		c0-1-0.5-1.3-2.5-2c-2.3-0.7-3.3-1.4-3.3-3.3c0-1.8,1.4-3.1,3.8-3.1C153.2,29.5,154.3,30.9,154.3,32.8z"/>
	<path class="st0" d="M162.3,38.4h-4l-0.7,2.4h-1.9l3.6-11.1h2.1l3.6,11.1H163L162.3,38.4z M158.8,36.9h3.1l-1.5-4.9h0L158.8,36.9z"
		/>
	<path class="st0" d="M173.4,27.8v16.1h-1.4V27.8H173.4z"/>
	<path class="st0" d="M292.2,27.8v16.1h-1.4V27.8H292.2z"/>
	<path class="st0" d="M188.3,32.6v0.1c0,1.1-0.6,2-1.8,2.4c1.3,0.5,2,1.4,2,2.6V38c0,1.8-1.4,3-4,3c-2.6,0-4-1.3-4-3v-0.2
		c0-1.2,0.6-2.1,1.9-2.6c-1.2-0.5-1.8-1.3-1.8-2.4v-0.1c0-1.7,1.2-3.1,3.8-3.1C187.1,29.5,188.3,30.9,188.3,32.6z M186.7,37.8v-0.2
		c0-1.1-0.8-1.7-2.1-1.7c-1.3,0-2.1,0.6-2.1,1.7v0.2c0,1.1,0.8,1.7,2.1,1.7C185.9,39.5,186.7,38.8,186.7,37.8z M182.5,32.7v0.2
		c0,1,0.8,1.6,2,1.6c1.2,0,2-0.6,2-1.6v-0.2c0-1-0.8-1.7-2-1.7C183.3,31,182.5,31.7,182.5,32.7z"/>
	<path class="st0" d="M198.4,34v2.6c0,2.8-1.5,4.5-4,4.5c-2.5,0-4-1.7-4-4.5V34c0-2.8,1.5-4.5,4-4.5C196.9,29.5,198.4,31.2,198.4,34
		z M192.2,34v2.5c0,1.8,0.7,2.9,2.2,2.9c1.5,0,2.2-1.1,2.2-2.9V34c0-1.8-0.7-2.9-2.2-2.9C192.9,31.2,192.2,32.2,192.2,34z"/>
	<path class="st0" d="M199.9,31.1h0.5c1.3,0,1.9-0.4,2-1.4h1.3v11.1h-1.8v-8.4h-2V31.1z"/>
	<path class="st0" d="M211,34.7v1.6h-4.5v-1.6H211z"/>
	<path class="st0" d="M219.9,29.7v7h1.4v1.6h-1.4v2.5h-1.7v-2.5h-5.3v-1.4l4.7-7.2H219.9z M218.2,31.6l-3.4,5.2h3.4V31.6z"/>
	<path class="st0" d="M230.3,32.7c0,1.8-0.9,2.5-3.2,3.8c-1.8,1-2.3,1.5-2.3,2.6h5.4v1.7h-7.4v-0.6c0-2.5,0.7-3.6,3.4-5.1
		c1.8-1,2.3-1.4,2.3-2.4c0-1-0.7-1.5-1.8-1.5c-1.2,0-2,0.6-2,1.7v0.6h-1.8v-0.7c0-2,1.3-3.4,3.8-3.4S230.3,30.9,230.3,32.7z"/>
	<path class="st0" d="M239.4,32.7c0,1.8-0.9,2.5-3.2,3.8c-1.8,1-2.3,1.5-2.3,2.6h5.4v1.7h-7.4v-0.6c0-2.5,0.7-3.6,3.4-5.1
		c1.8-1,2.3-1.4,2.3-2.4c0-1-0.7-1.5-1.8-1.5c-1.2,0-2,0.6-2,1.7v0.6H232v-0.7c0-2,1.3-3.4,3.8-3.4S239.4,30.9,239.4,32.7z"/>
	<path class="st0" d="M245.5,34.7v1.6H241v-1.6H245.5z"/>
	<path class="st0" d="M254.4,29.7v7h1.4v1.6h-1.4v2.5h-1.7v-2.5h-5.3v-1.4l4.7-7.2H254.4z M252.7,31.6l-3.4,5.2h3.4V31.6z"/>
	<path class="st0" d="M257.4,37v-3c0-2.8,1.4-4.4,4-4.4c2.7,0,3.6,1.6,3.6,3v0.5h-1.8v-0.2c0-1-0.7-1.6-1.8-1.6
		c-1.5,0-2.3,0.9-2.3,2.6v1.4c0.5-0.6,1.3-1.2,2.7-1.2c2.1,0,3.3,1.2,3.3,3v0.6c0,2.1-1.4,3.5-3.9,3.5C258.6,41,257.4,39.6,257.4,37
		z M263.3,37.5v-0.3c0-1.2-0.8-1.8-2-1.8c-1.2,0-2.1,0.6-2.1,1.8v0.4c0,1.3,0.9,1.9,2.1,1.9C262.4,39.4,263.3,38.8,263.3,37.5z"/>
	<path class="st0" d="M274.3,32.5v0.2c0,1.2-0.8,2.1-2.1,2.5c1.4,0.3,2.2,1.2,2.2,2.5v0.3c0,1.7-1.3,3.1-3.7,3.1
		c-2.8,0-3.8-1.5-3.8-3.2v-0.6h1.7v0.5c0,0.9,0.6,1.6,2,1.6c1.3,0,1.9-0.7,1.9-1.6v-0.3c0-1-0.6-1.6-2.2-1.6h-1v-1.4h1
		c1.5,0,2.1-0.6,2.1-1.6v-0.2c0-1-0.7-1.6-1.9-1.6c-1.4,0-2,0.7-2,1.6v0.5h-1.8v-0.5c0-1.7,1.1-3.2,3.8-3.2
		C273.1,29.5,274.3,30.9,274.3,32.5z"/>
	<path class="st0" d="M276.2,37v-3c0-2.8,1.4-4.4,4-4.4c2.7,0,3.6,1.6,3.6,3v0.5H282v-0.2c0-1-0.7-1.6-1.8-1.6
		c-1.5,0-2.3,0.9-2.3,2.6v1.4c0.5-0.6,1.3-1.2,2.7-1.2c2.1,0,3.3,1.2,3.3,3v0.6c0,2.1-1.4,3.5-3.9,3.5C277.4,41,276.2,39.6,276.2,37
		z M282.1,37.5v-0.3c0-1.2-0.8-1.8-2-1.8c-1.2,0-2.1,0.6-2.1,1.8v0.4c0,1.3,0.9,1.9,2.1,1.9C281.2,39.4,282.1,38.8,282.1,37.5z"/>
	<path class="st0" d="M306.8,32.7c0,1.8-0.9,2.5-3.3,3.8c-1.8,1-2.3,1.5-2.3,2.6h5.5v1.7h-7.5v-0.6c0-2.5,0.8-3.6,3.5-5.1
		c1.8-1,2.3-1.4,2.3-2.4c0-1-0.7-1.5-1.8-1.5c-1.3,0-2,0.6-2,1.7v0.6h-1.8v-0.7c0-2,1.3-3.4,3.9-3.4
		C305.7,29.5,306.8,30.9,306.8,32.7z"/>
	<path class="st0" d="M316.7,34v2.6c0,2.8-1.5,4.5-4.1,4.5c-2.5,0-4.1-1.7-4.1-4.5V34c0-2.8,1.5-4.5,4.1-4.5
		C315.2,29.5,316.7,31.2,316.7,34z M310.4,34v2.5c0,1.8,0.8,2.9,2.2,2.9c1.5,0,2.3-1.1,2.3-2.9V34c0-1.8-0.8-2.9-2.3-2.9
		C311.1,31.2,310.4,32.2,310.4,34z"/>
	<path class="st0" d="M318.2,31.1h0.5c1.4,0,1.9-0.4,2.1-1.4h1.3v11.1h-1.9v-8.4h-2.1V31.1z"/>
	<path class="st0" d="M332.6,33.6v3c0,2.8-1.4,4.4-4.1,4.4c-2.8,0-3.7-1.6-3.7-2.9v-0.4h1.8v0.2c0,0.9,0.7,1.5,1.9,1.5
		c1.5,0,2.3-0.9,2.3-2.6v-1.3c-0.5,0.6-1.3,1.2-2.7,1.2c-2.1,0-3.3-1.2-3.3-3V33c0-2.1,1.4-3.5,3.9-3.5
		C331.3,29.5,332.6,31,332.6,33.6z M326.6,33.1v0.5c0,1.3,0.8,1.9,2,1.9c1.2,0,2.1-0.6,2.1-1.8v-0.5c0-1.4-0.9-2-2.1-2
		C327.5,31.1,326.6,31.7,326.6,33.1z"/>
	<path class="st0" d="M344.2,29.3c3.4,0,5.8,2.6,5.8,6c0,3.4-2.4,6-5.8,6s-5.8-2.6-5.8-6C338.4,31.9,340.8,29.3,344.2,29.3z
		 M344.2,30.1c-2.9,0-4.9,2.3-4.9,5.2c0,2.9,2,5.2,4.9,5.2s4.9-2.3,4.9-5.2C349.1,32.3,347.1,30.1,344.2,30.1z M346.4,34.3v0.2h-1.1
		v-0.1c0-0.5-0.3-1-1-1c-0.8,0-1.2,0.6-1.2,1.4v1c0,0.8,0.4,1.4,1.2,1.4c0.7,0,1-0.4,1-1v-0.1h1.1v0.2c0,1.1-0.7,2-2.2,2
		c-1.5,0-2.4-1-2.4-2.5v-1c0-1.5,0.9-2.5,2.4-2.5C345.7,32.3,346.4,33.1,346.4,34.3z"/>
	<path class="st0" d="M361.1,38.4h-4l-0.7,2.4h-1.8l3.6-11.1h2.1l3.6,11.1h-1.9L361.1,38.4z M357.6,36.9h3l-1.5-4.9h0L357.6,36.9z"
		/>
	<path class="st0" d="M367.6,29.7V39h4.6v1.7h-6.4v-11H367.6z"/>
	<path class="st0" d="M375.9,29.7V39h4.6v1.7h-6.4v-11H375.9z"/>
	<path class="st0" d="M390,29.7c2.2,0,3.3,1.1,3.3,3v0.8c0,1.4-0.7,2.4-2,2.8l2.4,4.4h-2.1l-2.2-4.2h-1.8v4.2h-1.9v-11H390z
		 M387.6,35h2c1.2,0,1.8-0.6,1.8-1.5v-0.6c0-1-0.5-1.5-1.8-1.5h-2.1V35z"/>
	<path class="st0" d="M397.6,29.7v11h-1.9v-11H397.6z"/>
	<path class="st0" d="M408.1,33.1v0.4h-1.8v-0.2c0-1.2-0.6-2.1-2-2.1c-1.5,0-2.4,1.1-2.4,2.8v2.6c0,1.7,0.9,2.8,2.3,2.8
		c1.3,0,2.2-0.9,2.2-2.3v-0.6h-2.1v-1.4h3.9v5.7h-0.9l-0.3-1.7c-0.5,1.1-1.4,2-3.1,2c-2.3,0-3.9-1.7-3.9-4.5V34
		c0-2.7,1.6-4.5,4.2-4.5C406.8,29.5,408.1,31,408.1,33.1z"/>
	<path class="st0" d="M412.6,29.7v4.6h4.2v-4.6h1.9v11h-1.9v-4.7h-4.2v4.7h-1.9v-11H412.6z"/>
	<path class="st0" d="M428.7,29.7v1.7h-3.1v9.3h-1.9v-9.3h-3.1v-1.7H428.7z"/>
	<path class="st0" d="M437.7,32.8v0.4h-1.9v-0.4c0-0.9-0.5-1.7-2-1.7c-1.2,0-1.8,0.6-1.8,1.4c0,1,0.6,1.3,2.4,1.9
		c2.5,0.8,3.4,1.5,3.4,3.3c0,2-1.6,3.2-3.9,3.2c-2.7,0-3.9-1.3-3.9-3.3v-0.5h1.8v0.4c0,1.2,0.7,1.9,2.2,1.9c1.2,0,2-0.5,2-1.5
		c0-1-0.5-1.3-2.5-2c-2.3-0.7-3.3-1.4-3.3-3.3c0-1.8,1.4-3.1,3.8-3.1C436.5,29.5,437.7,30.9,437.7,32.8z"/>
	<path class="st0" d="M447.6,29.7c2.2,0,3.3,1.1,3.3,3v0.8c0,1.4-0.7,2.4-2,2.8l2.4,4.4h-2.1l-2.2-4.2h-1.8v4.2h-1.9v-11H447.6z
		 M445.2,35h2c1.2,0,1.8-0.6,1.8-1.5v-0.6c0-1-0.5-1.5-1.8-1.5h-2.1V35z"/>
	<path class="st0" d="M460.1,29.7v1.7H455v2.9h4V36h-4v3.1h5.1v1.7h-6.9v-11H460.1z"/>
	<path class="st0" d="M469.6,32.8v0.4h-1.9v-0.4c0-0.9-0.5-1.7-2-1.7c-1.2,0-1.8,0.6-1.8,1.4c0,1,0.6,1.3,2.4,1.9
		c2.5,0.8,3.4,1.5,3.4,3.3c0,2-1.6,3.2-3.9,3.2c-2.7,0-3.9-1.3-3.9-3.3v-0.5h1.8v0.4c0,1.2,0.7,1.9,2.2,1.9c1.2,0,2-0.5,2-1.5
		c0-1-0.5-1.3-2.5-2c-2.3-0.7-3.3-1.4-3.3-3.3c0-1.8,1.4-3.1,3.8-3.1C468.4,29.5,469.6,30.9,469.6,32.8z"/>
	<path class="st0" d="M478.8,29.7v1.7h-5.1v2.9h4V36h-4v3.1h5.1v1.7h-6.9v-11H478.8z"/>
	<path class="st0" d="M485.2,29.7c2.2,0,3.3,1.1,3.3,3v0.8c0,1.4-0.7,2.4-2,2.8l2.4,4.4h-2.1l-2.2-4.2h-1.8v4.2h-1.9v-11H485.2z
		 M482.8,35h2c1.2,0,1.8-0.6,1.8-1.5v-0.6c0-1-0.5-1.5-1.8-1.5h-2.1V35z"/>
	<path class="st0" d="M491.9,29.7l2.5,8.4h0l2.5-8.4h1.9l-3.6,11.1h-1.8l-3.6-11.1H491.9z"/>
	<path class="st0" d="M507.8,29.7v1.7h-5.1v2.9h4V36h-4v3.1h5.1v1.7h-6.9v-11H507.8z"/>
	<path class="st0" d="M513.8,29.7c2.8,0,4.2,1.7,4.2,4.4v2.4c0,2.6-1.5,4.3-4.3,4.3H510v-11H513.8z M511.9,39.1h1.8
		c1.7,0,2.5-1.1,2.5-2.7v-2.2c0-1.7-0.8-2.8-2.5-2.8h-1.8V39.1z"/>
</g>
</svg>
