<svg xmlns="http://www.w3.org/2000/svg" viewBox="0 0 45 44.963">
  <defs>
    <style>
      .cls-1 {
        fill: #ecb32d;
      }

      .cls-2 {
        fill: #63c1a0;
      }

      .cls-3 {
        fill: #e01a59;
      }

      .cls-4 {
        fill: #331433;
      }

      .cls-5 {
        fill: #d62027;
      }

      .cls-6 {
        fill: #89d3df;
      }

      .cls-7 {
        fill: #258b74;
      }

      .cls-8 {
        fill: #819c3c;
      }
    </style>
  </defs>
  <g id="Slack_Logo_Icon" data-name="Slack Logo Icon" transform="translate(-75.27 -79.589)">
    <g id="Group_387" data-name="Group 387" transform="translate(75.27 79.589)">
      <path id="Path_747" data-name="Path 747" class="cls-1" d="M140.916,82.361a4.015,4.015,0,0,0-7.639,2.472l10.37,31.884a4,4,0,0,0,4.871,2.472,3.938,3.938,0,0,0,2.731-4.945C151.249,114.171,140.916,82.361,140.916,82.361Z" transform="translate(-111.752 -79.589)"/>
      <path id="Path_748" data-name="Path 748" class="cls-2" d="M97.416,96.461a4.015,4.015,0,0,0-7.639,2.472l10.37,31.884a4,4,0,0,0,4.871,2.472,3.938,3.938,0,0,0,2.731-4.945C107.749,128.271,97.416,96.461,97.416,96.461Z" transform="translate(-84.305 -88.486)"/>
      <path id="Path_749" data-name="Path 749" class="cls-3" d="M126.394,145.216a4.015,4.015,0,1,0-2.472-7.639L92,147.984a4,4,0,0,0-2.472,4.871,3.938,3.938,0,0,0,4.945,2.731C94.547,155.586,126.394,145.216,126.394,145.216Z" transform="translate(-84.166 -116.059)"/>
      <path id="Path_750" data-name="Path 750" class="cls-4" d="M110.273,165.811c2.067-.664,4.76-1.55,7.639-2.472-.664-2.067-1.55-4.76-2.472-7.639l-7.639,2.472Z" transform="translate(-95.795 -127.613)"/>
      <path id="Path_751" data-name="Path 751" class="cls-5" d="M153.872,151.611c2.878-.923,5.572-1.808,7.639-2.472-.664-2.067-1.55-4.76-2.473-7.639l-7.639,2.473Z" transform="translate(-123.306 -118.653)"/>
      <path id="Path_752" data-name="Path 752" class="cls-6" d="M112.258,101.716a4.015,4.015,0,1,0-2.472-7.639L77.9,104.447a4,4,0,0,0-2.472,4.871,3.938,3.938,0,0,0,4.945,2.731C80.447,112.049,112.258,101.716,112.258,101.716Z" transform="translate(-75.27 -88.612)"/>
      <path id="Path_753" data-name="Path 753" class="cls-7" d="M96.173,122.211c2.067-.664,4.76-1.55,7.639-2.472-.923-2.878-1.808-5.572-2.472-7.639L93.7,114.573Z" transform="translate(-86.899 -100.102)"/>
      <path id="Path_754" data-name="Path 754" class="cls-8" d="M139.672,108.111c2.878-.923,5.572-1.808,7.639-2.472-.923-2.878-1.808-5.572-2.473-7.639l-7.639,2.472Z" transform="translate(-114.346 -91.206)"/>
    </g>
  </g>
</svg>
