<svg id="Layer_1" data-name="Layer 1" xmlns="http://www.w3.org/2000/svg" viewBox="0 0 30 30"><defs><style>.cls-1{fill:none;}.cls-2{fill:#002e5d;}</style></defs><title>100_Hour_Board30</title><path class="cls-1" d="M11,2.5H30v25H0V12.1a.3.3,0,0,1,.1.2,6.6,6.6,0,0,0,1.7,4,1.9,1.9,0,0,1,.5,1.6,15.5,15.5,0,0,0,0,4.8c.1.5.1,1,.2,1.6l.7-1a8.1,8.1,0,0,1,3.7-3.4h.5a10.8,10.8,0,0,0,4,.2l1.4-.2h0a.4.4,0,0,1-.1-.3,6.9,6.9,0,0,1-.7-5.4,8.6,8.6,0,0,1,5.9-5.8l1.6-.5-.2-.3a9.6,9.6,0,0,0-6.6-4.7ZM27.4,27.4a.9.9,0,0,0,.1-.5,21.8,21.8,0,0,0,.2-5.7l.2-.4a6.7,6.7,0,0,0,2-4.1,6.8,6.8,0,0,0-2.5-5.9A9.9,9.9,0,0,0,16.6,10a7.1,7.1,0,0,0-3.7,5.3,6.6,6.6,0,0,0,2.8,6.2A9.9,9.9,0,0,0,23,23.2c.1-.1.4,0,.5.1l1.8,1.2A10.3,10.3,0,0,1,27.4,27.4Z"/><path class="cls-2" d="M11,2.5l1.7.3a9.6,9.6,0,0,1,6.6,4.7l.2.3-1.6.5A8.6,8.6,0,0,0,12,14.1a6.9,6.9,0,0,0,.7,5.4.4.4,0,0,0,.1.3h0l-1.4.2a10.8,10.8,0,0,1-4-.2H6.9a8.1,8.1,0,0,0-3.7,3.4l-.7,1c-.1-.6-.1-1.1-.2-1.6a15.5,15.5,0,0,1,0-4.8,1.9,1.9,0,0,0-.5-1.6,6.6,6.6,0,0,1-1.7-4,.3.3,0,0,0-.1-.2V10.4A7.5,7.5,0,0,1,1,7.5,9.6,9.6,0,0,1,7.7,2.8l1.6-.3Z"/><path class="cls-1" d="M9.3,2.5l-1.6.3A9.6,9.6,0,0,0,1,7.5a7.5,7.5,0,0,0-.9,2.9V2.5Z"/><path class="cls-2" d="M27.4,27.4a10.3,10.3,0,0,0-2.1-2.9l-1.8-1.2c-.1-.1-.4-.2-.5-.1a9.9,9.9,0,0,1-7.3-1.7,6.6,6.6,0,0,1-2.8-6.2A7.1,7.1,0,0,1,16.6,10a9.9,9.9,0,0,1,10.8.8,6.8,6.8,0,0,1,2.5,5.9,6.7,6.7,0,0,1-2,4.1l-.2.4a21.8,21.8,0,0,1-.2,5.7A.9.9,0,0,1,27.4,27.4Z"/></svg>