<svg id="Layer_1" data-name="Layer 1" xmlns="http://www.w3.org/2000/svg" viewBox="0 0 72 72"><defs><style>.cls-1{fill:none;}.cls-2{fill:#002e5d;}</style></defs><title>100_Hour_Board72</title><path class="cls-1" d="M26.5,6H72V66H0V29l.2.4a17.7,17.7,0,0,0,4.2,9.8A4.1,4.1,0,0,1,5.5,43a43.5,43.5,0,0,0,0,11.4c.1,1.2.4,2.5.6,3.9l1.5-2.5a20.1,20.1,0,0,1,9-8,1.9,1.9,0,0,1,1.3-.1,29.6,29.6,0,0,0,9.4.6l3.4-.6v-.2l-.3-.7a17.2,17.2,0,0,1-1.5-13.1c2.1-7,7.2-11.4,14.1-13.9l3.8-1-.5-.9c-3.5-6.1-9-9.6-15.9-11.2ZM65.8,65.8a6,6,0,0,0,.2-1.2,52.3,52.3,0,0,0,.5-13.7,2.5,2.5,0,0,1,.4-1.1,15.9,15.9,0,0,0,4.9-9.7A15.6,15.6,0,0,0,65.7,26a23,23,0,0,0-25.8-2c-5,2.9-8.2,7-8.9,12.7s1.8,11.1,6.8,14.8,11,5,17.3,4.1a2.5,2.5,0,0,1,1.3.2,33.6,33.6,0,0,1,4.3,3.1A27.5,27.5,0,0,1,65.8,65.8Z"/><path class="cls-2" d="M26.5,6l3.9.7c6.9,1.6,12.4,5.1,15.9,11.2l.5.9-3.8,1c-6.9,2.5-12,6.9-14.1,13.9a17.2,17.2,0,0,0,1.5,13.1l.3.7v.2l-3.4.6a29.6,29.6,0,0,1-9.4-.6,1.9,1.9,0,0,0-1.3.1,20.1,20.1,0,0,0-9,8L6.1,58.3c-.2-1.4-.5-2.7-.6-3.9A43.5,43.5,0,0,1,5.5,43a4.1,4.1,0,0,0-1.1-3.8A17.7,17.7,0,0,1,.2,29.4L0,29V25.5A1.7,1.7,0,0,0,.2,25a19.1,19.1,0,0,1,2.2-7C6,11.9,11.5,8.3,18.5,6.7L22.3,6Z"/><path class="cls-1" d="M22.3,6l-3.8.7C11.5,8.3,6,11.9,2.4,18A19.1,19.1,0,0,0,.2,25a1.7,1.7,0,0,1-.2.5V6Z"/><path class="cls-2" d="M65.8,65.8a27.5,27.5,0,0,0-5.1-6.9,33.6,33.6,0,0,0-4.3-3.1,2.5,2.5,0,0,0-1.3-.2c-6.3.9-12.2-.2-17.3-4.1S30.3,42.9,31,36.7s3.9-9.8,8.9-12.7a23,23,0,0,1,25.8,2,15.6,15.6,0,0,1,6.1,14.1,15.9,15.9,0,0,1-4.9,9.7,2.5,2.5,0,0,0-.4,1.1A52.3,52.3,0,0,1,66,64.6,6,6,0,0,1,65.8,65.8Z"/></svg>