<svg id="Layer_1" data-name="Layer 1" xmlns="http://www.w3.org/2000/svg" viewBox="0 0 30 30"><defs><style>.cls-1{fill:#002e5d;}.cls-2{fill:none;}</style></defs><title>Academic_Calendar30</title><path class="cls-1" d="M1.6,25.9V6A4.1,4.1,0,0,1,5.3,2.3H7.7q.5,0,.3-.3V1.1A1.1,1.1,0,0,1,9.1.1H10a1.1,1.1,0,0,1,1.2,1.2v.9h2.2v-1a1,1,0,0,1,1-1.1h1a1,1,0,0,1,1.1,1.1,3.4,3.4,0,0,1,0,1h2.2v-1A1,1,0,0,1,19.8.1h1a1,1,0,0,1,1.1,1.1v1h2a4.4,4.4,0,0,1,4.4,4.4c-.1,6.4,0,12.7,0,19a3.7,3.7,0,0,1-.3,1.5,4,4,0,0,1-4.1,2.8H5.7a4.2,4.2,0,0,1-4-3.3C1.7,26.4,1.6,26.2,1.6,25.9ZM16.5,5.4a4.1,4.1,0,0,1,0,1.1.9.9,0,0,1-1,1H14.4a.9.9,0,0,1-1-1V5.6s-.1-.2-.2-.2h-2v1a1,1,0,0,1-1.1,1.1h-1A1.1,1.1,0,0,1,8,6.5V5.7q.1-.3-.3-.3H6.1c-.9,0-1.3.4-1.3,1.2v19a1.1,1.1,0,0,0,1.1,1.2H24a1.1,1.1,0,0,0,.9-.5,2.9,2.9,0,0,0,.2-.9V6.5A1,1,0,0,0,24,5.4H22.1c-.2,0-.2.1-.2.3v.8a1,1,0,0,1-1,1H19.8a1,1,0,0,1-1.1-1.1v-1Z"/><path class="cls-2" d="M1.6,25.9c0,.3.1.5.1.7a4.2,4.2,0,0,0,4,3.3H23.9A4,4,0,0,0,28,27.1a3.7,3.7,0,0,0,.3-1.5c0-6.3-.1-12.6,0-19a4.4,4.4,0,0,0-4.4-4.4h-2v-1A1,1,0,0,0,20.8.1h-1a1,1,0,0,0-1.1,1.1v1H16.5a3.4,3.4,0,0,0,0-1A1,1,0,0,0,15.4.1h-1a1,1,0,0,0-1,1.1v1H11.2V1.3A1.1,1.1,0,0,0,10,.1H9.1A1.1,1.1,0,0,0,8,1.1v.8q.1.3-.3.3H5.3A4.1,4.1,0,0,0,1.7,6V0H28.4V30H1.6Z"/><path class="cls-2" d="M16.5,5.4h2.2v1a1,1,0,0,0,1.1,1.1h1.1a1,1,0,0,0,1-1V5.7c0-.2,0-.3.2-.3H24a1,1,0,0,1,1.1,1.1V25.4a2.9,2.9,0,0,1-.2.9,1.1,1.1,0,0,1-.9.5H5.9a1.1,1.1,0,0,1-1.1-1.2V6.6c0-.8.4-1.2,1.3-1.2H7.7q.5,0,.3.3v.8a1.1,1.1,0,0,0,1.1,1h1a1,1,0,0,0,1.1-1.1v-1h2c.1,0,.2.2.2.2v.9a.9.9,0,0,0,1,1h1.1a.9.9,0,0,0,1-1A4.1,4.1,0,0,0,16.5,5.4ZM9.9,17c.3,0,.6-.1.8,0a2.2,2.2,0,0,1,1.4.3,1.5,1.5,0,0,1,.7,1.4,1.4,1.4,0,0,1-.9,1.1,2.6,2.6,0,0,1-1.5.1l-1.8-.5-.3,1.4c-.1.4,0,.5.3.6a5.7,5.7,0,0,0,3.4.5,3.4,3.4,0,0,0,2.5-1.3,2.8,2.8,0,0,0-1.3-4.5H13l.3-.2a2.4,2.4,0,0,0,1.5-2.6,2.2,2.2,0,0,0-1.7-2.1,4.7,4.7,0,0,0-1.7-.3,5.8,5.8,0,0,0-2.6.6l-.3.3a10.5,10.5,0,0,1,.4,1.7l.9-.4a2.8,2.8,0,0,1,2-.1,1.1,1.1,0,0,1,.7.9c0,.5-.1.9-.5,1l-1.3.4H9.9Zm10.9-6H18.7l-2.2,1.1c-.1,0-.2.2-.2.2a11.6,11.6,0,0,0,.4,1.8l1.9-1v8.4a.2.2,0,0,0,.2.2h2Z"/><path class="cls-1" d="M9.9,17V15.2h.8l1.3-.4c.4-.1.5-.5.5-1a1.1,1.1,0,0,0-.7-.9,2.8,2.8,0,0,0-2,.1l-.9.4a10.5,10.5,0,0,0-.4-1.7l.3-.3a5.8,5.8,0,0,1,2.6-.6,4.7,4.7,0,0,1,1.7.3,2.2,2.2,0,0,1,1.7,2.1,2.4,2.4,0,0,1-1.5,2.6L13,16h.2a2.8,2.8,0,0,1,1.3,4.5A3.4,3.4,0,0,1,12,21.9a5.7,5.7,0,0,1-3.4-.5c-.3-.1-.4-.2-.3-.6l.3-1.4,1.8.5a2.6,2.6,0,0,0,1.5-.1,1.4,1.4,0,0,0,.9-1.1,1.5,1.5,0,0,0-.7-1.4,2.2,2.2,0,0,0-1.4-.3C10.5,16.9,10.2,17,9.9,17Z"/><path class="cls-1" d="M20.8,11V21.8h-2a.2.2,0,0,1-.2-.2V13.2l-1.9,1a11.6,11.6,0,0,1-.4-1.8s.1-.2.2-.2l2.2-1.1h2.1Z"/></svg>