<svg id="Layer_1" data-name="Layer 1" xmlns="http://www.w3.org/2000/svg" viewBox="0 0 72 72"><defs><style>.cls-1{fill:#002e5d;}.cls-2{fill:none;}</style></defs><title>Academic_Calendar72</title><path class="cls-1" d="M3.8,62.3V15a1.4,1.4,0,0,0,.2-.7,10.1,10.1,0,0,1,8.7-8.8,56.2,56.2,0,0,1,5.8-.2c.7,0,.9-.2.8-.8V2.7A2.5,2.5,0,0,1,21.8.2h2.1c2.1,0,3,1,3,3v2h5.2V2.9A2.5,2.5,0,0,1,34.7.2h2.4a2.5,2.5,0,0,1,2.6,2.7V5.3h5.2V2.8A2.5,2.5,0,0,1,47.5.2h2.3a2.5,2.5,0,0,1,2.7,2.7V5.3h4.8A10.4,10.4,0,0,1,67.9,15.9c-.1,15.2,0,30.4-.1,45.6a11.9,11.9,0,0,1-.6,3.7,10.3,10.3,0,0,1-9.9,6.7H18c-1.4,0-2.8.1-4.3,0a9.9,9.9,0,0,1-9.5-8A8.3,8.3,0,0,1,3.8,62.3ZM39.7,13v2.5A2.4,2.4,0,0,1,37.2,18a12.2,12.2,0,0,1-2.7,0,2.3,2.3,0,0,1-2.4-2.4V13.5c0-.2-.2-.5-.4-.5H26.9a17.6,17.6,0,0,1,0,2.3A2.4,2.4,0,0,1,24.2,18a9.6,9.6,0,0,1-2.4,0,2.4,2.4,0,0,1-2.5-2.4V13.7c0-.6-.2-.8-.7-.8h-4a2.7,2.7,0,0,0-3,3V61.4a2.5,2.5,0,0,0,2.6,2.8H57.7a2,2,0,0,0,2-1.1,3.5,3.5,0,0,0,.5-2c.1-15,.1-30,.1-45v-.5a2.7,2.7,0,0,0-2.7-2.7H53.1c-.5,0-.6.2-.6.7v2A2.3,2.3,0,0,1,50.1,18a11.3,11.3,0,0,1-2.6,0,2.4,2.4,0,0,1-2.6-2.6V13Z"/><path class="cls-2" d="M3.8,62.3a8.3,8.3,0,0,0,.4,1.5,9.9,9.9,0,0,0,9.5,8c1.5.1,2.9,0,4.3,0H57.3a10.3,10.3,0,0,0,9.9-6.7,11.9,11.9,0,0,0,.6-3.7c.1-15.2,0-30.4.1-45.6A10.4,10.4,0,0,0,57.3,5.3H52.5V2.9A2.5,2.5,0,0,0,49.8.2H47.5a2.5,2.5,0,0,0-2.6,2.6V5.3H39.7V2.9A2.5,2.5,0,0,0,37.1.2H34.7a2.5,2.5,0,0,0-2.6,2.7V5.2H26.9v-2c0-2-.9-3-3-3H21.8a2.5,2.5,0,0,0-2.5,2.5V4.5c.1.6-.1.8-.8.8a56.2,56.2,0,0,0-5.8.2A10.1,10.1,0,0,0,4,14.3a1.4,1.4,0,0,1-.2.7V0H68.2V72H3.8Z"/><path class="cls-2" d="M39.7,13h5.2v2.4A2.4,2.4,0,0,0,47.5,18a11.3,11.3,0,0,0,2.6,0,2.3,2.3,0,0,0,2.4-2.4v-2c0-.5.1-.7.6-.7h4.5a2.7,2.7,0,0,1,2.7,2.7v.5c0,15,0,30-.1,45a3.5,3.5,0,0,1-.5,2,2,2,0,0,1-2,1.1H14.2a2.5,2.5,0,0,1-2.6-2.8V15.9a2.7,2.7,0,0,1,3-3h4c.5,0,.7.2.7.8v1.9A2.4,2.4,0,0,0,21.8,18a9.6,9.6,0,0,0,2.4,0,2.4,2.4,0,0,0,2.7-2.7,17.6,17.6,0,0,0,0-2.3h4.8c.2,0,.4.3.4.5v2.1A2.3,2.3,0,0,0,34.5,18a12.2,12.2,0,0,0,2.7,0,2.4,2.4,0,0,0,2.5-2.5Zm-16,27.7h2.1a5.7,5.7,0,0,1,3.3.9,3.3,3.3,0,0,1,1.6,3.2,3.3,3.3,0,0,1-2.1,2.7,5.3,5.3,0,0,1-3.7.3c-1.4-.3-2.7-.8-4.2-1.2a23.4,23.4,0,0,1-.9,3.3c-.2.9.1,1.2.8,1.5a14.5,14.5,0,0,0,8.2,1.1,9.1,9.1,0,0,0,6.1-3.1c2.6-3.3,2.1-9.3-3.2-10.8l-.4-.2L32,38a6,6,0,0,0,3.6-6.3,5.8,5.8,0,0,0-4.2-5.1,14.1,14.1,0,0,0-4.1-.7A12.8,12.8,0,0,0,21,27.5c-.2.1-.5.4-.5.6s.6,2.7,1,4c.8-.3,1.4-.7,2.1-.9a7.3,7.3,0,0,1,4.6-.3A2.6,2.6,0,0,1,30,33.2a2.2,2.2,0,0,1-1.3,2.4,14.7,14.7,0,0,1-3,.8,13.3,13.3,0,0,1-2,0ZM49.9,26.4H45l-5.4,2.8c-.2.1-.5.4-.4.6s.5,2.7.8,4.1l4.6-2.3V51.8c.1.2.3.5.4.5h4.9Z"/><path class="cls-1" d="M23.7,40.7V36.4a13.3,13.3,0,0,0,2,0,14.7,14.7,0,0,0,3-.8A2.2,2.2,0,0,0,30,33.2a2.6,2.6,0,0,0-1.8-2.3,7.3,7.3,0,0,0-4.6.3c-.7.2-1.3.6-2.1.9-.4-1.3-.7-2.7-1-4s.3-.5.5-.6a12.8,12.8,0,0,1,6.3-1.6,14.1,14.1,0,0,1,4.1.7,5.8,5.8,0,0,1,4.2,5.1A6,6,0,0,1,32,38l-.7.4.4.2c5.3,1.5,5.8,7.5,3.2,10.8a9.1,9.1,0,0,1-6.1,3.1,14.5,14.5,0,0,1-8.2-1.1c-.7-.3-1-.6-.8-1.5a23.4,23.4,0,0,0,.9-3.3c1.5.4,2.8.9,4.2,1.2a5.3,5.3,0,0,0,3.7-.3,3.3,3.3,0,0,0,2.1-2.7,3.3,3.3,0,0,0-1.6-3.2,5.7,5.7,0,0,0-3.3-.9Z"/><path class="cls-1" d="M49.9,26.4V52.3H45c-.1,0-.3-.3-.4-.5V31.7L40,34c-.3-1.4-.6-2.8-.8-4.1s.2-.5.4-.6L45,26.5h4.9Z"/></svg>