<svg id="Layer_1" data-name="Layer 1" xmlns="http://www.w3.org/2000/svg" viewBox="0 0 30 30"><defs><style>.cls-1{fill:#002e5d;}.cls-2{fill:none;}</style></defs><title>Arts_and_Entertainment_Calendar30</title><path class="cls-1" d="M28.8,15.3v.9a12.9,12.9,0,0,1-2.1,6.7,14.4,14.4,0,0,1-6.3,5.4,14.9,14.9,0,0,1-10.2,1.1,7.3,7.3,0,0,1-3.7-1.9,7.2,7.2,0,0,1-2.1-5.3,4,4,0,0,1,1.2-2.9l.9-.8a3,3,0,0,0,1.1-2.3A1.3,1.3,0,0,0,7,14.9l-.9-.5L4,13.4a4.2,4.2,0,0,1-2.6-3.3,5.9,5.9,0,0,1,.4-3.7,8.6,8.6,0,0,1,4-4.2A16,16,0,0,1,16.1.4a14.1,14.1,0,0,1,8.5,4.2,15.1,15.1,0,0,1,4.2,10ZM17.1,21.4A3.1,3.1,0,0,0,14,18.2a3.2,3.2,0,0,0-3.3,3.2,3.3,3.3,0,0,0,3.2,3.2A3.2,3.2,0,0,0,17.1,21.4ZM14,8.7a2.1,2.1,0,0,0,2.1-2.2A2.1,2.1,0,0,0,14,4.4a2.1,2.1,0,0,0-2.1,2.1A2.2,2.2,0,0,0,14,8.7Zm5.3,2.1a2.1,2.1,0,0,0,2.1-2.1,2.2,2.2,0,0,0-2.1-2.2,2.1,2.1,0,0,0-2.1,2.2A2,2,0,0,0,19.3,10.8ZM6.6,8.6a2.1,2.1,0,0,0,2.1,2.1,2,2,0,0,0,2.1-2.1A2.1,2.1,0,0,0,8.7,6.5,2.1,2.1,0,0,0,6.6,8.6Zm18,5.4a2.1,2.1,0,0,0-2.2-2.1,2.1,2.1,0,1,0,0,4.2A2.1,2.1,0,0,0,24.6,14Z"/><path class="cls-2" d="M28.8,15.3v-.7a15.1,15.1,0,0,0-4.2-10A14.1,14.1,0,0,0,16.1.4,16,16,0,0,0,5.8,2.2a8.6,8.6,0,0,0-4,4.2,5.9,5.9,0,0,0-.4,3.7A4.2,4.2,0,0,0,4,13.4l2.1,1,.9.5a1.3,1.3,0,0,1,.6,1.3,3,3,0,0,1-1.1,2.3l-.9.8a4,4,0,0,0-1.2,2.9,7.2,7.2,0,0,0,2.1,5.3,7.3,7.3,0,0,0,3.7,1.9,14.9,14.9,0,0,0,10.2-1.1,14.4,14.4,0,0,0,6.3-5.4,12.9,12.9,0,0,0,2.1-6.7V30L1.1,29.8V0L28.9.2Z"/><path class="cls-2" d="M17.1,21.4a3.2,3.2,0,0,1-3.2,3.2,3.3,3.3,0,0,1-3.2-3.2A3.2,3.2,0,0,1,14,18.2,3.1,3.1,0,0,1,17.1,21.4Zm-1.1,0a2.1,2.1,0,0,0-2.1-2.1,2.1,2.1,0,0,0,0,4.2A2.1,2.1,0,0,0,16,21.4Z"/><path class="cls-2" d="M14,8.7a2.2,2.2,0,0,1-2.1-2.2A2.1,2.1,0,0,1,14,4.4a2.1,2.1,0,0,1,2.1,2.1A2.1,2.1,0,0,1,14,8.7Zm1-2.2a1,1,0,0,0-2,0,1,1,0,0,0,1,1.1A1,1,0,0,0,15,6.5Z"/><path class="cls-2" d="M19.3,10.8a2,2,0,0,1-2.1-2.1,2.1,2.1,0,0,1,2.1-2.2,2.2,2.2,0,0,1,2.1,2.2A2.1,2.1,0,0,1,19.3,10.8Zm-1-2.1a.9.9,0,0,0,1,1,1.1,1.1,0,0,0,1.1-1,1.1,1.1,0,0,0-1.1-1.1A1,1,0,0,0,18.3,8.7Z"/><path class="cls-2" d="M6.6,8.6A2.1,2.1,0,0,1,8.7,6.5a2.1,2.1,0,0,1,2.1,2.1,2,2,0,0,1-2.1,2.1A2.1,2.1,0,0,1,6.6,8.6ZM8.7,9.7a1,1,0,0,0,1-1.1.9.9,0,0,0-1-1c-.6,0-1.1.4-1,1A1,1,0,0,0,8.7,9.7Z"/><path class="cls-2" d="M24.6,14a2.1,2.1,0,0,1-2.2,2.1,2.1,2.1,0,1,1,0-4.2A2.1,2.1,0,0,1,24.6,14Zm-1.1,0a1,1,0,0,0-1.1-1,.9.9,0,0,0-1,1,1.1,1.1,0,0,0,1.1,1.1A1.2,1.2,0,0,0,23.5,14Z"/><path class="cls-1" d="M16,21.4a2.1,2.1,0,0,1-2.1,2.1,2.1,2.1,0,0,1,0-4.2A2.1,2.1,0,0,1,16,21.4Z"/><path class="cls-1" d="M15,6.5a1,1,0,0,1-1,1.1,1,1,0,0,1-1-1.1,1,1,0,0,1,2,0Z"/><path class="cls-1" d="M18.3,8.7a1,1,0,0,1,1-1.1,1.1,1.1,0,0,1,1.1,1.1,1.1,1.1,0,0,1-1.1,1A.9.9,0,0,1,18.3,8.7Z"/><path class="cls-1" d="M8.7,9.7a1,1,0,0,1-1-1.1c-.1-.6.4-1,1-1a.9.9,0,0,1,1,1A1,1,0,0,1,8.7,9.7Z"/><path class="cls-1" d="M23.5,14a1.2,1.2,0,0,1-1,1.1A1.1,1.1,0,0,1,21.4,14a.9.9,0,0,1,1-1A1,1,0,0,1,23.5,14Z"/></svg>