<svg id="Layer_1" data-name="Layer 1" xmlns="http://www.w3.org/2000/svg" viewBox="0 0 72 72"><defs><style>.cls-1{fill:#002e5d;}.cls-2{fill:none;}</style></defs><title>Arts_and_Entertainment_Calendar72</title><path class="cls-1" d="M69.2,36.7v1.5c-.1.2-.1.5-.2.8a30.4,30.4,0,0,1-4.9,16,34.8,34.8,0,0,1-15,12.9,36.1,36.1,0,0,1-24.6,2.7,18.2,18.2,0,0,1-9-4.7c-3.6-3.4-5-7.7-5-12.6a9.9,9.9,0,0,1,2.9-6.9l2.3-2.1a7.2,7.2,0,0,0,2.6-5.5,3.3,3.3,0,0,0-1.6-3.1,11.3,11.3,0,0,0-2.1-1.2l-5-2.2c-3.3-1.7-5.7-4.2-6.4-8.1a16.6,16.6,0,0,1,1.2-8.8A20.7,20.7,0,0,1,14,5.2,39.1,39.1,0,0,1,38.6.8,34.4,34.4,0,0,1,58.9,11c6.6,6.7,9.7,14.9,10.1,24.1C69.1,35.7,69.1,36.2,69.2,36.7ZM41,51.3a7.6,7.6,0,0,0-7.5-7.7A7.7,7.7,0,1,0,41,51.3ZM33.5,20.8a5.1,5.1,0,1,0-5-5.1A5.1,5.1,0,0,0,33.5,20.8Zm12.8,5.1a5,5,0,0,0,5.1-5,5.1,5.1,0,1,0-10.2-.1A5,5,0,0,0,46.3,25.9ZM15.8,20.6a5,5,0,0,0,5,5.2,5.1,5.1,0,1,0,.1-10.2A5,5,0,0,0,15.8,20.6ZM59,33.6a5.1,5.1,0,0,0-5.1-5.1,5,5,0,0,0-5.1,5.1,5.1,5.1,0,0,0,5.1,5.1A5.1,5.1,0,0,0,59,33.6Z"/><path class="cls-2" d="M69.2,36.7c-.1-.5-.1-1-.2-1.6-.4-9.2-3.5-17.4-10.1-24.1A34.4,34.4,0,0,0,38.6.8,39.1,39.1,0,0,0,14,5.2,20.7,20.7,0,0,0,4.4,15.4a16.6,16.6,0,0,0-1.2,8.8c.7,3.9,3.1,6.4,6.4,8.1l5,2.2a11.3,11.3,0,0,1,2.1,1.2,3.3,3.3,0,0,1,1.6,3.1,7.2,7.2,0,0,1-2.6,5.5l-2.3,2.1a9.9,9.9,0,0,0-2.9,6.9c0,4.9,1.4,9.2,5,12.6a18.2,18.2,0,0,0,9,4.7,36.1,36.1,0,0,0,24.6-2.7A34.8,34.8,0,0,0,64.1,55,30.4,30.4,0,0,0,69,39c.1-.3.1-.6.2-.8L69,72,2.6,71.6,3,0,69.4.4Z"/><path class="cls-2" d="M41,51.3a7.6,7.6,0,1,1-7.5-7.7A7.6,7.6,0,0,1,41,51.3Zm-2.6,0a4.9,4.9,0,0,0-4.9-5.1,5.1,5.1,0,0,0-5.1,5.1,5,5,0,1,0,10,0Z"/><path class="cls-2" d="M33.5,20.8a5.1,5.1,0,1,1,5.2-5.1A5.1,5.1,0,0,1,33.5,20.8Zm2.6-5.1a2.5,2.5,0,1,0-2.5,2.5A2.5,2.5,0,0,0,36.1,15.7Z"/><path class="cls-2" d="M46.3,25.9a5,5,0,0,1-5.1-5.1,5.1,5.1,0,1,1,10.2.1A5,5,0,0,1,46.3,25.9Zm-2.5-5.1a2.4,2.4,0,0,0,2.5,2.5,2.5,2.5,0,0,0,2.5-2.4,2.5,2.5,0,1,0-5-.1Z"/><path class="cls-2" d="M15.8,20.6a5,5,0,0,1,5.1-5,5.1,5.1,0,1,1-.1,10.2A5,5,0,0,1,15.8,20.6Zm5.1,2.6a2.5,2.5,0,0,0,2.5-2.5,2.5,2.5,0,0,0-2.5-2.5,2.5,2.5,0,0,0,0,5Z"/><path class="cls-2" d="M59,33.6a5.1,5.1,0,0,1-5.1,5.1,5.1,5.1,0,0,1-5.1-5.1,5,5,0,0,1,5.1-5.1A5.1,5.1,0,0,1,59,33.6Zm-2.6,0a2.5,2.5,0,0,0-2.5-2.5,2.5,2.5,0,1,0,0,5A2.5,2.5,0,0,0,56.4,33.6Z"/><path class="cls-1" d="M38.4,51.3a5,5,0,1,1-10,0,5.1,5.1,0,0,1,5.1-5.1A4.9,4.9,0,0,1,38.4,51.3Z"/><path class="cls-1" d="M36.1,15.7a2.5,2.5,0,1,1-2.5-2.5A2.5,2.5,0,0,1,36.1,15.7Z"/><path class="cls-1" d="M43.8,20.8a2.5,2.5,0,1,1,2.5,2.5A2.4,2.4,0,0,1,43.8,20.8Z"/><path class="cls-1" d="M20.9,23.2a2.5,2.5,0,0,1,0-5,2.5,2.5,0,0,1,2.5,2.5A2.5,2.5,0,0,1,20.9,23.2Z"/><path class="cls-1" d="M56.4,33.6a2.5,2.5,0,0,1-5,.1,2.4,2.4,0,0,1,2.5-2.6A2.5,2.5,0,0,1,56.4,33.6Z"/></svg>