<svg id="Layer_1" data-name="Layer 1" xmlns="http://www.w3.org/2000/svg" viewBox="0 0 72 72"><defs><style>.cls-1{fill:none;}.cls-2{fill:#002e5d;}</style></defs><title>Athletics_Calendar72</title><path class="cls-1" d="M37.3,72H34.7c-.1-1.7,0-3.4-.2-5.1a32,32,0,0,0-8.2-18.3l-.2-.4L11.8,62.5h.1a35.3,35.3,0,0,0,20.3,9.1l2.3.3H0V0H72V34.4l-.3-2.8a35.6,35.6,0,0,0-9-19.5l-.2-.3L48.3,26l.5.5a36.8,36.8,0,0,0,7.7,5.1A33.1,33.1,0,0,0,72,34.7v2.6a35.3,35.3,0,0,1-25.6-9.4l-8.2,8.2L62.4,60.4h.1a35.2,35.2,0,0,0,9.2-20.1l.3-2.5V72H37.6l2.3-.3a34.5,34.5,0,0,0,18.4-7.5l2.1-1.8L36.1,38.1l-8.3,8.2C34.3,53.6,37.7,62.1,37.3,72ZM34.1,36.1,9.7,11.7A35.8,35.8,0,0,0,.2,34.8a36,36,0,0,1,25.6,9.5ZM11.8,9.7Q24.1,21.9,36.1,34l8.2-8.2A35.7,35.7,0,0,1,34.8.3C27.6,0,16,4.7,11.8,9.7Zm48.6.1C55.6,4.6,43.4-.5,37.5.3c-1.3,6,4,20.3,8.8,23.6ZM24,46.2l-.8-.7A32.9,32.9,0,0,0,5.8,37.7c-1.6-.2-3.2-.2-4.8-.3s-.8.2-.7.8a8.6,8.6,0,0,1,.1,1.6A34.7,34.7,0,0,0,7.7,58l2,2.4Z"/><path class="cls-2" d="M37.3,72c.4-9.9-3-18.4-9.5-25.7l8.3-8.2L60.4,62.4l-2.1,1.8a34.5,34.5,0,0,1-18.4,7.5l-2.3.3Z"/><path class="cls-2" d="M72,37.7l-.3,2.5a35.2,35.2,0,0,1-9.2,20.1h-.1L38.2,36.1l8.2-8.2A35.3,35.3,0,0,0,72,37.3Z"/><path class="cls-2" d="M72,34.7a33.1,33.1,0,0,1-15.5-3.1,36.8,36.8,0,0,1-7.7-5.1l-.5-.5L62.5,11.8l.2.3a35.6,35.6,0,0,1,9,19.5l.3,2.8Z"/><path class="cls-2" d="M34.5,72l-2.3-.3a35.3,35.3,0,0,1-20.3-9.1h-.1L26.1,48.2l.2.4a32,32,0,0,1,8.2,18.3c.2,1.7.1,3.4.2,5.1Z"/><path class="cls-2" d="M34.1,36.1l-8.3,8.2A36,36,0,0,0,.2,34.8,35.8,35.8,0,0,1,9.7,11.7Z"/><path class="cls-2" d="M11.8,9.7C16,4.7,27.6,0,34.8.3a35.7,35.7,0,0,0,9.5,25.5L36.1,34Q24.1,21.8,11.8,9.7Z"/><path class="cls-2" d="M60.4,9.8,46.3,23.9C41.5,20.6,36.2,6.3,37.5.3,43.4-.5,55.6,4.6,60.4,9.8Z"/><path class="cls-2" d="M24,46.2,9.7,60.4,7.7,58A34.7,34.7,0,0,1,.4,39.8a8.6,8.6,0,0,0-.1-1.6c-.1-.6.2-.9.7-.8s3.2.1,4.8.3a32.9,32.9,0,0,1,17.4,7.8Z"/></svg>