<svg id="Layer_1" data-name="Layer 1" xmlns="http://www.w3.org/2000/svg" viewBox="0 0 30 30"><defs><style>.cls-1{fill:none;}.cls-2{fill:#002e5d;}</style></defs><title>Athletics_Calendar30</title><path class="cls-1" d="M15.6,30H14.4a14.7,14.7,0,0,0,0-2.1A13.9,13.9,0,0,0,11,20.2h-.1L4.9,26a.1.1,0,0,0,.1.1,15.4,15.4,0,0,0,8.4,3.8H0V0H30V14.3c0-.4-.1-.8-.1-1.1A15.2,15.2,0,0,0,26.1,5H26l-5.9,5.9.2.2a12.6,12.6,0,0,0,3.2,2.1A12.3,12.3,0,0,0,30,14.4v1.1a14.5,14.5,0,0,1-10.7-3.9l-3.4,3.5L26,25.2h.1a15.4,15.4,0,0,0,3.8-8.4c0-.3.1-.6.1-1V30H16.6a15.4,15.4,0,0,0,7.7-3.1l.9-.8L15,15.9l-3.4,3.4A15,15,0,0,1,15.6,30ZM14.2,15,4,4.9A15.3,15.3,0,0,0,.1,14.5a15,15,0,0,1,10.7,4ZM4.9,4,15.1,14.2l3.4-3.5A14.8,14.8,0,0,1,14.5.1C11.5,0,6.7,2,4.9,4Zm20.3.1c-2-2.2-7.1-4.3-9.6-4-.5,2.5,1.7,8.5,3.7,9.9ZM10,19.2l-.3-.3a15.1,15.1,0,0,0-7.3-3.2H.4c-.2,0-.3,0-.3.3a1.7,1.7,0,0,0,.1.7,15.3,15.3,0,0,0,3,7.6l.8,1Z"/><path class="cls-2" d="M15.6,30a15,15,0,0,0-4-10.7L15,15.9,25.2,26l-.9.8a15.4,15.4,0,0,1-7.7,3.1h-1Z"/><path class="cls-2" d="M30,15.7c0,.4-.1.7-.1,1a15.4,15.4,0,0,1-3.8,8.4H26L15.9,15.1l3.4-3.5A14.5,14.5,0,0,0,30,15.5Z"/><path class="cls-2" d="M30,14.4a12.3,12.3,0,0,1-6.5-1.3A12.6,12.6,0,0,1,20.3,11l-.2-.2L26,4.9h.1a15.2,15.2,0,0,1,3.8,8.2c0,.3.1.7.1,1.1Z"/><path class="cls-2" d="M14.4,30h-1A15.4,15.4,0,0,1,5,26.1a.1.1,0,0,1-.1-.1l6-5.9H11a13.9,13.9,0,0,1,3.4,7.7,14.7,14.7,0,0,1,0,2.1Z"/><path class="cls-2" d="M14.2,15l-3.4,3.5a15,15,0,0,0-10.7-4A15.3,15.3,0,0,1,4,4.9Z"/><path class="cls-2" d="M4.9,4C6.7,2,11.5,0,14.5.1a14.8,14.8,0,0,0,4,10.6l-3.4,3.5Z"/><path class="cls-2" d="M25.2,4.1,19.3,10c-2-1.4-4.2-7.4-3.7-9.9C18.1-.2,23.2,1.9,25.2,4.1Z"/><path class="cls-2" d="M10,19.2l-6,6-.8-1a15.3,15.3,0,0,1-3-7.6,1.7,1.7,0,0,1-.1-.7c0-.3.1-.3.3-.3h2a15.1,15.1,0,0,1,7.3,3.2Z"/></svg>