<svg id="Layer_1" data-name="Layer 1" xmlns="http://www.w3.org/2000/svg" viewBox="0 0 30 30"><defs><style>.cls-1{fill:#002e5d;}.cls-2{fill:none;}</style></defs><title>Beard_Exception30</title><path class="cls-1" d="M28.4,8.8v.9a12.5,12.5,0,0,1-.3,1.9,7,7,0,0,1-2.5,4.5,1.5,1.5,0,0,0-.9,1.4,1.1,1.1,0,0,1-.1.8,10.3,10.3,0,0,1-4.4,6.2h-.5a5.2,5.2,0,0,1-2.1,2.3,6.1,6.1,0,0,0-2.3,2.5L15,30a5.7,5.7,0,0,0-2.8-3.4,5.2,5.2,0,0,1-1.1-1,6.2,6.2,0,0,0-1.4-1.4A9.3,9.3,0,0,1,5.2,17a.8.8,0,0,0-.4-.6,4.4,4.4,0,0,1-1.8-2A10.8,10.8,0,0,1,1.8,7.6a3.9,3.9,0,0,1,2-3.1l.3-.2L3.4,3A3,3,0,0,0,5.6,2,5.8,5.8,0,0,1,8.1.8L10.7.2a3.4,3.4,0,0,1,4.2,2H15a.1.1,0,0,0,.1-.1C16,.5,17-.1,18.8.2s2,.4,3,.6a5.4,5.4,0,0,1,2.9,1.5,3.9,3.9,0,0,0,1.1.6l.8.2-.7,1.2.2.2a4.1,4.1,0,0,1,2.2,3.2C28.3,8.1,28.4,8.5,28.4,8.8Zm-10-2.7-1.3-.3a4.1,4.1,0,0,1-1.9-.5.6.6,0,0,0-.7.1,2.1,2.1,0,0,1-1,.4,3.8,3.8,0,0,0-2.1.4A11.2,11.2,0,0,0,18.4,6.1Z"/><path class="cls-2" d="M28.4,8.8c0-.3-.1-.7-.1-1.1a4.1,4.1,0,0,0-2.2-3.2l-.2-.2.7-1.2-.8-.2a3.9,3.9,0,0,1-1.1-.6A5.4,5.4,0,0,0,21.8.8l-3-.6C17-.1,16,.5,15.1,2.1a.1.1,0,0,1-.1.1h-.1a3.4,3.4,0,0,0-4.2-2L8.1.8A5.8,5.8,0,0,0,5.6,2,3,3,0,0,1,3.4,3l.7,1.3-.3.2a3.9,3.9,0,0,0-2,3.1A10.8,10.8,0,0,0,3,14.4a4.4,4.4,0,0,0,1.8,2,.8.8,0,0,1,.4.6,9.3,9.3,0,0,0,4.5,7.2,6.2,6.2,0,0,1,1.4,1.4,5.2,5.2,0,0,0,1.1,1A5.7,5.7,0,0,1,15,30l.3-.7a6.1,6.1,0,0,1,2.3-2.5,5.2,5.2,0,0,0,2.1-2.3h.5a10.3,10.3,0,0,0,4.4-6.2,1.1,1.1,0,0,0,.1-.8,1.5,1.5,0,0,1,.9-1.4,7,7,0,0,0,2.5-4.5,12.5,12.5,0,0,0,.3-1.9V30H1.6V0H28.4Z"/><path class="cls-2" d="M18.4,6.1a11.2,11.2,0,0,1-7,.1,3.8,3.8,0,0,1,2.1-.4,2.1,2.1,0,0,0,1-.4.6.6,0,0,1,.7-.1,4.1,4.1,0,0,0,1.9.5Z"/></svg>