<svg id="Layer_1" data-name="Layer 1" xmlns="http://www.w3.org/2000/svg" viewBox="0 0 72 72"><defs><style>.cls-1{fill:#002e5d;}.cls-2{fill:none;}</style></defs><title>Beard_Exception72</title><path class="cls-1" d="M68.2,21.2v2c-.2,1.6-.4,3.2-.7,4.7-1,4.2-2.4,8.1-6.2,10.7a3.9,3.9,0,0,0-1.9,3.5,11.3,11.3,0,0,1-.3,1.8C57.7,50.4,53.7,55,48.4,58.7c-.3.2-.8.1-1.2.2a12.1,12.1,0,0,1-5,5.5,13.6,13.6,0,0,0-5.5,5.9L36,71.9c-1-4-3.8-6.1-6.8-8.1a18.4,18.4,0,0,1-2.5-2.3,17.7,17.7,0,0,0-3.4-3.3c-6.2-4.1-10-9.8-10.8-17.4a1.7,1.7,0,0,0-.9-1.4,11.5,11.5,0,0,1-4.5-4.8A27.5,27.5,0,0,1,4.3,18.2a9.2,9.2,0,0,1,4.9-7.3l.7-.5L8.1,7.3a9.1,9.1,0,0,0,5.4-2.5,13.1,13.1,0,0,1,5.9-2.9L25.6.5c4.2-1,8.8.5,10.2,4.7h.3l.2-.3c2-3.8,4.5-5.2,8.8-4.6l7.3,1.5a12.8,12.8,0,0,1,6.9,3.6,7.7,7.7,0,0,0,2.5,1.4,6.5,6.5,0,0,0,2,.4l-1.7,3.1.4.3a9.9,9.9,0,0,1,5.4,7.8Zm-24-6.5a20.2,20.2,0,0,0-3.3-.9,9.6,9.6,0,0,1-4.4-1.1,1.5,1.5,0,0,0-1.7.2,3.5,3.5,0,0,1-2.5.9c-1.7-.2-3.2.4-5,1.2A28.6,28.6,0,0,0,44.2,14.7Z"/><path class="cls-2" d="M68.2,21.2l-.3-2.7a9.9,9.9,0,0,0-5.4-7.8l-.4-.3,1.7-3.1a6.5,6.5,0,0,1-2-.4,7.7,7.7,0,0,1-2.5-1.4,12.8,12.8,0,0,0-6.9-3.6L45.1.4c-4.3-.6-6.8.8-8.8,4.6l-.2.3h-.3C34.4,1,29.8-.5,25.6.5L19.4,1.9a13.1,13.1,0,0,0-5.9,2.9A9.1,9.1,0,0,1,8.1,7.3l1.8,3.1-.7.5a9.2,9.2,0,0,0-4.9,7.3A27.5,27.5,0,0,0,7.1,34.6a11.5,11.5,0,0,0,4.5,4.8,1.7,1.7,0,0,1,.9,1.4c.8,7.6,4.6,13.3,10.8,17.4a17.7,17.7,0,0,1,3.4,3.3,18.4,18.4,0,0,0,2.5,2.3c3,2,5.8,4.1,6.8,8.1l.7-1.6a13.6,13.6,0,0,1,5.5-5.9,12.1,12.1,0,0,0,5-5.5c.4-.1.9,0,1.2-.2,5.3-3.7,9.3-8.3,10.7-14.8a11.3,11.3,0,0,0,.3-1.8,3.9,3.9,0,0,1,1.9-3.5c3.8-2.6,5.2-6.5,6.2-10.7.3-1.5.5-3.1.7-4.7V72H3.8V0H68.2Z"/><path class="cls-2" d="M44.2,14.7a28.6,28.6,0,0,1-16.9.3c1.8-.8,3.3-1.4,5-1.2a3.5,3.5,0,0,0,2.5-.9,1.5,1.5,0,0,1,1.7-.2,9.6,9.6,0,0,0,4.4,1.1A20.2,20.2,0,0,1,44.2,14.7Z"/></svg>