<svg id="Layer_1" data-name="Layer 1" xmlns="http://www.w3.org/2000/svg" viewBox="0 0 30 30"><defs><style>.cls-1{fill:#002e5d;}.cls-2{fill:none;}</style></defs><title>Book_of_Mormon30</title><path class="cls-1" d="M16.5,30H0V0H30V30H27.9a.2.2,0,0,0-.2-.2,1.4,1.4,0,0,1-.8-.9,3.2,3.2,0,0,1-.3-.9,4.1,4.1,0,0,0-1.1-2.8c-.1,0-.1-.1-.1-.2a6.4,6.4,0,0,0-.2-.7,1.8,1.8,0,0,1-.2-1,3.4,3.4,0,0,0-.3-2,2,2,0,0,0-1.6-1.2l-1.3-.5a.6.6,0,0,1-.1-.7,1.4,1.4,0,0,0,.2-.6,2.5,2.5,0,0,0,.1-.8,4.1,4.1,0,0,0-.2-1.6,2.2,2.2,0,0,0-1.3-1.2c-1.1-.3-1.5,0-1.9.7l-.5.8a2.6,2.6,0,0,1-1.4-1.7c-.2-.4-.7-.8-1.1-.7a.7.7,0,0,1-.8-.2l-.5-.5a5.1,5.1,0,0,1-1.9-3c0-.5-.4-.7-.9-.7a1.6,1.6,0,0,0-1.4,2.2.9.9,0,0,0,1.2.6,1.7,1.7,0,0,1,1.2.2l1.6,1.3c.7.7.6.6.3,1.3a7.8,7.8,0,0,0-1,3.6,2.2,2.2,0,0,0,1.2,2.1.8.8,0,0,1,.5.7,1.9,1.9,0,0,0,.9,1.4,1,1,0,0,1,.4.9,5.5,5.5,0,0,0,.3,2.5,2.4,2.4,0,0,1,0,1.2A4.6,4.6,0,0,0,16.5,30Z"/><path class="cls-2" d="M16.5,30a4.6,4.6,0,0,1,.2-2.6,2.4,2.4,0,0,0,0-1.2,5.4,5.4,0,0,1-.3-2.5,1,1,0,0,0-.4-.9,1.9,1.9,0,0,1-.9-1.4,1.1,1.1,0,0,0-.6-.7,2.2,2.2,0,0,1-1.1-2.1,7,7,0,0,1,.9-3.5c.4-.8.5-.7-.2-1.3l-1.6-1.3a1.2,1.2,0,0,0-1.3-.2,1.1,1.1,0,0,1-1.2-.7,1.7,1.7,0,0,1,1.5-2.1c.5,0,.9.2.9.6a4.8,4.8,0,0,0,1.9,3l.5.5a.6.6,0,0,0,.7.2,1.1,1.1,0,0,1,1.1.8,3.1,3.1,0,0,0,1.5,1.7,5.9,5.9,0,0,1,.4-.8,1.4,1.4,0,0,1,1.9-.8,1.8,1.8,0,0,1,1.3,1.2,3,3,0,0,1,.2,1.6v.8c-.1.2-.1.4-.2.6s-.2.6.1.7l1.2.5a1.9,1.9,0,0,1,1.6,1.2,3.4,3.4,0,0,1,.4,2,1.7,1.7,0,0,0,.1,1,1.4,1.4,0,0,1,.2.7v.2A4.2,4.2,0,0,1,26.6,28a2.9,2.9,0,0,0,.2.9,1.6,1.6,0,0,0,.9.9l.2.2ZM15.1,16.9c.1.5.1,1,.2,1.5a.8.8,0,0,0,.2.4,3.2,3.2,0,0,0,1.5.6l1.1.2.5.2a.6.6,0,0,0,.7-.2.4.4,0,0,0-.2-.6,1.7,1.7,0,0,1-.9-1.3,1.5,1.5,0,0,0-.6-.9l-.6-.6-.7-.4c-.6-.2-1,0-1.1.6A4.3,4.3,0,0,1,15.1,16.9Zm8.8,9.4.7,3.5h1.2a1.6,1.6,0,0,0-.5-1.1,4.6,4.6,0,0,1-.9-2C24.4,26.5,24.3,26.4,23.9,26.3Z"/><path class="cls-2" d="M29.9,30V.1H30V29.7A.4.4,0,0,1,29.9,30Z"/><path class="cls-1" d="M15.1,16.9a4.3,4.3,0,0,0,.1-.5c.1-.6.5-.8,1.1-.6l.7.4.6.6a1.5,1.5,0,0,1,.6.9,1.7,1.7,0,0,0,.9,1.3.4.4,0,0,1,.2.6.6.6,0,0,1-.7.2l-.5-.2L17,19.4a3.2,3.2,0,0,1-1.5-.6.8.8,0,0,1-.2-.4C15.2,17.9,15.2,17.4,15.1,16.9Z"/><path class="cls-1" d="M23.9,26.3c.4.1.5.2.5.5a5.2,5.2,0,0,0,.9,2,1.7,1.7,0,0,1,.5,1.2H24.6Z"/></svg>