<svg id="Layer_1" data-name="Layer 1" xmlns="http://www.w3.org/2000/svg" viewBox="0 0 72 72"><defs><style>.cls-1{fill:#002e5d;}.cls-2{fill:none;}</style></defs><title>Book_of_Mormon72</title><path class="cls-1" d="M39.7,72H0V0H72V72H67a1.5,1.5,0,0,0-.5-.6,3.1,3.1,0,0,1-2-2,9,9,0,0,1-.6-2.2,9.4,9.4,0,0,0-2.7-6.6c-.2-.2-.2-.5-.3-.7a9.8,9.8,0,0,0-.5-1.6,5.1,5.1,0,0,1-.4-2.4,7.9,7.9,0,0,0-.8-4.8,4.6,4.6,0,0,0-3.8-2.9,12.5,12.5,0,0,1-3-1.2c-.6-.3-.6-1-.3-1.6a7.5,7.5,0,0,0,.5-1.6,11.5,11.5,0,0,0,.1-1.9,8.3,8.3,0,0,0-.5-3.8,4.2,4.2,0,0,0-3.1-2.8c-2.5-.7-3.6-.1-4.6,1.7a19.8,19.8,0,0,1-1.1,2A7.5,7.5,0,0,1,40,34.9a2.7,2.7,0,0,0-2.6-1.8,1.7,1.7,0,0,1-1.8-.6l-1.2-1.1c-2.2-2-4.2-4-4.5-7.1a1.9,1.9,0,0,0-2.2-1.7,3.9,3.9,0,0,0-3.6,5.1A2.4,2.4,0,0,0,27,29.4a3.5,3.5,0,0,1,3,.4A41.6,41.6,0,0,1,33.9,33c1.7,1.6,1.5,1.3.6,3.1s-2.4,5.5-2.3,8.5.7,4,2.8,5a2.4,2.4,0,0,1,1.3,1.8,5.5,5.5,0,0,0,2.2,3.4,2,2,0,0,1,.9,2,13.8,13.8,0,0,0,.7,6,5.1,5.1,0,0,1,0,3A10.1,10.1,0,0,0,39.7,72Z"/><path class="cls-2" d="M39.6,72a11.9,11.9,0,0,1,.4-6.2,3.9,3.9,0,0,0,0-3,15,15,0,0,1-.7-6,2,2,0,0,0-.9-2,4.6,4.6,0,0,1-2.1-3.3,2.4,2.4,0,0,0-1.4-1.8c-2.1-1.1-2.7-2.8-2.8-5s1-5.8,2.3-8.5,1.1-1.6-.6-3.1A37.9,37.9,0,0,0,30,29.9a3.5,3.5,0,0,0-3-.4,2.4,2.4,0,0,1-2.9-1.7,3.9,3.9,0,0,1,3.5-5.1c1.2,0,2.1.5,2.2,1.7.4,3.1,2.3,5.1,4.5,7.1l1.3,1.1a1.7,1.7,0,0,0,1.7.6c1-.3,2.2.7,2.6,1.8a7.4,7.4,0,0,0,3.4,4l1.1-1.9c1-1.8,2.1-2.4,4.6-1.8a4.3,4.3,0,0,1,3.1,2.9,8.3,8.3,0,0,1,.5,3.8,12.1,12.1,0,0,1-.1,1.9,6.6,6.6,0,0,1-.5,1.5c-.3.7-.3,1.3.3,1.7a12.1,12.1,0,0,0,3,1.1,4.6,4.6,0,0,1,3.8,2.9,8.7,8.7,0,0,1,.8,4.8,4.9,4.9,0,0,0,.4,2.4,9.8,9.8,0,0,1,.5,1.6.9.9,0,0,0,.3.7,9.6,9.6,0,0,1,2.7,6.6,8.7,8.7,0,0,0,.5,2.2,3.5,3.5,0,0,0,2.1,2c.2.1.3.4.5.6ZM36.3,40.5c.1,1.3.2,2.5.4,3.7a.9.9,0,0,0,.5.8,5.8,5.8,0,0,0,3.7,1.5,7.1,7.1,0,0,1,2.6.6l1.2.5a1.5,1.5,0,0,0,1.7-.6,1.3,1.3,0,0,0-.6-1.4,4.1,4.1,0,0,1-2.1-3.2,3.9,3.9,0,0,0-1.4-2.1L40.8,39l-1.7-1.1c-1.5-.5-2.4.1-2.6,1.6A5.8,5.8,0,0,0,36.3,40.5Zm21,22.6L59,71.6h2.9a5.4,5.4,0,0,0-1.1-2.8,9,9,0,0,1-2.2-4.6C58.5,63.7,58.2,63.3,57.3,63.1Z"/><path class="cls-2" d="M71.8,72Q72,36.4,71.9.9c0-.2-.1-.4-.1-.7H72V71.3A1.9,1.9,0,0,1,71.8,72Z"/><path class="cls-1" d="M36.3,40.5a5.8,5.8,0,0,1,.2-1c.2-1.5,1.1-2.1,2.6-1.6L40.8,39l1.5,1.3a3.9,3.9,0,0,1,1.4,2.1,4.1,4.1,0,0,0,2.1,3.2,1.3,1.3,0,0,1,.6,1.4,1.5,1.5,0,0,1-1.7.6l-1.2-.5a7.1,7.1,0,0,0-2.6-.6A5.8,5.8,0,0,1,37.2,45a.9.9,0,0,1-.5-.8C36.5,43,36.4,41.8,36.3,40.5Z"/><path class="cls-1" d="M57.3,63.1c.9.2,1.2.6,1.3,1.1a9.9,9.9,0,0,0,2.2,4.9A5.7,5.7,0,0,1,61.9,72H59Z"/></svg>