<svg id="Layer_1" data-name="Layer 1" xmlns="http://www.w3.org/2000/svg" viewBox="0 0 72 72"><defs><style>.cls-1{fill:#002e5d;}</style></defs><title>Business_Objects_Financial72</title><path class="cls-1" d="M33.5,72l-.7-.3c0-3-.1-6,.1-9s.2-2.4-2-3.1c-4.4-1.4-8-3.8-10.3-7.9A9.5,9.5,0,0,1,19.4,46c.2-1.6,1.3-2.9,2.6-2.9a2.2,2.2,0,0,1,2.4,1.8,2.5,2.5,0,0,1-1.6,2.7h-.7c-1.3.1-1.5.3-1.1,1.7.9,3.8,3.5,6.2,6.8,7.9a49.4,49.4,0,0,0,5.1,2V56.7c.1-6.6,0-13.2.4-19.7.1-2.3-.6-3.4-2.6-4.1A14.5,14.5,0,0,1,25,29.5a12,12,0,0,1,2.5-18.1,21.2,21.2,0,0,1,5.1-2.2c.7-.3.9-.5.9-1.2V.1h.8l.2.3V7.5c-.1,1.2-.1,1.2,1,1.1h2.8c0-1.2.1-2.4.1-3.5s0-2.7.1-4,.3-.6.4-.8.4.5.4.8V8.7A18,18,0,0,1,48,12.5c2.2,1.8,3.9,3.9,4,6.8a5.9,5.9,0,0,1-.4,2.3,2.3,2.3,0,0,1-2.9,1.3c-1.2-.3-1.7-1.2-1.7-2.6a2.3,2.3,0,0,1,2-2.2c1.4-.3,1.6-.6,1.1-1.6C48.5,13.2,43,9.8,39.2,9.8v3.9c0,5.4,0,10.8-.1,16.2a1.1,1.1,0,0,0,1,1.3,21.8,21.8,0,0,1,9.3,5.9c5,5.5,4.6,16.7-4.1,21.3a32.7,32.7,0,0,1-5.5,2c-.7.2-1,.3-1,1.2,0,3.1-.1,6.3-.2,9.4,0,.6-.1.9-.9.7V68.9c0-2.5,0-4.9.1-7.4,0-.7-.3-1-1-1a29.9,29.9,0,0,1-3,0V72ZM39,59.1c5.5-.4,9.6-5.4,9.6-11.7S43.8,36.7,39,36.3ZM33.3,10.2a9.4,9.4,0,0,0-7.8,8.7c-.1,4.5,2.3,7.9,7.8,9.7ZM34,59.3h2.7c.9.1,1.2-.2,1.2-1.1V50.1c.1-4.6.1-9.2.2-13.8a.8.8,0,0,0-.3-.7L34,34.3Zm4.2-28.9V24.5c.1-4.7.1-9.4.2-14.1,0-.7-.2-1-.8-.9H35.2c-.6,0-.8.3-.8.8,0,6.1-.1,12.1-.2,18.1,0,.2.3.7.5.7Z"/></svg>