<svg id="Layer_1" data-name="Layer 1" xmlns="http://www.w3.org/2000/svg" viewBox="0 0 30 30"><defs><style>.cls-1{fill:#002e5d;}</style></defs><title>Business_Objects_Financial30</title><path class="cls-1" d="M13.9,30h-.2c0-1.3-.1-2.5,0-3.8s.1-1-.8-1.3a6.3,6.3,0,0,1-4.3-3.3,3.7,3.7,0,0,1-.5-2.3c.1-.7.5-1.2,1.1-1.2a.8.8,0,0,1,1,.7,1,1,0,0,1-.7,1.1H9.2c-.5,0-.6.1-.5.7a5,5,0,0,0,2.9,3.3l2.1.8V23.6c.1-2.7,0-5.5.2-8.2a1.5,1.5,0,0,0-1.1-1.7,5.8,5.8,0,0,1-2.4-1.4,5,5,0,0,1,1-7.5,8.8,8.8,0,0,1,2.2-1c.3-.1.4-.2.4-.5S14,1.1,14,0h.4v3c-.1.5-.1.5.4.5h1.1A7.6,7.6,0,0,0,16,2.1V.5c0-.2.2-.3.2-.4a.8.8,0,0,1,.2.4V3.6A7.4,7.4,0,0,1,20,5.2a4,4,0,0,1,1.7,2.9,2.9,2.9,0,0,1-.2.9.9.9,0,0,1-1.2.5.9.9,0,0,1-.7-1,.9.9,0,0,1,.8-1c.6-.1.7-.2.5-.6a6.1,6.1,0,0,0-4.6-2.8v8.3c0,.4.1.5.4.6a9.8,9.8,0,0,1,3.9,2.4,5.9,5.9,0,0,1-1.7,8.9,9,9,0,0,1-2.3.8c-.3.1-.4.2-.4.6s-.1,2.6-.1,3.9-.1.4-.4.3V25.6c0-.3-.1-.4-.4-.4H14.1V30Zm2.3-5.4a4.6,4.6,0,0,0,4.1-4.8,5,5,0,0,0-4.1-4.7ZM13.9,4.2a4.1,4.1,0,0,0-3.3,3.7c0,1.9,1,3.3,3.3,4Zm.3,20.5h1.1c.4,0,.5-.1.5-.5V20.9c0-2,.1-3.9.1-5.8v-.3l-1.6-.5Zm1.7-12V10.2c.1-2,.1-3.9.1-5.9,0-.2-.1-.4-.4-.3h-.9c-.3,0-.4.1-.4.3v7.6l.2.3Z"/></svg>