<svg id="Layer_1" data-name="Layer 1" xmlns="http://www.w3.org/2000/svg" viewBox="0 0 30 30"><defs><style>.cls-1{fill:#002957;}</style></defs><title>BYU30</title><path class="cls-1" d="M7.6,15.6h0c1.1-.3,1.6-.9,1.6-2.5a3.2,3.2,0,0,0-.6-2,2.3,2.3,0,0,0-1.8-.5H0v2.2H.8v5.8H0v2.2H6.8a2.4,2.4,0,0,0,1.8-.5,2.9,2.9,0,0,0,.7-2.2C9.3,16.4,8.7,15.9,7.6,15.6ZM3.8,12.8H5.9c.1.1.2.3.2.8s-.1.7-.2.8H3.8ZM6,18.5H3.8V16.5H5.5a.6.6,0,0,1,.5.2c.1.1.2.2.2.9S6.1,18.4,6,18.5Z"/><path class="cls-1" d="M25.5,10.6v2.2h.8V17a3,3,0,0,1-.2,1.4H23.8a3,3,0,0,1-.2-1.4V12.8h.7V10.6H20v2.2h.5v3.9c0,2.3.3,3,.9,3.5s1,.6,2.3.6H26c1.3,0,1.9-.1,2.4-.6s.8-1.2.8-3.5V12.8H30V10.6Z"/><polygon class="cls-1" points="19.8 9.9 20.8 9.9 20.8 7.3 15.4 7.3 15.4 9.8 16.3 9.8 14.5 13.5 12.8 9.8 13.7 9.8 13.7 7.3 8.3 7.3 8.3 9.9 9.3 9.9 12.8 16.2 12.8 20.1 11.6 20.1 11.6 22.7 17.5 22.7 17.5 20.1 16.3 20.1 16.3 16.2 19.8 9.9"/><path class="cls-1" d="M18.9,22c0-.1,0-.1-.1-.2h-.3v.5h.1v-.3h.3Zm-.2.1h-.1v-.2h.2A.1.1,0,0,1,18.7,22.1Z"/><path class="cls-1" d="M18.7,21.6h-.3a.5.5,0,0,0-.2.4l.2.3c0,.1.2.2.3.2l.3-.2.2-.3a.8.8,0,0,0-.2-.4Zm.3.8h-.6a.5.5,0,0,1,0-.6H19a.5.5,0,0,1,0,.6Z"/></svg>