<svg id="Layer_1" data-name="Layer 1" xmlns="http://www.w3.org/2000/svg" viewBox="0 0 72 72"><defs><style>.cls-1{fill:#002957;}</style></defs><title>BYU72</title><path class="cls-1" d="M18.3,37.5h0c2.5-.7,3.9-2.2,3.9-6a6.5,6.5,0,0,0-1.6-4.7c-1-1-2.1-1.4-4.3-1.4H0v5.5H1.9V44.5H0V50H16.3c2,0,3.3-.4,4.3-1.4a6.9,6.9,0,0,0,1.8-5.2C22.4,39.4,21,38.1,18.3,37.5ZM9.1,30.7H13c.7,0,1,.1,1.1.3s.4.7.4,1.9-.1,1.7-.4,2-.5.2-1.1.2H9.1Zm5.2,13.6c-.2.3-.5.4-1.1.4H9.1v-5h4.1a1.4,1.4,0,0,1,1.1.3c.3.3.5.6.5,2.2S14.6,44.1,14.3,44.3Z"/><path class="cls-1" d="M61.1,25.3v5.5H63v10c0,2.3-.1,2.9-.4,3.2s-1,.4-2.1.4H59.2c-1.2,0-1.8-.1-2.1-.4s-.4-.9-.4-3.2v-10h1.7V25.3H48v5.5h1.3v9.3c0,5.5.6,7.1,1.9,8.5S53.8,50,57,50h5.4c3.2,0,4.6-.3,5.8-1.4s1.9-3,1.9-8.5V30.8H72V25.3Z"/><polygon class="cls-1" points="47.5 23.7 50 23.7 50 17.5 37.1 17.5 37.1 23.6 39.2 23.6 34.9 32.3 30.6 23.6 32.8 23.6 32.8 17.5 19.9 17.5 19.9 23.7 22.4 23.7 30.6 39 30.6 48.2 27.8 48.2 27.8 54.5 41.9 54.5 41.9 48.2 39.2 48.2 39.2 39 47.5 23.7"/><path class="cls-1" d="M45.4,52.7c0-.1-.1-.2-.2-.3h-.7v1.2h.1v-.6h.2c.1,0,.2,0,.2.1s.1.1.1.3h.2a.2.2,0,0,0-.2-.2h.2A.4.4,0,0,0,45.4,52.7ZM45,53h-.4v-.4H45v.2C45.1,52.9,45,52.9,45,53Z"/><path class="cls-1" d="M44.9,51.8a1.2,1.2,0,0,0-.8.4,1,1,0,0,0,0,1.6,1,1,0,0,0,.8.3,1.1,1.1,0,0,0,.8-1.9A1.2,1.2,0,0,0,44.9,51.8Zm.7,1.9a1.1,1.1,0,0,1-.7.3,1,1,0,0,1,0-2,1.1,1.1,0,0,1,.7.3.8.8,0,0,1,.2.7A.6.6,0,0,1,45.6,53.7Z"/></svg>