<svg id="Layer_1" data-name="Layer 1" xmlns="http://www.w3.org/2000/svg" viewBox="0 0 72 72"><defs><style>.cls-1{fill:#002e5d;}</style></defs><title>BYU_SA_Twitter72</title><path class="cls-1" d="M72,71.4a.9.9,0,0,1-.6.6H.6a.9.9,0,0,1-.6-.6V.6A.9.9,0,0,1,.6,0H71.4a.9.9,0,0,1,.6.6V71.4Zm-35.3-27A18,18,0,1,0,18.8,26.3,17.9,17.9,0,0,0,36.7,44.4ZM13.2,54.2V57c0,.6.2,1,.9,1h2.7a2,2,0,0,0,1.6-3.1,1.4,1.4,0,0,1-.1-1.4,2,2,0,0,0-1.5-2.8,12.9,12.9,0,0,0-2.8-.1c-.6-.1-.8.2-.8.8v2.8Zm19.6,1.2a2.5,2.5,0,0,0,2.7,2.8c2,.1,3.1-.8,3.2-2.6s.1-2.7.1-4-.2-1-.9-1-.9.4-.9,1v3.6c0,.8-.2,1.4-1.2,1.4s-1.3-.4-1.4-1.4V51.3c0-.6-.3-.7-.9-.7s-.8.2-.7.7v2.2A12,12,0,0,0,32.8,55.4Zm14.1,2.8A2.7,2.7,0,0,0,49,55.9c.1-1.2-.4-1.7-1.8-2.1l-1.6-.4a.7.7,0,0,1-.6-.7,1,1,0,0,1,.7-.7,2,2,0,0,1,1.7.3c.7.5.9-.1,1.2-.5s-.1-.8-.5-1a3.5,3.5,0,0,0-3-.2A2.1,2.1,0,0,0,43.4,53c0,1.1.5,1.6,1.8,1.9l1.4.3c.4.1.7.3.7.6a.8.8,0,0,1-.7.8,2.5,2.5,0,0,1-1.9-.3c-.7-.4-1,0-1.4.6s.3.7.6.9a3.9,3.9,0,0,0,2.1.4Zm10.5-6.9a.8.8,0,0,0-.9-.7c-.5,0-.7.4-.9.8L53.3,57c-.1.3-.5.7-.1.9s1.2.3,1.4-.1,1.7-1,2.7-1,.6-.1.7.3,1.2,1,2.2.8C59.3,55.6,58.3,53.5,57.4,51.3Zm-33,.2a1.4,1.4,0,0,0-1.5-.9c-.6,0-.9.1-.5.8l1.1,1.9a5.5,5.5,0,0,1,.9,3.7c0,.7.2,1,.9,1s.9-.4.9-1a5,5,0,0,1,.9-3.6l1-1.8c.1-.2.5-.5.2-.8s-.6-.2-1-.2a1.1,1.1,0,0,0-1,.8,18.6,18.6,0,0,1-1,2A8.2,8.2,0,0,1,24.4,51.5Z"/><path class="cls-1" d="M27.7,35.2a3.2,3.2,0,0,1-2.3-3c0-.2-.1-.5.1-.6s.4.1.6.2a2.3,2.3,0,0,1,.9,1.4C27.2,33.8,27.4,34.5,27.7,35.2Z"/><path class="cls-1" d="M15.8,56.5c-.5.1-1,0-1-.7s.5-.8,1-.7,1.2-.2,1.2.6S16.4,56.5,15.8,56.5Z"/><path class="cls-1" d="M15.8,53.6c-.5,0-1,0-1-.7s.3-.8.9-.8,1.1-.1,1.1.8S16.3,53.6,15.8,53.6Z"/><path class="cls-1" d="M56.5,53.2a2.2,2.2,0,0,1,.6,1.3c.1.3.1.5-.2.7a.8.8,0,0,1-.9-.1c-.4-.1,0-.4,0-.6A5,5,0,0,1,56.5,53.2Z"/><path class="cls-1" d="M34.5,17.3a20.2,20.2,0,0,1,4.9.1c.5.1.8-.2,1.2-.5a11.7,11.7,0,0,1,3.6-1.6c1.4-.4,1.9,0,2,1.4a4.1,4.1,0,0,1-.8,3,2.8,2.8,0,0,0-.3,2.5l1.3,3.3a3.7,3.7,0,0,1,0,3.1c-.2.3-.3.7-.8.4s-.5.1-.5.4a2.2,2.2,0,0,1-.3,1.6c-.2.5-.3,1.1-1,.5s-.4.1-.5.2c-1.2,2.2-3.4,2.2-5.4,2.7-.3,0-.5-.1-.4-.4s-.4-.4-.7-.2a8.5,8.5,0,0,0-2.2,2.8,3.2,3.2,0,0,1-3.2,1.8c-1.3,0-2-.6-2.5-2,1.4.1,2.9.5,4.2-.7a4.3,4.3,0,0,0-2,.2,2.9,2.9,0,0,1-3.3-2.1c-.1-.8-.1-1.4.8-1.7a3.1,3.1,0,0,0,1.7-1.5l-2.4.4H26.7c-1.5-.3-1.9-.9-1.1-2.3a13.1,13.1,0,0,0,1.8-5,5.8,5.8,0,0,1,2.5-3.7,4.3,4.3,0,0,0,1.5-2,7.3,7.3,0,0,1,3.1-3.4c.4-.2.9-.6,1.3.1s.6,1.3-.2,1.8A4.1,4.1,0,0,0,34.5,17.3Zm.2,9.2a2.9,2.9,0,0,0,2-1.6c-3.2-.3-3.9.2-3.9,2.6A3,3,0,0,1,34.7,26.5Z"/></svg>