<svg id="Layer_1" data-name="Layer 1" xmlns="http://www.w3.org/2000/svg" viewBox="0 0 30 30"><defs><style>.cls-1{fill:#002e5d;}</style></defs><title>BYU_Store30</title><path class="cls-1" d="M27.2,30H2.8A4.4,4.4,0,0,1,.9,29,3.9,3.9,0,0,1,0,26.4V3.5A3.3,3.3,0,0,1,2,.3,3.8,3.8,0,0,1,3,0H27a3.1,3.1,0,0,1,2.1,1.1A3.1,3.1,0,0,1,30,2.8V27.2a3.6,3.6,0,0,1-.4,1.1A3.4,3.4,0,0,1,27.2,30ZM5.5,14.2h.1a7.8,7.8,0,0,1,.5,1.4c.1.3.1.3-.2.3a.3.3,0,0,0-.3.3v1.2a.3.3,0,0,0,.3.3H7.1c.5,0,.5,0,.7-.5s.9-2.2,1.3-3.4,0-.2.1-.2.1.2.1.3v1.3c.1.6.3,1.1,1.2,1.1h4.6a1.7,1.7,0,0,0,1.2-.5c.2-.2.2-.2.3,0s.4.5.8.5h1c.2,0,.3,0,.3-.3h.2a2.7,2.7,0,0,0,2.6.2h.2c0,.2.2.2.3.2h1.9a.3.3,0,0,0,.3-.3V14.7a.4.4,0,0,1,.1-.3c.5-.1.7,0,.7.5a1.2,1.2,0,0,0,1.1,1.2h1.4c.8-.1,1.1-.5,1.1-1.3V13.3a1.1,1.1,0,0,0-.7-1.2,2.9,2.9,0,0,0-2.4.1c-.1.1-.2.1-.4,0a.8.8,0,0,0-.8-.2H21.4a3,3,0,0,0-2.1-.1.8.8,0,0,1-.7.1c-.1-.1-.2-.1-.2-.3v-.6c0-.3-.1-.4-.4-.3h-.8c-.7.1-.7.1-.7.7h0l-.2.2H14.8a1.4,1.4,0,0,0-1.5.3c-.1,0-.2.1-.2-.1s-.2-.2-.3-.2h-8a1,1,0,0,0-.9-.1c-.1,0-.2,0-.2-.2V11l-.2-.2H1.7c-.1,0-.2,0-.2.2s-.2.9.2,1.3v2a.4.4,0,0,1-.1.3.4.4,0,0,0-.1.3v.7c0,.5,0,.5.5.5H4c1,.1,1.5-.4,1.5-1.4Z"/><path class="cls-1" d="M3.5,12.4a1,1,0,0,1,.9-.2.7.7,0,0,1,.8.8v2c0,.3-.1.7-.4.8a1.1,1.1,0,0,1-1.1,0l-.2-.2c-.1.2-.2.3-.4.3h-1a.3.3,0,0,1-.3-.3c0-.3-.1-.6.2-.8V12.3a.4.4,0,0,0-.1-.3,1.4,1.4,0,0,1,0-.9H3.1c.2-.1.3,0,.3.2v.8A.4.4,0,0,0,3.5,12.4ZM3.8,14v-.6H3.5a2.4,2.4,0,0,0,0,1.2.2.2,0,0,0,.2.2c.1,0,.1-.1.1-.2Z"/><path class="cls-1" d="M7.4,14a2.5,2.5,0,0,1,.2-.7h0c-.3-.2-.1-.5-.1-.7s0-.3.2-.3H9.1l.2.2v.5a.4.4,0,0,1-.1.3.3.3,0,0,0-.3.3L7.5,17.1c0,.1-.1.2-.3.2H6.1c-.2,0-.3-.1-.2-.3v-.3c0-.5,0-.5.5-.6s.2-.1.1-.3l-.9-2.5h0c-.4-.2-.3-.5-.3-.8s.1-.3.2-.3H7c.1,0,.2.1.2.3s.1.5-.2.7v.2l.3.6Z"/><path class="cls-1" d="M11,13.5v1.1c0,.1,0,.2.2.2s.1-.1.1-.2a4.9,4.9,0,0,0,.1-1.2v-.2c-.3-.2-.1-.5-.1-.8l.2-.2h1.2c.2,0,.2.2.2.3a12,12,0,0,1,0,1.9,1.3,1.3,0,0,0,.1.6c.2.2.1.5,0,.7a.1.1,0,0,1-.1.1H11.5c-.2-.3-.3-.1-.4,0a1.3,1.3,0,0,1-1.2,0,.6.6,0,0,1-.3-.6V13.5a.6.6,0,0,0-.1-.4c-.2,0-.2-.7-.1-.8s.1-.1.2-.1h1.1a.3.3,0,0,1,.3.3v1Z"/><path class="cls-1" d="M18.7,14v-.8a.9.9,0,0,1,.8-.9,2.5,2.5,0,0,1,1.7,0,1,1,0,0,1,.7.8v1.8a1.1,1.1,0,0,1-1.2,1h-1a1.1,1.1,0,0,1-1-1.1V14Zm1.9.1v-.7c0-.2-.1-.4-.3-.4a.3.3,0,0,0-.3.3v1.6c0,.1.1.3.3.2a.3.3,0,0,0,.3-.3Z"/><path class="cls-1" d="M13.2,15.2c0-.7,0-.7.7-.7l.4.2v.2c.1.1.2.2.4.1h.1c0-.2-.1-.2-.2-.3l-.8-.4a1.1,1.1,0,0,1-.6-1.4,1.3,1.3,0,0,1,1.7-.5h.3a1.4,1.4,0,0,1,.9,0c.3.2.1.5.1.8s-.1.2-.3.2h-.4c-.2.1-.3,0-.4-.1s-.2-.2-.3-.2h-.2c0,.1,0,.2.1.2l.4.2.7.4a.9.9,0,0,1,.5,1.1,1.1,1.1,0,0,1-.8.9,1.4,1.4,0,0,1-1.1-.1h-.1c-.3.2-.5.1-.8.1s-.4-.1-.3-.3Z"/><path class="cls-1" d="M25.3,14.1V13a1.1,1.1,0,0,1,.6-.7,2.8,2.8,0,0,1,1.8,0,.8.8,0,0,1,.6.8c.1.2,0,.5,0,.8s-.1.3-.2.3H26.9c-.1,0-.3,0-.3.2a.6.6,0,0,0,.2.7.3.3,0,0,0,.3-.3c.1-.3.2-.3.5-.3h.2c.2,0,.5-.2.5.2s0,.9-.4,1a2.5,2.5,0,0,1-1.7.2,1,1,0,0,1-.9-1.1C25.3,14.5,25.2,14.3,25.3,14.1Zm1.9-.9a.3.3,0,1,0-.6,0c0,.3.1.3.3.3A.3.3,0,0,0,27.2,13.2Z"/><path class="cls-1" d="M23.6,12.8a.8.8,0,0,1,.9-.5c.4,0,.7.2.7.6v.9a.3.3,0,0,1-.3.3h-.7c-.2,0-.2-.1-.2-.3a.4.4,0,0,0-.1-.3c0-.1,0-.2-.1-.2s-.2.1-.2.3a1.7,1.7,0,0,0-.1.7v.6c0,.1,0,.2.1.2a.7.7,0,0,1,.2.7H22.2c-.1,0-.2,0-.2-.2s-.1-.5.2-.6,0-.2,0-.3V13.6a.9.9,0,0,0-.1-.5c-.2-.1-.1-.4-.1-.6s.2-.2.4-.2h.7C23.5,12.3,23.5,12.3,23.6,12.8Z"/><path class="cls-1" d="M16.8,14.4v-.9c0-.2,0-.3-.2-.3s-.1-.4-.2-.6.1-.3.2-.3.2,0,.2-.2v-.4a.4.4,0,0,1,.4-.4h.6c.2,0,.3,0,.3.2v.7l.2.3c.2,0,.3.1.2.2s.2.6-.3.6-.1.1-.1.2v1.3a.5.5,0,0,0,.2.4.3.3,0,0,1,.1.2c.1.5,0,.7-.6.6h-.5c-.3-.1-.5-.2-.5-.5v-1Z"/></svg>