<svg id="Layer_1" data-name="Layer 1" xmlns="http://www.w3.org/2000/svg" viewBox="0 0 30 30"><defs><style>.cls-1{fill:#002e5d;}</style></defs><title>BYU_Studio_103030</title><path class="cls-1" d="M30,5.3v.2h-.2L17.7,14.8c-.3.2-.2.2,0,.4l8,6L30,24.5v.2l-.6.5a4.5,4.5,0,0,1-4.7-.2c-3.3-2.6-6.7-5-10-7.5a.4.4,0,0,0-.6,0l-2.4,1.8c-.2.1-.2.3-.1.5a5.9,5.9,0,0,1-3,7.8,5.6,5.6,0,0,1-2.1.6H5.3A5.6,5.6,0,0,1,.4,24.2,5.7,5.7,0,0,1,1.7,18a5.8,5.8,0,0,1,6.8-1.3c.3.1.4.1.6-.1l2-1.4c.2-.2.2-.3,0-.4L9.2,13.3c-.2-.2-.4-.2-.7,0a6.5,6.5,0,0,1-3.1.5A6,6,0,0,1,2,3.4,5.8,5.8,0,0,1,5.2,1.8H7.1a6,6,0,0,1,4.5,8.3c-.1.2-.1.3.1.4L14,12.4a.6.6,0,0,0,.8,0L24.6,5l.9-.5A4.1,4.1,0,0,1,30,5.3ZM9.6,22.2a3.6,3.6,0,1,0-3.5,3.5A3.6,3.6,0,0,0,9.6,22.2ZM6,11.3A3.5,3.5,0,0,0,9.6,7.8,3.6,3.6,0,0,0,6.1,4.2,3.6,3.6,0,0,0,2.5,7.8,3.5,3.5,0,0,0,6,11.3Zm8.4,4.8A1.1,1.1,0,0,0,15.6,15a1.2,1.2,0,0,0-1.2-1.2A1.1,1.1,0,0,0,13.3,15,1.1,1.1,0,0,0,14.4,16.1Z"/></svg>