<svg id="Layer_1" data-name="Layer 1" xmlns="http://www.w3.org/2000/svg" viewBox="0 0 30 30"><defs><style>.cls-1{fill:#002957;}.cls-2{font-size:3.33px;fill:#002e5d;font-family:Garamond;letter-spacing:0.1em;}.cls-3{letter-spacing:0.08em;}.cls-4{letter-spacing:0.04em;}.cls-5{letter-spacing:0.1em;}</style></defs><title>BYU_Broadcasting30</title><path class="cls-1" d="M3.4,12V10.4H4.7c.8,0,1.3.1,1.3.9s-.3.9-1.3.9H3.4Zm0,3.4V13.5H4.5c.7,0,1.7,0,1.7,1s-.7,1-1.6,1H3.4ZM.8,9.5v7c0,.2,0,.3-.2.4H5.7c2.4,0,3.4-.9,3.4-2.4a1.9,1.9,0,0,0-1.5-2h0a1.7,1.7,0,0,0,1.2-1.8c0-1.6-1-2.1-3.3-2.1H0l.6.2C.8,9.2.8,9.3.8,9.5Z"/><path class="cls-1" d="M29.3,9.5c0-.2-.1-.3.1-.4l.6-.2H25.8a.6.6,0,0,1,.5.2c.2.1.2.2.2.4v4.2a1.6,1.6,0,0,1-1.6,1.7,1.6,1.6,0,0,1-1.7-1.7V9.5c0-.2,0-.3.2-.4l.5-.2H20c-.1,0-.1.1,0,.1h.3a.8.8,0,0,1,.2.5v4.1c0,2,1,3.7,4.4,3.7s4.4-1.7,4.4-3.7V9.5Z"/><path class="cls-1" d="M16.6,17.1H16c-.1-.1-.1-.2-.1-.4V13.8l2.9-4.3a.8.8,0,0,1,.4-.4H15.7c.2,0,.4,0,.4.3a16.6,16.6,0,0,1-1.6,2.5c0,.1-.1.2-.1.3s-.1-.2-.1-.3a10.7,10.7,0,0,1-1.5-2.5c-.1-.3.2-.3.4-.3H9.7l.3.4,2.9,4.3v2.7c0,.2,0,.3-.1.4h-.6v.2Z"/><text class="cls-2" transform="translate(0.2 20.2)">B<tspan class="cls-3" x="2.4" y="0">R</tspan><tspan class="cls-4" x="4.7" y="0">O</tspan><tspan class="cls-5" x="7.5" y="0">ADCASTING</tspan></text></svg>