<svg id="Layer_1" data-name="Layer 1" xmlns="http://www.w3.org/2000/svg" viewBox="0 0 72 72"><defs><style>.cls-1{fill:#002e5d;}</style></defs><title>BYU_Store72</title><path class="cls-1" d="M65.2,72H6.8a8.4,8.4,0,0,1-4.6-2.5A8.5,8.5,0,0,1,0,63.4V8.5A8.1,8.1,0,0,1,4.8.7,10.3,10.3,0,0,1,7.3,0H64.8a8.8,8.8,0,0,1,5.1,2.5A9.5,9.5,0,0,1,72,6.6V65.4A11.7,11.7,0,0,1,71,68,8.3,8.3,0,0,1,65.2,72Zm-52-38h.3l1.2,3.2c.2.7.2.8-.5.8s-.8.2-.8.7a14,14,0,0,1,0,2.9c0,.5.2.7.8.7h2.9c1.2,0,1.2,0,1.7-1.1l3-8.2c.1-.2.1-.5.4-.4s.2.3.2.5-.1,2.1,0,3.1.6,2.8,2.8,2.8c3.7-.1,7.3,0,11,0a3.5,3.5,0,0,0,3-1.3c.3-.4.5-.4.6.1a1.8,1.8,0,0,0,1.9,1.2h2.4c.5,0,.8-.1.8-.7s.1-.4.4-.2a6.4,6.4,0,0,0,6.3.3c.2,0,.4-.2.5.1s.4.5.7.5h4.5c.6,0,.7-.2.7-.8V35.2c0-.2,0-.5.3-.6s1.8,0,1.8,1.1a2.9,2.9,0,0,0,2.6,3,17.2,17.2,0,0,0,3.2.2c2-.2,2.8-1.2,2.7-3.2a22.9,22.9,0,0,1,0-3.7c.1-1.6-.4-2.6-1.8-3.1a6.5,6.5,0,0,0-5.6.4.7.7,0,0,1-.9,0,2,2,0,0,0-1.9-.5c-1.8.4-3.6.1-5.4.2-.2,0-.5-.1-.7.1a1.4,1.4,0,0,1-.9-.1,7.2,7.2,0,0,0-5-.1,2.2,2.2,0,0,1-1.8.1c-.3-.2-.5-.3-.5-.6V26.8c0-.6-.2-.8-.8-.7l-2.1.3c-1.5.2-1.5.2-1.6,1.7v.2c0,.4-.1.5-.4.5a15.3,15.3,0,0,1-3.7-.1,3.8,3.8,0,0,0-3.7.7c-.2.2-.4.3-.5-.1s-.3-.6-.7-.6H12.5c-.3,0-.6.2-.9,0a3.3,3.3,0,0,0-2.2-.1c-.4.1-.5-.1-.5-.5V26.5a.5.5,0,0,0-.6-.6H4.1c-.2,0-.5.1-.4.4s-.5,2.3.4,3.3.1.4.1.5v4.3a1,1,0,0,1-.2.7.7.7,0,0,0-.4.8v1.6c0,1.1,0,1.1,1.1,1.2a39.7,39.7,0,0,1,4.9.1c2.4.4,3.6-.8,3.6-3.2Z"/><path class="cls-1" d="M8.4,29.8a2.6,2.6,0,0,1,2.1-.6,1.9,1.9,0,0,1,2,2V36a2,2,0,0,1-1,2,2.9,2.9,0,0,1-2.7-.1l-.5-.4a.6.6,0,0,1-.8.6,11.3,11.3,0,0,0-2.6,0c-.4,0-.6-.2-.6-.7s-.2-1.3.5-1.9.1-.3.1-.5V29.6a1.1,1.1,0,0,0-.3-.8,3.1,3.1,0,0,1-.2-2.1.7.7,0,0,1,.6-.2H7.5c.5,0,.7.2.7.7v2A.7.7,0,0,0,8.4,29.8Zm.8,3.8c0-.4-.1-.9-.1-1.4s-.1-.3-.3-.4-.3.2-.4.3a7.6,7.6,0,0,0,0,3,.4.4,0,0,0,.4.4.5.5,0,0,0,.3-.5C9.1,34.6,9.2,34.2,9.2,33.6Z"/><path class="cls-1" d="M17.7,33.6l.6-1.6a.4.4,0,0,0-.1-.3c-.6-.5-.2-1.2-.3-1.8s.1-.6.5-.6h3.4c.3,0,.5.2.5.6v1.2c0,.2,0,.4-.3.5s-.6.5-.7.9l-3.2,8.4a.7.7,0,0,1-.9.6H14.7c-.5,0-.7-.2-.7-.7a2.1,2.1,0,0,0,0-.8c0-1.2,0-1.2,1.2-1.4s.6-.3.5-.7L13.4,32c0-.1,0-.1-.1-.1s-.5-1.2-.6-1.9a.5.5,0,0,1,.6-.6h3.4c.4,0,.6.2.6.5s.3,1.3-.4,1.8V32l.6,1.6Z"/><path class="cls-1" d="M26.4,32.5v2.4c.1.3.1.6.4.6s.4-.3.4-.5a24.4,24.4,0,0,0,.1-2.7c0-.2.1-.4-.1-.5s-.3-1.3-.4-2,.3-.5.6-.5h2.9c.4,0,.4.3.4.7s0,3,0,4.5A2.7,2.7,0,0,0,31,36a2.7,2.7,0,0,1,.1,1.8.4.4,0,0,1-.4.2H27.5c-.3-.7-.6-.2-1,0a2.4,2.4,0,0,1-2.6,0,1.6,1.6,0,0,1-.8-1.5V32.4a.9.9,0,0,0-.4-.9,2.7,2.7,0,0,1-.2-2h3.2c.6,0,.7.3.7.8v2.4Z"/><path class="cls-1" d="M44.9,33.6V31.8a2.3,2.3,0,0,1,1.8-2.3,7.2,7.2,0,0,1,4.1,0,2.4,2.4,0,0,1,1.7,2,15.5,15.5,0,0,1,0,4.3c-.2,1.5-1.2,2.3-2.9,2.5H47.3a2.7,2.7,0,0,1-2.4-2.8V33.6Zm4.5.2V32a.8.8,0,0,0-.7-.9c-.5,0-.6.4-.7.8a15.1,15.1,0,0,0,.1,3.7.7.7,0,0,0,.7.8.8.8,0,0,0,.6-.8Z"/><path class="cls-1" d="M31.6,36.4c0-1.7,0-1.7,1.7-1.6s.8.1.9.6.2.2.2.3a.9.9,0,0,0,.8.4c.2-.1.3-.2.3-.4s-.2-.5-.4-.6l-2-.9a2.7,2.7,0,0,1-1.3-3.6,2.9,2.9,0,0,1,4-1.1.6.6,0,0,0,.7.1,2.3,2.3,0,0,1,2,0c.8.3.3,1.2.4,1.9s-.3.5-.7.5H37.1a.8.8,0,0,1-.9-.4.6.6,0,0,0-.7-.4.5.5,0,0,0-.5.3.8.8,0,0,0,.2.5l.9.4a11.1,11.1,0,0,1,1.9.9,2.5,2.5,0,0,1,1.2,2.6,2.8,2.8,0,0,1-2,2.2,3,3,0,0,1-2.6-.2c-.1-.1-.2-.2-.4-.1s-1.2.1-1.8.2-.9-.2-.8-.8Z"/><path class="cls-1" d="M60.7,33.7a10.3,10.3,0,0,1,.1-2.5,2,2,0,0,1,1.3-1.6,6.1,6.1,0,0,1,4.4-.1A2.3,2.3,0,0,1,68,31.3a14.7,14.7,0,0,1,0,2.1c0,.5-.2.6-.6.6H64.6c-.4,0-.7,0-.8.5s.1,1.5.5,1.6a.5.5,0,0,0,.8-.5.8.8,0,0,1,1.1-.8h.4c.5.1,1.2-.4,1.4.5a1.9,1.9,0,0,1-1,2.5,6.4,6.4,0,0,1-4.1.3,2.6,2.6,0,0,1-2.2-2.6A10.8,10.8,0,0,1,60.7,33.7Zm4.5-1.9c0-.5-.1-.9-.7-.8s-.7.3-.7.8.2.7.7.7S65.2,32.3,65.2,31.8Z"/><path class="cls-1" d="M56.6,30.8a2,2,0,0,1,2.3-1.3q1.5.2,1.5,1.5a14.8,14.8,0,0,1,.1,2.1.6.6,0,0,1-.7.7H58.1a.5.5,0,0,1-.6-.6v-.7c-.1-.3-.2-.5-.5-.5a.5.5,0,0,0-.5.5v3.2a.7.7,0,0,0,.2.6,1.5,1.5,0,0,1,.5,1.6c-.1.3-.2.4-.5.4H53.3a.6.6,0,0,1-.6-.6c0-.5-.1-1.1.5-1.5s.2-.4.2-.6V32.7a1.2,1.2,0,0,0-.5-1.2c-.4-.3-.2-1-.1-1.5s.5-.4.9-.4h1.7C56.4,29.6,56.4,29.6,56.6,30.8Z"/><path class="cls-1" d="M40.4,34.6V32.4c0-.4-.1-.7-.6-.8s-.3-.9-.4-1.4a.6.6,0,0,1,.6-.6.4.4,0,0,0,.4-.4v-1c-.1-.7.2-1,.9-1.1l1.5-.3a.5.5,0,0,1,.6.6c0,.5.1,1,.1,1.5a.6.6,0,0,0,.5.8c.4,0,.5.2.5.5s.3,1.4-.7,1.5-.3.3-.3.5v3.1a1,1,0,0,0,.4.9.8.8,0,0,1,.2.5c.3,1.3,0,1.6-1.3,1.6H41.5c-.8-.2-1.1-.5-1.1-1.3a17.6,17.6,0,0,1,0-2.3Z"/></svg>