<svg id="Layer_1" data-name="Layer 1" xmlns="http://www.w3.org/2000/svg" viewBox="0 0 72 72"><defs><style>.cls-1{fill:#002e5d;}</style></defs><title>BYU_Studio_103072</title><path class="cls-1" d="M72,12.7v.5l-.5.2-29,22c-.6.5-.5.7,0,1.1L61.7,51,72,58.8v.4a8.8,8.8,0,0,1-1.5,1.2c-3.1,1.7-7.7,2.3-11.3-.5l-23.9-18a1,1,0,0,0-1.4,0l-5.7,4.4c-.6.4-.7.7-.4,1.3A12.5,12.5,0,0,1,29,53c-.1,6.1-2.9,10.5-8.3,13.3a18.4,18.4,0,0,1-5.1,1.4H12.8C7,66.7,2.9,63.6.9,58.1A14,14,0,0,1,4.1,43.2a14,14,0,0,1,16.4-3.1A1.6,1.6,0,0,0,22,40l4.7-3.6c.4-.3.5-.6,0-.9L22,32a1.2,1.2,0,0,0-1.5-.2,14.4,14.4,0,0,1-7.6,1.3c-6-.9-10.2-4.2-12.1-9.9S.4,12.3,4.8,8a15.1,15.1,0,0,1,7.6-3.7h4.3l.5.2A14.3,14.3,0,0,1,27.7,24.4a.8.8,0,0,0,.4,1.1l5.6,4.3a1.3,1.3,0,0,0,1.8,0L59.1,12.1a10.2,10.2,0,0,1,2.2-1.4A10.1,10.1,0,0,1,72,12.7ZM23,53.2a8.5,8.5,0,1,0-17,0,8.5,8.5,0,0,0,17,0Zm-8.5-26A8.5,8.5,0,1,0,6,18.7,8.4,8.4,0,0,0,14.5,27.2ZM34.6,38.7A2.8,2.8,0,0,0,37.4,36a2.7,2.7,0,0,0-2.8-2.8,2.7,2.7,0,0,0-2.7,2.7A2.8,2.8,0,0,0,34.6,38.7Z"/></svg>