<svg id="Layer_1" data-name="Layer 1" xmlns="http://www.w3.org/2000/svg" viewBox="0 0 72 72"><defs><style>.cls-1{fill:#002e5d;}</style></defs><title>BYU_News_Releases72</title><path class="cls-1" d="M63.3,11.9V67.7A5.3,5.3,0,0,1,59.5,72H12.4l-1.1-.5a4.7,4.7,0,0,1-2.6-4.4V12.4a4.1,4.1,0,0,1,.4-1.9A5.1,5.1,0,0,1,14,7.4h8.3c.8,0,1.2-.1,1.3-1a5,5,0,0,1,4.9-3.9h2.2a1.4,1.4,0,0,0,1.4-.7,4.8,4.8,0,0,1,7.2-.4,3.6,3.6,0,0,0,3.1,1.1h1a4.9,4.9,0,0,1,4.9,4.1c.2.7.5.8,1.1.8h8.3a6.4,6.4,0,0,1,2,.3A4.9,4.9,0,0,1,63.3,11.9ZM13.8,39.7V65.8c0,1.1,0,1.1,1,1.1H47.5a1.6,1.6,0,0,0,1.4-.7L57.3,58a2.9,2.9,0,0,0,.9-2.2V14.1c0-.2-.1-.5,0-.7s-.3-.8-.8-.8H49.2c-.5,0-.7.2-.8.7a5.1,5.1,0,0,1-5.3,4.3H28.7a5.1,5.1,0,0,1-5.1-4.1.9.9,0,0,0-1.1-.9H15c-1.2,0-1.2,0-1.2,1.3ZM36,12.4h6.5c.6,0,.8-.2.8-.8V8.4c0-.5-.1-.8-.7-.8H29.3c-.5,0-.7.2-.7.8v3.2c0,.6.2.9.9.8Z"/><path class="cls-1" d="M35.9,32.5H19.8c-1.3,0-1.3-.1-1.3-1.3V28.1c0-.6.3-.9.9-.8H52.1c1.3,0,1.3,0,1.3,1.3s0,1.9.1,2.9-.3,1-1.1,1H35.9Z"/><path class="cls-1" d="M36,47.1H52.2c1.2,0,1.2,0,1.2,1.2s0,2,.1,3-.4,1.1-1.1,1H19.3c-.6,0-.8-.3-.8-.9V48.1c0-.8.3-1,1-1H36Z"/><path class="cls-1" d="M29.8,37.2H39.9c1.1,0,1.1.1,1.2,1.1v3c-.1,1-.1,1.1-1.1,1.1H19.6c-1,0-1.1-.1-1.1-1.1V38.1c0-.7.3-.9,1-.9Z"/></svg>