<svg id="Layer_1" data-name="Layer 1" xmlns="http://www.w3.org/2000/svg" viewBox="0 0 30 30"><defs><style>.cls-1{fill:#002e5d;}</style></defs><title>BYU_Law_School_News30</title><path class="cls-1" d="M2.4,30A2.3,2.3,0,0,1,.7,29a2.6,2.6,0,0,1,.1-3.6l9.6-9.7c.4-.4.4-.4.8,0s2.1,2.1,3.1,3.1.3.4.1.6c-3.1,3.1-6.2,6.1-9.2,9.2l-.6.7A2.9,2.9,0,0,1,3,30Z"/><path class="cls-1" d="M30,13.7,25.7,18l-5.2,5.1-.3.4a.7.7,0,0,1-.9-.2,9.1,9.1,0,0,0-.7-1.4c0-.1,0-.2.2-.3l.9-1,8.2-8.2a.5.5,0,0,1,.7-.1l.9.5a1,1,0,0,1,.5.4Z"/><path class="cls-1" d="M18,20.9l-.3-.2-3.5-3.6L9.4,12.3c-.3-.3-.3-.3,0-.6,2.9-2.9,5.8-5.9,8.8-8.8.2-.2.3-.2.5,0l8.4,8.4c.2.2.2.3,0,.5l-8.9,8.9C18.2,20.8,18.1,20.8,18,20.9Z"/><path class="cls-1" d="M6.4,10.2a.9.9,0,0,1,.3-.5L9.8,6.6,16,.3c.6-.5.9-.4,1.2.2l.6,1.1c0,.2,0,.3-.1.4l-.2.3L8.7,11c-.5.5-.4.5-1,.2l-.9-.5A.7.7,0,0,1,6.4,10.2Z"/></svg>