<svg id="Layer_1" data-name="Layer 1" xmlns="http://www.w3.org/2000/svg" viewBox="0 0 72 72"><defs><style>.cls-1{fill:#002e5d;}</style></defs><title>BYU_Athletics_News72</title><path class="cls-1" d="M35.1,4.9h3.1a62.6,62.6,0,0,1,7.3.8,42.9,42.9,0,0,1,17.2,6.8,23.3,23.3,0,0,1,7.6,8.6A18.6,18.6,0,0,1,72,26.9v2.8c-.2.9-.3,1.7-.5,2.5A20,20,0,0,1,65,42.1a34.7,34.7,0,0,1-11.7,6.6,52.7,52.7,0,0,1-23.6,2.5,46,46,0,0,1-16.2-4.8A27.8,27.8,0,0,1,3.3,38c-4-5.8-4.4-11.8-.9-18a21.9,21.9,0,0,1,7.2-7.6c6.7-4.6,14.1-6.7,22-7.3Zm6.7,33.2V35.5a2.1,2.1,0,0,1,.6-1.7l4.5-5.5,7.8-9.5c.3-.3.5-.5.9-.2a24.4,24.4,0,0,1,3.3,2.3.5.5,0,0,0,.8-.1l2.4-3.2c.3-.5.3-.7-.2-1a35.1,35.1,0,0,0-8.4-4.8,40,40,0,0,0-7.7-2.2c-.3-.1-.7-.1-.7.4s-.3,2.9-.5,4.3a.6.6,0,0,0,.5.8l3.5.7c.7.2.7.3.2.9L39.7,27.8c-.3.4-.5.4-.9,0L28.3,15.5c-.4-.5-.4-.5.2-.7l3.4-.4c.4,0,.6-.2.5-.7s-.3-2.2-.3-3.4S32,8.7,30.2,8.9a45,45,0,0,0-13.5,3.6,31.6,31.6,0,0,0-6.8,4.1c-.4.3-.5.6-.1,1.1l2.5,3.1c.3.4.5.5.8.2a20.2,20.2,0,0,1,3-2.1.5.5,0,0,1,.8.1l1.3,1.5c4,4.5,7.9,9,11.9,13.4a1.9,1.9,0,0,1,.5,1.1v6.1c0,.5-.2.7-.7.6l-3.6-.6c-.4,0-.6.1-.7.5s-.5,2.7-.8,4.1,0,.6.5.7a44.9,44.9,0,0,0,8.2,1.1,56,56,0,0,0,14.1-1.2c.5-.1.6-.3.5-.8s-.8-2.6-1.1-3.9-.4-.7-.9-.6l-3.6.6c-.5.1-.8,0-.7-.6Z"/><path class="cls-1" d="M47.9,64.6c.3-1.5.5-2.9.8-4.3l1.2-6.6c.1-.6,1.2-1.1,1.7-.6s.2.5.1.7c-.3,1.8-.6,3.5-1,5.3s-.9,4.7-1.3,7c-.1.7-.3,1-1,.9s-1.6.4-2.3-1.7-2-5.9-3.1-8.9a1.4,1.4,0,0,0-.2-.6,2,2,0,0,0-.4.8c-1,3.2-2.1,6.4-3.1,9.6-.2.6-.5.9-1.1.8s-1.6.3-2-1.7c-.6-3.8-1.3-7.7-1.9-11.5-.1-.7,0-.8.6-.8s1.2,0,1.4,1.1c.5,3.4,1.1,6.8,1.6,10.2a.3.3,0,0,0,.1.2c.2-.2.2-.4.3-.6l3.3-10.1c.1-.6.4-.9,1-.8s1.1,0,1.4.8l3.6,10.1A1.1,1.1,0,0,0,47.9,64.6Z"/><path class="cls-1" d="M18.3,63.8c.2-.2.1-.5.1-.7V53.8c0-.8.1-.8.9-.8s1,0,1,.8V66.2c0,.6-.2.8-.8.8a1.8,1.8,0,0,1-1.9-.9l-7.2-9.6L10,56a2,2,0,0,0-.1.7v9.5c0,.3.2.6-.2.7a1.7,1.7,0,0,1-1.4,0c-.3-.1-.2-.5-.2-.7V53.5a.5.5,0,0,1,.5-.5,2.1,2.1,0,0,1,2.1.8l7.2,9.5A1,1,0,0,0,18.3,63.8Z"/><path class="cls-1" d="M23.4,60V53.9c0-.9.1-.9.9-.9h7.6c.7,0,.8.1.8.8s-.1.8-.8.8H26.2c-.8,0-.8.1-.8.8v2.9c0,.8,0,.8.8.8h5.3a1,1,0,0,1,.8,1.4c-.2.3-.5.2-.7.2H26.2c-.8,0-.8,0-.8.8v3.3c0,.5.2.7.7.7H32c.6,0,.8.2.8.8s-.1.8-.8.8H24.1c-.6,0-.7-.2-.7-.8Z"/><path class="cls-1" d="M58.1,67.1a12.6,12.6,0,0,1-3.8-.4c-.5-.1-.9-1.3-.6-1.7s.4-.1.6,0a18,18,0,0,0,5.2.5,2.4,2.4,0,0,0,2.4-2.7,1.9,1.9,0,0,0-1.6-1.9,13.8,13.8,0,0,0-2.9-.1l-1.9-.2a3.2,3.2,0,0,1-2.2-2.4c-.6-2.5.5-4.4,2.9-5a13.8,13.8,0,0,1,6.7.2c.4.1.5.3.5.6v.4c0,.9,0,.9-.8.7a14.7,14.7,0,0,0-4.2-.6,4.3,4.3,0,0,0-1.9.4,2.2,2.2,0,0,0-1.4,2.3,1.9,1.9,0,0,0,1.8,1.9,17.6,17.6,0,0,0,2.3,0,5.5,5.5,0,0,1,1.8.2,3.4,3.4,0,0,1,2.9,3,3.9,3.9,0,0,1-2,4.2A8.2,8.2,0,0,1,58.1,67.1Z"/></svg>