<svg id="Layer_1" data-name="Layer 1" xmlns="http://www.w3.org/2000/svg" viewBox="0 0 30 30"><defs><style>.cls-1{fill:#002e5d;}</style></defs><title>BYU_Devotionals30</title><path class="cls-1" d="M9.6,30a7.6,7.6,0,0,1,.1-1.5,2,2,0,0,1,2-1.7,5.7,5.7,0,0,1,1.3,0c.3,0,.4-.1.4-.4-.1-2.2-.1-4.4-.1-6.6,0-.5.1-.5.6-.5h2.3c.4,0,.4,0,.5.4v6.6c0,.5,0,.5.4.5h1.1a2.1,2.1,0,0,1,2.2,2.1V30Z"/><path class="cls-1" d="M3.2,17.7l.3-1.4c.1-.2.2-.3.4-.2H25.8c.6,0,.6,0,.7.5l.3,1.1h0a.8.8,0,0,1-.8.5c-7.3-.1-14.7-.1-22,0a.8.8,0,0,1-.8-.5Z"/><path class="cls-1" d="M15,15.1H4.4c-.5,0-.5,0-.4-.5L6.4,6c.1-.5.3-.7.8-.7h1c.3.1.3,0,.3-.3V2.8A2.7,2.7,0,0,1,10.6.1a2.7,2.7,0,0,1,3.1,1.4q0,.2.3.3a1,1,0,0,1,.3,1.5,1,1,0,0,1-1.4.4,1.1,1.1,0,0,1-.5-1.5c.2-.3.1-.5-.1-.6a1.2,1.2,0,0,0-1.6-.3,1.4,1.4,0,0,0-1,1.3V5c0,.3.2.3.4.3H22.8c.5,0,.7.2.8.7L26,14.6c.1.5.1.5-.4.5Z"/></svg>