<svg id="Layer_1" data-name="Layer 1" xmlns="http://www.w3.org/2000/svg" viewBox="0 0 30 30"><defs><style>.cls-1{fill:#002e5d;}</style></defs><title>BYU_Bikeshare30</title><path class="cls-1" d="M21.6,17.8a2.8,2.8,0,0,0-2.8,2.8,2.7,2.7,0,0,0,2.8,2.8,2.8,2.8,0,0,0,2.8-2.8A2.9,2.9,0,0,0,21.6,17.8Z"/><path class="cls-1" d="M8.4,17.8a2.9,2.9,0,0,0-2.8,2.8,2.8,2.8,0,0,0,2.8,2.8,2.8,2.8,0,0,0,2.9-2.8A2.9,2.9,0,0,0,8.4,17.8Z"/><path class="cls-1" d="M26.3,0H3.8A3.8,3.8,0,0,0,0,3.8V26.3A3.8,3.8,0,0,0,3.8,30H26.3A3.8,3.8,0,0,0,30,26.3V3.8A3.8,3.8,0,0,0,26.3,0ZM18.8,5.6a1.9,1.9,0,1,1-1.9,1.9A1.9,1.9,0,0,1,18.8,5.6ZM8.4,25.3a4.7,4.7,0,0,1,0-9.4,4.7,4.7,0,0,1,0,9.4Zm7.5-3.7a.9.9,0,1,1-1.8,0V17.3l-3.4-2.5a.9.9,0,0,1-.2-1.3h.1l4.7-4.7a.9.9,0,0,1,1.3,0l.2.3,1.6,3.2h2.2a1,1,0,0,1,1,.9,1.1,1.1,0,0,1-1,1H17.8a.8.8,0,0,1-.8-.6L15.7,11l-3,3,2.9,2.1a1.1,1.1,0,0,1,.3.8Zm5.7,3.7a4.7,4.7,0,1,1,4.7-4.7A4.7,4.7,0,0,1,21.6,25.3Z"/></svg>