<svg id="Layer_1" data-name="Layer 1" xmlns="http://www.w3.org/2000/svg" viewBox="0 0 72 72"><defs><style>.cls-1{fill:#fff;}.cls-2{fill:#b79257;}.cls-3{fill:#002957;}</style></defs><title>BYU_Medallion72</title><path class="cls-1" d="M36.4.5A35.8,35.8,0,1,0,72.1,36.2,35.7,35.7,0,0,0,36.4.5Z"/><path class="cls-2" d="M36.4,72.2a36,36,0,1,1,36-36,36,36,0,0,1-36,36ZM36.4.7A35.6,35.6,0,1,0,71.9,36.2,35.6,35.6,0,0,0,36.4.7Z"/><path class="cls-3" d="M37.8,2.2A34.1,34.1,0,1,0,70.4,37.7,33.9,33.9,0,0,0,37.8,2.2Z"/><path class="cls-1" d="M36.4,13A23.3,23.3,0,1,0,59.6,36.2,23.2,23.2,0,0,0,36.4,13Z"/><path class="cls-2" d="M36.4,58.2a22,22,0,1,1,21.9-22,22.1,22.1,0,0,1-21.9,22Zm0-43.5A21.5,21.5,0,1,0,57.9,36.2,21.5,21.5,0,0,0,36.4,14.7Z"/><path class="cls-3" d="M32.2,52.8h-.7c-.1,0-.1-.1,0-.1s.4-.1.3-.5V50.9c.1-.5,0-.5-.3-.5s-.1-.1,0-.1h1.3c-.3,0-.5.1-.5.5v1.3c0,.4.2.4.5.5h-.6Z"/><path class="cls-3" d="M33.8,52c0-.4.3-.7.8-.9a1,1,0,0,1-.6-.9.9.9,0,0,1,1-.9.9.9,0,0,1,.8.8.9.9,0,0,1-.6.8,1.3,1.3,0,0,1,.7,1,1.1,1.1,0,0,1-1.1,1C34.2,52.8,33.8,52.5,33.8,52Zm.4,0a.7.7,0,0,0,.6.7.6.6,0,0,0,.7-.7c0-.4-.4-.6-.8-.9A1.1,1.1,0,0,0,34.2,52Zm.1-2c0,.4.4.6.7.8a.8.8,0,0,0,.4-.7c0-.4-.2-.6-.5-.6A.6.6,0,0,0,34.3,50Z"/><path class="cls-3" d="M37.2,53.6c.6-1,1.2-2,1.6-2.8H37.7c-.5,0-.6.1-.6.4H37c0-.1.1-.6.1-.7a.1.1,0,0,1,.1-.1H39a.1.1,0,0,1,.1.1c-.4.9-1.2,2.3-1.7,3.2S37.1,53.7,37.2,53.6Z"/><path class="cls-3" d="M40.5,50.6c-.2,0-.3.2-.3.4s.1.2.7.5a1,1,0,0,1,.6.9c0,.6-.5,1.1-1.5,1.2h0c.6-.2,1.1-.5,1.1-1s-.1-.5-.6-.7-.5-.4-.5-.6a.7.7,0,0,1,.1-.5c.2-.4.3-.6.5-.6l.7.2c.1,0,.1-.1.2-.3h.1c-.1.5-.2.7-.4.7Z"/><path class="cls-1" d="M12.3,50.1,12,51.4l-1.4-.3.4-1.4Z"/><path class="cls-1" d="M11.2,45a9.4,9.4,0,0,0,.3.9.1.1,0,0,1-.1.1c-.3-.5-.4-.5-1.1-.3l-1.8.6c-.7.2-.8.3-.7.8s-.1.2-.1.1l-.3-.9a6.4,6.4,0,0,1-.2-.7c-.2-.6-.1-1.4.4-1.5a.9.9,0,0,1,1.1.5,1.2,1.2,0,0,1,.6-1.5,1.4,1.4,0,0,1,1.6,1.2Zm-2.3.3c-.2-.7-.5-.8-.9-.7a.8.8,0,0,0-.6,1.1h.1l.8-.2,1.8-.5c.6-.2.8-.3.6-.7s-.5-.9-1.1-.7a1,1,0,0,0-.5,1.5Z"/><path class="cls-1" d="M8.3,40.7V41H9c.7-.1.9-.2.8-.8H10c0,.2.1.6.1.9s.1.7.2,1h-.2c-.1-.5-.2-.6-1-.5l-1.8.3c-.7.1-.8.2-.8.5s0,.2.1.2-.2.1-.2.1A11.6,11.6,0,0,1,6.1,41c-.2-1.1.1-1.7.7-1.9a1.3,1.3,0,0,1,1.1.7c.8-.5,1.8-1.4,1.7-2.1s.1-.1.1,0a2.4,2.4,0,0,1-1.5,2.6C8.2,40.4,8.3,40.6,8.3,40.7Zm-2,.5H8.1v-.2c-.1-.8-.5-1.1-1-1s-.9.5-.8,1.2Z"/><path class="cls-1" d="M9.8,36.3v1c.1.1-.1.1-.1.1s-.2-.7-1-.7H6.8c-.9,0-1,.1-1,.7H5.6v-2c0-.1.2,0,.2,0s.2.6,1,.6H8.7c.8,0,.9-.1,1-.6s.1-.1.1,0Z"/><path class="cls-1" d="M9.9,30.6a3.3,3.3,0,0,1,.2,1.7,2.2,2.2,0,0,1-2.3,2,2.4,2.4,0,0,1-1.9-2.7,3.1,3.1,0,0,1,.6-1.3h.9c.1,0,0,.1,0,.1a1.3,1.3,0,0,0-1.2,1.3c-.2.9.3,1.6,1.4,1.7s2.1-.5,2.2-1.3,0-.8-.1-.8H9.3c-.8-.1-.8-.1-.9.5H8.2c.1-.3.1-.7.2-1.1s.1-.6.1-.8h.1c0,.6.1.6.9.7Z"/><path class="cls-1" d="M11.4,26.9h-.2c.1-.5,0-.6-.7-.9l-.8-.3L9,27.8l.8.3c.7.2.9.2,1.1-.2H11l-.3.8-.3,1h-.2c.2-.6.1-.7-.6-.9l-1.7-.6c-.8-.3-.9-.3-1.2.3H6.6l.4-1a3.1,3.1,0,0,0,.2-.8c0-.1.2,0,.2,0s0,.6.7.8l.7.3.7-2.1-.7-.2c-.7-.3-.9-.2-1.1.2a.1.1,0,0,1-.1-.1l.3-.8.3-.9c0-.1.2,0,.2,0s-.1.7.6,1l1.8.6c.7.2.8.2,1.1-.4s.2,0,.1.1l-.3.9A4.7,4.7,0,0,0,11.4,26.9Z"/><path class="cls-1" d="M13.5,22.5h-.1c.1-.3.2-.4.1-.5l-.8-.2h-.5l-.6,1.2.2.4c.3.3.4.5.6.6s.2-.1.3-.3h.2a.9.9,0,0,0-.4.6l-.3.6H12c.2-.4.1-.7-.3-1.3L9.8,20.7h.1l3.1.5c.7.1,1,.2,1.3-.3h.2c-.2.1-.3.4-.5.7A4.1,4.1,0,0,0,13.5,22.5Zm-2.1.1.6-1-1.5-.3Z"/><path class="cls-1" d="M17,17.8h-.1c.3-.3.3-.5-.3-1L15,15.3l1.4,3.2c.1,0,0,.1,0,.1l-3.4-1L14.5,19c.5.5.7.6,1.1.2s.2.1.1.1l-.4.5a1.7,1.7,0,0,0-.6.6c0,.1-.1-.1-.1-.1s.2-.6-.3-1.1l-1.6-1.4a.6.6,0,0,0-.9.1h-.1l.9-1,3.2.9-.9-1.9a4.6,4.6,0,0,0-.5-1,3.8,3.8,0,0,0,.8-1.1h.2c-.4.5-.4.7.2,1.1L17,16.1c.6.5.7.6,1.2.1h.1l-.7.7A2.8,2.8,0,0,1,17,17.8Z"/><path class="cls-1" d="M21.2,11.8l.5.8c.5.7.6.7,1.1.5s.1.1,0,.1l-.7.5-.8.5c-.1.1-.1-.1-.1-.1s.5-.3,0-1.1l-.5-.7-.9-.4c-.9-.5-1.1-.5-1.6-.3h-.1l.8-.5.7-.5h.1c-.4.4-.2.4.7.8l.6.3v-.8c0-1.1,0-1-.5-.8V9.9l.8-.4a1,1,0,0,0,.5-.4v.2c-.4.3-.5.5-.6,1.4Z"/><path class="cls-1" d="M23.5,10.5a2.3,2.3,0,0,1,1.4-2.9,2.2,2.2,0,0,1,2.8,1.1,2.3,2.3,0,0,1-1.3,2.9A2.2,2.2,0,0,1,23.5,10.5Zm.6-.5a1.8,1.8,0,0,0,2.3,1.3,1.5,1.5,0,0,0,.8-2.1,2,2,0,0,0-2.4-1.3A1.5,1.5,0,0,0,24.1,10Z"/><path class="cls-1" d="M32.7,8.3a1.5,1.5,0,0,1-1.3,1.8,1.7,1.7,0,0,1-2.1-1.2L29,7.5c-.1-.8-.2-.9-.7-.8s-.1-.2-.1-.2h1l.9-.2h0c-.5.2-.5.4-.4,1.1l.2,1.3a1.3,1.3,0,0,0,1.5,1.1c.8-.2,1.2-.7,1-1.5l-.2-1.4c-.2-.7-.3-.8-.8-.8s-.1-.2,0-.1l.8-.2h.6c.1-.1.1.1.1.1s-.6.3-.4,1Z"/><path class="cls-1" d="M38.3,8.4a3.7,3.7,0,0,0,.1,1.1h-.2l-2.9-3V8.4s0,.9.6.9v.2H34.4c-.1,0-.1-.2,0-.2s.7-.9.7-.9V6.3c0-.2-.5-.6-.8-.7h1.1l2.8,3V6.6s-.1-.9-.7-.9,0-.2.1-.2h1.5c.1,0,0,.2,0,.2s-.7.9-.7.9Z"/><path class="cls-1" d="M43.5,10a3.3,3.3,0,0,1-1.7.2A2.1,2.1,0,0,1,40,7.8a2.2,2.2,0,0,1,2.7-1.7,3.1,3.1,0,0,1,1.3.6,3.9,3.9,0,0,1-.1.9c0,.1-.2,0-.2,0s-.3-1.1-1.2-1.3-1.6.3-1.8,1.4A1.6,1.6,0,0,0,42,9.9a.9.9,0,0,0,.8,0V9.5c.1-.8.1-.8-.5-1V8.3l1.1.3h.8v.2c-.6-.1-.6,0-.8.7Z"/><path class="cls-1" d="M50.5,11.8a1.7,1.7,0,0,1-2.3.6,1.6,1.6,0,0,1-.8-2.2L48,8.9c.3-.7.3-.8-.1-1.1s0-.2,0-.1l.9.5.8.3c.1,0,0,.2,0,.2s-.7-.1-1,.5L48,10.4a1.3,1.3,0,0,0,.5,1.8,1.1,1.1,0,0,0,1.7-.6l.7-1.3c.3-.6.3-.8-.2-1.1h.1l.7.4.7.3h-.1c-.5-.2-.6,0-.9.6Z"/><path class="cls-1" d="M54.9,15.4l-.7.9a.1.1,0,0,1-.1-.1l-.5-4.3-1.2,1.5c-.4.6-.5.8-.1,1.2h-.1l-.5-.4-.7-.6h.1c.4.3.6.2,1-.3l1.3-1.7c.2-.2,0-.8-.2-1v-.2l.8.8.5,4,1.2-1.5c.4-.5.4-.7.1-1.1H56c.1.2.3.3.6.5l.6.4v.2c-.5-.3-.7-.2-1.1.3Z"/><path class="cls-1" d="M56,18l-.8-.7h.2c.4.3.5.3,1.1-.2l1.3-1.3c.6-.5.6-.6.3-1.1h.1c.1.3.4.5.6.8l.7.6c0,.1-.1.2-.1.1s-.6-.3-1.2.2l-1.3,1.3c-.5.5-.6.6-.3,1.1h-.1Z"/><path class="cls-1" d="M58.4,21.1c-.1,0-.1,0-.1-.1L60,18.3c.4-.7.4-.9.2-1.4h.1l.5.7.6.9h-.1c-.2-.2-.3-.4-.4-.3l-.5.6-1.2,1.9,2.2-.4.7-.2c.1-.1.1-.2,0-.5s.1-.1.1-.1l.3.6.5.6h-.2c-.2-.3-.5-.4-1.3-.2Z"/><path class="cls-1" d="M61,25.9l-.4-1-.8-1.6a.1.1,0,0,1,.1-.1c.4.5.5.5,1.2.2l1.6-.8c.7-.3.8-.4.6-1h.1l.8,1.7.6,1.1H64c.3-.2.3-.3,0-1l-.2-.5-.7.3-.7.3.2.4c.3.6.3.6.6.6s.1.1,0,.1l-.4.2h-.3c0,.1-.1-.1-.1-.1s.3-.2,0-.8l-.2-.4-.7.4c-.7.3-.8.4-.6.6v.3c.4.9.5.8.9.7v.2l-.7.2Z"/><path class="cls-1" d="M63.6,27.8c0-.1-.1-.1-.1-.2l-.6.2c-.7.2-.9.3-.7.9s-.2.1-.2,0a2.4,2.4,0,0,0-.2-.8,6.2,6.2,0,0,0-.3-1h.1c.2.5.3.6,1.1.4l1.8-.5c.6-.2.8-.4.7-.7v-.2h.1a9.1,9.1,0,0,1,.6,1.6c.3,1.1.1,1.7-.5,1.9a1.2,1.2,0,0,1-1.2-.4c-.7.5-1.5,1.6-1.3,2.2s-.2.1-.2.1a2.3,2.3,0,0,1,1.2-2.8C63.7,28.1,63.6,28,63.6,27.8Zm1.9-.7a1.7,1.7,0,0,0-.8.2l-.9.2v.3c.2.7.6,1,1.2.8s.7-.6.6-1.3Z"/><path class="cls-1" d="M63,31.3h.9a.1.1,0,0,1,.1.1c-.6.2-1.1.6-1,1.2s.4.7.8.6.7-1.9,1.8-2a1.2,1.2,0,0,1,1.4,1,2.4,2.4,0,0,1-.2.9l-.7.2s-.1-.2,0-.2a.7.7,0,0,0,.6-.9.7.7,0,0,0-.7-.6c-.9.2-.7,1.9-1.8,2.1a1.2,1.2,0,0,1-1.4-1.1A1.6,1.6,0,0,1,63,31.3Z"/><path class="cls-1" d="M63.1,35.8v-1h.1c.1.5.2.6,1,.6H66c.8-.1.9-.1.9-.7h.2v1.9c0,.1-.1.1-.1,0s-.3-.6-1-.6H64.2c-.7,0-.9,0-.9.6h-.2Z"/><path class="cls-1" d="M65.8,41.9a.1.1,0,0,1,.1-.1c.2,0,.4-.2.5-.9v-.5l-2.6-.3c-.7-.1-.9-.1-1,.5a.1.1,0,0,1-.1-.1c0-.2.1-.6.1-.9a3.1,3.1,0,0,0,.1-.9c0-.1.1-.1.1,0s.1.6.9.7l2.6.3v-.6c.1-.6,0-.8-.3-.9V38h.6c.1,0,.2.1.3,0s.1.2,0,.2-.2,0-.3.9L66.7,41c-.1.8-.1.9.1.9s0,.2-.1.2h-.9Z"/><path class="cls-1" d="M63.8,44.9l-.9-.2c-.9-.3-.9-.2-1.1.3s-.2,0-.1-.1a1.5,1.5,0,0,0,.2-.8,3.8,3.8,0,0,0,.3-1s.2,0,.2.1-.2.6.7.8l.8.3,1-.3c1-.3,1.2-.4,1.3-.9s.2,0,.2.1a4.6,4.6,0,0,0-.3.9,2.4,2.4,0,0,0-.2.8c0,.1-.2,0-.2,0s0-.5-1-.2l-.7.2.5.7c.7.8.7.7.9.3s.2,0,.1,0-.1.5-.2.8l-.2.6c0,.1-.2,0-.2,0s.1-.7-.5-1.5Z"/><path class="cls-1" d="M60.4,50.2l1.4-.4.3,1.4-1.3.3Z"/><path class="cls-1" d="M14.8,55.8H15a.9.9,0,0,0,1.3,0,.8.8,0,0,0,.1-1.3l-.2-.2-.6.5-1.4,1.3c-.5.5-.6.6-.3,1s-.1.2-.1.1l-.6-.6-.7-.8h.2c.4.4.5.4,1.1-.1l1.3-1.3c.6-.5.6-.6.3-1.1h.1a1.3,1.3,0,0,0,.6.7l.5.6a1.3,1.3,0,0,1,.3,1.8,1.3,1.3,0,0,1-2-.4Z"/><path class="cls-1" d="M18.1,58.9l-.2-.2-.4.6c-.5.5-.5.7-.1,1.1h-.1l-.7-.6-.8-.6h.1c.5.3.6.3,1.1-.3l1.1-1.5c.5-.5.5-.7.3-.9s-.2-.1-.2-.2,0-.1,0-.1a4.6,4.6,0,0,1,1.4,1c.9.6,1.1,1.3.7,1.8a1.2,1.2,0,0,1-1.2.3c-.3.9-.4,2.2.2,2.7h-.1a2.4,2.4,0,0,1-.7-3Zm1.1-1.7c-.1,0-.2.2-.5.6l-.6.7c0,.1.1.1.2.2s1.1.5,1.4,0,.3-1-.3-1.4Z"/><path class="cls-1" d="M21.1,60.9a2.4,2.4,0,0,1,3.1-.9,2.2,2.2,0,0,1,1,2.9,2.2,2.2,0,0,1-3,.8A2.1,2.1,0,0,1,21.1,60.9Zm.8.1a1.8,1.8,0,0,0,.5,2.6,1.5,1.5,0,0,0,2.1-.8,1.9,1.9,0,0,0-.5-2.6A1.5,1.5,0,0,0,21.9,61Z"/><path class="cls-1" d="M27.8,65.9h-.1l-.4-3.2c-.1-.8-.2-1-.7-1.2s0-.2.1-.2l.7.3,1.1.3a.1.1,0,0,1-.1.1c-.3,0-.4-.1-.4.1s-.1.3,0,.7l.3,2.2,1.4-1.7a1.5,1.5,0,0,0,.4-.6c0-.1-.1-.2-.4-.3s0-.2.1-.1l.7.2.6.2c.1,0,0,.1,0,.1s-.6.1-1.2.7Z"/><path class="cls-1" d="M31.3,64.8a2.2,2.2,0,0,1,2.6-1.9,2.1,2.1,0,0,1,2,2.2A2.2,2.2,0,0,1,33.3,67,2.1,2.1,0,0,1,31.3,64.8Zm.8-.2a1.8,1.8,0,0,0,1.4,2.2,1.5,1.5,0,0,0,1.7-1.5,1.9,1.9,0,0,0-1.5-2.2C32.8,63,32.2,63.5,32.1,64.6Z"/><path class="cls-1" d="M36.5,67.8c.5,0,.6-.2.6-.4s-.1-.2-.3-.3-.2-.2-.2-.3a.3.3,0,0,1,.3-.3c.3,0,.5.2.5.6a.9.9,0,0,1-.9.9C36.4,68,36.5,67.8,36.5,67.8Z"/><path class="cls-1" d="M45.1,64.4a1.6,1.6,0,0,1-1.3,1.9,1.6,1.6,0,0,1-2.1-1.1l-.4-1.4c-.2-.8-.3-.9-.8-.8s-.1-.1,0-.1l1-.2.8-.3c.1,0,.1.2,0,.2s-.5.3-.3,1l.3,1.3a1.2,1.2,0,0,0,1.5,1c.8-.2,1.2-.7,1-1.5L44.4,63c-.2-.7-.3-.8-.8-.7s-.1-.2,0-.2h.8l.7-.2h0c-.5.2-.5.4-.4,1Z"/><path class="cls-1" d="M49.8,60.5h-.2c-.2-.2-.4-.3-1-.1l-.5.3,1.1,2.3c.3.7.4.8.9.6s.1.2.1.2l-.8.3-.9.4c-.1.1-.1-.1-.1-.1s.5-.4.2-1.1L47.5,61l-.5.3c-.6.2-.8.5-.7.8h-.1l-.3-.6c0-.1-.1-.2-.1-.3h.1c.1.1.2.1,1-.3l1.6-.7c.8-.4.8-.4.8-.6s.1-.1.1,0l.2.5Z"/><path class="cls-1" d="M54,61.6h-.1c.2-.2.4-.3.3-.4s-.3-.3-.6-.5l-.4-.3-1.1.7v.5l.2.8c.1.1.2,0,.5-.1H53l-.6.4-.6.4h-.1c.3-.3.4-.6.3-1.3l-.6-3.3s.1-.1.1,0l2.7,1.8c.5.3.8.5,1.3.2v.2l-.7.4Zm-1.9-.8.9-.7-1.2-.8Z"/><path class="cls-1" d="M58.7,57.6h-.1c.3-.4.2-.5-.3-1l-.6-.6-1.5,1.5.6.6c.5.5.6.6,1,.3s.2,0,.1.1l-.6.5-.7.8h-.1c.3-.5.3-.6-.2-1.1L55,57.2c-.6-.6-.7-.6-1.2-.2a.3.3,0,0,1-.1-.2l.8-.7.5-.6h.2c-.3.4-.3.6.2,1.1l.6.5,1.5-1.5-.5-.6c-.6-.5-.7-.5-1.1-.2v-.2a1.9,1.9,0,0,0,.7-.6l.6-.7h.1c-.4.5-.3.6.2,1.2L58.7,56c.6.5.7.6,1.2.2s.1,0,.1.1l-.7.6Z"/><path class="cls-2" d="M50.2,46.9H22.9c-.1-.1-.2-.2-.2-.3a.2.2,0,0,1,.2-.2H50.2c.2,0,.3.1.3.2s-.1.2-.3.2Z"/><path class="cls-2" d="M50.2,27.6H22.9l-.2-.3c0-.2.1-.3.2-.2H50.2c.2-.1.3,0,.3.2s-.1.2-.3.2Z"/><path class="cls-3" d="M26.9,22.1h-.4v1h.2c.5,0,.5-.1.6-.3h.1a.6.6,0,0,0-.1.4v.2c.1.1,0,.1-.1,0h-.7v.5c0,.5,0,.5.4.6H25.7c.3-.1.4-.1.4-.6V22.6c0-.5,0-.5-.4-.6s-.1-.1,0-.1h1.8c.1,0,.1,0,.1.1v.4h-.1C27.5,22.2,27.5,22.1,26.9,22.1Z"/><path class="cls-3" d="M28.1,23.2a1.4,1.4,0,0,1,1.5-1.3A1.3,1.3,0,0,1,31,23.2a1.4,1.4,0,0,1-1.5,1.3A1.3,1.3,0,0,1,28.1,23.2Zm.4-.1a1.1,1.1,0,0,0,1.1,1.2.9.9,0,0,0,.9-1c0-.8-.5-1.3-1-1.3S28.5,22.3,28.5,23.1Z"/><path class="cls-3" d="M34,23.5a1,1,0,0,1-1.1,1,1,1,0,0,1-1.1-1v-.9c0-.5-.1-.6-.4-.6s-.1-.1,0-.1h1.2c-.4,0-.4.6-.4.6v.8a.8.8,0,0,0,.7.9.7.7,0,0,0,.8-.8v-1c0-.5,0-.5-.4-.6h1c-.4.1-.4.2-.4.6v1Z"/><path class="cls-3" d="M37.5,23.8v.7h-.1l-2-2v1.3c0,.3.1.5.4.5h-.9c.3,0,.4-.1.4-.5V22.4c0-.2-.4-.4-.6-.4v-.2h.8l1.8,1.9V22.5c0-.4,0-.5-.3-.5s-.1-.1,0-.1h.8a.1.1,0,0,1,.1.1c-.4,0-.4.2-.4.5v1.3Z"/><path class="cls-3" d="M39,24.4h-.7c.4,0,.4-.1.4-.5V22.6c0-.5,0-.6-.4-.6h1.3c1,0,1.5.5,1.5,1.2a1.4,1.4,0,0,1-1.5,1.3Zm.1-2.3v1.8c0,.3,0,.4.5.4a.9.9,0,0,0,1-1,1.1,1.1,0,0,0-1.2-1.2Z"/><path class="cls-3" d="M43.3,24.5H41.4c-.1,0-.1-.1,0-.1s.4-.1.4-.6V22.6c0-.5,0-.6-.4-.6s-.1-.1,0-.1h2v.3h-.2c0-.1,0-.2-.6-.2h-.3v1h.3c.4,0,.5,0,.5-.2h.1v.6h-.1c-.1-.2-.1-.2-.5-.2h-.3v.5c0,.5,0,.5.2.5h.2c.6,0,.6-.1.7-.3h.1c0,.1-.1.3-.1.4S43.4,24.5,43.3,24.5Z"/><path class="cls-3" d="M44.7,24.4H44c-.1,0,0-.1,0-.1s.4-.1.4-.5V22.6c0-.5-.1-.6-.4-.6h1.3c.9,0,1.4.5,1.4,1.2a1.3,1.3,0,0,1-1.4,1.3Zm.2-2.3v1.8c0,.3,0,.4.6.4a.9.9,0,0,0,1-1,1.1,1.1,0,0,0-1.2-1.2Z"/><path class="cls-3" d="M22.5,35.8v-2h1.6c1,0,1.6.1,1.6,1.1S25.4,36,24.1,36H22.5Zm0,4.1V37.6h1.4c1,0,2.1,0,2.1,1.3s-.8,1.3-1.9,1.3H22.5Zm-3.2-7.2v8.5c0,.3,0,.4-.2.5a.8.8,0,0,1-.7.2h0c-.1,0-.1.2,0,.2h6.9c2.9,0,4.1-1.2,4.1-3a2.4,2.4,0,0,0-1.8-2.5h0a2.1,2.1,0,0,0,1.5-2.2c0-1.9-1.3-2.5-4.1-2.5H18.4c-.1,0-.1.1,0,.1h0l.7.2C19.3,32.3,19.3,32.4,19.3,32.7Z"/><path class="cls-3" d="M54.2,32.8c0-.4,0-.5.2-.6l.7-.2H49.9a1.2,1.2,0,0,1,.7.2c.2.1.2.2.2.5v5.2a2,2,0,0,1-4,0V32.7c0-.3,0-.4.2-.5a1.1,1.1,0,0,1,.6-.2h0c.1,0,.1-.1,0-.1H43.2c.2.2.2.3.2.6v5.1c0,2.4,1.3,4.5,5.4,4.5s5.4-2.1,5.4-4.5v-5Z"/><path class="cls-3" d="M38.7,42.1v-.2H38a.6.6,0,0,1-.2-.5V38l3.6-5.2.5-.6H37.6c.2,0,.5,0,.5.3a22,22,0,0,1-2,3.1c0,.1-.1.2-.1.4a.5.5,0,0,0-.2-.4,21.6,21.6,0,0,1-1.9-3.1c0-.3.3-.3.5-.3H29.9a.1.1,0,0,0,.1.1l.5.6L34.1,38v3.2c0,.3,0,.4-.2.5a.8.8,0,0,1-.7.2h0c-.1,0-.1.2,0,.2Z"/></svg>