<svg id="Layer_1" data-name="Layer 1" xmlns="http://www.w3.org/2000/svg" viewBox="0 0 30 30"><defs><style>.cls-1{fill:#fff;}.cls-2{fill:#b79257;}.cls-3{fill:#002957;}</style></defs><title>BYU_Medallion30</title><path class="cls-1" d="M15.4.3A14.9,14.9,0,1,0,30.3,15.2,14.9,14.9,0,0,0,15.4.3Z"/><path class="cls-2" d="M15.4,30.2a15,15,0,1,1,15-15,15,15,0,0,1-15,15ZM15.4.4A14.9,14.9,0,0,0,.5,15.2,14.9,14.9,0,0,0,15.4,30.1,14.9,14.9,0,0,0,15.4.4Z"/><path class="cls-3" d="M16,1A14.2,14.2,0,0,0,1.2,14.6,14.1,14.1,0,0,0,14.7,29.4,14.2,14.2,0,0,0,29.6,15.9,14.4,14.4,0,0,0,16,1Z"/><path class="cls-1" d="M15.4,5.5a9.7,9.7,0,1,0,9.7,9.7A9.7,9.7,0,0,0,15.4,5.5Z"/><path class="cls-2" d="M15.4,24.4a9.2,9.2,0,1,1,9.1-9.2,9.2,9.2,0,0,1-9.1,9.2Zm0-18.1a9,9,0,1,0,8.9,8.9,8.9,8.9,0,0,0-8.9-8.9Z"/><path class="cls-3" d="M13.6,22.1h-.3c.2,0,.2,0,.2-.2v-.6c0-.1,0-.1-.2-.2h.6c-.2.1-.2.1-.2.2v.6c0,.1,0,.2.2.2h-.3Z"/><path class="cls-3" d="M14.3,21.8c0-.2.1-.3.3-.4l-.2-.3c0-.3.1-.4.4-.4a.3.3,0,0,1,.3.3.5.5,0,0,1-.2.4.5.5,0,0,1,.3.3.5.5,0,0,1-.5.5A.4.4,0,0,1,14.3,21.8Zm.1,0a.3.3,0,0,0,.3.3.3.3,0,0,0,.3-.3.3.3,0,0,0-.3-.3A.3.3,0,0,0,14.4,21.8Zm.1-.8c0,.1.2.2.3.3s.2-.2.2-.3-.1-.2-.3-.2S14.5,20.8,14.5,21Z"/><path class="cls-3" d="M15.7,22.5l.7-1.2h-.5c-.2,0-.2.1-.2.2h-.1a1,1,0,0,1,.1-.3h.8l-.7,1.3Z"/><path class="cls-3" d="M17.1,21.2c-.1,0-.1.1-.1.2s0,.1.2.2.3.2.3.4-.2.4-.6.5h0c.2-.1.4-.2.4-.5s0-.2-.2-.2-.2-.2-.2-.3v-.2c.1-.2.1-.2.2-.2h.3a.1.1,0,0,0,.1-.1h0c0,.2,0,.3-.1.3Z"/><path class="cls-1" d="M5.3,21v.6l-.6-.2.2-.5Z"/><path class="cls-1" d="M4.9,18.9c0,.1.1.3.1.4H4.9c0-.2-.1-.2-.4-.1l-.7.2c-.3.1-.4.2-.3.4H3.4a.8.8,0,0,0-.1-.4v-.3a.5.5,0,0,1,.2-.6.4.4,0,0,1,.4.2.6.6,0,0,1,.3-.6c.2-.1.6.1.7.5A.4.4,0,0,0,4.9,18.9Zm-1,.1c-.1-.3-.2-.3-.4-.3a.4.4,0,0,0-.2.5h.4l.7-.3c.3-.1.3-.1.3-.3a.4.4,0,0,0-.5-.2c-.2,0-.3.3-.2.6Z"/><path class="cls-1" d="M3.7,17.1H4c.3-.1.3-.1.3-.3h.1v.3c0,.2.1.3.1.4H4.4c0-.2-.1-.2-.4-.2H3.3c-.3.1-.4.2-.4.3h0c-.1-.1-.1-.4-.2-.7s.1-.7.3-.7a.4.4,0,0,1,.5.2c.3-.2.7-.6.7-.9h.1a1,1,0,0,1-.7,1.1A.3.3,0,0,0,3.7,17.1Zm-.8.2h.7c-.1-.3-.2-.4-.4-.4s-.4.2-.4.5S2.8,17.3,2.9,17.3Z"/><path class="cls-1" d="M4.3,15.3v.4H4.2c0-.2,0-.3-.4-.3H3c-.3,0-.4.1-.4.3H2.5a.8.8,0,0,0,0-.8h.1c0,.2.1.3.4.3h.8c.3,0,.4,0,.4-.2h.1Z"/><path class="cls-1" d="M4.3,12.9a1.5,1.5,0,0,1,.1.7c-.1.6-.5.9-.9.8a.9.9,0,0,1-.8-1.1,1.2,1.2,0,0,1,.2-.5h.4a.5.5,0,0,0-.5.5c-.1.4.1.6.6.7a.7.7,0,0,0,.9-.6c0-.2,0-.3-.1-.3H4.1c-.3-.1-.3-.1-.4.2H3.6a.7.7,0,0,0,.1-.5v-.3h.1c0,.2,0,.3.3.3Z"/><path class="cls-1" d="M5,11.4H4.9c0-.2,0-.2-.3-.3H4.3l-.3.8h.3c.3.1.4.1.4-.1h.1v.3c-.1.1-.1.3-.2.4h0c0-.3,0-.3-.3-.4l-.7-.3c-.3-.1-.4-.1-.5.2H3a4.3,4.3,0,0,0,.1-.5.4.4,0,0,0,.1-.3h.1c-.1.2,0,.3.3.4h.3l.3-.9H3.9c-.3-.1-.4-.1-.5.1h0c0-.1.1-.2.1-.4a.6.6,0,0,0,.1-.4h.1c-.1.2,0,.3.3.4l.7.2c.3.1.4.1.5-.1h0c0,.1-.1.2-.1.4S5,11.2,5,11.4Z"/><path class="cls-1" d="M5.8,9.5h0c0-.1.1-.2,0-.2s-.2-.1-.3-.1H5.3L5,9.6v.2l.3.2h.2l-.2.2a.4.4,0,0,0-.1.3H5.2c.1-.1.1-.3-.1-.5L4.3,8.8h0l1.3.2c.3.1.4.1.6-.1h0L6,9.1A.8.8,0,0,1,5.8,9.5ZM5,9.6l.2-.5H4.6Z"/><path class="cls-1" d="M7.3,7.6h0c.1-.1.1-.2-.2-.4l-.7-.6.7,1.3a.1.1,0,0,1-.1.1L5.6,7.5l.7.6c.2.1.2.2.4,0h.1l-.2.2-.3.3h0c.1-.2.1-.2-.1-.4l-.7-.7H5.1s-.1,0,0-.1.2-.2.3-.4l1.4.4-.4-.8a.8.8,0,0,0-.2-.4l.4-.4h0c-.1.2-.1.3.1.5l.6.5c.2.2.3.2.5,0h0c0,.1-.2.2-.2.3Z"/><path class="cls-1" d="M9.1,5.1l.2.3c.2.3.2.3.4.2h0c0,.1-.2.2-.3.2l-.3.3H9c.2-.1.2-.1,0-.5V5.3l-.4-.2c-.4-.2-.5-.2-.7-.1s-.1-.1,0-.1l.3-.2.3-.2h0c-.2.1-.1.1.3.3H9V4.7c0-.5,0-.5-.2-.4s-.1,0,0,0l.3-.2.2-.2h0c-.2.1-.2.2-.2.6Z"/><path class="cls-1" d="M10,4.5a1,1,0,0,1,1.8-.7A1.1,1.1,0,0,1,11.2,5,1,1,0,0,1,10,4.5Zm.2-.2c.2.5.7.7,1,.5a.5.5,0,0,0,.3-.8c-.2-.5-.6-.7-.9-.6A.7.7,0,0,0,10.2,4.3Z"/><path class="cls-1" d="M13.9,3.6a.8.8,0,0,1-.6.8.9.9,0,0,1-.9-.6V3.3c-.1-.4-.1-.4-.3-.4h.8c-.3,0-.3.1-.2.4v.5c.1.4.4.6.6.5s.5-.3.4-.6V3c0-.3-.1-.3-.3-.3h.6c-.2,0-.2.1-.2.4Z"/><path class="cls-1" d="M16.2,3.7v.4h-.1L14.9,2.8v.8s0,.4.3.4h-.7c.3,0,.3-.4.3-.4V2.8l-.3-.3H15l1.1,1.3V2.9s0-.4-.2-.4-.1-.1,0-.1h.6c-.2,0-.3.4-.3.4Z"/><path class="cls-1" d="M18.3,4.3h-.7A.9.9,0,1,1,18,2.7a.8.8,0,0,1,.5.2v.4h-.1c.1-.2-.1-.5-.5-.5s-.6.1-.7.5.1.9.5,1h.4c0-.3,0-.3-.2-.4h.8c-.3,0-.3,0-.3.4Z"/><path class="cls-1" d="M21.2,5c-.1.4-.5.5-.9.3a.8.8,0,0,1-.4-.9l.3-.5c.2-.3.1-.4,0-.5s0-.1,0-.1a.5.5,0,0,0,.4.2l.3.2h0c-.3,0-.3,0-.4.3l-.3.5a.5.5,0,0,0,.2.7.4.4,0,0,0,.7-.2l.3-.6c.1-.2.1-.3,0-.4s0-.1,0-.1l.3.2h.2c.1,0,0,.1,0,.1s-.2-.1-.4.2Z"/><path class="cls-1" d="M23.1,6.6l-.3.3h-.1l-.2-1.8-.5.6c-.1.3-.2.4,0,.5h0l-.3-.2-.3-.2h.1c.2.1.3.1.4-.1l.6-.7c0-.1,0-.4-.1-.5h0l.4.3L23,6.5l.4-.6c.2-.3.2-.3.1-.5h0l.3.3H24c.1.1,0,.1,0,.1s-.3-.1-.4.1Z"/><path class="cls-1" d="M23.5,7.7l-.3-.4h.1c.1.1.2.1.4-.1l.6-.5c.2-.2.2-.3.1-.5h0l.3.3.3.3h-.1c-.1-.1-.2-.1-.4.1l-.6.5c-.2.2-.2.3-.1.5h0Z"/><path class="cls-1" d="M24.5,8.9h0l.7-1.1c.2-.3.2-.4.1-.6h0l.2.2.3.4h-.2l-.2.3-.5.8.9-.2h.3V8.3h0l.2.2c.1.2.1.2.1.3h0c-.1-.1-.2-.2-.6-.1Z"/><path class="cls-1" d="M25.6,10.9c0-.1-.1-.2-.1-.4l-.4-.7h.1c.1.2.2.2.5.1l.7-.3c.2-.2.3-.2.2-.5h0a2.5,2.5,0,0,0,.4.7.5.5,0,0,0,.2.4h-.3c.1-.1.1-.1,0-.4V9.7h-.6v.2c.1.2.1.3.2.2h-.3c.1-.1.1-.1,0-.4h-.4c-.3.2-.3.2-.2.3h0c.2.4.2.4.4.3h-.4Z"/><path class="cls-1" d="M26.7,11.7h-.3c-.3.1-.3.2-.3.4H26v-.4c-.1-.1-.1-.3-.2-.4h.1c.1.2.1.3.4.2l.8-.2c.3-.1.3-.2.3-.3h0l.2.6c.2.5.1.7-.2.8s-.3,0-.5-.2-.6.7-.5,1h-.1a1,1,0,0,1,.5-1.2A.3.3,0,0,1,26.7,11.7Zm.8-.3h-.7a.5.5,0,0,0,.5.4c.3-.1.3-.3.2-.6Z"/><path class="cls-1" d="M26.5,13.2h.4c-.3.1-.5.2-.4.5s.1.3.3.2.3-.8.8-.8.5.1.5.4v.4h-.4c.2-.1.3-.2.3-.4s-.1-.2-.3-.2-.3.8-.8.8-.5-.1-.5-.4A.4.4,0,0,1,26.5,13.2Z"/><path class="cls-1" d="M26.5,15.1v-.5h.1c0,.3,0,.3.3.3h.8c.3,0,.4-.1.4-.3h.1v.8h-.1c0-.2-.1-.3-.4-.2H27c-.3,0-.4,0-.4.2h-.1Z"/><path class="cls-1" d="M27.6,17.6h0c.2,0,.3,0,.3-.3V17l-1.1-.2c-.3,0-.3,0-.4.2h0v-.3c0-.2.1-.3.1-.5h0c0,.2.1.2.4.3h1v-.2a.6.6,0,0,0-.2-.5h.4c-.1,0-.1,0-.1.4v.7c0,.4-.1.4,0,.4h-.4Z"/><path class="cls-1" d="M26.8,18.9l-.4-.2c-.3-.1-.4,0-.4.2h-.1c0-.1.1-.3.1-.4a.6.6,0,0,0,.1-.4h.1c0,.3-.1.3.3.4h.7c.5-.1.5-.2.6-.4h.1c-.1.1-.1.3-.2.4v.3h-.1c0-.2,0-.2-.4,0h-.3l.2.3c.3.4.3.3.4.1h0c0,.1-.1.2-.1.3v.3h0c0-.3,0-.3-.3-.7Z"/><path class="cls-1" d="M25.4,21h.5l.2.6h-.6Z"/><path class="cls-1" d="M6.4,23.4h.1a.3.3,0,0,0,.5,0c.2-.2.2-.4,0-.5H7l-.3.2-.6.5c-.2.2-.2.3-.1.4H6l-.3-.3-.3-.3h.1c.2.1.2.1.4-.1l.6-.5c.2-.2.3-.3.1-.5h.1l.2.3a.2.2,0,0,1,.2.2c.3.3.3.6.1.8s-.5.1-.8-.2Z"/><path class="cls-1" d="M7.8,24.7H7.7l-.2.2c-.2.3-.2.3,0,.5H7.4l-.3-.2-.3-.2h0c.2.1.3.1.5-.1l.5-.6c.2-.3.2-.4.1-.4H7.8l.6.4a.6.6,0,0,1,.3.7c-.1.2-.3.2-.5.2s-.2.9,0,1.1h0a1.1,1.1,0,0,1-.3-1.2A.1.1,0,0,0,7.8,24.7Zm.4-.7-.2.2-.3.3h.1q.5.3.6,0c.2-.2.1-.4-.1-.6Z"/><path class="cls-1" d="M9,25.5a.9.9,0,0,1,1.3-.3.8.8,0,0,1,.4,1.1,1,1,0,0,1-1.3.4A1,1,0,0,1,9,25.5Zm.3,0c-.2.5-.1,1,.3,1.1s.6.1.8-.3a.8.8,0,0,0-.2-1.1A.7.7,0,0,0,9.3,25.5Z"/><path class="cls-1" d="M11.8,27.6h-.1V26.3c-.1-.4-.1-.5-.3-.5h.8c-.2,0-.2-.1-.2,0a.2.2,0,0,0,0,.3v.9l.6-.7v-.2c.1-.1,0-.1-.1-.2h.6c-.2,0-.3,0-.5.3Z"/><path class="cls-1" d="M13.3,27.1a1,1,0,0,1,1-.8,1.1,1.1,0,0,1,.9,1,1.1,1.1,0,0,1-1.1.8A.9.9,0,0,1,13.3,27.1Zm.3,0a.7.7,0,0,0,.6.9c.4,0,.6-.2.7-.7a.9.9,0,0,0-.6-.9A.6.6,0,0,0,13.6,27.1Z"/><path class="cls-1" d="M15.4,28.4c.2,0,.3-.1.3-.2h-.1a.1.1,0,0,1-.1-.1c0-.1,0-.1.1-.1s.2,0,.2.2a.4.4,0,0,1-.4.4Z"/><path class="cls-1" d="M19,27a.7.7,0,0,1-1.4.3l-.2-.6c0-.3-.1-.3-.3-.3h.8c-.3.1-.3.2-.2.5v.5a.5.5,0,0,0,.7.4.5.5,0,0,0,.4-.6l-.2-.6c-.1-.3-.1-.3-.3-.3s-.1-.1,0-.1H19c-.2.1-.2.2-.2.5Z"/><path class="cls-1" d="M20.9,25.4h-.6l.4.9c.1.3.2.4.4.3h-.3l-.4.2h0c.2-.1.2-.2,0-.4l-.4-1h-.2c-.3.1-.3.2-.3.3s-.1.1-.1,0a.3.3,0,0,0-.1-.2h.4l.7-.3c.3-.2.4-.2.3-.3h.1c0,.1,0,.1.1.2Z"/><path class="cls-1" d="M22.7,25.8h0v-.2l-.3-.2h-.1l-.5.3v.2a.4.4,0,0,0,.1.3h.1c.1-.1.1,0,.1,0l-.3.2h-.2c.1-.1.1-.2.1-.6l-.3-1.3h.1l1.1.7c.2.2.3.2.5.1h.1l-.3.2A.5.5,0,0,0,22.7,25.8Zm-.8-.3.4-.3-.5-.4Z"/><path class="cls-1" d="M24.7,24.1h-.1c.1-.2.1-.2-.1-.4l-.2-.3-.7.7.3.2c.2.2.2.3.4.1s.1.1,0,.1l-.2.2-.3.3h-.1c.2-.2.2-.3,0-.5l-.6-.5c-.2-.3-.3-.3-.5-.1h0l.3-.3.2-.2h.1c-.1.2-.1.2.1.5l.2.2.7-.7-.2-.2c-.3-.2-.3-.2-.5-.1h0c0-.1.2-.2.3-.3s.2-.2.2-.3h.1c-.2.2-.2.3,0,.5l.6.6c.2.2.3.2.5,0h0l-.3.3A.2.2,0,0,0,24.7,24.1Z"/><path class="cls-2" d="M21.1,19.7h0c.1,0,.1,0,.1.1Z"/><path class="cls-2" d="M21.1,11.6h0Z"/><path class="cls-3" d="M11.4,9.3h-.1v.5h0V10c.1.3.1.3.2.3h-.5c.2,0,.2-.1.2-.3V9.6c0-.2,0-.3-.2-.3h.8v.2h0C11.7,9.4,11.7,9.3,11.4,9.3Z"/><path class="cls-3" d="M11.9,9.8a.6.6,0,0,1,.6-.6.6.6,0,1,1,0,1.2C12.2,10.3,11.9,10.1,11.9,9.8Zm.2-.1c0,.4.2.6.4.6a.4.4,0,0,0,.4-.4c0-.4-.2-.6-.4-.6A.4.4,0,0,0,12.1,9.7Z"/><path class="cls-3" d="M14.4,9.9c0,.3-.2.4-.5.4s-.5-.1-.4-.4V9.6c-.1-.2-.1-.3-.2-.3h.5c-.2,0-.2.3-.2.3v.3a.4.4,0,0,0,.3.4.4.4,0,0,0,.4-.4V9.5c0-.2-.1-.2-.2-.2h0c.1.1.1,0,.2,0h.2c-.2,0-.2,0-.2.2v.4Z"/><path class="cls-3" d="M15.8,10v.3h0L15,9.5V10c0,.2,0,.3.1.3h-.3c.1,0,.1-.1.1-.3V9.5a.2.2,0,0,0-.2-.2H15l.8.8V9.5l-.2-.2H16l-.2.2V10Z"/><path class="cls-3" d="M16.5,10.3h-.3c.1,0,.1-.1.1-.3V9.6c0-.3,0-.3-.1-.3h.5c.4,0,.6.2.6.5s-.2.5-.6.5Zm0-1v.8c0,.1,0,.2.2.2a.5.5,0,0,0,.4-.5.5.5,0,0,0-.5-.5Z"/><path class="cls-3" d="M18.2,10.4h-.8c.2,0,.2,0,.2-.2V9.6c0-.3,0-.3-.2-.3h.8c0-.1,0-.2-.2-.2h-.1c-.1.1-.1.1-.1.3v.2H18c.1,0,.2,0,.2-.1h-.4v.3c0,.2.1.2.1.2H18c.2,0,.3-.1.3-.2h0v.2Z"/><path class="cls-3" d="M18.8,10.3h-.3c.2,0,.2-.1.2-.3V9.6c0-.3,0-.3-.2-.3h.6c.4,0,.6.2.6.5a.6.6,0,0,1-.6.5Zm.1-1v.8c0,.1,0,.2.3.2a.5.5,0,0,0,.4-.5.5.5,0,0,0-.5-.5Z"/><path class="cls-3" d="M9.6,15.1v-.8h.7c.4,0,.6.1.6.5s-.1.5-.6.5H9.6Zm0,1.7v-.9h.6c.4,0,.8,0,.8.5s-.3.6-.8.6H9.6Zm-1.4-3v3.7h2.5c1.3,0,1.8-.5,1.8-1.3a1,1,0,0,0-.8-1h0a.8.8,0,0,0,.6-.9c0-.8-.5-1.1-1.7-1.1H8.2Z"/><path class="cls-3" d="M22.8,13.8c0-.1,0-.2.1-.2H21.3c.1,0,.1.1.1.2v2.1a.8.8,0,0,1-.9.9.8.8,0,0,1-.8-.9V13.8c0-.1,0-.2.1-.2H18.1s-.1.1,0,.1h.1a.4.4,0,0,1,.1.3v2.1c0,1,.6,1.9,2.2,1.9s2.3-.9,2.3-1.9V13.8Z"/><path class="cls-3" d="M16.3,17.7c.1,0,.1-.1,0-.1h0c-.1,0-.2,0-.2-.1s-.1-.1-.1-.2V16l1.5-2.2.2-.2H16.1a6.6,6.6,0,0,1-.8,1.3h-.2l-.8-1.3h.2c.1,0,.1-.1,0-.1H12.7c.1,0,.1.1.2.2L14.4,16v1.3c0,.1,0,.2-.1.2h2Z"/></svg>