<svg id="Layer_1" data-name="Layer 1" xmlns="http://www.w3.org/2000/svg" viewBox="0 0 72 72"><defs><style>.cls-1{fill:#002e5d;}</style></defs><title>BYU_Admissions72</title><path class="cls-1" d="M62.3,72H9.6l-1-.5a5.3,5.3,0,0,1-3.1-4.8V5.3A5.8,5.8,0,0,1,7,1.6,7.6,7.6,0,0,1,9.6,0H62.3a6.1,6.1,0,0,1,4.2,4.2V67.8A6.1,6.1,0,0,1,62.3,72Zm-51-36V64.5c0,1.8,0,1.8,1.7,1.8H59.5c1.2,0,1.3-.1,1.3-1.3V7.5c0-1.8,0-1.8-1.7-1.8H13c-1.7,0-1.7,0-1.7,1.8Z"/><path class="cls-1" d="M47.2,11h7.1c.9,0,1.2.2,1.2,1.1V26.7c0,.9-.3,1.1-1.2,1.1H39.9c-.9.1-1.3-.2-1.3-1.1.1-4.9.1-9.7,0-14.5,0-1,.4-1.2,1.3-1.2Z"/><path class="cls-1" d="M35.9,38.9h-18c-1.3,0-1.4,0-1.4-1.4s.1-2.3,0-3.5a.8.8,0,0,1,.9-.9H53.9c1.6,0,1.6,0,1.6,1.6v3c.1.9-.3,1.2-1.2,1.2H35.9Z"/><path class="cls-1" d="M36,50H18c-1.4,0-1.5-.1-1.5-1.5s.1-2.2,0-3.3.3-1.1,1.1-1H53.8c1.7,0,1.7,0,1.7,1.7v3c.1.9-.4,1.1-1.2,1.1-3.7-.1-7.4,0-11.1,0Z"/><path class="cls-1" d="M33.2,61H17.8c-1,0-1.3-.3-1.3-1.2a20.5,20.5,0,0,0,0-3.5c0-.8.4-1.1,1.2-1.1H48.3c1.7,0,1.7,0,1.7,1.7v2.4C50,61,50,61,48.3,61Z"/><path class="cls-1" d="M24.9,27.8H17.7c-.8.1-1.2-.2-1.2-1.1a21.6,21.6,0,0,0,0-3.6A1,1,0,0,1,17.6,22q7.3.2,14.7,0c.8,0,1.1.3,1.1,1.1v3.7c0,.8-.3,1-1.1,1Z"/><path class="cls-1" d="M25,11h7.2c.9-.1,1.2.3,1.2,1.2v3.5c0,.7-.2,1.1-1,1H17.5c-.7,0-1-.3-1-1a22.8,22.8,0,0,0,0-3.7c0-.7.3-1,1.1-1Z"/></svg>