<svg id="Layer_1" data-name="Layer 1" xmlns="http://www.w3.org/2000/svg" viewBox="0 0 30 30"><defs><style>.cls-1{fill:#002e5d;}</style></defs><title>BYU_Athletics30</title><path class="cls-1" d="M15.9,24.7h-2l-2-.2a18.1,18.1,0,0,1-6.8-2.2,10.4,10.4,0,0,1-3.9-3.6A6.6,6.6,0,0,1,.1,13.8a7.8,7.8,0,0,1,2-3.8,14.1,14.1,0,0,1,5-3.3,22,22,0,0,1,8.8-1.4,27.6,27.6,0,0,1,4.9.7,16.1,16.1,0,0,1,6.1,3.1,8.6,8.6,0,0,1,2.8,4,5.8,5.8,0,0,1,.3,1.4v1.1h0a7.8,7.8,0,0,1-.9,2.7,10.1,10.1,0,0,1-3.2,3.3,17.8,17.8,0,0,1-9,2.9Zm-3.2-5.6v1.2c0,.3,0,.3-.3.3L11,20.4c-.2-.1-.3,0-.3.2a10.5,10.5,0,0,0-.4,1.7c0,.2,0,.3.2.3l3,.4a15,15,0,0,0,3,0,19.9,19.9,0,0,0,3.4-.5c.1,0,.2-.1.1-.2s-.3-1.2-.4-1.8-.2-.2-.3-.2l-1.6.3c-.3,0-.3,0-.3-.3V18a1.4,1.4,0,0,1,.2-.7l2.9-3.4,2.3-2.8c.1-.2.2-.2.4-.1l1.4.9c.1.2.2.1.3,0l.9-1.3c.2-.3.2-.3,0-.5A16.5,16.5,0,0,0,19,7.2a.2.2,0,0,0-.2.2,11.1,11.1,0,0,0-.2,1.7c-.1.3-.1.4.2.4l1.5.4c.2,0,.2.1.1.2l-3.9,4.7q-.2.3-.3,0L11.8,9.7c-.1,0-.2-.1-.1-.2h.2l1.4-.2c.2,0,.2,0,.2-.2s-.1-1.2-.2-1.9-.1-.2-.3-.2A19.8,19.8,0,0,0,7.3,8.3a15,15,0,0,0-3.2,1.9c-.2.1-.2.2-.1.4A7.6,7.6,0,0,1,5.1,12h.3l1.2-.8c.3-.2.3-.2.5,0l2.7,3.1,2.7,3a.8.8,0,0,1,.2.7Z"/></svg>