<svg id="Layer_1" data-name="Layer 1" xmlns="http://www.w3.org/2000/svg" viewBox="0 0 72 72"><defs><style>.cls-1{fill:#002e5d;}</style></defs><title>BYU_Tickets72</title><path class="cls-1" d="M13,72c-.3-.2-.1-.5-.1-.7V4.4a2,2,0,0,1,.8.4c.7.5,1.2.6,1.8,0a1.1,1.1,0,0,1,1.5,0c.6.5,1.1.6,1.7,0a1,1,0,0,1,1.4,0c.7.5,1.1.6,1.8,0s1.5-.3,1.7.7a5,5,0,0,0,1.8,3.1c.4.4.7.4.8-.2A6.8,6.8,0,0,1,26.4,7c.4-2.3.7-4.7,1.3-7h.2c.2.3.6.5.8.8A.9.9,0,0,0,30,1a1.3,1.3,0,0,1,1.9.3c.4.4.8.5,1.2.2a1.4,1.4,0,0,1,2,.4.7.7,0,0,0,.9.3c1.8-.8,1.9-.7,2.1,1.2a1.7,1.7,0,0,0,2.6,1.4c.4-.2.8-.4,1.2-.1a1.5,1.5,0,0,0,2.2,0c.4-.4.7-.1.7.4V7.2c0,.6.3.7.9.5a5.3,5.3,0,0,0,2.7-3c.4-1,1.3-1.2,1.9-.4s.8.7,1.4.3a1.2,1.2,0,0,1,1.7.3,1,1,0,0,0,1.5.2,1.1,1.1,0,0,1,1.6.3,1.2,1.2,0,0,0,1.7.2.8.8,0,0,1,.8-.2c.3.2.1.6.1.8-.7,4.3-1.4,8.6-2.2,12.8-1.8,11-3.7,22-5.5,32.9-1.1,6.4-2.2,12.7-3.2,19-.1.3,0,.7-.4.8s-.5-.2-.7-.4-1.2-.7-1.9-.1a1,1,0,0,1-1.6.1,1,1,0,0,0-1.4,0,1.1,1.1,0,0,1-1.7.1c-.5-.5-.9-.5-1.5,0a1.1,1.1,0,0,1-1.7,0,.8.8,0,0,0-1.4,0c-.9.7-1.6.4-1.9-.6a5.1,5.1,0,0,0-4.9-4.4c-1.3-.2-1.4-.1-2,1.1s-.5.7-.9.5-1.6.2-2,1a6.4,6.4,0,0,0-.6,1.8c-.3,1-1,1.3-1.8.6s-1-.5-1.5-.1a1,1,0,0,1-1.7,0,1,1,0,0,0-1.4,0,1.2,1.2,0,0,1-1.9,0,.9.9,0,0,0-1.3,0Zm1.1-33.9V66.7a12.1,12.1,0,0,1,0,1.9c0,.5.2.8.8,1a3.9,3.9,0,0,0,2.4.1c1.3-.2,2.6.2,3.9,0s1.4-.2,1.7-1,.5-1-.1-1.4-1-1.3-2-.6a1.2,1.2,0,0,1-1.7-.3,1.1,1.1,0,0,0-1.6-.3c-.2.2-.5.4-.8.2s-.2-.6-.1-.9c.3-2,.6-4,1-5.9,1.8-10.5,3.5-21,5.3-31.5l2.7-15.7a2.2,2.2,0,0,0-.7-2.4A4.8,4.8,0,0,1,23,7.6c-.6-1.9-2.4-.4-3.3-1.4s-.6,0-.8.2a2,2,0,0,1-2,0,1.9,1.9,0,0,0-2.8,1.8ZM43.5,7.4V7.2c-.4-.8-1.3-.7-1.9-.9a1.7,1.7,0,0,0-1.6.5c-.2.1.1.3.2.4a4.9,4.9,0,0,0,2.6,1C43.3,8.3,43.5,8,43.5,7.4Z"/></svg>