<svg id="Layer_1" data-name="Layer 1" xmlns="http://www.w3.org/2000/svg" viewBox="0 0 30 30"><defs><style>.cls-1{fill:#002e5d;}</style></defs><title>BYU_TV_Sports30</title><path class="cls-1" d="M23.5,30H6.1a6.5,6.5,0,0,1-4.7-3.5,12.7,12.7,0,0,1-.6-1.8V5.5a.4.4,0,0,1,.1-.3A6.4,6.4,0,0,1,7.5,0h15l1.8.2a6.4,6.4,0,0,1,4.9,6.2V23.6a6.4,6.4,0,0,1-3.6,5.8Zm4.8-15V6.6a1.9,1.9,0,0,0-.1-.8,5.8,5.8,0,0,0-5.9-5H6.5A5.6,5.6,0,0,0,1.7,6.4c-.1,5.8-.1,11.5,0,17.2A5.6,5.6,0,0,0,6.1,29a12.2,12.2,0,0,0,2.7.1H23.7a5.6,5.6,0,0,0,4.6-5.5Z"/><path class="cls-1" d="M14.9,21.6H7.6a5.1,5.1,0,0,1-5-3.9,5.7,5.7,0,0,1-.1-1.3V6.6a5.2,5.2,0,0,1,4.3-5H8c4.7,0,9.4-.1,14.2,0a5.1,5.1,0,0,1,4.6,2.5,7.3,7.3,0,0,1,.7,2.4V16a6,6,0,0,1-.5,2.6,5.1,5.1,0,0,1-4.6,3ZM16,11.5h0v-1a.3.3,0,0,1,.3-.3c.5-.1.7.1.7.6v1.6c.1.4.3.7.7.6s.7-.2.7-.6V10.5c0-.1,0-.3.2-.3s.4,0,.5-.2,0-.3-.1-.5-.1-.3-.1-.5a6.4,6.4,0,0,0-11.8.1A6.1,6.1,0,0,0,7,13.3a6.5,6.5,0,0,0,6.8,4.3,6.1,6.1,0,0,0,4.7-3.2c.1-.2.2-.3.1-.4s-.2,0-.4,0A1.7,1.7,0,0,1,16,12.3Zm3.9-.4h0v1.7A1.5,1.5,0,0,0,21.5,14a.2.2,0,0,0,.2-.2c0-.1,0-.1-.1-.2h-.3a.9.9,0,0,1-.8-.9c-.1-.5,0-1-.1-1.5a.4.4,0,0,1,.1-.3,1.1,1.1,0,0,1,1.4.4l.9,2.4a.4.4,0,0,0,.4.4c.2,0,.3-.1.4-.3s.7-2.1,1.1-3.1a.2.2,0,0,0,0-.3c-.2-.1-.3-.1-.4.1l-.2.3-.7,2.1c0,.1-.1.3-.2.3s-.2-.2-.2-.3l-.6-1.6c-.3-1.1-.2-.9-1.2-.9s-.7,0-.7-.7a.3.3,0,0,0-.3-.3c-.3,0-.3.2-.3.3Z"/><path class="cls-1" d="M14.7,28.4H7.1a5.2,5.2,0,0,1-4-2.4,4.2,4.2,0,0,1-.7-2.7V20c0-.2-.1-.3.1-.4a.2.2,0,0,1,.2.2,6,6,0,0,0,5,2.6H22.3a5.8,5.8,0,0,0,4.9-2.5c.1-.2.1-.4.3-.4s.1.3.1.5a26.7,26.7,0,0,1-.1,4,4.6,4.6,0,0,1-3.1,4,5.5,5.5,0,0,1-2.5.4Zm1.7-1.6h.5c.1-.2-.1-.3-.2-.4s-.1-.2-.1-.3a.6.6,0,0,1,.1-.4c.2-.1.3.2.4.3l.5.7c.1.2.4.2.6.2a.2.2,0,0,0,.2-.2c0-.3-.3-.2-.4-.3a1,1,0,0,1-.4-.5c0-.2.2-.2.4-.3s.4-.6.3-.9a1,1,0,0,0-.7-.8,8.6,8.6,0,0,0-1.6,0c-.2,0-.3.2-.1.3a.7.7,0,0,1,.2.6v1.2c0,.2,0,.4-.2.5s-.1.3.1.4Zm-4.2-1.5a1.6,1.6,0,0,0,1.6,1.6,1.8,1.8,0,0,0,1.6-1.6,1.6,1.6,0,0,0-1.6-1.6A1.6,1.6,0,0,0,12.2,25.3Zm-2-1.5H9.4c0,.1,0,.2.1.2s.2.4.2.6v1.2c0,.2,0,.4-.3.5a.3.3,0,0,0-.1.2l.2.2h.8c.2,0,.3-.2.2-.4s-.4-.3-.3-.5.4-.2.6-.2h0a1,1,0,0,0,.9-1,.9.9,0,0,0-.9-.9Zm-2.3,3a.9.9,0,0,0,.9-.7.8.8,0,0,0-.5-.9l-.7-.3a.4.4,0,0,1-.2-.6c.2-.2.4-.3.6-.1h.2c.1.2.2.2.4.1a.6.6,0,0,0,.1-.4c0-.2-.1-.3-.3-.2H7.8a.9.9,0,0,0-.9.7.8.8,0,0,0,.5.9l.7.3c.2.1.2.2.2.4s-.1.3-.3.4a.5.5,0,0,1-.6-.3l-.3-.2c-.3.1-.2.4-.2.6s0,.3.1.3S7.6,26.8,7.9,26.8Zm13.8-.4c.1.2.1.5.4.3h.4a1,1,0,0,0,1.1-.5.9.9,0,0,0-.5-1.2l-.6-.2c-.3-.1-.4-.3-.2-.6s.4-.2.6-.1l.2.2c.2.1.3.1.4,0a.7.7,0,0,0,.1-.5c-.1-.1-.2-.2-.3-.1a.7.7,0,0,1-.6-.1,1,1,0,0,0-1,.7c-.1.4.2.7.6.9l.5.2c.2.1.4.2.4.5s-.2.3-.3.4a.4.4,0,0,1-.6-.2c-.1-.1-.2-.3-.4-.2S21.8,26.2,21.7,26.4Zm-1.6-2.6h-.7c-.5,0-.6.1-.5.5s0,.3.1.3.2-.1.2-.2l.3-.2c.2.1.2.2.2.3v1.8c-.2.5-.2.5.3.5h.5l.2-.2c0-.1,0-.2-.1-.2s-.2-.2-.2-.4V24.6c0-.2,0-.4.2-.4s.3.1.3.2.2.3.3.2.1-.4.1-.6-.1-.2-.3-.2Z"/><path class="cls-1" d="M8.4,10.6V9c0-.2-.1-.5.3-.5s.6.1.7.5v.8c0,.5,0,.5.5.4a1.9,1.9,0,0,1,2.2,1.1,1.9,1.9,0,0,1-3.2,2.1,1.3,1.3,0,0,1-.5-1.2V10.6Zm1.9,2.5a.9.9,0,0,0,.9-1c0-.5-.4-1-.9-.9a.9.9,0,0,0-.9.9A.9.9,0,0,0,10.3,13.1Z"/><path class="cls-1" d="M14,12.5l.6-1.9a.8.8,0,0,1,1.1-.4c.2.1.1.3,0,.4s-.7,1.9-1,2.9L14,15.3a.9.9,0,0,1-1.1.3c-.1,0-.1-.1-.1-.2s.1-.3.2-.4a2.2,2.2,0,0,0,0-2.1,15.7,15.7,0,0,1-.9-2.3c-.2-.4-.1-.4.3-.4a.8.8,0,0,1,.9.6l.6,1.7Z"/><path class="cls-1" d="M16.6,24.8c.1-.3,0-.6.4-.6s.8.2.8.6-.3.6-.8.6S16.6,25.1,16.6,24.8Z"/><path class="cls-1" d="M12.7,25.2a1.1,1.1,0,0,1,2.1.1,1,1,0,0,1-1.1,1A1,1,0,0,1,12.7,25.2Z"/><path class="cls-1" d="M10.2,24.8c0-.4,0-.6.4-.6a.5.5,0,0,1,.6.6.6.6,0,0,1-.6.5C10.2,25.3,10.2,25,10.2,24.8Z"/></svg>