<svg id="Layer_1" data-name="Layer 1" xmlns="http://www.w3.org/2000/svg" viewBox="0 0 72 72"><defs><style>.cls-1{fill:#002e5d;}</style></defs><title>BYU_Bikeshare72</title><path class="cls-1" d="M51.8,42.8A6.7,6.7,0,0,0,45,49.5a6.8,6.8,0,1,0,13.5,0A6.7,6.7,0,0,0,51.8,42.8Z"/><path class="cls-1" d="M20.3,42.8a6.7,6.7,0,0,0-6.8,6.7,6.8,6.8,0,1,0,13.5,0A6.7,6.7,0,0,0,20.3,42.8Z"/><path class="cls-1" d="M63,0H9A9,9,0,0,0,0,9V63a9,9,0,0,0,9,9H63a9,9,0,0,0,9-9V9A9,9,0,0,0,63,0ZM45,13.5A4.5,4.5,0,1,1,40.5,18,4.5,4.5,0,0,1,45,13.5ZM20.3,60.8A11.3,11.3,0,1,1,31.5,49.5,11.3,11.3,0,0,1,20.3,60.8Zm18-9A2.3,2.3,0,0,1,36,54a2.2,2.2,0,0,1-2.2-2.2V41.6l-8.2-6.1a2.3,2.3,0,0,1-.4-3.1l.2-.2L36.7,20.9a2.1,2.1,0,0,1,3.1,0l.5.6,3.8,7.8h5.4a2.3,2.3,0,0,1,2.3,2.2,2.4,2.4,0,0,1-2.3,2.3H42.8a2.3,2.3,0,0,1-2.1-1.3l-3.1-6.2-7.2,7.2,7,5.2a2.4,2.4,0,0,1,.9,1.8Zm13.5,9A11.3,11.3,0,1,1,63,49.5,11.3,11.3,0,0,1,51.8,60.8Z"/></svg>