<svg id="Layer_1" data-name="Layer 1" xmlns="http://www.w3.org/2000/svg" viewBox="0 0 72 72"><defs><style>.cls-1{fill:#002e5d;}</style></defs><title>BYU_Law_School_News72</title><path class="cls-1" d="M5.8,72a7.1,7.1,0,0,1-4.2-2.3A6.5,6.5,0,0,1,2,60.9C9.5,53,17.3,45.4,25,37.6c.9-.9,1-.9,1.9,0l7.5,7.5c.6.6.6.9,0,1.5l-21.9,22L11,70.2A7.2,7.2,0,0,1,7.3,72Z"/><path class="cls-1" d="M71.9,32.8,61.6,43.2,49.3,55.5l-.9.8a1.4,1.4,0,0,1-2-.4c-.6-1.1-1.1-2.2-1.6-3.2a.6.6,0,0,1,.2-.9l2.3-2.3L66.9,29.8a1.2,1.2,0,0,1,1.7-.2l2.3,1.1a2.2,2.2,0,0,1,1,.9Z"/><path class="cls-1" d="M43.2,50.1a1,1,0,0,1-.6-.5c-2.9-2.9-5.8-5.7-8.6-8.6L22.5,29.6c-.7-.8-.7-.8.1-1.6l21-21c.5-.5.7-.5,1.2,0L65.1,27.2c.4.5.4.7,0,1.2L43.8,49.7Z"/><path class="cls-1" d="M15.4,24.5c0-.6.4-.9.7-1.3,2.5-2.5,5-4.9,7.4-7.4l15-15c1.2-1.2,2.1-1.1,2.9.5l1.2,2.5a.8.8,0,0,1-.1,1l-.6.6L20.8,26.5c-1.1,1.2-.8,1-2.2.4l-2.3-1.2A1.4,1.4,0,0,1,15.4,24.5Z"/></svg>