<svg id="Layer_1" data-name="Layer 1" xmlns="http://www.w3.org/2000/svg" viewBox="0 0 30 30"><defs><style>.cls-1{fill:#002e5d;}</style></defs><title>BYU_Speeches30</title><path class="cls-1" d="M2.8,23.2a4,4,0,0,1,.8-1.6.6.6,0,0,0,.2-.5,2,2,0,0,1,.6-1.3l7.1-7.9,3.2-3.4c.3-.3.3-.3.5,0a7.2,7.2,0,0,0,3.6,3.7c.3.1.2.2,0,.4l-4.5,4.1-5,4.5L7.4,23a2.1,2.1,0,0,1-2,.5c-.3-.1-.4,0-.4.2a.9.9,0,0,0,.2.9,6,6,0,0,0,4.2,3.2,3.3,3.3,0,0,0,2.5-.7,29.8,29.8,0,0,0,3-1.8,9.5,9.5,0,0,1,2.1-.9,4.1,4.1,0,0,1,4.2,1,6.5,6.5,0,0,1,1.5,1.8,1.1,1.1,0,0,1-.2,1.6,1.1,1.1,0,0,1-1.6-.4l-1.1-1.3a2.3,2.3,0,0,0-2.5-.5,11.2,11.2,0,0,0-2.4,1.3,14.6,14.6,0,0,1-3,1.7l-1.3.4h-2c-2.8-.9-4.9-2.5-5.8-5.4Z"/><path class="cls-1" d="M21.9,0a5.3,5.3,0,0,1,5.3,5.4,5.4,5.4,0,0,1-5.3,5.4,5.4,5.4,0,0,1-5.4-5.4A5.3,5.3,0,0,1,21.9,0Z"/></svg>