<svg id="Layer_1" data-name="Layer 1" xmlns="http://www.w3.org/2000/svg" viewBox="0 0 30 30"><defs><style>.cls-1{fill:#002e5d;}</style></defs><title>BYU_Email30</title><path class="cls-1" d="M28.4,25.1H1.6c-.3-.1-.3-.1,0-.3L5,21.5l6-5.8c.2-.2.2-.2.4,0l3.4,2.8c.2.1.3.1.4,0l3.4-2.8c.2-.2.2-.2.4,0L21.4,18l7,6.8C28.7,25,28.7,25,28.4,25.1Z"/><path class="cls-1" d="M0,6.6c0-.1.1-.2.1-.3s0-.2.2-.1L1.9,7.6l7.8,6.7c.2.2.2.2,0,.4l-5,4.9L.3,23.7a.3.3,0,0,1-.1.2.3.3,0,0,1-.1-.2.4.4,0,0,1-.1-.3Z"/><path class="cls-1" d="M15,4.9H28.6L27,6.5l-7.8,6.6-3.8,3.1c-.4.4-.4.3-.8,0C10.1,12.6,5.8,8.8,1.5,5.1c-.1,0-.2,0-.1-.1H15Z"/><path class="cls-1" d="M30,15v8.1a1.3,1.3,0,0,1-.1.6v.2h-.2l-1.2-1.2-6.4-6.1-1.9-1.8c-.1-.2-.1-.2.1-.3l9.4-8.1c0-.1.1-.2.2-.1s.1.1.1.2V15Z"/></svg>