<svg id="Layer_1" data-name="Layer 1" xmlns="http://www.w3.org/2000/svg" viewBox="0 0 72 72"><defs><style>.cls-1{fill:#002e5d;}</style></defs><title>BYU_Speeches72</title><path class="cls-1" d="M6.6,55.6a10.9,10.9,0,0,1,2.1-3.8,1.9,1.9,0,0,0,.4-1.2,5.2,5.2,0,0,1,1.6-3.2l17-18.8,7.5-8.2c.7-.8.7-.8,1.2.1a17.9,17.9,0,0,0,8.7,8.7c.7.3.5.6.1,1L34.4,40l-12,11-4.5,4.1a4.9,4.9,0,0,1-5,1.2c-.7-.2-.9.1-1,.7a3.1,3.1,0,0,0,.5,2.1,14.5,14.5,0,0,0,10.1,7.6c2.2.4,4.2-.6,6.1-1.6s4.8-3,7.2-4.4a24.5,24.5,0,0,1,5-2.2,10.2,10.2,0,0,1,10,2.3,20.6,20.6,0,0,1,3.8,4.5,2.7,2.7,0,0,1-.6,3.8,2.6,2.6,0,0,1-3.8-.9,18.7,18.7,0,0,0-2.6-3,5.4,5.4,0,0,0-6.1-1.4A28,28,0,0,0,35.9,67a53.5,53.5,0,0,1-7.4,4.1c-1,.4-2.1.6-3.1.9H21.3l-.6-.2c-6.8-2.1-11.9-6-14.1-13Z"/><path class="cls-1" d="M52.5,0A12.9,12.9,0,0,1,65.4,12.9a13,13,0,0,1-13,13,12.8,12.8,0,0,1-12.8-13A12.7,12.7,0,0,1,52.5,0Z"/></svg>