<svg id="Layer_1" data-name="Layer 1" xmlns="http://www.w3.org/2000/svg" viewBox="0 0 30 30"><defs><style>.cls-1{fill:#002e5d;}</style></defs><title>BYU_Admissions30</title><path class="cls-1" d="M26,30H4l-.4-.2a2.2,2.2,0,0,1-1.3-2V2.2A2,2,0,0,1,2.9.7,4.1,4.1,0,0,1,4,0H26a2.6,2.6,0,0,1,1.7,1.7V28.3A2.6,2.6,0,0,1,26,30ZM4.7,15V26.9c0,.7,0,.7.7.7H24.8c.5,0,.5,0,.5-.5V3.1c0-.7,0-.7-.7-.7H5.4c-.7,0-.7,0-.7.7Z"/><path class="cls-1" d="M19.6,4.6h3c.4,0,.5.1.5.5v6c0,.4-.1.5-.5.5h-6c-.4,0-.5-.1-.5-.5v-6c0-.4.2-.5.5-.5Z"/><path class="cls-1" d="M15,16.2H7.5c-.6,0-.6,0-.6-.6V14.2c0-.3.1-.4.4-.4H22.5c.6,0,.6,0,.6.6v1.3c.1.4-.1.5-.5.5H15Z"/><path class="cls-1" d="M15,20.8H7.5c-.6,0-.6,0-.6-.6V18.8c0-.3.1-.4.4-.4H22.4c.7,0,.7,0,.7.7v1.3c0,.3-.1.4-.5.4H15Z"/><path class="cls-1" d="M13.8,25.4H7.4c-.4,0-.5-.1-.5-.5V23.5c0-.4.1-.5.5-.5H20.1c.7,0,.7,0,.7.7v1c0,.7,0,.7-.7.7Z"/><path class="cls-1" d="M10.4,11.6h-3c-.4,0-.5-.1-.5-.5V9.6c0-.3.1-.4.4-.4h6.2c.3,0,.4.1.4.4v1.6c0,.3-.1.4-.4.4Z"/><path class="cls-1" d="M10.4,4.6h3c.4,0,.5.1.5.5V6.5c0,.3-.1.5-.4.5H7.3a.4.4,0,0,1-.4-.4V5c0-.3.1-.4.4-.4Z"/></svg>