<svg id="Layer_1" data-name="Layer 1" xmlns="http://www.w3.org/2000/svg" viewBox="0 0 72 72"><defs><style>.cls-1{fill:#002e5d;}</style></defs><title>BYU_TV_Sports72</title><path class="cls-1" d="M56.5,72h-41l-.7-.2A15.3,15.3,0,0,1,3.3,63.2a28.3,28.3,0,0,1-1.4-4.1v-46a1.4,1.4,0,0,1,.2-.7C4,4.6,9.9,0,18,0H54.1a21,21,0,0,1,4.3.5C65,2,70,8.4,70.1,15.4c0,13.7.1,27.5-.1,41.2,0,6.2-3.1,10.9-8.6,13.9A21.3,21.3,0,0,1,56.5,72ZM67.8,36.1V15.9a14.8,14.8,0,0,0-.1-2.1A14,14,0,0,0,53.6,1.9H19.2a21.7,21.7,0,0,0-3.6.2C10.5,3.2,4,7.3,4,15.5c-.1,13.7-.1,27.4,0,41.2A13.4,13.4,0,0,0,14.7,69.6a45.7,45.7,0,0,0,6.4.3H53.4a19.5,19.5,0,0,0,3.4-.3,13.2,13.2,0,0,0,11-13.2Z"/><path class="cls-1" d="M35.9,51.9H18.2a12.5,12.5,0,0,1-12-9.5,15.3,15.3,0,0,1-.3-3V15.9a12.4,12.4,0,0,1,10.5-12l2.7-.2H53.2A12.5,12.5,0,0,1,64.3,9.9a13.3,13.3,0,0,1,1.6,5.8c.2,7.5.1,15.1.1,22.6a14.3,14.3,0,0,1-1.1,6.2,12.1,12.1,0,0,1-11.1,7.4c-6,.1-12,0-17.9,0Zm2.5-24.2h0V25.2c0-.5.2-.8.7-.8s1.7.4,1.8,1.6v3.6c.1,1.2.7,1.8,1.7,1.7a1.6,1.6,0,0,0,1.5-1.6c.1-1.5.1-3,.1-4.4s0-.8.5-.9.9.2,1.2-.3-.1-.9-.2-1.3a5.6,5.6,0,0,0-.4-1.2c-2.7-6-8.2-9.7-14.7-9.4a15.2,15.2,0,0,0-13.5,9.6,14.1,14.1,0,0,0-.2,10.1A15.1,15.1,0,0,0,33.2,42.2a14.6,14.6,0,0,0,11.2-7.7c.2-.3.6-.7.3-1s-.6,0-.9.1a4,4,0,0,1-5.4-4.1A10.8,10.8,0,0,1,38.4,27.7Zm9.4-1h0v4a3.5,3.5,0,0,0,3.8,2.8c.2,0,.4,0,.5-.3a1.4,1.4,0,0,0-.2-.6c-.2-.2-.5-.2-.8-.3a2.2,2.2,0,0,1-2-2c-.2-1.2,0-2.5-.1-3.7a.7.7,0,0,1,.3-.6,2.5,2.5,0,0,1,3.2.8l2.1,5.9c.2.5.4.8,1,.8a1,1,0,0,0,1.1-.7c.8-2.5,1.7-4.9,2.6-7.4.1-.2.3-.5-.1-.7a.8.8,0,0,0-.9.2,2,2,0,0,0-.4.8c-.6,1.7-1.2,3.3-1.7,4.9s-.2.8-.5.8-.4-.5-.5-.7l-1.4-3.9c-.9-2.5-.5-2.1-3-2.2s-1.5,0-1.6-1.5-.2-.8-.8-.8-.6.4-.6.8Z"/><path class="cls-1" d="M35.3,68.1c-6.1,0-12.2.2-18.3,0a11.4,11.4,0,0,1-9.5-5.6,11,11,0,0,1-1.8-6.6c.1-2.6,0-5.3,0-8,0-.3-.1-.7.2-.8s.5.3.6.5a14.5,14.5,0,0,0,12.1,6.1H53.5a13.6,13.6,0,0,0,11.7-6c.2-.3.4-.9.8-.8s.2.7.2,1.1a76.9,76.9,0,0,1-.1,9.6,12,12,0,0,1-7.5,9.7,16.1,16.1,0,0,1-6.1.8Zm4-3.8h.2c.4,0,.8.1,1-.3s-.1-.6-.4-.8a1.9,1.9,0,0,1-.2-.7c0-.4-.1-.9.3-1.1s.5.4.7.7a10.9,10.9,0,0,1,1.3,1.7c.4.6.9.5,1.5.5s.4-.2.4-.4-.6-.5-.9-.8a3.1,3.1,0,0,1-.9-1.1c-.1-.6.5-.6.8-.8a2.2,2.2,0,0,0,.7-2.3,1.9,1.9,0,0,0-1.7-1.7,21.7,21.7,0,0,0-3.6-.1c-.5,0-.8.4-.4.8a1.6,1.6,0,0,1,.5,1.4v2.8a1.4,1.4,0,0,1-.5,1.3c-.4.3-.3.8.3.9Zm-10-3.7a3.8,3.8,0,0,0,3.8,3.9,4,4,0,0,0,3.8-3.9A3.8,3.8,0,0,0,33,56.9,3.6,3.6,0,0,0,29.3,60.6Zm-4.7-3.5H23a.5.5,0,0,0-.5.4c-.1.2,0,.4.2.4s.6.8.6,1.3v3c0,.5,0,1-.6,1.2a.3.3,0,0,0-.3.5.4.4,0,0,0,.4.4h2c.5-.1.7-.6.3-.9a1,1,0,0,1-.6-1.3c.2-.6.9-.3,1.3-.4H26a2.4,2.4,0,0,0,2.1-2.4,2.2,2.2,0,0,0-2.2-2.2Zm-5.5,7.3a2.3,2.3,0,0,0,2.1-1.7A2.1,2.1,0,0,0,20,60.4l-1.8-.7a.9.9,0,0,1-.4-1.3,1.1,1.1,0,0,1,1.5-.4l.5.4a.5.5,0,0,0,.8.2c.4-.2.3-.7.2-1.1a.5.5,0,0,0-.5-.5,2.6,2.6,0,0,1-1.5-.1,2.3,2.3,0,0,0-2.3,1.5,2,2,0,0,0,1.4,2.4l1.5.6a1,1,0,0,1,.6,1,1,1,0,0,1-.8.9c-.7.3-1.2-.1-1.5-.7s-.4-.5-.8-.4-.4.9-.4,1.4.1.8.4.6S18.3,64.4,19.1,64.4Zm33.1-1.1c0,.6.1,1.2.9.8a1.1,1.1,0,0,1,.8.2A2.3,2.3,0,0,0,56.7,63c.5-1.1,0-2.1-1.3-2.7l-1.5-.5a.9.9,0,0,1-.4-1.4,1,1,0,0,1,1.5-.3l.6.5a.5.5,0,0,0,.8,0c.3-.3.2-.8.1-1.2s-.3-.5-.5-.4a2.6,2.6,0,0,1-1.5-.1,2.1,2.1,0,0,0-2.3,1.6,1.9,1.9,0,0,0,1.3,2.3l1.2.4a1.2,1.2,0,0,1,.9,1.2.9.9,0,0,1-.7.9,1.1,1.1,0,0,1-1.4-.4c-.3-.4-.5-.6-.9-.5A.9.9,0,0,0,52.2,63.3Zm-4-6.2H46.5c-1,0-1.3.3-1.2,1.3s.1.6.4.6.4-.2.5-.4.3-.5.7-.5.3.5.3.7v3.8a1.1,1.1,0,0,1-.1.5c-.5,1.1-.5,1.2.8,1.2H49a.5.5,0,0,0,.5-.4c0-.2,0-.4-.3-.5a1,1,0,0,1-.5-1V59c0-.4,0-.8.5-.9s.7.1.8.6a.5.5,0,0,0,.7.3c.4-.4.2-1,.2-1.4s-.3-.5-.6-.5Z"/><path class="cls-1" d="M20.1,25.3V21.6c0-.5-.2-1.2.7-1.3s1.6.4,1.7,1.2a13.4,13.4,0,0,1,.1,2c0,1.2,0,1.2,1.2.9a4.7,4.7,0,0,1,5.3,2.7,4.8,4.8,0,0,1-7.9,5.1,4.4,4.4,0,0,1-1.1-2.9v-4Zm4.6,6.1A2.3,2.3,0,0,0,27,29a2.2,2.2,0,0,0-2.2-2.2,2.2,2.2,0,0,0-2.2,2.3A2.2,2.2,0,0,0,24.7,31.4Z"/><path class="cls-1" d="M33.5,29.9c.5-1.4,1-2.9,1.6-4.3a1.8,1.8,0,0,1,2.5-1.1c.6.2.3.6.2.9l-2.6,6.9c-.5,1.5-1.1,2.9-1.6,4.4a2.1,2.1,0,0,1-2.6.8c-.3-.1-.3-.3-.2-.5a3,3,0,0,1,.4-1,5,5,0,0,0,0-4.9c-.9-1.9-1.5-3.8-2.2-5.7s-.2-1,.7-1A2.1,2.1,0,0,1,31.9,26l1.4,3.9Z"/><path class="cls-1" d="M39.9,59.5c.1-.6-.2-1.4,1-1.5a1.6,1.6,0,0,1,1.8,1.6A1.6,1.6,0,0,1,40.9,61C39.8,61.1,39.9,60.3,39.9,59.5Z"/><path class="cls-1" d="M30.5,60.6a2.4,2.4,0,0,1,2.6-2.5,2.6,2.6,0,0,1,2.5,2.6A2.5,2.5,0,0,1,33,63.2,2.6,2.6,0,0,1,30.5,60.6Z"/><path class="cls-1" d="M24.5,59.5c-.1-.9,0-1.4.9-1.4s1.5.5,1.5,1.3a1.5,1.5,0,0,1-1.5,1.3C24.4,60.7,24.5,59.9,24.5,59.5Z"/></svg>