<svg id="Layer_1" data-name="Layer 1" xmlns="http://www.w3.org/2000/svg" viewBox="0 0 30 30"><defs><style>.cls-1{fill:#002e5d;}</style></defs><title>BYU_Tickets30</title><path class="cls-1" d="M5.4,30c-.1-.1,0-.2,0-.3V1.8l.3.2a.6.6,0,0,0,.8,0,.4.4,0,0,1,.6,0c.2.2.4.2.7,0a.4.4,0,0,1,.6,0c.2.2.4.2.7,0s.6-.1.7.3a2.6,2.6,0,0,0,.8,1.3c.1.2.3.2.3-.1s.1-.4.1-.6.3-1.9.5-2.9h.1l.4.3c.1.2.3.2.5.1a.6.6,0,0,1,.8.1c.1.2.3.3.5.1a.5.5,0,0,1,.8.2c.1.1.2.2.4.1s.8-.3.9.5a.6.6,0,0,0,1,.6c.2-.1.4-.2.6,0s.6.2.9,0,.3-.1.3.1V3c0,.3.1.3.3.2A2.8,2.8,0,0,0,20.2,2c.1-.5.5-.5.8-.2s.3.3.6.1a.6.6,0,0,1,.7.1c.1.3.3.3.6.1a.6.6,0,0,1,.7.1c.2.3.4.3.6.1h.4c.1,0,0,.2,0,.3l-.9,5.3c-.8,4.6-1.5,9.2-2.3,13.7-.4,2.7-.9,5.3-1.3,7.9-.1.2,0,.3-.2.4l-.3-.2c-.2-.3-.5-.3-.8,0a.4.4,0,0,1-.6,0c-.2-.2-.4-.1-.6,0a.5.5,0,0,1-.7,0,.4.4,0,0,0-.6,0c-.3.2-.5.3-.8,0s-.3-.1-.6,0-.6.2-.7-.2a2.1,2.1,0,0,0-2.1-1.8c-.5-.1-.6-.1-.8.4s-.2.3-.4.2-.6.1-.8.5-.2.4-.3.7-.4.5-.7.2-.4-.2-.6,0a.6.6,0,0,1-.8,0c-.2-.2-.3-.2-.5,0a.6.6,0,0,1-.8,0c-.2-.2-.4-.1-.6,0Zm.5-14.1V28.6c0,.2.1.3.3.4H8.9a.5.5,0,0,0,.6-.4c.1-.2.2-.4,0-.5s-.4-.6-.8-.3a.6.6,0,0,1-.8-.1c-.1-.3-.3-.3-.6-.1H7c-.2-.1-.1-.2-.1-.4s.3-1.6.4-2.4c.8-4.4,1.5-8.8,2.3-13.1.3-2.2.7-4.4,1.1-6.6a1.2,1.2,0,0,0-.3-1,1.4,1.4,0,0,1-.8-.9c-.3-.8-1-.2-1.4-.6s-.2,0-.3.1H7a.7.7,0,0,0-1.1.7ZM18.1,3.1h0c-.2-.3-.5-.3-.8-.4s-.4.1-.6.2a.1.1,0,0,0,0,.2,2.5,2.5,0,0,0,1.1.4C18,3.5,18.1,3.3,18.1,3.1Z"/></svg>