<svg id="Layer_1" data-name="Layer 1" xmlns="http://www.w3.org/2000/svg" viewBox="0 0 30 30"><defs><style>.cls-1{fill:#002e5d;}</style></defs><title>BYU_Athletics_News30</title><path class="cls-1" d="M14.6,2h1.3l3,.3a16.7,16.7,0,0,1,7.2,2.8,11.1,11.1,0,0,1,3.2,3.6,6.7,6.7,0,0,1,.7,2.4v1.2c-.1.3-.1.7-.2,1a8.2,8.2,0,0,1-2.7,4.1,14.2,14.2,0,0,1-4.9,2.8,21.8,21.8,0,0,1-9.8,1,17.8,17.8,0,0,1-6.8-2,10.8,10.8,0,0,1-4.2-3.5A6.5,6.5,0,0,1,1,8.3,8.9,8.9,0,0,1,4,5.2a19.1,19.1,0,0,1,9.2-3.1Zm2.8,13.9V14.8a.9.9,0,0,1,.3-.7l1.8-2.3,3.3-4c.1-.1.2-.2.4,0a10.1,10.1,0,0,1,1.3.9c.2.1.3.1.4-.1l1-1.3c.1-.2.1-.3-.1-.4a17.5,17.5,0,0,0-3.5-2A16.8,16.8,0,0,0,19.1,4c-.1,0-.3-.1-.3.2A11,11,0,0,0,18.6,6c-.1.2,0,.3.2.3l1.4.3c.3.1.3.1.2.3l-3.9,4.7c-.1.1-.2.2-.3,0L11.8,6.5c-.2-.2-.2-.3.1-.3L13.3,6c.2,0,.2-.1.2-.3a6.1,6.1,0,0,1-.1-1.4c-.1-.7-.1-.7-.8-.6A17.9,17.9,0,0,0,7,5.2,16.9,16.9,0,0,0,4.1,6.9c-.1.2-.2.3,0,.5a14.7,14.7,0,0,1,1,1.3c.1.1.2.2.4,0l1.2-.8c.1-.1.2-.1.4,0l.5.6,4.9,5.6c.1.2.2.3.2.5v2.5a.3.3,0,0,1-.3.3l-1.5-.3a.2.2,0,0,0-.2.2,8.5,8.5,0,0,1-.4,1.7c0,.2,0,.3.2.4l3.4.4a23.2,23.2,0,0,0,5.9-.5c.2-.1.3-.1.2-.3s-.3-1.1-.4-1.7-.2-.2-.4-.2l-1.5.2c-.2.1-.3,0-.3-.2Z"/><path class="cls-1" d="M20,26.9l.3-1.8c.2-.9.3-1.8.5-2.7a.5.5,0,0,1,.7-.3.2.2,0,0,1,0,.3,14.3,14.3,0,0,1-.4,2.2c-.2,1-.3,2-.5,3s-.1.3-.4.3-.7.2-1-.7-.8-2.5-1.3-3.7a.4.4,0,0,0-.1-.3.8.8,0,0,0-.1.4c-.4,1.3-.9,2.6-1.3,4a.5.5,0,0,1-.5.3c-.8,0-.7.2-.8-.7s-.5-3.2-.8-4.8,0-.3.3-.3.4,0,.5.4.5,2.9.7,4.3h0l.2-.3c.4-1.4.9-2.8,1.3-4.2a.5.5,0,0,1,.5-.3c.4,0,.4,0,.5.3l1.5,4.2Z"/><path class="cls-1" d="M7.6,26.6a.4.4,0,0,0,.1-.3V22.4c0-.3,0-.3.3-.3s.5,0,.5.3v5.2c0,.2-.1.3-.4.3s-.5-.1-.8-.4-2-2.6-3-4v-.2c-.1.2-.1.2-.1.3v4c0,.1.1.3-.1.3s-.4.1-.6,0,0-.2,0-.3V22.3c0-.2.1-.2.2-.2a.8.8,0,0,1,.9.3c.9,1.4,2,2.7,3,4S7.5,26.5,7.6,26.6Z"/><path class="cls-1" d="M9.7,25V22.4c0-.3.1-.3.4-.3h3.2c.3,0,.3,0,.3.3s0,.4-.3.4H10.9c-.3,0-.3,0-.3.3v1.2c0,.3,0,.3.3.3h2.2a.4.4,0,0,1,.3.6c0,.1-.1.1-.2.1H10.9c-.3,0-.3,0-.3.3V27a.3.3,0,0,0,.3.3h2.4c.3,0,.4,0,.4.3a.3.3,0,0,1-.3.3H10.1c-.3,0-.4-.1-.4-.3Z"/><path class="cls-1" d="M24.2,28l-1.6-.2c-.2-.1-.4-.5-.2-.7s.2-.1.2,0a8.2,8.2,0,0,0,2.2.2,1.1,1.1,0,0,0,1-1.1.8.8,0,0,0-.7-.8h-2a1.2,1.2,0,0,1-.9-1,1.5,1.5,0,0,1,1.2-2,5.3,5.3,0,0,1,2.8,0c.2.1.2.2.2.3v.2c0,.3,0,.3-.3.2l-1.7-.2-.9.2a.7.7,0,0,0-.5.9c0,.5.2.7.7.8h1.7A1.5,1.5,0,0,1,26.6,26a1.5,1.5,0,0,1-.8,1.7A3.5,3.5,0,0,1,24.2,28Z"/></svg>