<svg id="Layer_1" data-name="Layer 1" xmlns="http://www.w3.org/2000/svg" viewBox="0 0 72 72"><defs><style>.cls-1{fill:#002e5d;}</style></defs><title>BYU_Email72</title><path class="cls-1" d="M68.1,60.3H3.9c-.7-.3-.7-.3-.1-.8l8.1-7.8,14.5-14c.5-.4.5-.4,1,0l8.1,6.6a.7.7,0,0,0,1,0l8.2-6.6c.5-.4.5-.4.9,0l5.8,5.5L68.3,59.4C68.9,60,68.9,60.1,68.1,60.3Z"/><path class="cls-1" d="M0,15.9c.1-.2.1-.5.2-.8s.1-.4.4-.2l4,3.4L23.4,34.4c.4.4.5.4,0,.8L11.2,46.9.8,57c-.1.1-.2.3-.4.3s-.2-.3-.2-.5-.1-.5-.2-.7Z"/><path class="cls-1" d="M36,11.7H68.4c.2,0,.4,0,.4.2l-.2.3-3.8,3.2L46,31.6c-2.9,2.5-6,4.9-9,7.3-1,.8-1,.8-2,0C24.3,30.3,14,21.2,3.6,12.4c-.1-.2-.4-.2-.3-.5l.5-.2H36Z"/><path class="cls-1" d="M72,36V55.3a7.6,7.6,0,0,1-.1,1.5c-.1.2,0,.4-.2.5s-.3-.2-.4-.3l-2.9-2.8L53.1,39.5l-4.5-4.3c-.3-.3-.3-.5,0-.8L71.3,15c.1-.1.2-.3.4-.2s.2.3.2.5a5.7,5.7,0,0,1,.1,1.3Z"/></svg>