<svg id="Layer_1" data-name="Layer 1" xmlns="http://www.w3.org/2000/svg" viewBox="0 0 30 30"><defs><style>.cls-1{fill:#002e5d;}</style></defs><title>BYU_SA_Twitter30</title><path class="cls-1" d="M30,29.7l-.3.3H.3c-.2-.1-.3-.1-.3-.3V.3C0,.1.1.1.3,0H29.7l.3.3V29.7ZM15.3,18.5A7.5,7.5,0,1,0,7.8,11,7.5,7.5,0,0,0,15.3,18.5ZM5.5,22.6v1.1c0,.3.1.5.4.5H7a.8.8,0,0,0,.7-1.2.5.5,0,0,1-.1-.6A.8.8,0,0,0,7,21.1a4.8,4.8,0,0,0-1.2,0,.3.3,0,0,0-.3.3v1.2Zm8.2.5a1.1,1.1,0,0,0,1.1,1.2c.8,0,1.3-.4,1.3-1.1s0-1.2.1-1.7-.1-.4-.4-.4-.4.1-.4.4V23c0,.4-.1.6-.5.6s-.5-.2-.6-.6V21.4c.1-.3-.1-.3-.3-.3s-.4.1-.4.3a2.8,2.8,0,0,1,.1.9A2.2,2.2,0,0,0,13.7,23.1Zm5.8,1.1a.9.9,0,0,0,.9-.9c0-.5-.1-.7-.7-.9l-.7-.2a.2.2,0,0,1-.2-.2c0-.2.1-.3.2-.3a.8.8,0,0,1,.8.1c.2.2.3,0,.5-.2s-.1-.3-.2-.4a1.5,1.5,0,0,0-1.3-.1.8.8,0,0,0-.7,1,.8.8,0,0,0,.7.8h.6a.3.3,0,0,1,.3.3q0,.1-.3.3h-.8c-.3-.2-.4,0-.5.2s.1.3.2.4l.9.2Zm4.4-2.8a.3.3,0,0,0-.3-.3c-.3,0-.3.1-.4.3s-.7,1.6-1,2.3-.2.3-.1.4.6.2.7,0,.7-.4,1.1-.4.2-.1.3.1.5.4.9.3Zm-13.7.1a.8.8,0,0,0-.7-.4c-.2,0-.3,0-.2.3a5.6,5.6,0,0,0,.5.8,2.3,2.3,0,0,1,.4,1.6c-.1.2,0,.4.3.4s.4-.2.4-.5a2.1,2.1,0,0,1,.4-1.5,4.3,4.3,0,0,0,.4-.7c.1-.1.2-.2.1-.4s-.3,0-.4,0-.3.1-.4.3l-.4.8A2.5,2.5,0,0,1,10.2,21.5Z"/><path class="cls-1" d="M11.5,14.7a1.5,1.5,0,0,1-.9-1.3c0-.1-.1-.2,0-.2s.2,0,.3.1a.5.5,0,0,1,.3.5Z"/><path class="cls-1" d="M6.6,23.5c-.2.1-.4.1-.4-.3s.2-.3.4-.3.5,0,.5.3S6.8,23.5,6.6,23.5Z"/><path class="cls-1" d="M6.6,22.3c-.2,0-.4,0-.4-.3a.3.3,0,0,1,.3-.3c.2,0,.5,0,.5.3S6.8,22.3,6.6,22.3Z"/><path class="cls-1" d="M23.5,22.2a.5.5,0,0,1,.3.5c0,.1.1.2-.1.3s-.2,0-.4,0,0-.2,0-.3A1.7,1.7,0,0,0,23.5,22.2Z"/><path class="cls-1" d="M14.4,7.2a6.9,6.9,0,0,1,2,.1.5.5,0,0,0,.5-.3,4.7,4.7,0,0,1,1.5-.6c.6-.2.8,0,.9.6a1.9,1.9,0,0,1-.4,1.2,1.2,1.2,0,0,0-.1,1,12.1,12.1,0,0,1,.5,1.4,1.5,1.5,0,0,1,0,1.3c0,.2-.1.3-.3.2s-.2,0-.2.2a1.3,1.3,0,0,1-.1.6c-.1.2-.2.5-.4.2s-.2,0-.3.1-1.4.9-2.2,1.1-.2,0-.2-.1-.1-.2-.3-.1a4.8,4.8,0,0,0-.9,1.1,1.4,1.4,0,0,1-1.3.8,1,1,0,0,1-1.1-.8c.6,0,1.2.2,1.8-.3a1.1,1.1,0,0,0-.8.1,1.3,1.3,0,0,1-1.4-.9c-.1-.3-.1-.6.3-.7a1.2,1.2,0,0,0,.7-.7l-1,.2h-.5c-.6-.1-.8-.3-.4-.9a6.5,6.5,0,0,0,.7-2.1,2.4,2.4,0,0,1,1.1-1.5l.6-.8a2.7,2.7,0,0,1,1.3-1.5.3.3,0,0,1,.5.1c.1.2.3.5-.1.7Zm.1,3.8c.3,0,.6-.3.8-.6-1.3-.1-1.6,0-1.7,1Z"/></svg>