<svg id="Layer_1" data-name="Layer 1" xmlns="http://www.w3.org/2000/svg" viewBox="0 0 30 30"><defs><style>.cls-1{fill:#002e5d;}</style></defs><title>BYU_News_Releases30</title><path class="cls-1" d="M26.4,4.9V28.2A2.3,2.3,0,0,1,24.8,30H5.2l-.5-.2A2,2,0,0,1,3.6,28V5.2a1.9,1.9,0,0,1,.2-.8,2,2,0,0,1,2-1.3H9.3c.3,0,.5-.1.5-.4A2.3,2.3,0,0,1,11.9,1h.9a.7.7,0,0,0,.6-.3,1.9,1.9,0,0,1,3-.2,1.2,1.2,0,0,0,1.3.4h.4a2.1,2.1,0,0,1,2,1.7c.1.3.2.4.5.4h4.3A2.3,2.3,0,0,1,26.4,4.9ZM5.7,16.6V27.4c0,.5.1.5.5.5H19.8a.9.9,0,0,0,.6-.3l3.5-3.4a1.6,1.6,0,0,0,.3-.9V5.6a.3.3,0,0,0-.3-.3H20.5c-.2,0-.3,0-.3.3A2.1,2.1,0,0,1,18,7.3H12A2.1,2.1,0,0,1,9.8,5.6c0-.3-.2-.3-.4-.3H6.2c-.5,0-.5,0-.5.5ZM15,5.2h2.7c.3,0,.4-.1.3-.4V3.5q.2-.3-.3-.3H12.2a.3.3,0,0,0-.3.3V4.8c0,.3.1.4.4.4Z"/><path class="cls-1" d="M14.9,13.5H8.2c-.5,0-.5,0-.5-.5V11.7c0-.2.1-.3.4-.3H21.7c.6,0,.6,0,.6.5v1.2c0,.3-.2.4-.5.4H14.9Z"/><path class="cls-1" d="M15,19.6h6.7c.6,0,.6,0,.6.5v1.3c0,.3-.2.4-.5.4H8c-.2,0-.3-.1-.3-.4V20c0-.3.1-.4.4-.4H15Z"/><path class="cls-1" d="M12.4,15.5h4.2c.5,0,.5,0,.5.5v1.2c0,.4,0,.5-.4.5H8.2c-.5,0-.5-.1-.5-.5V15.9c0-.3.1-.4.4-.4Z"/></svg>