<svg id="Layer_1" data-name="Layer 1" xmlns="http://www.w3.org/2000/svg" viewBox="0 0 72 72"><defs><style>.cls-1{fill:#002e5d;}</style></defs><title>BYU_Devotionals72</title><path class="cls-1" d="M23.1,72a14.5,14.5,0,0,1,.1-3.6,5.2,5.2,0,0,1,5-4.2h3c.7.1.9-.2.9-.9C32,58.1,32,52.8,32,47.6c0-1.4,0-1.4,1.3-1.4h5.5c1.2,0,1.2,0,1.2,1.2V63.1c0,1.1,0,1.1,1.1,1.1h2.6a5.1,5.1,0,0,1,5.2,5.2,22.6,22.6,0,0,1,0,2.6Z"/><path class="cls-1" d="M7.6,42.5l.9-3.3a.8.8,0,0,1,.9-.7H62c1.3,0,1.3,0,1.7,1.3a26.8,26.8,0,0,0,.7,2.7v.2a1.8,1.8,0,0,1-1.9,1.1H9.5a1.8,1.8,0,0,1-1.9-1.1Z"/><path class="cls-1" d="M35.9,36.2H10.6c-1.3,0-1.3,0-1-1.2l5.7-20.7c.3-1.2.7-1.5,2-1.5h2.5c.5,0,.7-.2.7-.7V6.7A6.5,6.5,0,0,1,25.3.2a6.6,6.6,0,0,1,7.5,3.3,2.7,2.7,0,0,0,.7.8,2.5,2.5,0,0,1,.9,3.6,2.7,2.7,0,0,1-3.5,1,2.7,2.7,0,0,1-1.1-3.6c.4-.7.2-1.1-.3-1.6a3.5,3.5,0,0,0-3.9-.6,3.5,3.5,0,0,0-2.3,3.3c-.1,1.9,0,3.8-.1,5.7s.5.7,1,.7H54.7c1.3,0,1.7.3,2,1.5L62.4,35c.3,1.2.3,1.2-1,1.2Z"/></svg>