<svg id="Layer_1" data-name="Layer 1" xmlns="http://www.w3.org/2000/svg" viewBox="0 0 72 72"><defs><style>.cls-1{fill:#002957;}.cls-2{font-size:8px;fill:#002e5d;font-family:Garamond;letter-spacing:0.1em;}.cls-3{letter-spacing:0.08em;}.cls-4{letter-spacing:0.04em;}</style></defs><title>BYU_Broadcasting72</title><path class="cls-1" d="M8.2,28.8V25.4a1.2,1.2,0,0,0-.1-.5h3.1c2,0,3.2.3,3.2,2.1s-.7,2.3-3.1,2.3H8.1A1.2,1.2,0,0,0,8.2,28.8Zm0,8.1V32.8a1.2,1.2,0,0,0-.1-.5h2.7c1.8,0,4,0,4,2.4s-1.6,2.5-3.7,2.5h-3A1,1,0,0,0,8.2,36.9ZM1.8,22.8V39.5c0,.6,0,.8-.4,1a3.3,3.3,0,0,1-1.3.4h0c-.1,0-.1.2,0,.2H13.6c5.8,0,8.2-2.2,8.2-5.8s-1.2-4.2-3.6-4.8c-.1,0-.1-.1,0-.1a4,4,0,0,0,2.9-4.3c0-3.7-2.5-5-7.9-5H.1c-.1,0-.1.3-.1.3H.1c.6.1,1,.1,1.3.4S1.8,22.2,1.8,22.8Z"/><path class="cls-1" d="M70.2,22.8c0-.6,0-.8.4-1s.7-.3,1.3-.4H72s0-.2-.1-.2h-10v.2h0c.7.1,1,.1,1.3.4s.4.4.4,1v10c0,2.3-1.3,4.1-3.9,4.1a3.8,3.8,0,0,1-4-4.1v-10c0-.6,0-.8.4-1a2.5,2.5,0,0,1,1.3-.4h0c.1,0,0-.2,0-.2H47.9v.2h0c.4,0,.6,0,.8.2a1.5,1.5,0,0,1,.4,1.2v9.9c0,4.8,2.6,8.8,10.6,8.8s10.5-4,10.5-8.8V22.8Z"/><path class="cls-1" d="M39.9,41.1v-.2h0a2.6,2.6,0,0,1-1.4-.4c-.4-.2-.4-.4-.4-1V33.2L45,22.9a3.7,3.7,0,0,1,1-1.1c0-.1.2-.2.2-.2a1.9,1.9,0,0,1,.8-.2h0c.1,0,.1-.2,0-.2H37.7c-.1,0-.1.2,0,.2h0c.4,0,1,0,.9.7s-2.7,4.5-3.7,6l-.3.7a1.1,1.1,0,0,0-.3-.7c-1.3-2-3.6-5.3-3.7-6s.5-.7,1-.7h0s.1-.2,0-.2H21.8c-.1,0-.1.2,0,.2h0a2.6,2.6,0,0,1,1.1.3h.3a5.9,5.9,0,0,1,.9,1.1L31,33.1v6.5c0,.5,0,.7-.4.9a2.6,2.6,0,0,1-1.4.4h0v.3Z"/><text class="cls-2" transform="translate(0.4 48.4)">B<tspan class="cls-3" x="5.7" y="0">R</tspan><tspan class="cls-4" x="11.3" y="0">O</tspan><tspan x="17.9" y="0">ADCASTING</tspan></text></svg>