<svg id="Layer_1" data-name="Layer 1" xmlns="http://www.w3.org/2000/svg" viewBox="0 0 72 72"><defs><style>.cls-1{fill:#002e5d;}</style></defs><title>BYU_Athletics72</title><path class="cls-1" d="M38.1,59.3H33.3l-4.8-.5a46.6,46.6,0,0,1-16.2-5.2A27.1,27.1,0,0,1,2.8,45,15.4,15.4,0,0,1,.3,33.2,17.3,17.3,0,0,1,5.2,24a31.8,31.8,0,0,1,11.9-7.9,53.9,53.9,0,0,1,21-3.4,47.5,47.5,0,0,1,11.8,1.8,37,37,0,0,1,14.7,7.3,20.3,20.3,0,0,1,6.7,9.6,13.7,13.7,0,0,1,.7,3.4v2.6c0,.1-.1.2-.1.3a14.8,14.8,0,0,1-2.2,6.5A24,24,0,0,1,62.3,52c-6.6,4.4-13.9,6.4-21.6,7.1ZM30.5,45.8v3c0,.7-.1.7-.7.6l-3.5-.5c-.4-.1-.6.1-.7.5s-.6,2.7-.8,4.1,0,.6.4.7a43.3,43.3,0,0,0,7.1,1,44.5,44.5,0,0,0,7.3,0A56.6,56.6,0,0,0,47.7,54c.4,0,.5-.2.4-.6s-.8-2.8-1.1-4.1-.3-.6-.8-.5l-3.7.6c-.7.1-.7.1-.7-.6V43.2a2.5,2.5,0,0,1,.6-1.6c2.2-2.7,4.4-5.5,6.7-8.2s3.7-4.5,5.6-6.8c.3-.4.6-.5,1-.2a18.6,18.6,0,0,1,3.2,2.3c.4.3.6.2.8-.1L62,25.4c.5-.6.5-.6-.1-1.1a39.8,39.8,0,0,0-16.2-7c-.4,0-.6.1-.6.5l-.6,4.1c-.1.8,0,.8.7,1a19.8,19.8,0,0,1,3.5.8c.4.1.6.2.2.6L39.6,35.6c-.3.4-.5.3-.8,0L28.3,23.3c-.1-.1-.4-.3-.3-.5s.4-.2.6-.2l3.4-.4c.4-.1.5-.2.4-.6s-.3-3-.4-4.5-.3-.6-.8-.6a43.2,43.2,0,0,0-13.6,3.4,26.8,26.8,0,0,0-7.8,4.6c-.4.2-.5.4-.2.8a40.1,40.1,0,0,1,2.7,3.4.5.5,0,0,0,.8.1,17.1,17.1,0,0,1,2.7-2c.7-.4.7-.4,1.2.2l6.5,7.3L30,41.6a1.8,1.8,0,0,1,.5,1.6Z"/></svg>