<svg id="Layer_1" data-name="Layer 1" xmlns="http://www.w3.org/2000/svg" viewBox="0 0 30 30"><defs><style>.cls-1{fill:#002e5d;}</style></defs><title>Calendar30</title><path class="cls-1" d="M27.3,30H2.6A2.4,2.4,0,0,1,1,27.5c.1-7.3.1-14.7,0-22A2.3,2.3,0,0,1,3.3,3.2h.4c.6,0,.6,0,.7.5A3,3,0,0,0,7.5,6.4a3.1,3.1,0,0,0,3.1-2.8c.1-.3.2-.4.5-.4h7.7c.4,0,.5.1.5.4a3,3,0,0,0,2.2,2.6,3,3,0,0,0,3.3-.8,3,3,0,0,0,.8-1.8c.1-.2,0-.4.2-.4a2.8,2.8,0,0,1,2.5.6A2.7,2.7,0,0,1,29,5.2V28A2.4,2.4,0,0,1,27.3,30ZM15,27.8H26.2c.5,0,.5,0,.5-.5v-16c0-.5,0-.5-.5-.5H3.8c-.6,0-.6,0-.6.5v16c0,.5,0,.5.6.5Z"/><path class="cls-1" d="M21.4,2.1v-1a1,1,0,0,1,1-1.1,1.1,1.1,0,0,1,1.2.9V3.4a1,1,0,0,1-1.2.9,1,1,0,0,1-1-1V2.1Z"/><path class="cls-1" d="M8.6,2.2V3.3a.9.9,0,0,1-1,1,1,1,0,0,1-1.2-.9A10.5,10.5,0,0,1,6.4.9,1.1,1.1,0,0,1,7.6,0a1,1,0,0,1,1,1.1Z"/><path class="cls-1" d="M10.7,16.1c-1.1,0-1.1,0-1.1-1.1v-.8a.3.3,0,0,1,.3-.3h1.6a.3.3,0,0,1,.3.3v1.6a.3.3,0,0,1-.3.3Z"/><path class="cls-1" d="M15,16.1h-.8a.3.3,0,0,1-.3-.3V14.2a.3.3,0,0,1,.3-.3h1.6a.3.3,0,0,1,.3.3v1.6a.3.3,0,0,1-.3.3Z"/><path class="cls-1" d="M20.4,15c0,1.1,0,1.1-1.1,1.1h-.8c-.2,0-.4-.1-.4-.3a4.3,4.3,0,0,0,0-1.6c0-.2.2-.3.4-.3H20c.3,0,.4.1.4.4Z"/><path class="cls-1" d="M10.7,18.2h.8a.3.3,0,0,1,.3.3v1.6a.3.3,0,0,1-.3.3H9.9a.3.3,0,0,1-.3-.3V18.5a.3.3,0,0,1,.3-.3Z"/><path class="cls-1" d="M15,20.4c-1.1,0-1.1,0-1.1-1.1v-.8c0-.2,0-.3.3-.3h1.6a.3.3,0,0,1,.3.3v1.6c0,.2-.1.3-.4.3Z"/><path class="cls-1" d="M18.2,19.3v-.8a.3.3,0,0,1,.3-.3h1.6a.3.3,0,0,1,.3.3v1.6a.3.3,0,0,1-.3.3H18.4c-.2,0-.2-.1-.2-.3Z"/><path class="cls-1" d="M6.4,18.2h.8a.3.3,0,0,1,.3.3v1.6a.3.3,0,0,1-.3.3H5.6a.3.3,0,0,1-.3-.3V18.5a.3.3,0,0,1,.3-.3Z"/><path class="cls-1" d="M22.4,19.3c0-1.1,0-1.1,1.1-1.1h.7c.3-.1.5.1.5.4V20c0,.3-.1.4-.4.4H22.9c-.3,0-.5-.1-.5-.4S22.4,19.5,22.4,19.3Z"/><path class="cls-1" d="M7.5,23.6v.8a.3.3,0,0,1-.3.3H5.6a.3.3,0,0,1-.3-.3V22.8a.3.3,0,0,1,.3-.3H7.2a.3.3,0,0,1,.3.3Z"/><path class="cls-1" d="M11.8,23.6v.8a.3.3,0,0,1-.3.3H9.9a.3.3,0,0,1-.3-.3V22.8a.3.3,0,0,1,.3-.3h1.6a.3.3,0,0,1,.3.3Z"/><path class="cls-1" d="M18.2,23.6v-.8c0-.2,0-.3.2-.3h1.7a.3.3,0,0,1,.3.3v1.6a.3.3,0,0,1-.3.3H18.5c-.2,0-.4-.1-.4-.3a2.5,2.5,0,0,0,.1-.8Z"/><path class="cls-1" d="M23.6,13.9h.7c.2,0,.4.1.4.3v1.6c0,.2-.2.3-.4.3H22.8c-.2,0-.4-.1-.4-.3V14.2c0-.2.2-.3.4-.3Z"/><path class="cls-1" d="M16.1,23.6v.7c0,.3-.1.4-.4.4H14.3c-.3,0-.4-.1-.4-.4V22.8a.3.3,0,0,1,.3-.3h1.5c.3,0,.4.1.4.3v.8Z"/></svg>