<svg id="Layer_1" data-name="Layer 1" xmlns="http://www.w3.org/2000/svg" viewBox="0 0 72 72"><defs><style>.cls-1{fill:#002e5d;}</style></defs><title>Calendar72</title><path class="cls-1" d="M65.6,72H6.3c-2.8-1.1-3.8-3.1-3.8-6.1V13.2A5.4,5.4,0,0,1,7.9,7.6h1c1.4,0,1.4,0,1.6,1.3a7.5,7.5,0,0,0,7.6,6.4,7.4,7.4,0,0,0,7.4-6.6c.1-.9.4-1.1,1.2-1.1H45.2c.8,0,1.1.2,1.2,1.1a7.3,7.3,0,0,0,5.1,6.2A7.1,7.1,0,0,0,59.4,13a6.8,6.8,0,0,0,2.1-4.5c.1-.3,0-.8.5-.8,2.2-.2,4.3-.1,6,1.5a6.2,6.2,0,0,1,1.5,3.4V67.2A5.5,5.5,0,0,1,65.6,72ZM36,66.8H62.9c1.2,0,1.2,0,1.2-1.2.1-12.9.1-25.7,0-38.5,0-1.2,0-1.2-1.2-1.2H9c-1.2,0-1.2,0-1.2,1.2V65.5c0,1.3,0,1.3,1.2,1.3Z"/><path class="cls-1" d="M51.3,5.1V2.6A2.5,2.5,0,0,1,53.7,0a2.6,2.6,0,0,1,2.9,2.2,30.1,30.1,0,0,1,0,6,2.6,2.6,0,0,1-2.8,2.2A2.5,2.5,0,0,1,51.3,8V5.1Z"/><path class="cls-1" d="M20.6,5.2a24.3,24.3,0,0,1,0,2.7,2.5,2.5,0,0,1-2.4,2.5,2.6,2.6,0,0,1-2.8-2.2,30.1,30.1,0,0,1,0-6A2.5,2.5,0,0,1,18.3,0a2.5,2.5,0,0,1,2.3,2.5A24.3,24.3,0,0,1,20.6,5.2Z"/><path class="cls-1" d="M25.7,38.7c-2.7,0-2.7,0-2.7-2.6v-2c0-.5.2-.7.7-.7h4c.5,0,.7.2.7.7V38c0,.5-.3.7-.8.7Z"/><path class="cls-1" d="M36,38.7H34.1c-.6,0-.8-.2-.8-.8V34.2c0-.6.2-.8.7-.8h3.9c.5,0,.7.2.7.7v3.8c0,.6-.2.8-.8.8Z"/><path class="cls-1" d="M48.9,36c0,2.7,0,2.7-2.6,2.7H44.4c-.5,0-.8-.2-.8-.8V34.1c0-.6.3-.8.8-.8a22.9,22.9,0,0,0,3.7,0c.6,0,.9.3.8.9Z"/><path class="cls-1" d="M25.7,43.6h1.9a.7.7,0,0,1,.8.8c-.1,1.3,0,2.6,0,3.9a.6.6,0,0,1-.7.7h-4c-.5,0-.7-.2-.7-.7V44.4c0-.5.2-.8.7-.8Z"/><path class="cls-1" d="M36,49c-2.7,0-2.7,0-2.7-2.6V44.5c0-.6.2-.9.8-.9h3.7c.6,0,.8.3.8.9v3.7c.1.6-.2.8-.8.8Z"/><path class="cls-1" d="M43.6,46.3V44.4c0-.5.2-.8.7-.8h3.9c.5,0,.7.3.7.8v3.9c0,.4-.2.7-.6.7H44.2c-.4,0-.6-.2-.6-.7Z"/><path class="cls-1" d="M15.4,43.6h1.9a.7.7,0,0,1,.8.8v3.9a.6.6,0,0,1-.7.7H13.5a.7.7,0,0,1-.8-.7v-4c0-.5.3-.7.8-.7Z"/><path class="cls-1" d="M53.9,46.3c0-2.7,0-2.7,2.6-2.7a8.5,8.5,0,0,0,1.6,0c.8,0,1.1.3,1.1,1V48c0,.7-.2,1-1,1H54.9c-.7,0-1.1-.2-1-1Z"/><path class="cls-1" d="M18.1,56.6v1.9a.7.7,0,0,1-.8.8H13.5c-.5,0-.8-.2-.8-.8V54.7c0-.5.2-.8.8-.8h3.8c.6,0,.8.3.8.8Z"/><path class="cls-1" d="M28.4,56.6a12,12,0,0,0,0,1.9.7.7,0,0,1-.8.8H23.7c-.5,0-.7-.3-.7-.8V54.7c0-.5.2-.8.7-.8h3.9c.6,0,.8.3.8.8A12,12,0,0,0,28.4,56.6Z"/><path class="cls-1" d="M43.6,56.6v-2a.6.6,0,0,1,.7-.7h3.9c.5,0,.7.3.7.8v3.8c0,.5-.2.8-.7.8H44.3c-.5,0-.8-.3-.7-.8V56.6Z"/><path class="cls-1" d="M56.6,33.3a9.7,9.7,0,0,0,1.7,0,.8.8,0,0,1,.9.9v3.7c0,.6-.3.8-.9.8H54.7c-.5,0-.8-.2-.8-.8V34.2c0-.6.3-.9.8-.9A12.1,12.1,0,0,0,56.6,33.3Z"/><path class="cls-1" d="M38.6,56.7v1.6c.1.7-.2,1-.9,1H34.2a.8.8,0,0,1-.9-.9V54.8a.8.8,0,0,1,.9-.9h3.6c.6,0,.9.3.8.9v1.9Z"/></svg>