<svg id="Layer_1" data-name="Layer 1" xmlns="http://www.w3.org/2000/svg" viewBox="0 0 30 30"><defs><style>.cls-1{fill:#002e5d;}</style></defs><title>Campus_Favorites_Admin_Staff30</title><path class="cls-1" d="M.9.9H2.1A4.7,4.7,0,0,0,3.8,1c.6,0,.7.1.8.7,0,3.1.1,6.3.2,9.5.1.6.1.7.7.7h5.1a.9.9,0,0,0,1-.7c1-3.1,2-6.2,3.1-9.3,0-.2,0-.5.2-.6s.2.3.3.5c1,3.1,2.1,6.3,3.1,9.5a.9.9,0,0,0,.9.6H30v.2h-.3l-8.5,6.1a.6.6,0,0,0-.3.8c.7,2,1.3,4,2,6s.7,2.4,1.1,3.6.1.3,0,.4l-.4-.2h-.2l-8-5.4c-.3-.3-.6-.3-1,0L6.6,28.7l-.4.3c-.1,0-.2.1-.3,0s-.1-.1,0-.2v-.3l3-9.4a.7.7,0,0,0-.3-.9L5,15.7.3,12.3c-.1-.1-.3-.1-.3-.3H.4c.3,0,.4-.2.4-.5S.7,9.3.7,8.3.6,3.8.5,1.5A.5.5,0,0,1,.9.9ZM2.8,11.8h.4c.8,0,.8,0,.8-.8s-.1-3.4-.2-5.2,0-2.3-.1-3.4-.1-.6-.5-.6H2c-.2,0-.5,0-.6.3s0,.6.3.7.4.6,0,.8-.3.1-.3.3l.4.2h.7c.2.1.4.2.3.4s-.1.4-.4.4H1.8c-.1,0-.2,0-.3.2s.1.2.2.3.5.5,0,.7-.3.4,0,.5.5.5,0,.8-.2.2-.2.3.2.2.3.2h.7c.2.1.4.2.4.4a.4.4,0,0,1-.4.4H1.9l-.3.2c0,.2.1.2.2.3s.5.5,0,.8-.3.3,0,.5.5.4.1.8-.2.2-.2.3.2.2.3.2Z"/></svg>