<svg id="Layer_1" data-name="Layer 1" xmlns="http://www.w3.org/2000/svg" viewBox="0 0 72 72"><defs><style>.cls-1{fill:#002e5d;}</style></defs><title>Campus_Favorites_Student72</title><path class="cls-1" d="M2,32.9H26.6a1.6,1.6,0,0,0,1.8-1.3c1.4-4.3,2.8-8.6,4.3-12.9.4-1.3.4-1.3,1.6-.7l.5.2c1.6.8,1.6.8,2.8-.4l.4-.4c.6-.8.9-.7,1.2.2l4.2,12.9c.8,2.4.8,2.4,3.4,2.4H68.6a2.4,2.4,0,0,1,1.4.2c-.1.5-.5.6-.8.8L50.8,47c-1.5,1-1.5,1-.9,2.7l6.6,21.1.3,1.2h-.5l-.3-.3L36.7,58.6c-.6-.4-1-.2-1.5.2L15.7,72h-.3a5.8,5.8,0,0,1,.3-1.4l6.8-21.5a1.2,1.2,0,0,0-.6-1.7l-7.8-5.6L2,33.4Z"/><path class="cls-1" d="M34.8,10.5l-10.9-2L21.1,8c-.4-.1-.8-.1-.9-.5s.4-.6.7-.8a86.1,86.1,0,0,0,8.3-4.9A9.1,9.1,0,0,1,37.5.4c3.1.8,6.2,1.2,9.3,1.8.4.1.9,0,1,.5s-.4.6-.8.8L35.7,10.1C35.3,10.3,35,10.6,34.8,10.5Z"/><path class="cls-1" d="M27.2,13.1c0-2.7,0-2.7,2.4-2.2a32.5,32.5,0,0,1,4.3.8,3.2,3.2,0,0,0,2.5-.5l5-2.9c.6-.4,1-.3,1.2.4s1.2,4.2,1.7,6.3,0,1.4-1,.9c-2.6-1.4-4.4-.5-5.9,1.7A1.5,1.5,0,0,1,35,18a14,14,0,0,1-1.7-.9,2.1,2.1,0,0,0-3,.3c-.4.4-1,.7-1.5,1.1s-1.2.5-1.3-.6S27.3,14.5,27.2,13.1Z"/><path class="cls-1" d="M24.1,18c-.5,1.6-.2,3.2-.5,4.8a1.7,1.7,0,0,0-.1.7c-.1.1-.2.3-.4.2a.5.5,0,0,1-.3-.3v-1a32.8,32.8,0,0,0,0-7,1.5,1.5,0,0,0-.6-1c-.9-.7-.9-1.3-.2-2.1a3.5,3.5,0,0,0,.6-1.9c.1-.3.1-.7.5-.6s.3.4.3.7a1.7,1.7,0,0,0,.5,1.9,1,1,0,0,1,.2,1.4,1.7,1.7,0,0,0,0,1.7c.6,2,1.3,4,2,6.1.1.5.7,1.3.1,1.5s-.6-.8-.8-1.2S24.5,19.3,24.1,18Z"/></svg>