<svg id="Layer_1" data-name="Layer 1" xmlns="http://www.w3.org/2000/svg" viewBox="0 0 72 72"><defs><style>.cls-1{fill:#002e5d;}</style></defs><title>Campus_Favorites_Admin_Staff72</title><path class="cls-1" d="M2.1,2.2H4.9a31,31,0,0,0,4.3.2c1.4,0,1.7.3,1.7,1.6.3,7.6.5,15.2.7,22.9,0,1.5.1,1.6,1.6,1.6H25.5c1.3,0,1.9-.4,2.2-1.5q3.8-11.4,7.5-22.5c.1-.5.1-1.1.6-1.4s.5.8.6,1.2C39,11.9,41.5,19.4,44,27c.3,1.2.9,1.5,2.1,1.5H72V29l-.6.3L50.8,43.9c-.8.5-.8,1.1-.5,1.9,1.5,4.8,3,9.7,4.6,14.5l2.7,8.6c0,.2.3.6,0,.8s-.6-.1-.9-.2L56,69,37,56.1a1.8,1.8,0,0,0-2.4,0L15.8,68.9l-1,.6c-.2.2-.5.4-.7.2s-.1-.5,0-.7a2.5,2.5,0,0,1,.2-.7c2.3-7.5,4.7-15,7.1-22.5a1.5,1.5,0,0,0-.7-2L12,37.6.7,29.5c-.3-.1-.8-.3-.7-.7s.5-.3.8-.3,1.1-.5,1.1-1.2c-.1-2.5-.1-4.9-.2-7.4-.1-5.4-.2-10.8-.4-16.2A1.5,1.5,0,0,1,2.1,2.2ZM6.8,28.4h.9c1.9,0,1.9,0,1.9-1.9-.1-4.2-.3-8.3-.4-12.5s0-5.5-.2-8.3c-.1-.9-.4-1.4-1.4-1.4a26.2,26.2,0,0,1-2.8,0c-.6,0-1.3-.1-1.4.7a1.4,1.4,0,0,0,.7,1.8C5,7.4,5,8.2,4,8.6s-.6.3-.5.7.4.4.7.4L6,9.9c.5.1.9.4.8,1s-.4.8-1,.8H4.4a.6.6,0,0,0-.7.5c-.1.4.2.5.4.7s1.1,1.2,0,1.9-.6.7,0,1.1,1.2,1.2,0,2-.5.2-.4.6.4.4.7.4H5.9c.6.1,1.2.3,1.2,1s-.6.9-1.2,1H4.6a.7.7,0,0,0-.7.4c-.1.4.2.5.4.7s1.2,1.1,0,1.9-.6.7,0,1.1,1.2,1,.1,2a.8.8,0,0,0-.3.8c.1.4.4.5.8.5Z"/></svg>