<svg id="Layer_1" data-name="Layer 1" xmlns="http://www.w3.org/2000/svg" viewBox="0 0 30 30"><defs><style>.cls-1{fill:#002e5d;}</style></defs><title>Campus_Favorites_Student30</title><path class="cls-1" d="M.9,13.7H11.1c.4,0,.6-.1.7-.5l1.8-5.4c.2-.6.2-.6.7-.3h.2c.7.3.7.3,1.2-.2V7.2c.3-.3.4-.2.5.1l1.8,5.4c.3,1,.3,1,1.4,1h9.6c0,.2-.2.2-.3.3l-7.6,5.5c-.7.4-.7.4-.4,1.1l2.7,8.8.2.5h-.4l-8-5.5c-.2-.2-.4-.1-.6.1L6.5,30H6.4c0-.2.1-.4.1-.6,1-3,1.9-6,2.9-8.9a.6.6,0,0,0-.3-.8L5.9,17.4l-5-3.5Z"/><path class="cls-1" d="M14.5,4.4,10,3.6,8.8,3.3c-.2,0-.4,0-.4-.2s.2-.2.3-.3l3.5-2A3.5,3.5,0,0,1,15.6.2l3.9.7c.2,0,.4,0,.4.2s-.2.3-.3.4L14.9,4.2Z"/><path class="cls-1" d="M11.4,5.5c-.1-1.2-.1-1.2.9-1l1.8.4a1.5,1.5,0,0,0,1.1-.2l2-1.2c.3-.2.4-.2.5.1s.5,1.8.8,2.6-.1.7-.5.4a1.7,1.7,0,0,0-2.4.7c-.3.4-.6.5-1,.2l-.7-.4a1,1,0,0,0-1.3.1l-.6.5c-.3.3-.5.2-.5-.2A14.1,14.1,0,0,1,11.4,5.5Z"/><path class="cls-1" d="M10,7.5c-.2.7,0,1.3-.2,2v.3H9.5V9.3a14,14,0,0,0,0-2.9A.5.5,0,0,0,9.3,6c-.4-.3-.4-.5-.1-.9a1.1,1.1,0,0,0,.2-.8l.2-.2c.2,0,.2.2.1.3a.9.9,0,0,0,.3.8.5.5,0,0,1,0,.6.8.8,0,0,0,0,.7L10.9,9c0,.2.3.5,0,.6s-.2-.3-.3-.5Z"/></svg>