<svg id="Layer_1" data-name="Layer 1" xmlns="http://www.w3.org/2000/svg" viewBox="0 0 30 30"><defs><style>.cls-1{fill:#002e5d;}</style></defs><title>Campus_Technology30</title><path class="cls-1" d="M30,9.4v2.9H23.7c-.5,0-.5,0-.5.5v4.3c0,.6,0,.6.6.6H30v2.8H23.7c-.4,0-.5.1-.5.5v3c0,.5-.1.6-.6.6h-11a1.7,1.7,0,0,1-1.2-.5L5.6,19.5a1.3,1.3,0,0,0-.8-.3H1.5A1.4,1.4,0,0,1,0,17.7c0-1.8.1-3.5,0-5.2a1.6,1.6,0,0,1,1.7-1.7H4.8a.8.8,0,0,0,.7-.2L10.2,6a2.4,2.4,0,0,1,1.2-.7H23.1a1.5,1.5,0,0,1,.1.7V8.8c0,.6,0,.6.6.6Z"/></svg>