<svg id="Layer_1" data-name="Layer 1" xmlns="http://www.w3.org/2000/svg" viewBox="0 0 72 72"><defs><style>.cls-1{fill:#002e5d;}</style></defs><title>Campus_Technology72</title><path class="cls-1" d="M72,22.7v6.8H57c-1.2,0-1.3.1-1.3,1.3V41c0,1.4,0,1.5,1.5,1.5H72v6.8H70.5c-4.5,0-9.1.1-13.6,0q-1.4,0-1.2,1.2v7.4c0,1.2-.2,1.3-1.4,1.3H27.8A3.8,3.8,0,0,1,24.9,58L13.3,46.7a2.2,2.2,0,0,0-1.7-.7c-2.6.1-5.3.1-7.9,0A3.3,3.3,0,0,1,0,42.4C0,38.3.1,34.1,0,30a3.6,3.6,0,0,1,4-4h7.6a2.2,2.2,0,0,0,1.7-.6L24.4,14.5a5.1,5.1,0,0,1,2.9-1.7H55.5a3.9,3.9,0,0,1,.2,1.5v6.9c0,1.4,0,1.5,1.4,1.5Z"/></svg>