<svg id="Layer_1" data-name="Layer 1" xmlns="http://www.w3.org/2000/svg" viewBox="0 0 72 72"><defs><style>.cls-1{fill:#002e5d;}</style></defs><title>Campus_Online_Directory72</title><path class="cls-1" d="M.3,60c-.5-.2-.2-.6-.2-.9C0,46.3.1,33.5.1,20.7a28.4,28.4,0,0,1,5-4.8A26.7,26.7,0,0,1,15,12h6.9l.4.2a25.5,25.5,0,0,1,13,5.1,1.2,1.2,0,0,0,1.5-.1A25.3,25.3,0,0,1,45,13.1c1.6-.5,3.4-.7,5.1-1.1H57a25.4,25.4,0,0,1,8.8,3.3,22.6,22.6,0,0,1,6.1,5.4c0,12.8.1,25.6,0,38.4,0,.3.3.7-.2.9a9.4,9.4,0,0,0-.9-1.2c-5.6-6.1-12.5-8.6-20.7-7.3A21,21,0,0,0,36.2,60h-.4l-.9-1.2c-5.6-6.1-12.6-8.6-20.7-7.3A20.8,20.8,0,0,0,.3,60ZM32.9,36.3c0-3.7-.1-7.3,0-11A3.9,3.9,0,0,0,31.3,22l-1.4-.8a22.5,22.5,0,0,0-9.5-3,17.2,17.2,0,0,0-13.2,4,2.9,2.9,0,0,0-1,2.3V45.9c0,1.4,0,1.4,1.3.9a28.5,28.5,0,0,1,24.2,1.5c1.1.6,1.1.6,1.2-.7Zm6.2-.2V47.6c.1,1.3.1,1.3,1.2.7a28.3,28.3,0,0,1,24.1-1.5c1.4.5,1.4.5,1.4-1,0-6.7-.1-13.4.1-20.2a4.6,4.6,0,0,0-2.4-4.4h-.2c-4.6-3.2-9.6-3.4-14.8-2.4a18.5,18.5,0,0,0-8.5,4,2.7,2.7,0,0,0-.9,2.1C39.2,28.6,39.1,32.4,39.1,36.1Z"/></svg>