<svg id="Layer_1" data-name="Layer 1" xmlns="http://www.w3.org/2000/svg" viewBox="0 0 30 30"><defs><style>.cls-1{fill:#002e5d;}</style></defs><title>Classifieds30</title><path class="cls-1" d="M0,24.3V8.1a1.2,1.2,0,0,1,1-.6H2.9c.2,0,.4.1.4.3V23.1a.4.4,0,0,0,.4.4.5.5,0,0,0,.5-.4V4.7a1.7,1.7,0,0,1,.7-1.5H29.7c.2,0,.3.1.3.4V26.4c0,.3-.1.4-.3.4H2.5A3.5,3.5,0,0,1,0,24.3ZM7.6,11.8v4.5c0,.7.1.8.7.8h6.9c.6,0,.8-.1.8-.8v-9c0-.7-.2-.8-.8-.8H8.3c-.6,0-.7.1-.7.8Zm9.5,11.7h9.1c.3,0,.4-.2.4-.5s-.2-.4-.4-.5H8c-.2.1-.4.2-.4.5a.5.5,0,0,0,.5.5h9Zm0-3.2h9.1c.2-.1.4-.2.4-.5s-.1-.4-.4-.5H7.9c-.2,0-.3.2-.3.5s.1.3.4.4h9.1ZM22.4,7.5h3.8c.2-.1.4-.2.4-.5a.5.5,0,0,0-.4-.5H18.7c-.3.1-.5.2-.5.5s.2.4.5.4h3.7Zm0,6.4H26c.4,0,.7-.2.6-.5s-.3-.5-.6-.5H18.9a.6.6,0,0,0-.7.5c0,.3.3.5.7.5Zm0,3.2h3.5c.5,0,.7-.2.7-.5s-.2-.5-.7-.5H18.6c-.2,0-.3.1-.4.4s.1.3.3.4h3.9Zm0-6.4H26c.3,0,.6-.1.6-.5s-.2-.5-.6-.5H18.9c-.4,0-.7.1-.7.5a.6.6,0,0,0,.6.5h3.6Z"/><path class="cls-1" d="M15,11.8v3.7c0,.6,0,.6-.6.6H9c-.5,0-.5,0-.5-.5V8c0-.4.1-.6.5-.5h5.5c.4,0,.5.1.5.5Z"/></svg>