<svg id="Layer_1" data-name="Layer 1" xmlns="http://www.w3.org/2000/svg" viewBox="0 0 72 72"><defs><style>.cls-1{fill:#002e5d;}</style></defs><title>Classifieds72</title><path class="cls-1" d="M0,58.2V19.6C.6,18.7,1.2,18,2.3,18H7.1c.5,0,.7.3.7.8V54.1a4.9,4.9,0,0,0,.1,1.2c.1.6.4,1,1,1s1.1-.3,1.2-1V11.2a3.5,3.5,0,0,1,1.7-3.4H71.2c.7,0,.8.1.8.8V63.4c0,.7-.1.8-.8.8H6A8.3,8.3,0,0,1,0,58.2ZM18.1,28.3V39.2c0,1.5.4,1.8,1.8,1.8H36.5c1.5,0,1.8-.3,1.8-1.8V17.5c0-1.6-.3-1.9-1.9-1.9H20c-1.6,0-1.9.3-1.9,1.9Zm23,28.1H62.8a1.1,1.1,0,0,0,1.1-1.2c0-.7-.4-1-1.1-1.1H19.3c-.7.1-1.1.4-1.1,1.2s.5,1,1.1,1.1H41.1ZM41,48.7H62.8a1,1,0,0,0,1.1-1,1.1,1.1,0,0,0-1-1.2H20l-1.1.2a1,1,0,0,0-.7,1.1.9.9,0,0,0,.9,1H41ZM53.8,17.9h9a1,1,0,0,0,1.1-1.1,1.1,1.1,0,0,0-1.1-1.2H44.9a1.1,1.1,0,0,0-1.1,1.2c0,.7.4,1,1.1,1.1h8.9Zm0,15.4h8.6c1,0,1.6-.4,1.5-1.2S63.2,31,62.4,31h-17c-.8,0-1.5.2-1.6,1.1s.5,1.2,1.6,1.2Zm0,7.7h8.4c1.2,0,1.7-.4,1.7-1.2s-.5-1.1-1.6-1.1H44.7c-.5.1-.9.4-.9.9a1.2,1.2,0,0,0,.6,1.2,2.5,2.5,0,0,0,1.2.1Zm.1-15.3h8.5c.7,0,1.4-.2,1.5-1.2s-.5-1.2-1.5-1.2H45.3c-.8,0-1.5.3-1.5,1.1s.6,1.2,1.4,1.3h8.7Z"/><path class="cls-1" d="M36.1,28.3v9c0,1.3-.1,1.4-1.4,1.4h-13c-1.2,0-1.3-.1-1.4-1.4,0-6,.1-12,0-18.1,0-1,.4-1.3,1.4-1.3H34.8c1,0,1.3.3,1.3,1.3Z"/></svg>