<svg id="Layer_1" data-name="Layer 1" xmlns="http://www.w3.org/2000/svg" viewBox="0 0 30 30"><defs><style>.cls-1{fill:#002e5d;}</style></defs><title>Course_Catalog30</title><path class="cls-1" d="M28,29.4H1.9A2.5,2.5,0,0,1,0,27.7V14.3H9.9c.3,0,.5.1.6.5a2.5,2.5,0,0,0,1.1,1.9,5.5,5.5,0,0,0,6.7,0A2.7,2.7,0,0,0,19.4,15c.2-.6,0-.7.8-.7H30V27.3A2.6,2.6,0,0,1,28,29.4Z"/><path class="cls-1" d="M30,7.3V8.6c-.2.2-.5.1-.7.1H0V6.9A2.6,2.6,0,0,1,2.7,5.1H27.1a4.5,4.5,0,0,1,1.6.3A2.3,2.3,0,0,1,30,7.3Z"/><path class="cls-1" d="M30,11.9v1.4H0V11.5A2.5,2.5,0,0,1,2.8,9.8H27.4a2.5,2.5,0,0,1,1.9.7A2.7,2.7,0,0,1,30,11.9Z"/><path class="cls-1" d="M1.9.6H28a2.6,2.6,0,0,1,2,2.1V4.1H0V2.3A2.5,2.5,0,0,1,1.9.6Z"/></svg>