<svg id="Layer_1" data-name="Layer 1" xmlns="http://www.w3.org/2000/svg" viewBox="0 0 72 72"><defs><style>.cls-1{fill:#002e5d;}</style></defs><title>Course_Schedule_and_Grades72</title><path class="cls-1" d="M0,27.6c.1-.3.1-.6.2-.9A2,2,0,0,1,2.4,25a2.1,2.1,0,0,1,1.9,2A15.3,15.3,0,0,1,4,30a1.8,1.8,0,0,1-1.5,1.5A2.5,2.5,0,0,1,0,30.3Z"/><path class="cls-1" d="M36.9,0c.8.8,1.3,1.6.8,2.7S36.2,4,35.1,4h-.9c-1.1.1-2.1,0-2.7-1.2s.1-2,.9-2.8Z"/><path class="cls-1" d="M0,38.6c.8-.8,1.6-1.3,2.7-.8S4,39.3,4.1,40.4v1c.1,1.2-.1,2.2-1.4,2.6A2.2,2.2,0,0,1,0,42.9Z"/><path class="cls-1" d="M54.4,24.7a3.1,3.1,0,0,1-.9,2L34.4,45.8a2.9,2.9,0,0,1-4.3,0L21.4,37a2.7,2.7,0,0,1,0-4.3l.6-.6c2-1.9,3.2-1.9,5.2,0s2.8,2.7,4.1,4.2,1.2.7,1.9,0L47.4,22l1-.9a3.2,3.2,0,0,1,2-.7C52,20.5,54.4,23,54.4,24.7Z"/><path class="cls-1" d="M71.5,24.8a2.3,2.3,0,0,1-1.9,2.3,1.9,1.9,0,0,1-2.2-1.6,23.6,23.6,0,0,1-.4-2.8,1.9,1.9,0,0,1,1.8-2.1A1.8,1.8,0,0,1,71,22.1C71.2,23,71.3,24,71.5,24.8Z"/><path class="cls-1" d="M45.5,4.4a6.6,6.6,0,0,1-2.1-.3A1.9,1.9,0,0,1,42,2,1.9,1.9,0,0,1,43.9.2a8.2,8.2,0,0,1,2.7.2,2.2,2.2,0,0,1,2,2.3A2.1,2.1,0,0,1,46,4.4Z"/><path class="cls-1" d="M71.9,36.5a6.5,6.5,0,0,1,0,1.4,2,2,0,0,1-2.1,1.8,2,2,0,0,1-1.9-1.9,13.1,13.1,0,0,1,0-2.8,1.9,1.9,0,0,1,1.8-1.9,1.9,1.9,0,0,1,2.2,1.7,9.1,9.1,0,0,1,.1,1.7Z"/><path class="cls-1" d="M44.7,67.5H46a1.8,1.8,0,0,1,1.7,1.8,1.9,1.9,0,0,1-1.4,2.1,7.8,7.8,0,0,1-3.4.2A1.8,1.8,0,0,1,41.2,70a2,2,0,0,1,1.3-2.2C43.2,67.5,44,67.7,44.7,67.5Z"/><path class="cls-1" d="M23,.7c1.4,0,2.2.6,2.4,1.7a1.9,1.9,0,0,1-1.6,2.2,9.8,9.8,0,0,1-2.9.5,2,2,0,0,1-2-1.7,1.9,1.9,0,0,1,1.4-2.3A8.8,8.8,0,0,1,23,.7Z"/><path class="cls-1" d="M32,67.8h1.4a1.9,1.9,0,0,1,1.7,2,1.8,1.8,0,0,1-1.8,2H30.5a2.1,2.1,0,0,1-2-2.2,2.1,2.1,0,0,1,2.2-1.9Z"/><path class="cls-1" d="M5.9,54.3a2,2,0,0,1-1.6,2,1.9,1.9,0,0,1-2.3-1,8.9,8.9,0,0,1-.8-3.2,1.7,1.7,0,0,1,1.5-2A1.8,1.8,0,0,1,5,51,20.2,20.2,0,0,1,5.9,54.3Z"/><path class="cls-1" d="M20.4,70.8a11.1,11.1,0,0,1-2.9-.7,2.1,2.1,0,0,1-1.2-2.3,2,2,0,0,1,2.1-1.6,13.7,13.7,0,0,1,2.9.7,1.8,1.8,0,0,1,1.3,2.3A1.9,1.9,0,0,1,20.4,70.8Z"/><path class="cls-1" d="M71.3,48.4c-.1.5-.2,1.3-.3,2a2.2,2.2,0,0,1-2.3,1.8,2.1,2.1,0,0,1-1.8-2.3,16.6,16.6,0,0,1,.3-2.2,2,2,0,0,1,2.3-2C70.7,45.8,71.3,46.6,71.3,48.4Z"/><path class="cls-1" d="M60.3,5.2a1.9,1.9,0,0,1-2.5,2.1A9.6,9.6,0,0,1,55,6.2a1.9,1.9,0,0,1-.8-2.5,2,2,0,0,1,2.4-1.2,9.9,9.9,0,0,1,2.8,1.2A1.9,1.9,0,0,1,60.3,5.2Z"/><path class="cls-1" d="M59.6,66.9c0,1.4-1.1,1.8-2.2,2.2s-2.4,1.2-3.5,0a2,2,0,0,1,.5-3.2,14.8,14.8,0,0,1,2.7-1A2,2,0,0,1,59.6,66.9Z"/><path class="cls-1" d="M6.7,15.2a10.1,10.1,0,0,1-1.2,3.3,1.8,1.8,0,0,1-2.2.7,1.7,1.7,0,0,1-1.4-1.8,6.2,6.2,0,0,1,1.3-3.7,1.7,1.7,0,0,1,2.2-.5A1.9,1.9,0,0,1,6.7,15.2Z"/><path class="cls-1" d="M68.4,13.2a2.4,2.4,0,0,1-1.3,2.1,2,2,0,0,1-2.2-.5,11.1,11.1,0,0,1-1.7-3A1.8,1.8,0,0,1,64,9.7a1.7,1.7,0,0,1,2.2-.1A6.8,6.8,0,0,1,68.4,13.2Z"/><path class="cls-1" d="M65.9,57.2a2,2,0,0,1,2,2.7,7.5,7.5,0,0,1-1.8,2.8,1.8,1.8,0,0,1-2.4.2,1.7,1.7,0,0,1-.9-2.1,9.1,9.1,0,0,1,2-3.2A2.1,2.1,0,0,1,65.9,57.2Z"/><path class="cls-1" d="M11.9,64a2.1,2.1,0,0,1-3,2,7.6,7.6,0,0,1-2.4-2.3,1.9,1.9,0,0,1,.2-2.5,1.9,1.9,0,0,1,2.2-.5,9.9,9.9,0,0,1,2.8,2.6A2.5,2.5,0,0,1,11.9,64Z"/><path class="cls-1" d="M14,6.4a1,1,0,0,0-.1.3c-.3,1.2-2.9,3-4.2,2.9A1.8,1.8,0,0,1,8.2,8.3,2,2,0,0,1,8.7,6a10,10,0,0,1,2.4-1.6A2.1,2.1,0,0,1,14,6.4Z"/></svg>