<svg id="Layer_1" data-name="Layer 1" xmlns="http://www.w3.org/2000/svg" viewBox="0 0 72 72"><defs><style>.cls-1{fill:#002e5d;}</style></defs><title>Course_Catalog72</title><path class="cls-1" d="M67.3,70.6H4.5A6.2,6.2,0,0,1,0,66.5V34.4H16.7c2.4,0,4.8.1,7.1,0s1.2.2,1.3,1a6.8,6.8,0,0,0,2.8,4.7,13.4,13.4,0,0,0,16.1,0,7.3,7.3,0,0,0,2.7-4.2c.2-1.3,0-1.5,1.9-1.5H70.4a4.4,4.4,0,0,1,1.6.2V65.5A6,6,0,0,1,67.3,70.6Z"/><path class="cls-1" d="M72,17.6v3.1a2.5,2.5,0,0,1-1.7.3H0V16.6c1.1-3.1,3.4-4.3,6.6-4.3H65a9,9,0,0,1,3.9.7A5.8,5.8,0,0,1,72,17.6Z"/><path class="cls-1" d="M72,28.6v3.3H0V27.6c1.2-3.1,3.4-4.2,6.7-4.2,13.1.1,26.3,0,39.4,0H65.9a5.6,5.6,0,0,1,4.5,1.9A6.8,6.8,0,0,1,72,28.6Z"/><path class="cls-1" d="M4.5,1.4H67.3A6,6,0,0,1,72,6.5V9.8H0V5.5A6.2,6.2,0,0,1,4.5,1.4Z"/></svg>