<svg id="Layer_1" data-name="Layer 1" xmlns="http://www.w3.org/2000/svg" viewBox="0 0 72 72"><defs><style>.cls-1{fill:#002e5d;}</style></defs><title>Daily_Universe72</title><path class="cls-1" d="M0,58l.9-.2a4.4,4.4,0,0,0,3.9-4,19.7,19.7,0,0,0,.1-4.2c-.2-5.6,0-11.2-.1-16.8L4.5,18.9a10.2,10.2,0,0,0-1.1-3.5c-.3-.7-.6-1.3-.8-1.9s-.3-.9.6-.9H16.9c7.8.3,13.5,4,17,10.8,4.1,8.3,4.1,16.8.4,25.3a21.4,21.4,0,0,1-3.5,5.8A13.7,13.7,0,0,1,21,58.9c-6.9.1-13.8,0-20.7,0H0ZM10.9,41.4c.1,3-.2,5.8.2,8.6s2.1,5.2,5.4,5.7h3.2a9.5,9.5,0,0,0,9-5.9c3.5-8.2,3.6-16.4-.7-24.4a14.6,14.6,0,0,0-4.4-5.7,28.6,28.6,0,0,0-8.8-4.2c-2-.6-3.4.4-3.9,2.4a20.6,20.6,0,0,0,0,4.3Z"/><path class="cls-1" d="M52.8,59.4a15.2,15.2,0,0,1-5.4-1.9c-4.1-2.5-6-6.2-6.4-10.8s.1-9.8.1-14.7q-.1-4,0-8.1A26.7,26.7,0,0,0,39.7,15c-.7-2.2-.7-1.9,1.3-1.9h6c1.1,0,1.2,0,1,1.2s-.7,4.6-.9,6.9a17.7,17.7,0,0,0-.1,2.3c-.1,4.1-.2,8.2-.2,12.4s.1,6.8.2,10.2a12.5,12.5,0,0,0,.8,4.2,7.4,7.4,0,0,0,5.8,5,12.6,12.6,0,0,0,5.8-.1,9.1,9.1,0,0,0,6.8-8.8c.3-6.7.3-13.4.2-20.2-.1-2.3.1-4.7-.5-7.1a45,45,0,0,0-1.6-4.8c-.3-1.1-.3-1.2.8-1.2h6.1c.8,0,.9.2.7.9s-1.2,3.7-1.7,5.6a18.6,18.6,0,0,0-.4,3.3c-.3,4.3-.3,8.7-.2,13s.2,6.3.1,9.4a14.8,14.8,0,0,1-2.1,8.2,13.1,13.1,0,0,1-9.3,5.8H52.8Z"/></svg>