<svg id="Layer_1" data-name="Layer 1" xmlns="http://www.w3.org/2000/svg" viewBox="0 0 72 72"><defs><style>.cls-1{fill:#002e5d;}</style></defs><title>Daily_Business_Cartoon72</title><path class="cls-1" d="M71.9,29.3V42.8c0,.3-.1.6-.1.9A46.8,46.8,0,0,1,70,54.9c-1.5,5.4-4.2,9.8-9.2,12.7s-9.1,3.4-14,3.9L41,72H31.1l-3.9-.3a49.9,49.9,0,0,1-10.8-1.9C10,67.8,5.3,63.9,2.9,57.5A47.5,47.5,0,0,1,.6,47.6,126.8,126.8,0,0,1,.1,31.3,59.8,59.8,0,0,1,1.8,18C4,9.4,9.3,4.1,17.8,1.9A69.1,69.1,0,0,1,32.1.1,104.4,104.4,0,0,1,43.3.2,58.1,58.1,0,0,1,55.1,2.1c6.1,1.8,10.8,5.2,13.5,11.1a39,39,0,0,1,2.7,10ZM36.1,66.6a68.4,68.4,0,0,0,15.6-1.2c7.4-1.6,11.9-5.9,13.6-13.3a68.7,68.7,0,0,0,1.4-12.8c.1-3.5,0-7-.2-10.5A49.3,49.3,0,0,0,65,18.7c-1.2-3.8-3.1-7.1-6.5-9.3A23.3,23.3,0,0,0,49,6.2a98.7,98.7,0,0,0-15.4-.8A73.8,73.8,0,0,0,20.4,6.7C13,8.2,8.4,12.6,6.8,20A68.6,68.6,0,0,0,5.4,32.7c-.1,3.3,0,6.6.2,9.9a43.4,43.4,0,0,0,1.2,9.5c1,4.1,2.8,7.8,6.4,10.3a21.1,21.1,0,0,0,7.1,3A69.7,69.7,0,0,0,36.1,66.6Z"/><path class="cls-1" d="M36.1,41H50.8c2.8,0,3.9,1.6,2.9,4.3a16.3,16.3,0,0,1-8.8,9.4c-7.5,3.3-14.7,2.7-21.4-2.4a15.1,15.1,0,0,1-4.7-5.9,8,8,0,0,1-.7-2A2.7,2.7,0,0,1,20.8,41H36.1Z"/><path class="cls-1" d="M28.5,28.2a5.3,5.3,0,1,1-5.4-5.1A5.4,5.4,0,0,1,28.5,28.2Z"/><path class="cls-1" d="M43.6,28.4a5.3,5.3,0,1,1,10.5-.1,5.2,5.2,0,0,1-5.2,5.3A5.3,5.3,0,0,1,43.6,28.4Z"/></svg>