<svg id="Layer_1" data-name="Layer 1" xmlns="http://www.w3.org/2000/svg" viewBox="0 0 30 30"><defs><style>.cls-1{fill:#002e5d;}</style></defs><title>Daily_Business_Cartoon30</title><path class="cls-1" d="M30,12.2v5.6c0,.2-.1.3-.1.4a24.2,24.2,0,0,1-.7,4.7,8.7,8.7,0,0,1-3.9,5.3,14.8,14.8,0,0,1-5.8,1.6l-2.4.2H11.4a23.3,23.3,0,0,1-4.6-.8A8.6,8.6,0,0,1,1.2,24a15.8,15.8,0,0,1-.9-4.2A38.4,38.4,0,0,1,.1,13,20.8,20.8,0,0,1,.8,7.5,8.6,8.6,0,0,1,7.4.8a30.9,30.9,0,0,1,6-.8H18a20.9,20.9,0,0,1,5,.8,8.1,8.1,0,0,1,5.6,4.6,14.4,14.4,0,0,1,1.1,4.2ZM15,27.8a28.1,28.1,0,0,0,6.5-.6,6.7,6.7,0,0,0,5.7-5.5,30.7,30.7,0,0,0,.6-5.3c0-1.5,0-2.9-.1-4.4a20.3,20.3,0,0,0-.6-4.2,6.8,6.8,0,0,0-2.7-3.9,9.4,9.4,0,0,0-4-1.3A27.2,27.2,0,0,0,14,2.3a25.6,25.6,0,0,0-5.5.5A6.7,6.7,0,0,0,2.8,8.3a24.4,24.4,0,0,0-.5,5.3,28,28,0,0,0,0,4.1,25.7,25.7,0,0,0,.5,4A6.8,6.8,0,0,0,5.5,26a7.9,7.9,0,0,0,3,1.2A28.1,28.1,0,0,0,15,27.8Z"/><path class="cls-1" d="M15,17.1h6.1c1.2,0,1.7.7,1.3,1.8a6.8,6.8,0,0,1-3.7,3.9,8.3,8.3,0,0,1-8.9-1,6.2,6.2,0,0,1-2-2.5l-.3-.8a1.1,1.1,0,0,1,1.2-1.4H15Z"/><path class="cls-1" d="M11.9,11.8A2.3,2.3,0,0,1,9.7,14a2.2,2.2,0,0,1-2.2-2.2A2.3,2.3,0,0,1,9.6,9.6,2.3,2.3,0,0,1,11.9,11.8Z"/><path class="cls-1" d="M18.2,11.8a2.2,2.2,0,1,1,4.3,0A2.1,2.1,0,0,1,20.4,14,2.2,2.2,0,0,1,18.2,11.8Z"/></svg>