<svg id="Layer_1" data-name="Layer 1" xmlns="http://www.w3.org/2000/svg" viewBox="0 0 30 30"><defs><style>.cls-1{fill:#002957;}</style></defs><title>Directory30</title><path class="cls-1" d="M28.1,7.5v.9h1.4v-5H28.1V1.6A1.3,1.3,0,0,0,26.8.3H2.8A1.3,1.3,0,0,0,1.5,1.6V29a1.3,1.3,0,0,0,1.3,1.3h24A1.3,1.3,0,0,0,28.1,29V20.1h.5v3.3h-.5v.8h1.4v-5H28.1V14.8h.5v3.3h-.5v.8h1.4v-5H28.1V9.5h.5v3.3h-.5v.8h1.4v-5H28.1V4.2h.5V7.5Zm-7.6,9.7c1.1,0,2.4-1.4,2.4-3.8a4.9,4.9,0,0,0-5.3-5.3c-3.5,0-6.5,2.8-6.5,7a5.4,5.4,0,0,0,5.6,5.7,8.4,8.4,0,0,0,3.3-.7l.3.9a8.3,8.3,0,0,1-3.9.8,6.3,6.3,0,0,1-6.5-6.6,7.8,7.8,0,0,1,7.9-8c3.8,0,6.3,2.5,6.3,6s-1.8,5.1-3.9,5.1a1.7,1.7,0,0,1-1.6-1.9h-.1a3.4,3.4,0,0,1-3,1.9c-1.3,0-2.3-1-2.3-2.7a5,5,0,0,1,5.1-5,5.2,5.2,0,0,1,2.3.5l-.7,3.8C19.5,16.5,19.8,17.2,20.5,17.2ZM3.2,2H6.7V28.6H3.2Z"/><path class="cls-1" d="M14.6,15.5A1.4,1.4,0,0,0,16,17.1c1.3,0,2.4-1.5,2.7-2.8l.4-2.4L18,11.7A3.7,3.7,0,0,0,14.6,15.5Z"/></svg>