<svg id="Layer_1" data-name="Layer 1" xmlns="http://www.w3.org/2000/svg" viewBox="0 0 72 72"><defs><style>.cls-1{fill:#002957;}</style></defs><title>Directory72</title><path class="cls-1" d="M66.7,17.6v2H70V7.6H66.7V3.5A3.2,3.2,0,0,0,63.5.3H6.1A3.1,3.1,0,0,0,3,3.5V69.2a3.1,3.1,0,0,0,3.1,3.1H63.5a3.1,3.1,0,0,0,3.2-3.1V47.8H68v7.9H66.7v2H70v-12H66.7V35.1H68V43H66.7v2H70V33H66.7V22.4H68v7.9H66.7v2H70v-12H66.7V9.7H68v7.9ZM48.6,40.9c2.6.1,5.6-3.4,5.6-9.2S49.6,19.1,41.6,19.1,26,25.6,26,35.9c0,8.4,5.6,13.6,13.3,13.6a16.2,16.2,0,0,0,7.9-1.8l.8,2.2a18.6,18.6,0,0,1-9.2,2c-8.6,0-15.8-6-15.8-15.7s7.4-19.4,19-19.4c9,0,15.1,6.1,15.1,14.6s-4.3,12-9.2,12c-2.1,0-4-1.4-3.9-4.5h-.2c-1.8,3-4.2,4.5-7.3,4.5S30.9,41,30.9,37A12.1,12.1,0,0,1,43.2,25.1a14.8,14.8,0,0,1,5.6,1L47,35.3C46.2,39.1,46.8,40.9,48.6,40.9ZM7,4.3h8.4v64H7Z"/><path class="cls-1" d="M34.3,36.8c0,2.2,1.1,3.9,3.4,3.9s5.8-3.8,6.4-6.9l1.1-5.7a7.8,7.8,0,0,0-2.6-.4C38,27.7,34.3,31.9,34.3,36.8Z"/></svg>