<svg id="Layer_1" data-name="Layer 1" xmlns="http://www.w3.org/2000/svg" viewBox="0 0 30 30"><defs><style>.cls-1{fill:#002e5d;}</style></defs><title>DMBA_Benefits30</title><path class="cls-1" d="M9,22.4a.9.9,0,0,0-.7.3,1.6,1.6,0,0,0-.4.7H10c-.1-.3-.1-.5-.3-.6A.8.8,0,0,0,9,22.4Z"/><path class="cls-1" d="M5.4,23.4H3.6v1.6h2l.3-.3c0-.1.1-.2.1-.4s-.1-.3-.2-.5A.5.5,0,0,0,5.4,23.4Z"/><path class="cls-1" d="M5.3,22.6c.1,0,.3-.1.3-.2a.8.8,0,0,0,.2-.4.5.5,0,0,0-.2-.4.3.3,0,0,0-.3-.3H3.6v1.5H5.3Z"/><path class="cls-1" d="M16.7,22.4a1,1,0,0,0-1,1h2a.6.6,0,0,0-.3-.6A.7.7,0,0,0,16.7,22.4Z"/><path class="cls-1" d="M25.9.1H4.2A4.1,4.1,0,0,0,.1,4.3V25.9a4.1,4.1,0,0,0,4.1,4.2H25.9a4.2,4.2,0,0,0,4.2-4.2V4.3A4.2,4.2,0,0,0,25.9.1ZM13.3,7.3a10.2,10.2,0,0,1,5.6.2c1.1.4,1.1.4,1.4,1.1a15.1,15.1,0,0,0-8.1-.9V7.5Zm-1.1,2.8a24.8,24.8,0,0,1,9.4.6l.9.4c.6.4.6.7,0,1.3-1-1.1-2.4-1.2-3.6-1.5a23.4,23.4,0,0,0-9.5.3H9A9.2,9.2,0,0,1,12.2,10.1ZM9.7,13.4a28.6,28.6,0,0,1,12.7.2l1.9.8a.7.7,0,0,1,.4,1.1c-.4.5-.7.2-1,0a12.2,12.2,0,0,0-5.8-1.7,26.5,26.5,0,0,0-10.5.9H6.8A5.8,5.8,0,0,1,9.7,13.4ZM7.5,17a31.3,31.3,0,0,1,15.8-.2l1.8.8c.9.5.9,1,0,1.7-1.3-1.7-3.4-1.6-5.2-1.9a26.2,26.2,0,0,0-13.6.7H5.8v-.2A15.1,15.1,0,0,1,7.5,17Zm-1,7.7a1,1,0,0,1-.4.5l-.5.2H2.9V20.7H5.7a1.2,1.2,0,0,1,.5.5,1.4,1.4,0,0,1,.2.6.7.7,0,0,1-.2.6.7.7,0,0,1-.5.4,1.3,1.3,0,0,1,.7.5.9.9,0,0,1,.3.7A1.4,1.4,0,0,1,6.5,24.7Zm4.1-.8H7.9a1.2,1.2,0,0,0,.3.9,1.1,1.1,0,0,0,.8.3l.6-.2a.9.9,0,0,0,.3-.5h.7a1.6,1.6,0,0,1-.6.8,1.5,1.5,0,0,1-1,.3,2.1,2.1,0,0,1-1.3-.5,1.7,1.7,0,0,1-.4-1.3,2,2,0,0,1,.4-1.4A2.1,2.1,0,0,1,9,21.9a1.6,1.6,0,0,1,1.1.5,1.9,1.9,0,0,1,.5,1.3Zm3.1,1.6V23.4a3.5,3.5,0,0,0-.1-.6l-.3-.3h-.4a1.1,1.1,0,0,0-.7.3,1.4,1.4,0,0,0-.2.9v1.9h-.7V22h.6v.5a1.3,1.3,0,0,1,1.1-.6h.6c.2.1.4.2.4.3s.2.3.2.5.1.3.1.6v2.1Zm4.6-1.6H15.6a1.9,1.9,0,0,0,.4.9.9.9,0,0,0,.7.3l.6-.2a1,1,0,0,0,.4-.5h.6a2.2,2.2,0,0,1-.5.8,2,2,0,0,1-1.1.3,1.7,1.7,0,0,1-1.2-.5,1.7,1.7,0,0,1-.5-1.3,2,2,0,0,1,.5-1.4,1.7,1.7,0,0,1,2.4,0,1.8,1.8,0,0,1,.4,1.3Zm2.4-2.7h-.8a4.3,4.3,0,0,0-.1.5V22h.7v.5h-.7v3h-.6v-3h-.5V22h.5v-.4a.7.7,0,0,1,.1-.5c0-.2.1-.3.3-.4h1.2Zm.9-.5v.6H21v-.6ZM21,25.5V22h.6v3.5Zm2.5.1H23l-.3-.3V22.5h-.5V22h.5v-.9l.6-.3V22h.6v.5h-.6v2.3c0,.1.1.1.1.2h.5v.5ZM27,25a.8.8,0,0,1-.5.5h-.7a1.6,1.6,0,0,1-1.1-.3,2.2,2.2,0,0,1-.5-.8h.6l.3.5.7.2.6-.2a.5.5,0,0,0,.2-.4c0-.1-.1-.2-.2-.3l-.6-.2-.9-.3c-.2,0-.3-.2-.4-.3a.8.8,0,0,1-.2-.5c0-.1.1-.3.1-.4l.3-.3.4-.2h1.3a1,1,0,0,1,.5.4c.1.1.1.3.2.5h-.6a.5.5,0,0,0-.2-.4l-.6-.2h-.6a.5.5,0,0,0-.2.4.3.3,0,0,0,.1.2h.2l.6.2.9.3a.5.5,0,0,1,.4.3.7.7,0,0,1,.1.5C27.2,24.7,27.2,24.9,27,25Z"/></svg>