<svg id="Layer_1" data-name="Layer 1" xmlns="http://www.w3.org/2000/svg" viewBox="0 0 72 72"><defs><style>.cls-1{fill:#002e5d;}</style></defs><title>DMBA_Benefits72</title><path class="cls-1" d="M21.4,53.7a2.3,2.3,0,0,0-1.6.6,2.5,2.5,0,0,0-.8,1.8h4.8a2.5,2.5,0,0,0-.5-1.6A2.2,2.2,0,0,0,21.4,53.7Z"/><path class="cls-1" d="M13,55.9l-1.8-.2H8.5v4.1h4l.9-.3a1.3,1.3,0,0,0,.6-.7,1.4,1.4,0,0,0,.3-.9,2.1,2.1,0,0,0-.4-1.2A2.2,2.2,0,0,0,13,55.9Z"/><path class="cls-1" d="M12.6,54.2a1.9,1.9,0,0,0,.9-.5,2,2,0,0,0,.3-1.1,1.7,1.7,0,0,0-.3-1,1.6,1.6,0,0,0-.8-.6l-1.9-.2H8.5v3.6H11Z"/><path class="cls-1" d="M40,53.7a2.4,2.4,0,0,0-1.7.6,3,3,0,0,0-.8,1.8h4.9a3.4,3.4,0,0,0-.6-1.6A2.2,2.2,0,0,0,40,53.7Z"/><path class="cls-1" d="M62,.1H10.1a10,10,0,0,0-10,10V62a10.1,10.1,0,0,0,10,10.1H62A10.1,10.1,0,0,0,72.1,62V10.1A10.1,10.1,0,0,0,62,.1ZM31.9,17.5a25.6,25.6,0,0,1,13.4.3c2.5,1.1,2.5,1.1,3.3,2.7a36,36,0,0,0-19.4-2V18A12.8,12.8,0,0,1,31.9,17.5Zm-2.8,6.7c7.7-1.2,15.2-.2,22.7,1.4a5.1,5.1,0,0,1,2.1,1c1.4.9,1.4,1.7,0,3-2.4-2.6-5.6-2.9-8.7-3.5a56,56,0,0,0-22.7.6,1,1,0,0,1-.9-.1C23.9,25,26.5,24.6,29.1,24.2Zm-5.8,7.9a67.4,67.4,0,0,1,30.3.5,26.2,26.2,0,0,1,4.6,1.9,1.7,1.7,0,0,1,.9,2.6c-.8,1.3-1.6.5-2.3,0-4.3-2.9-9.1-3.6-14-4a60.9,60.9,0,0,0-25.1,2.1H16.1A14.4,14.4,0,0,1,23.3,32.1ZM18,40.7a73.4,73.4,0,0,1,37.8-.4,23.9,23.9,0,0,1,4.4,1.8c2.2,1.3,2.1,2.6-.1,4.2-3.2-4.1-8-3.9-12.4-4.8-11-2-21.9-1.8-32.7,1.8H13.9l-.3-.6A29.3,29.3,0,0,1,18,40.7ZM15.5,59.3a4.4,4.4,0,0,1-.8,1.1l-1.3.5a6.2,6.2,0,0,1-2,.2H6.9V49.5h4.5a6.9,6.9,0,0,1,2.2.3,4.5,4.5,0,0,1,1.3,1.1,2.9,2.9,0,0,1,.4,1.6,2.5,2.5,0,0,1-.4,1.4,2.7,2.7,0,0,1-1.3,1A3,3,0,0,1,15.3,56a2.8,2.8,0,0,1,.6,1.8A2.8,2.8,0,0,1,15.5,59.3Zm9.9-2H18.9a3.3,3.3,0,0,0,.8,2.1,2.4,2.4,0,0,0,1.8.7,2.1,2.1,0,0,0,1.4-.4,2.2,2.2,0,0,0,.9-1.3l1.5.2a3.5,3.5,0,0,1-1.3,2,4.1,4.1,0,0,1-2.5.7,4.1,4.1,0,0,1-3-1.1A4.6,4.6,0,0,1,17.4,57a4.9,4.9,0,0,1,1.1-3.3,3.8,3.8,0,0,1,2.9-1.2,4.2,4.2,0,0,1,2.9,1.1,4.9,4.9,0,0,1,1.1,3.3Zm7.3,3.8V56a2.4,2.4,0,0,0-.2-1.3,1.3,1.3,0,0,0-.6-.7,1.7,1.7,0,0,0-1-.3,2.5,2.5,0,0,0-1.6.6,2.6,2.6,0,0,0-.7,2.2v4.6H27.2V52.7h1.3v1.2a3.1,3.1,0,0,1,2.7-1.4,4,4,0,0,1,1.5.3,1.6,1.6,0,0,1,.9.7,1.9,1.9,0,0,1,.5,1c0,.3.1.8.1,1.4v5.2Zm11.2-3.8H37.4a3.4,3.4,0,0,0,.9,2.1,2.1,2.1,0,0,0,1.8.7,1.8,1.8,0,0,0,1.3-.4,2.2,2.2,0,0,0,.9-1.3l1.6.2a3.7,3.7,0,0,1-1.4,2,3.6,3.6,0,0,1-2.4.7A4.5,4.5,0,0,1,37,60.2,4.6,4.6,0,0,1,35.9,57a4.5,4.5,0,0,1,1.2-3.3A3.7,3.7,0,0,1,40,52.5a3.9,3.9,0,0,1,2.8,1.1,4.9,4.9,0,0,1,1.1,3.3Zm5.7-6.6h-.9a1.2,1.2,0,0,0-.9.3c-.2.1-.3.5-.3,1v.8h1.7v1.1H47.5v7.3H46V53.8H44.7V52.7H46v-.9a3.9,3.9,0,0,1,.2-1.3,1.6,1.6,0,0,1,.7-.9,3.3,3.3,0,0,1,1.5-.3h1.4Zm2.2-1.2v1.6H50.3V49.5ZM50.3,61.1V52.7h1.5v8.4Zm6,.1a2.2,2.2,0,0,1-1.2-.2,1.3,1.3,0,0,1-.6-.7,4.7,4.7,0,0,1-.2-1.6V53.8H53.2V52.7h1.1V50.6l1.5-.9v3h1.4v1.1H55.8v5.7l.3.3h1.1l.2,1.2ZM64.8,60a4,4,0,0,1-1.2,1,5.2,5.2,0,0,1-1.8.3,3.8,3.8,0,0,1-2.6-.7,2.7,2.7,0,0,1-1.1-2l1.4-.2a1.9,1.9,0,0,0,.7,1.3,2.5,2.5,0,0,0,1.6.4,2.4,2.4,0,0,0,1.5-.4,1,1,0,0,0,.4-.9.9.9,0,0,0-.4-.8,4.8,4.8,0,0,0-1.5-.4l-2.2-.7a3.9,3.9,0,0,1-1-.8,2.7,2.7,0,0,1-.3-1.2,1.7,1.7,0,0,1,.3-1,2.7,2.7,0,0,1,.7-.8,1.9,1.9,0,0,1,.9-.4,2.7,2.7,0,0,1,1.3-.2,4.8,4.8,0,0,1,1.8.3,1.9,1.9,0,0,1,1.1.8,2.2,2.2,0,0,1,.5,1.3l-1.4.2a2,2,0,0,0-.6-1.1,2.3,2.3,0,0,0-1.3-.3,2.4,2.4,0,0,0-1.4.3,1,1,0,0,0-.5.8,1.7,1.7,0,0,0,.2.5l.6.3,1.3.4,2.1.7a1.8,1.8,0,0,1,1,.7,2.8,2.8,0,0,1,.4,1.2A2.4,2.4,0,0,1,64.8,60Z"/></svg>