<svg id="Layer_1" data-name="Layer 1" xmlns="http://www.w3.org/2000/svg" viewBox="0 0 72 72"><defs><style>.cls-1{fill:#002e5d;}</style></defs><title>Education_in_Zion72</title><path class="cls-1" d="M49,72H22.9a5.6,5.6,0,0,0-.4-1.2c-1.1-3.2-2.2-6.3-3.4-9.5-2.8-8.1-5.7-16.1-8.6-24.2-.4-1-.3-1.1.9-1.1H31.1a3.4,3.4,0,0,1,1,0c.9.1,1.2-.3,1.2-1.2a16,16,0,0,1,0-3.1,2.4,2.4,0,0,0-1-2.3,2.4,2.4,0,0,1-1-1.2c-.2-.6-.6-.7-1.2-.5a5.1,5.1,0,0,1-6.4-6.4.8.8,0,0,0-.5-1.2,5.2,5.2,0,0,1-.1-9.2c.6-.3.8-.6.6-1.4a5,5,0,0,1,6.4-6.2c.7.2,1,0,1.3-.6A4.9,4.9,0,0,1,36,0a4.8,4.8,0,0,1,4.5,2.7,1,1,0,0,0,1.3.6,5,5,0,0,1,6.4,6.2,1.1,1.1,0,0,0,.6,1.5,5.1,5.1,0,0,1,0,9,1.1,1.1,0,0,0-.6,1.5,5,5,0,0,1-5.5,6.4,2.8,2.8,0,0,0-2.8,1,4.8,4.8,0,0,0-1.3,4,10.8,10.8,0,0,1,0,1.8c.1,1.2.1,1.3,1.3,1.3H61.7v.4a6.9,6.9,0,0,0-.5,1.3c-3.3,9.2-6.6,18.3-9.8,27.4C50.6,67.4,49.6,69.7,49,72ZM35.9,51.6H22.5c-1,0-1.1.1-.7,1l4.6,13c.3.9.7,1.1,1.6,1.1H43.9a1.4,1.4,0,0,0,1.6-1.2c1.5-4.2,3.1-8.5,4.6-12.8.4-1.1.3-1.1-.8-1.1ZM36,41.3H19c-1.2,0-1.2.1-.8,1.2a19.5,19.5,0,0,0,.8,2.2c.5,1.5.5,1.5,2.1,1.5H51.4a1.2,1.2,0,0,0,1.4-.9c.2-.9.6-1.8.9-2.7s.4-1.3-.9-1.3Zm-.1-20.8a5.1,5.1,0,0,0,5.1-5,5.1,5.1,0,1,0-5.1,5Z"/></svg>