<svg id="Layer_1" data-name="Layer 1" xmlns="http://www.w3.org/2000/svg" viewBox="0 0 30 30"><defs><style>.cls-1{fill:#002e5d;}</style></defs><title>Education_in_Zion30</title><path class="cls-1" d="M20.4,30H9.5a.9.9,0,0,0-.1-.5c-.5-1.3-1-2.6-1.4-4l-3.6-10c-.2-.5-.2-.5.3-.5h8.7c.3,0,.5-.1.5-.5a2.9,2.9,0,0,1,0-1.3,1,1,0,0,0-.4-.9c-.2-.2-.4-.4-.4-.6a.6.6,0,0,0-.5-.2A2.1,2.1,0,0,1,9.9,8.9c.1-.3,0-.4-.2-.5a2.1,2.1,0,0,1-.1-3.8c.3-.2.3-.3.3-.6a2.1,2.1,0,0,1,2.7-2.6c.2,0,.3,0,.5-.3A2,2,0,0,1,15,0a2,2,0,0,1,1.9,1.1c.1.3.2.3.5.3A2.1,2.1,0,0,1,20.1,4c-.1.3,0,.4.2.6a2.1,2.1,0,0,1,0,3.7c-.3.2-.3.4-.2.7a2.1,2.1,0,0,1-2.3,2.6c-.5-.1-.8.1-1.2.5a1.9,1.9,0,0,0-.5,1.6v.8c0,.5,0,.5.5.5h9.1v.2l-.2.5L21.4,27.1C21.1,28.1,20.7,29,20.4,30ZM15,21.5H9.4c-.4,0-.5,0-.3.4L11,27.3c.1.4.3.5.7.5h6.6c.4,0,.5-.1.7-.5s1.2-3.6,1.9-5.3.1-.5-.4-.5Zm0-4.3H7.9c-.5,0-.5.1-.3.5l.3.9c.2.7.2.7.9.7h9.4c1.1,0,2.2-.1,3.2,0a.5.5,0,0,0,.6-.4,3.6,3.6,0,0,1,.4-1.1c.2-.6.1-.6-.4-.6Zm0-8.7a2.1,2.1,0,0,0,2.1-2.1,2.1,2.1,0,0,0-4.2,0A2.1,2.1,0,0,0,15,8.5Z"/></svg>