<svg id="Layer_1" data-name="Layer 1" xmlns="http://www.w3.org/2000/svg" viewBox="0 0 72 72"><defs><style>.cls-1{fill:#002e5d;}</style></defs><title>Error72</title><path class="cls-1" d="M32.3,0h7.2l3.6.6a36.1,36.1,0,1,1-42,44.7A54,54,0,0,1,0,39.5V32.3l.3-1.7C2.9,16.1,11.2,6.4,25.1,1.6A35.7,35.7,0,0,1,32.3,0Zm3.8,55.8h1.7c12.5-1.1,21-13.8,17-25.7-.3-1.1-.4-1.1-1.1-.3L39.3,44c-3.2,3.3-6.5,6.5-9.7,9.7-.7.7-.7.8.3,1.1A21.2,21.2,0,0,0,36.1,55.8ZM16.1,36a18.6,18.6,0,0,0,1,6.1c.2.7.5.8,1,.2L42.3,18.1c.6-.6.6-.7-.3-1a18.4,18.4,0,0,0-8.7-.8A19.7,19.7,0,0,0,16.1,36Z"/></svg>