<svg id="Layer_1" data-name="Layer 1" xmlns="http://www.w3.org/2000/svg" viewBox="0 0 30 30"><defs><style>.cls-1{fill:#002e5d;}</style></defs><title>Error30</title><path class="cls-1" d="M13.5,0h3l1.4.2A15.1,15.1,0,1,1,.5,18.9,10.3,10.3,0,0,1,0,16.5v-3c0-.3.1-.5.1-.8A14.8,14.8,0,0,1,10.4.7,17.3,17.3,0,0,1,13.5,0ZM15,23.3h.7a8.1,8.1,0,0,0,7.1-10.7c-.1-.4-.1-.5-.4-.1l-6,5.9-4.1,4.1c-.2.3-.2.3.2.4A10.1,10.1,0,0,0,15,23.3ZM6.7,15a10.9,10.9,0,0,0,.4,2.5c.1.3.2.4.4.1l10.1-10c.3-.3.3-.4-.1-.5a7.4,7.4,0,0,0-3.6-.3A8.2,8.2,0,0,0,6.7,15Z"/></svg>