<svg id="Layer_1" data-name="Layer 1" xmlns="http://www.w3.org/2000/svg" viewBox="0 0 30 30"><defs><style>.cls-1{fill:#002e5d;}</style></defs><title>External_Network_Traffic30</title><path class="cls-1" d="M25.5,27.4a1.2,1.2,0,0,1-.8-1.3V24.4c0-.8.5-1.2,1.3-1.2h2.7c.8,0,1.1.2,1.3,1v3c0,.2,0,.2-.2.2Z"/><path class="cls-1" d="M30,21.3c-.3.8-.5,1-1.4,1H25.9a1.2,1.2,0,0,1-1.2-1.2V19.2a1.1,1.1,0,0,1,1.2-1.1h2.9A1.3,1.3,0,0,1,30,19Z"/><path class="cls-1" d="M0,13.6a1.4,1.4,0,0,1,1.3-.7H4a1.1,1.1,0,0,1,1.2,1.2v1.8A1.1,1.1,0,0,1,4,17.1H1.1A1.2,1.2,0,0,1,0,16.4Z"/><path class="cls-1" d="M0,24a1.1,1.1,0,0,1,1.2-.8,28.1,28.1,0,0,0,2.9,0,1,1,0,0,1,1.1,1.1v2a1.1,1.1,0,0,1-.8,1.1H.2c-.2,0-.2,0-.2-.2Z"/><path class="cls-1" d="M0,18.8A1.3,1.3,0,0,1,1.3,18,24.3,24.3,0,0,0,4,18c.8,0,1.2.5,1.2,1.3V21c0,.8-.4,1.3-1.2,1.3a24.3,24.3,0,0,0-2.7,0A1.3,1.3,0,0,1,0,21.5Z"/><path class="cls-1" d="M6.9,27.4a1.3,1.3,0,0,1-.8-1.3c.1-.5,0-1.1.1-1.7a1.1,1.1,0,0,1,1.1-1.2h3a1,1,0,0,1,1.1,1.1v1.8a1.4,1.4,0,0,1-.7,1.3Z"/><path class="cls-1" d="M13.1,27.4a1.4,1.4,0,0,1-.8-1.4,9.1,9.1,0,0,0,.1-1.7,1,1,0,0,1,1.1-1.1h3a1.1,1.1,0,0,1,1.1,1.1v1.8a1.4,1.4,0,0,1-.7,1.3Z"/><path class="cls-1" d="M19.3,27.4a1.1,1.1,0,0,1-.7-1.3V24.3a1,1,0,0,1,1-1.1h3.1a1.1,1.1,0,0,1,1.1,1.1v2.1a1.1,1.1,0,0,1-.8,1Z"/><path class="cls-1" d="M30,16.2a1.2,1.2,0,0,1-1.4.9H26c-.8,0-1.3-.4-1.3-1.2V14.1A1.2,1.2,0,0,1,26,12.9h2.6c.9,0,1.1.2,1.4.9ZM27.4,14H26.1c-.2,0-.2,0-.2.2v1.5c0,.2,0,.3.2.3h2.5a.3.3,0,0,0,.3-.3V14.2c0-.2-.1-.2-.3-.2Z"/><path class="cls-1" d="M0,8.5a1.3,1.3,0,0,1,1.3-.8H4A1.1,1.1,0,0,1,5.2,8.8v2a1.1,1.1,0,0,1-1,1.1h-3A1.2,1.2,0,0,1,0,11.2Zm2.6.3H1.3c-.1,0-.2.1-.2.3v1.4c0,.3.1.3.3.3H3.8a.3.3,0,0,0,.3-.3V9.1a.3.3,0,0,0-.3-.3Z"/><path class="cls-1" d="M10.7,2.6a1.1,1.1,0,0,1,.7,1.2V5.7a1,1,0,0,1-1.1,1.1h-3A1,1,0,0,1,6.2,5.7a7.4,7.4,0,0,1,0-2.1,1.1,1.1,0,0,1,.7-1ZM8.8,5.7H10a.3.3,0,0,0,.3-.3V3.9c0-.1-.1-.2-.3-.2H7.6c-.2,0-.3,0-.3.2V5.4c0,.2.1.3.2.3Z"/><path class="cls-1" d="M15,22.3H13.5a1.1,1.1,0,0,1-1.1-1.2V19.2a1,1,0,0,1,1-1.1,16,16,0,0,1,3.1,0,1,1,0,0,1,1.1,1.1v1.9a1.1,1.1,0,0,1-1.2,1.2Z"/><path class="cls-1" d="M8.8,12.9h1.5A1,1,0,0,1,11.4,14v2a1,1,0,0,1-1.1,1.1H7.2a1,1,0,0,1-1-1.1,6.7,6.7,0,0,1,0-2,1,1,0,0,1,1.1-1.1Z"/><path class="cls-1" d="M21.2,12.9h1.4A1.1,1.1,0,0,1,23.8,14v2a1,1,0,0,1-1.1,1.1H19.6a1,1,0,0,1-1-1.1V14a1,1,0,0,1,1.1-1.1Z"/><path class="cls-1" d="M21.2,22.3H19.7a1.1,1.1,0,0,1-1.1-1.2V19.2a1,1,0,0,1,1.1-1.1,15,15,0,0,1,3,0,1,1,0,0,1,1.1,1.1v2a1.2,1.2,0,0,1-1.1,1.1Z"/><path class="cls-1" d="M8.8,22.3H7.3a1,1,0,0,1-1.1-1.1,7.4,7.4,0,0,1,0-2.1c0-.6.4-1,1.1-1.1h3a1,1,0,0,1,1.1,1.1v2c0,.6-.4,1-1.1,1.1Z"/><path class="cls-1" d="M8.8,7.7h1.5a1.1,1.1,0,0,1,1.1,1.1v2.1a1.1,1.1,0,0,1-.9,1H7.4c-.8,0-1.2-.4-1.2-1.3A4.3,4.3,0,0,1,6.2,9c0-.8.4-1.3,1.2-1.3Z"/><path class="cls-1" d="M21.2,7.7h1.5a1.1,1.1,0,0,1,1.1,1.1v2a1,1,0,0,1-1.1,1.1h-3c-.7,0-1.1-.4-1.1-1.2V8.8a1.1,1.1,0,0,1,1-1.1h1.6Zm0,3.1h1.2a.3.3,0,0,0,.3-.3V9.1a.3.3,0,0,0-.3-.3H19.9c-.2,0-.2.1-.2.3v1.5c0,.2,0,.2.2.2Z"/><path class="cls-1" d="M15,12.9h1.5A1,1,0,0,1,17.6,14v2a1.1,1.1,0,0,1-1.1,1.1h-3A1,1,0,0,1,12.4,16a6.7,6.7,0,0,1,0-2,1,1,0,0,1,1.1-1.1ZM15,14H13.7c-.2,0-.3,0-.3.2a3.8,3.8,0,0,1,0,1.5.3.3,0,0,0,.3.3h2.5a.3.3,0,0,0,.3-.3V14.3c0-.3-.1-.3-.3-.3Z"/></svg>