<svg id="Layer_1" data-name="Layer 1" xmlns="http://www.w3.org/2000/svg" viewBox="0 0 72 72"><defs><style>.cls-1{fill:#002e5d;}</style></defs><title>External_Network_Traffic72</title><path class="cls-1" d="M61.2,65.7a2.8,2.8,0,0,1-1.8-3c0-1.3-.1-2.7,0-4s1-2.9,2.9-2.9h6.5c2,0,2.6.4,3.2,2.3v7.2c0,.4-.1.4-.4.4Z"/><path class="cls-1" d="M72,51.1c-.7,1.9-1.3,2.3-3.3,2.3H62.2a2.5,2.5,0,0,1-2.8-2.7,35.3,35.3,0,0,1,0-4.6,2.6,2.6,0,0,1,2.7-2.8h7.1A2.8,2.8,0,0,1,72,45.6Z"/><path class="cls-1" d="M0,32.7a3.2,3.2,0,0,1,3.1-1.8c2.2.1,4.4,0,6.5,0a2.7,2.7,0,0,1,2.9,2.8v4.5A2.6,2.6,0,0,1,9.7,41h-7A3,3,0,0,1,0,39.3Z"/><path class="cls-1" d="M0,57.5a3,3,0,0,1,2.9-1.8H9.8a2.5,2.5,0,0,1,2.7,2.4c.1,1.7,0,3.4,0,5a2.6,2.6,0,0,1-1.8,2.5H.5c-.4,0-.5,0-.5-.4Z"/><path class="cls-1" d="M0,45a3.2,3.2,0,0,1,3.2-1.7H9.6a2.7,2.7,0,0,1,2.9,3v4.2c0,1.9-1,2.9-3,2.9H3.1A2.9,2.9,0,0,1,0,51.7Z"/><path class="cls-1" d="M16.6,65.7a2.8,2.8,0,0,1-1.8-3V58.6a2.5,2.5,0,0,1,2.8-2.8h7.1a2.4,2.4,0,0,1,2.6,2.6v4.3a2.8,2.8,0,0,1-1.7,3Z"/><path class="cls-1" d="M31.4,65.7c-1.4-.6-1.8-1.7-1.8-3.2s0-2.7.1-4.1a2.4,2.4,0,0,1,2.6-2.6h7.3a2.5,2.5,0,0,1,2.6,2.6c0,1.4-.1,2.8,0,4.2a2.9,2.9,0,0,1-1.7,3.1Z"/><path class="cls-1" d="M46.3,65.7a3,3,0,0,1-1.8-3.1c.1-1.4,0-2.9.1-4.3a2.4,2.4,0,0,1,2.6-2.5h7.3a2.6,2.6,0,0,1,2.6,2.5v5a2.7,2.7,0,0,1-1.9,2.4Z"/><path class="cls-1" d="M72,38.8c-.7,1.7-1.4,2.2-3.3,2.2s-4.2.1-6.4,0a2.6,2.6,0,0,1-2.9-2.8,32.3,32.3,0,0,1,0-4.4,2.6,2.6,0,0,1,2.9-2.9h6.4c2,0,2.6.5,3.3,2.3Zm-6.3-5.2h-3c-.5,0-.6.2-.6.7v3.5c0,.5.2.6.6.6h6a.5.5,0,0,0,.6-.6V34.2c0-.5-.2-.7-.7-.7Z"/><path class="cls-1" d="M0,20.3a2.8,2.8,0,0,1,3-1.7H9.7a2.5,2.5,0,0,1,2.8,2.6,38.4,38.4,0,0,1,0,4.8,2.5,2.5,0,0,1-2.4,2.6,32,32,0,0,1-4.4.1H2.9A2.8,2.8,0,0,1,0,26.8Zm6.3.9H3.2a.5.5,0,0,0-.6.6v3.5c0,.5.2.7.7.7H9.1c.5,0,.7-.2.7-.7V21.9c0-.6-.2-.7-.7-.7Z"/><path class="cls-1" d="M25.6,6.3a2.6,2.6,0,0,1,1.7,2.8v4.5a2.4,2.4,0,0,1-2.6,2.6H17.4a2.4,2.4,0,0,1-2.6-2.5,41.7,41.7,0,0,1,0-5,2.6,2.6,0,0,1,1.7-2.4Zm-4.5,7.3h3c.4,0,.6-.1.6-.6V9.5c0-.5-.2-.7-.6-.7h-6a.5.5,0,0,0-.6.6V13a.5.5,0,0,0,.6.6Z"/><path class="cls-1" d="M35.9,53.4H32.4a2.6,2.6,0,0,1-2.7-2.7,36.8,36.8,0,0,1,0-4.7,2.5,2.5,0,0,1,2.5-2.7h7.5a2.6,2.6,0,0,1,2.5,2.8v4.6a2.5,2.5,0,0,1-2.8,2.7Z"/><path class="cls-1" d="M21.1,30.9h3.5a2.6,2.6,0,0,1,2.7,2.7v4.7A2.5,2.5,0,0,1,24.8,41c-2.5.1-5,.1-7.4,0a2.5,2.5,0,0,1-2.6-2.6,38.4,38.4,0,0,1,0-4.8,2.6,2.6,0,0,1,2.7-2.7Z"/><path class="cls-1" d="M50.8,30.9h3.5a2.7,2.7,0,0,1,2.8,2.8v4.6A2.5,2.5,0,0,1,54.5,41c-2.5.1-5,.1-7.4,0a2.4,2.4,0,0,1-2.5-2.6,38.4,38.4,0,0,1,0-4.8,2.5,2.5,0,0,1,2.6-2.7Z"/><path class="cls-1" d="M50.8,53.4H47.3a2.5,2.5,0,0,1-2.7-2.7,35.3,35.3,0,0,1,0-4.6,2.5,2.5,0,0,1,2.6-2.8h7.3A2.6,2.6,0,0,1,57.1,46v4.8a2.5,2.5,0,0,1-2.6,2.6Z"/><path class="cls-1" d="M21.1,53.4H17.6a2.5,2.5,0,0,1-2.8-2.6,40,40,0,0,1,0-4.9,2.5,2.5,0,0,1,2.7-2.6h7.1a2.5,2.5,0,0,1,2.7,2.8v4.7a2.5,2.5,0,0,1-2.6,2.6Z"/><path class="cls-1" d="M21.1,18.6h3.7a2.4,2.4,0,0,1,2.5,2.5v5a2.4,2.4,0,0,1-2.1,2.5H17.8c-2,0-3-1.1-3-3.2v-4a2.6,2.6,0,0,1,2.9-2.9Z"/><path class="cls-1" d="M50.8,18.6h3.6a2.5,2.5,0,0,1,2.7,2.6v4.6a2.7,2.7,0,0,1-2.7,2.9H47.3a2.6,2.6,0,0,1-2.7-2.9c0-1.6-.1-3.1,0-4.7a2.4,2.4,0,0,1,2.5-2.5h3.7Zm0,7.4h2.9c.5,0,.7-.2.7-.7V21.9c0-.5-.1-.7-.7-.7H47.8c-.5,0-.6.2-.6.6v3.5c0,.5.2.7.6.7Z"/><path class="cls-1" d="M35.9,30.9h3.6a2.7,2.7,0,0,1,2.7,2.8v4.6A2.6,2.6,0,0,1,39.5,41q-3.6.2-7.2,0a2.4,2.4,0,0,1-2.6-2.6,38.4,38.4,0,0,1,0-4.8,2.6,2.6,0,0,1,2.6-2.7Zm0,2.6a28,28,0,0,1-2.9,0c-.5,0-.7.2-.7.7v3.5c0,.4.1.6.6.6h6c.5,0,.7-.2.7-.6V34.3c0-.6-.2-.8-.8-.8A28,28,0,0,1,35.9,33.5Z"/></svg>