<svg id="Layer_1" data-name="Layer 1" xmlns="http://www.w3.org/2000/svg" viewBox="0 0 72 72"><defs><style>.cls-1{fill:#002e5d;}</style></defs><title>Feedback72</title><path class="cls-1" d="M32.1,3.9h8.1a42.4,42.4,0,0,1,9.4,1.9c6.5,2.2,12.3,5.5,16.6,11,6.4,7.9,7.7,16.6,3.1,25.8-3,5.9-7.7,10-13.5,13A43.3,43.3,0,0,1,30,60a2,2,0,0,0-2.3.7,5.2,5.2,0,0,1-1.1,1A26.4,26.4,0,0,1,15.7,67a39.9,39.9,0,0,1-6.8,1c-.3.1-.8.2-.9-.1s.3-.5.5-.7a20.9,20.9,0,0,0,2-2.2,20,20,0,0,0,4.8-8.8,1,1,0,0,0-.6-1.3l-3.2-2A28.2,28.2,0,0,1,1.7,40.6,24.7,24.7,0,0,1,0,34V30.3c0-.2.1-.4.1-.6A24.9,24.9,0,0,1,7.9,14.4,38.1,38.1,0,0,1,25.1,5.1,56.9,56.9,0,0,1,32.1,3.9Z"/></svg>