<svg id="Layer_1" data-name="Layer 1" xmlns="http://www.w3.org/2000/svg" viewBox="0 0 30 30"><defs><style>.cls-1{fill:#002e5d;}</style></defs><title>Feedback30</title><path class="cls-1" d="M13.4,1.6h3.4a18,18,0,0,1,3.9.8A14.6,14.6,0,0,1,27.6,7c2.6,3.3,3.2,7,1.3,10.8a12.2,12.2,0,0,1-5.6,5.4A18.3,18.3,0,0,1,12.5,25a1,1,0,0,0-1,.3c-.1.2-.3.3-.4.4a10.9,10.9,0,0,1-4.6,2.2,12.6,12.6,0,0,1-2.8.4H3.3c0-.2.2-.2.2-.3l.9-.9a10.2,10.2,0,0,0,2-3.7c0-.2,0-.4-.3-.5L4.8,22A12.1,12.1,0,0,1,.7,16.9,9,9,0,0,1,0,14.2V12.4A10.2,10.2,0,0,1,3.3,6a14.9,14.9,0,0,1,7.2-3.9Z"/></svg>