<svg id="Layer_1" data-name="Layer 1" xmlns="http://www.w3.org/2000/svg" viewBox="0 0 30 30"><defs><style>.cls-1{fill:#002e5d;}</style></defs><title>Finance30</title><path class="cls-1" d="M30,15A15,15,0,1,1,15,0,15,15,0,0,1,30,15ZM16.1,23.3a6.2,6.2,0,0,0,4.1-1.7,4.5,4.5,0,0,0,1.5-3.5,5.6,5.6,0,0,0-.7-2.6,3.5,3.5,0,0,0-1.6-1.4A15.1,15.1,0,0,0,16.1,13V8.5a2.7,2.7,0,0,1,2.4,2.1l2.6-.5a5.4,5.4,0,0,0-5-3.9V4.4H14.4V6.2C10.8,6.6,9,8.3,9,11.1A4.3,4.3,0,0,0,10,14c.7.8,2.1,1.4,4.4,1.9V21a3.4,3.4,0,0,1-3.3-2.9l-2.8.6c.9,2.8,2.9,4.3,6.1,4.6v2.3h1.7ZM14.4,12.8c-1.8-.2-2.6-.9-2.6-2.1a1.8,1.8,0,0,1,.7-1.6,2.9,2.9,0,0,1,1.9-.6Zm1.7,3.3c1.9.3,2.8,1.1,2.8,2.4a2.5,2.5,0,0,1-.8,1.8,4.3,4.3,0,0,1-2,.7Z"/></svg>