<svg id="Layer_1" data-name="Layer 1" xmlns="http://www.w3.org/2000/svg" viewBox="0 0 72 72"><defs><style>.cls-1{fill:#002e5d;}</style></defs><title>Finance72</title><path class="cls-1" d="M72,36A36,36,0,1,1,36,0,36,36,0,0,1,72,36ZM38.6,55.9c4.4-.4,7.7-1.7,10-4A11.1,11.1,0,0,0,52,43.5a11.7,11.7,0,0,0-1.6-6.2,9.2,9.2,0,0,0-3.8-3.6,84,84,0,0,0-8-2.6V20.5c2.8.2,4.7,1.9,5.8,5l6.2-1.3q-2.6-8.1-12-9.3V10.5H34.5v4.4c-8.7,1-13,5-13,11.8A9.7,9.7,0,0,0,24,33.5q2.4,2.8,10.5,4.8v12c-4.1-.3-6.8-2.6-8-6.9L20,44.9c2.1,6.7,6.9,10.3,14.5,11v5.6h4.1ZM34.5,30.7c-4.2-.5-6.2-2.2-6.2-5.1A4.7,4.7,0,0,1,30,21.8a7.3,7.3,0,0,1,4.5-1.3Zm4.1,7.9c4.5.9,6.7,2.8,6.7,5.7a5.3,5.3,0,0,1-1.9,4.3,7.2,7.2,0,0,1-4.8,1.7Z"/></svg>