<svg id="Layer_1" data-name="Layer 1" xmlns="http://www.w3.org/2000/svg" viewBox="0 0 30 30"><defs><style>.cls-1{fill:#002e5d;}</style></defs><title>Financial_Aid_and_Scholarships30</title><path class="cls-1" d="M5.1,2.1l2,.5,1,.7a1.3,1.3,0,0,1,.1,2,4.4,4.4,0,0,1-1.8.9A8.2,8.2,0,0,1,1.5,6,2.9,2.9,0,0,1,0,4.6V3.9A3.2,3.2,0,0,1,1.5,2.6l2-.5Z"/><path class="cls-1" d="M14.2,27.9a9.5,9.5,0,0,1-1.8-.5,2.9,2.9,0,0,1-1.3-.8,1.2,1.2,0,0,1,0-1.9h.3a4.8,4.8,0,0,0,3,.9,7.3,7.3,0,0,0,3-.3l1.1-.6c.1-.1.2-.1.4.1a1.3,1.3,0,0,1,0,1.8,4.1,4.1,0,0,1-2.5,1.1l-.6.2Z"/><path class="cls-1" d="M0,8.2l.4-.6H.7a6.2,6.2,0,0,0,2.9.9,7.1,7.1,0,0,0,2.5-.2,3.6,3.6,0,0,0,1.7-.7h.3a1.3,1.3,0,0,1,.1,1.9,3.2,3.2,0,0,1-1.6.9,7.8,7.8,0,0,1-5.2-.2A2.2,2.2,0,0,1,0,8.9Z"/><path class="cls-1" d="M0,16.8a2.1,2.1,0,0,1,.4-.6H.8a6.2,6.2,0,0,0,3,.9,7.5,7.5,0,0,0,2.9-.4l1.1-.5h.4a1.3,1.3,0,0,1,0,1.8,2.4,2.4,0,0,1-1.5.9,6.9,6.9,0,0,1-5.1-.1A2.3,2.3,0,0,1,0,17.5Z"/><path class="cls-1" d="M0,21.1a2.1,2.1,0,0,1,.4-.6c.1-.1.2-.2.4-.1a5.4,5.4,0,0,0,3,1A8.6,8.6,0,0,0,7,20.9l.7-.4a.3.3,0,0,1,.5,0,1.3,1.3,0,0,1-.2,2,3.5,3.5,0,0,1-1.6.8,7.9,7.9,0,0,1-4.8-.2A2.3,2.3,0,0,1,0,21.8Z"/><path class="cls-1" d="M0,12.5l.4-.6H.7a6.2,6.2,0,0,0,3,.9,5.9,5.9,0,0,0,3.2-.5l.9-.4h.3a1.3,1.3,0,0,1,.1,1.9,5.4,5.4,0,0,1-2,1,8.2,8.2,0,0,1-4.9-.3A3.3,3.3,0,0,1,0,13.2Z"/><path class="cls-1" d="M19.5,5.3h8.2a2.2,2.2,0,0,1,2.1,1.4,1.6,1.6,0,0,1,.2,1V20.2a2.2,2.2,0,0,1-2.3,2.3H21.5c-.4,0-.4,0-.3-.3a2.2,2.2,0,0,0,0-1.6c-.1-.3-.1-.3.3-.3h5.8c.5,0,.5,0,.5-.4V8c0-.4,0-.4-.4-.4H11.2c-.5,0-.5,0-.5-.5V5.7c-.1-.3,0-.4.3-.4Z"/><path class="cls-1" d="M17.1,18.2a4.3,4.3,0,0,1,0-8.6A4.4,4.4,0,0,1,21.4,14,4.2,4.2,0,0,1,17.1,18.2Zm0-2.2a2.1,2.1,0,0,0,2.1-2.1,2.1,2.1,0,1,0-4.2,0A2.1,2.1,0,0,0,17.1,16Z"/><path class="cls-1" d="M15,23.6a7.1,7.1,0,0,1-3.2-.7,1.8,1.8,0,0,1-.7-.5,1.4,1.4,0,0,1,.1-2.1,5.6,5.6,0,0,1,2.1-.9,8,8,0,0,1,4.6.4l.9.6a1.3,1.3,0,0,1-.1,2.1,5.2,5.2,0,0,1-2.6,1Z"/><path class="cls-1" d="M25.7,19.3a1,1,0,0,1-1.1-1.1,1.1,1.1,0,1,1,1.1,1.1Z"/><path class="cls-1" d="M24.6,9.7a1,1,0,0,1,1.1-1.1,1,1,0,0,1,1.1,1,1.2,1.2,0,0,1-1.1,1.2A1.1,1.1,0,0,1,24.6,9.7Z"/></svg>