<svg id="Layer_1" data-name="Layer 1" xmlns="http://www.w3.org/2000/svg" viewBox="0 0 72 72"><defs><style>.cls-1{fill:#002e5d;}</style></defs><title>Financial_Aid_and_Scholarships72</title><path class="cls-1" d="M12.2,5.2a18.9,18.9,0,0,1,4.7,1.1,8.2,8.2,0,0,1,2.5,1.6,3.1,3.1,0,0,1,.2,4.7,9,9,0,0,1-4.3,2.3,19.2,19.2,0,0,1-11.6-.5A6.3,6.3,0,0,1,0,11.1V9.5A6.5,6.5,0,0,1,3.7,6.3,18.9,18.9,0,0,1,8.4,5.2Z"/><path class="cls-1" d="M34,66.8a15.8,15.8,0,0,1-4.3-1,7.2,7.2,0,0,1-3.2-2,3,3,0,0,1,.2-4.5.6.6,0,0,1,.8,0,13,13,0,0,0,7.2,2.2,15.7,15.7,0,0,0,7.1-.9,9.6,9.6,0,0,0,2.5-1.2c.4-.3.7-.3,1,.1a3,3,0,0,1,0,4.4,10.6,10.6,0,0,1-6,2.7l-1.4.2Z"/><path class="cls-1" d="M0,19.8a5.6,5.6,0,0,1,1-1.5.5.5,0,0,1,.8-.1,12.8,12.8,0,0,0,6.8,2.2,17.8,17.8,0,0,0,6.1-.4,10.3,10.3,0,0,0,4-1.8.5.5,0,0,1,.8.1,3,3,0,0,1,.2,4.5A9.7,9.7,0,0,1,15.9,25a18.2,18.2,0,0,1-12.4-.5A5.7,5.7,0,0,1,0,21.4Z"/><path class="cls-1" d="M0,40.3a7.1,7.1,0,0,1,1-1.4c.3-.3.5-.4.8-.1A13.5,13.5,0,0,0,9,41a18.4,18.4,0,0,0,7-.8,13.8,13.8,0,0,0,2.7-1.4c.3-.3.6-.2.9.1a3,3,0,0,1,.1,4.4,9,9,0,0,1-3.6,2.2,18.9,18.9,0,0,1-12.2-.3A6,6,0,0,1,0,42Z"/><path class="cls-1" d="M0,50.6a4.5,4.5,0,0,1,1-1.4.5.5,0,0,1,.8-.2,13.8,13.8,0,0,0,7.4,2.3,19,19,0,0,0,7.5-1.1,7.2,7.2,0,0,0,1.9-1.1c.4-.4.8-.2,1.1.2a3.1,3.1,0,0,1-.5,4.7,8.1,8.1,0,0,1-3.8,1.9,18.1,18.1,0,0,1-11.5-.4A6.1,6.1,0,0,1,0,52.2Z"/><path class="cls-1" d="M0,30a13,13,0,0,1,1-1.5.6.6,0,0,1,.8,0,13.8,13.8,0,0,0,7.1,2.2,17.2,17.2,0,0,0,7.8-1.1,7.8,7.8,0,0,0,2-1.1c.4-.3.6-.2.9.1a3,3,0,0,1,0,4.5,9.2,9.2,0,0,1-4.7,2.4,18.8,18.8,0,0,1-11.7-.8,5.6,5.6,0,0,1-3.2-3Z"/><path class="cls-1" d="M46.7,12.8H66.6a5.1,5.1,0,0,1,5,3.4,5.4,5.4,0,0,1,.4,2.2V48.5c0,3.4-2.2,5.5-5.6,5.5H51.6c-.9,0-.9,0-.6-.8a6.7,6.7,0,0,0,0-3.7c-.3-.8-.3-.8.6-.8h14c1.1,0,1.1,0,1.1-1V19.1c0-1,0-1-1-1H26.8c-1.2,0-1.2,0-1.2-1.2V13.7c-.1-.7.2-.9.9-.9Z"/><path class="cls-1" d="M41,43.7A10.3,10.3,0,1,1,51.4,33.5,10.2,10.2,0,0,1,41,43.7Zm0-5.3a5,5,0,1,0,.1-10,5,5,0,0,0-5.1,5A5,5,0,0,0,41,38.4Z"/><path class="cls-1" d="M35.9,56.6a15.4,15.4,0,0,1-7.6-1.7,5.8,5.8,0,0,1-1.5-1.1,3.1,3.1,0,0,1,.1-5A11.7,11.7,0,0,1,32,46.6a17.6,17.6,0,0,1,11.1,1,13.7,13.7,0,0,1,2,1.3,3.1,3.1,0,0,1-.2,5.1,11.9,11.9,0,0,1-6.3,2.4A12.3,12.3,0,0,1,35.9,56.6Z"/><path class="cls-1" d="M61.6,46.3a2.6,2.6,0,0,1,0-5.2,2.6,2.6,0,1,1,0,5.2Z"/><path class="cls-1" d="M59,23.2a2.7,2.7,0,0,1,2.6-2.7,2.8,2.8,0,0,1,2.7,2.7,2.7,2.7,0,0,1-5.3,0Z"/></svg>