<svg id="Layer_1" data-name="Layer 1" xmlns="http://www.w3.org/2000/svg" viewBox="0 0 72 72"><defs><style>.cls-1{fill:#002e5d;}</style></defs><title>Google_Search72</title><path class="cls-1" d="M72,28.8V68.6c-1,2.6-2.1,3.4-4.8,3.4H5.5a8.6,8.6,0,0,1-2.3-.2A3.3,3.3,0,0,1,.4,69a8.6,8.6,0,0,1-.2-2.3V6.8c0-.8.1-1.7.1-2.5A4.1,4.1,0,0,1,3.4,0H68.6c2.5,1,3.2,1.9,3.2,4.6V27.5A3,3,0,0,0,72,28.8ZM44.6,13.1a2.1,2.1,0,0,0-1.5-.4H35.7c-3.2.1-6.3-.1-9.4.6s-7.2,2.5-9.1,6.2c-3.3,6.5,0,13.8,7,15.1a12.3,12.3,0,0,0,3.3.3c.5,0,.8.2.6.7a6.3,6.3,0,0,0,1,5c.4.5.2.7-.4.8l-3.3.3a19.8,19.8,0,0,0-9,3.4c-5.1,3.8-4.8,11.1,1.3,14l1.8.8a22.8,22.8,0,0,0,11.6.5,15.1,15.1,0,0,0,8.7-4.1c2.5-2.4,4-5.3,3.3-8.8a10.3,10.3,0,0,0-3.7-6c-1.3-1.1-2.8-2.2-4.1-3.4s-1.8-3-.2-4.6,2-1.7,3-2.7A9.8,9.8,0,0,0,39.3,18l-1.2-1.4c-.2-.2-.5-.4-.3-.7s.4-.1.6-.1C40.9,15.9,42.7,14.5,44.6,13.1Z"/><path class="cls-1" d="M30.4,43.1a3.7,3.7,0,0,1,2.9,1,32.6,32.6,0,0,1,4,3.4,5.6,5.6,0,0,1,.7,7.3,5.6,5.6,0,0,1-2.7,2.1c-1.7.7-3.5,1.5-5.2,1.4-3.6-.1-7.4-.5-10.1-3.5a6.3,6.3,0,0,1,1.5-9.6A18.5,18.5,0,0,1,30.4,43.1Z"/><path class="cls-1" d="M35.4,26.6c0,3.8-1.8,5.9-5.4,6.6-1.9.4-3.4-.7-4.6-1.8a11.5,11.5,0,0,1-3.3-12.1c1-4.1,6.2-5.2,9.5-2.1a12.4,12.4,0,0,1,3.6,7.3A8.2,8.2,0,0,1,35.4,26.6Z"/></svg>