<svg id="Layer_1" data-name="Layer 1" xmlns="http://www.w3.org/2000/svg" viewBox="0 0 30 30"><defs><style>.cls-1{fill:#002e5d;}</style></defs><title>Google_Search30</title><path class="cls-1" d="M30,12V28.6A1.7,1.7,0,0,1,28,30H1.4A1.3,1.3,0,0,1,.2,28.8a3.4,3.4,0,0,1-.1-1V2.8c0-.3.1-.6.1-1A1.7,1.7,0,0,1,1.4,0H28.6C29.7.4,30,.8,30,1.9V12ZM18.6,5.5a.7.7,0,0,0-.6-.2H14.9a17.1,17.1,0,0,0-3.9.3A4.9,4.9,0,0,0,7.2,8.2a4.2,4.2,0,0,0,2.9,6.2l1.4.2c.2,0,.3,0,.3.3a2.4,2.4,0,0,0,.4,2c.1.2.1.3-.2.3l-1.4.2a8.4,8.4,0,0,0-3.7,1.4,3.3,3.3,0,0,0,.5,5.8l.8.4a9.8,9.8,0,0,0,4.8.2,6.1,6.1,0,0,0,3.6-1.7A3.8,3.8,0,0,0,18,19.8a5,5,0,0,0-1.5-2.5l-1.8-1.4c-.7-.6-.7-1.2,0-1.9l1.2-1.1a4.1,4.1,0,0,0,.5-5.4l-.5-.6c-.1-.1-.2-.1-.1-.3H16A4.7,4.7,0,0,0,18.6,5.5Z"/><path class="cls-1" d="M12.7,18a1.5,1.5,0,0,1,1.2.4l1.7,1.4a2.4,2.4,0,0,1,.3,3,2.2,2.2,0,0,1-1.2.9,4.2,4.2,0,0,1-2.1.6,5.1,5.1,0,0,1-4.2-1.5,2.6,2.6,0,0,1,.6-4A7.8,7.8,0,0,1,12.7,18Z"/><path class="cls-1" d="M14.8,11.1a2.4,2.4,0,0,1-2.3,2.7,1.9,1.9,0,0,1-1.9-.7,4.9,4.9,0,0,1-1.4-5,2.3,2.3,0,0,1,4-.9,5.1,5.1,0,0,1,1.5,3A2.8,2.8,0,0,1,14.8,11.1Z"/></svg>