<svg id="Layer_1" data-name="Layer 1" xmlns="http://www.w3.org/2000/svg" viewBox="0 0 72 72"><defs><style>.cls-1{fill:#002e5d;}</style></defs><title>GPA_Calculator72</title><path class="cls-1" d="M5.5,67.3V4.5a2.1,2.1,0,0,0,.3-.7A5.6,5.6,0,0,1,11.2,0H60.8a5.5,5.5,0,0,1,5.5,4.8,9.7,9.7,0,0,1,.1,1.7V50.6c0,5.1.1,10.3,0,15.5a5.6,5.6,0,0,1-3.6,5.5l-1.6.4H10.7A6.1,6.1,0,0,1,5.5,67.3ZM36.1,5.8H14.4c-2.2,0-3.1.9-3.1,3.1V21.7c0,2.2,1,3.2,3.1,3.2H57.5a2.9,2.9,0,0,0,3.2-3.2V9c0-2.3-.9-3.2-3.2-3.2ZM52.7,55.3c0,2.7-.1,5.5,0,8.2a2.5,2.5,0,0,0,2.6,2.7h2.3c2,0,3.1-1,3.1-3V47.1A2.7,2.7,0,0,0,58,44.4H55.4a2.5,2.5,0,0,0-2.7,2.8ZM19.3,34.6v-.9c0-2.1-1-3.1-3.1-3.2h-.9c-2.6-.1-4.1.6-4.1,4.1s1.2,4.1,4.1,4.1S19.6,38,19.3,34.6Zm5.8,0V36a2.5,2.5,0,0,0,2.5,2.6,14,14,0,0,0,2.9,0,2.7,2.7,0,0,0,2.6-2.7V33.3a2.7,2.7,0,0,0-2.3-2.7H29.2C25.8,30.5,25.1,31.2,25.1,34.6Zm13.8,0v1.1a2.6,2.6,0,0,0,2.9,2.9,19.2,19.2,0,0,0,2.4,0A2.7,2.7,0,0,0,46.9,36V33.2a2.7,2.7,0,0,0-2.3-2.6,12.2,12.2,0,0,0-2.7-.1c-2,.1-3,1.1-3,3.2Zm21.8,0V33.4a2.7,2.7,0,0,0-2.4-2.8,8.7,8.7,0,0,0-3.6.1,2.4,2.4,0,0,0-2,2.4,20.8,20.8,0,0,0,0,2.5c0,2,1,3,2.9,3h1C59.5,38.9,60.9,37.8,60.7,34.6ZM42.8,44.4H41.4a2.5,2.5,0,0,0-2.5,2.5v1.6c-.3,3.3,1.3,3.9,3.9,4s4.2-.9,4.1-4.1S46.2,44.2,42.8,44.4ZM38.9,62.1v1.3a2.5,2.5,0,0,0,2.7,2.8h2.6a2.7,2.7,0,0,0,2.7-2.6v-3a2.6,2.6,0,0,0-2.5-2.4H42.8C39.7,58,38.7,59.1,38.9,62.1ZM25.1,48.4v1.4a2.6,2.6,0,0,0,2.5,2.6,15,15,0,0,0,3,0,2.7,2.7,0,0,0,2.5-2.6V46.9a2.6,2.6,0,0,0-2.5-2.5,8.5,8.5,0,0,1-1.6,0C26,44.2,24.9,45.3,25.1,48.4Zm-9.9-4H14.1a2.6,2.6,0,0,0-2.8,2.7v2.8a2.6,2.6,0,0,0,2.5,2.5,14,14,0,0,0,2.9,0,2.7,2.7,0,0,0,2.6-2.6V47a2.6,2.6,0,0,0-2.6-2.6Zm4.1,17.8V60.9a2.7,2.7,0,0,0-2.6-2.7h-3a2.5,2.5,0,0,0-2.4,2.3V63c0,2.2,1,3.2,3.1,3.2h.8C18,66.4,19.6,65.5,19.3,62.2Zm9.8-4H27.7a2.5,2.5,0,0,0-2.6,2.7v2.5a2.6,2.6,0,0,0,2.8,2.8H29c2.8.2,4.2-.6,4.1-4S32.2,58,29.1,58.2Z"/></svg>