<svg id="Layer_1" data-name="Layer 1" xmlns="http://www.w3.org/2000/svg" viewBox="0 0 30 30"><defs><style>.cls-1{fill:#002e5d;}</style></defs><title>GPA_Calculator30</title><path class="cls-1" d="M2.3,28.1V1.9a.4.4,0,0,0,.1-.3A2.4,2.4,0,0,1,4.7,0H25.3a2.3,2.3,0,0,1,2.3,2,1.7,1.7,0,0,1,.1.7V27.5a2.3,2.3,0,0,1-1.5,2.3l-.7.2H4.5A2.5,2.5,0,0,1,2.3,28.1ZM15,2.4H6c-.9,0-1.3.4-1.3,1.3V9.1A1.2,1.2,0,0,0,6,10.4H23.9A1.2,1.2,0,0,0,25.3,9V3.7c0-.9-.4-1.3-1.4-1.3ZM21.9,23v3.5A1.2,1.2,0,0,0,23,27.6h1a1.2,1.2,0,0,0,1.3-1.3V19.6a1,1,0,0,0-1.1-1.1H23.1a1.1,1.1,0,0,0-1.2,1.2ZM8,14.4V14c0-.8-.4-1.3-1.2-1.3H6.4c-1.1,0-1.7.3-1.7,1.7s.5,1.7,1.7,1.7S8.2,15.8,8,14.4Zm2.5,0V15a1,1,0,0,0,1,1.1h1.2A1.1,1.1,0,0,0,13.8,15V13.9a1.1,1.1,0,0,0-1-1.1h-.6C10.7,12.7,10.5,13,10.5,14.4Zm5.7,0v.5a1.1,1.1,0,0,0,1.2,1.2h1A1,1,0,0,0,19.5,15V13.8a1,1,0,0,0-.9-1H17.5A1.2,1.2,0,0,0,16.2,14Zm9.1,0v-.5a1,1,0,0,0-1-1.1,3.8,3.8,0,0,0-1.5,0,1.2,1.2,0,0,0-.9,1v1a1.2,1.2,0,0,0,1.3,1.3h.4C24.8,16.2,25.4,15.8,25.3,14.4Zm-7.5,4.1h-.6a1,1,0,0,0-1,1.1v.6c-.1,1.4.5,1.7,1.7,1.7s1.7-.4,1.7-1.7S19.2,18.4,17.8,18.5Zm-1.6,7.4v.5a1.1,1.1,0,0,0,1.2,1.2h1a1,1,0,0,0,1.1-1.1V25.3a.9.9,0,0,0-1-1c-.2-.1-.4,0-.7,0S16.1,24.6,16.2,25.9Zm-5.7-5.7v.5a1,1,0,0,0,1,1.1h1.3a1.1,1.1,0,0,0,1-1V19.6a1.1,1.1,0,0,0-1.1-1.1h-.6C10.8,18.4,10.4,18.9,10.5,20.2ZM6.4,18.5H5.9c-.8,0-1.2.4-1.2,1.1v1.2a1,1,0,0,0,1.1,1H7a1,1,0,0,0,1-1.1V19.6a1,1,0,0,0-1.1-1.1ZM8,25.9v-.5a1,1,0,0,0-1.1-1.1,2.4,2.4,0,0,0-1.2,0,1.1,1.1,0,0,0-1,.9v1.1c0,.9.4,1.3,1.3,1.3h.4C7.5,27.7,8.2,27.3,8,25.9Zm4.1-1.6h-.6a1,1,0,0,0-1,1.1,3.4,3.4,0,0,0,0,1,1.1,1.1,0,0,0,1.1,1.2h.5c1.1.1,1.7-.3,1.7-1.7S13.4,24.2,12.1,24.3Z"/></svg>