<svg id="Layer_1" data-name="Layer 1" xmlns="http://www.w3.org/2000/svg" viewBox="0 0 72 72"><defs><style>.cls-1{fill:#002e5d;}</style></defs><title>Graduate_Studies_Home72</title><path class="cls-1" d="M72,22.2a2.3,2.3,0,0,1-1.3,1.1L46.8,32.1,36.7,35.9a3.3,3.3,0,0,1-1.4,0L2.2,23.6c-.8-.3-1.8-.5-2.2-1.4v-.8a2.1,2.1,0,0,1,1.4-1L34.7,8a3.9,3.9,0,0,1,2.6,0L70.6,20.3A2.2,2.2,0,0,1,72,21.4Z"/><path class="cls-1" d="M0,62.5a62.5,62.5,0,0,0,1.6-6.2A103.1,103.1,0,0,0,3.5,43.9c.1-.8.1-1.7.2-2.5a.7.7,0,0,0-.5-.8A3.7,3.7,0,0,1,1.3,37a3.6,3.6,0,0,1,2.5-3.4,1,1,0,0,0,.6-.8,24.7,24.7,0,0,1,1.5-4.6c.2-.4.5-.6.9-.4l1.4.6c.4.1.5.3.3.8S7.6,31.7,7.2,33s-.1.7.3,1.1a3.7,3.7,0,0,1,0,6.2.8.8,0,0,0-.3.9c.6,4.1,1.2,8.3,1.9,12.5l1.2,8.5a1.7,1.7,0,0,1-.9,2.1H8.7a2.2,2.2,0,0,1-1.1-1.8l-.9-5.9c-.3-2.4-.7-4.9-1.1-7.4l-.3,1.7c-.7,4-1.5,7.9-2.5,11.8-.2.7-.4,1.3-1.1,1.6H0V62.6Z"/><path class="cls-1" d="M57.9,52.4a1.4,1.4,0,0,1-1.8,1.5l-.7-.3-8-4c-.7-.5-1.2-.4-1.9.2l-8.2,6.1c-1.1.9-1.5.9-2.6,0l-8.5-6.4c-.5-.3-.8-.4-1.3-.1l-8.2,4.1-.7.3a1.3,1.3,0,0,1-1.9-1.4c.3-2.6.6-5.2.8-7.8l.9-8.6c.2-1.3.3-2.7.5-4s.3-.5.6-.4l7,2.6,11.4,4.2a2.2,2.2,0,0,0,1.6-.1l17.6-6.5.7-.2c.3-.2.5-.1.5.3.3,2.3.5,4.5.7,6.8s.7,6.5,1.1,9.8C57.6,49.8,57.8,51.2,57.9,52.4Z"/></svg>