<svg id="Layer_1" data-name="Layer 1" xmlns="http://www.w3.org/2000/svg" viewBox="0 0 30 30"><defs><style>.cls-1{fill:#002e5d;}</style></defs><title>Graduate_Studies_Home30</title><path class="cls-1" d="M30,9.2c-.1.3-.3.4-.6.5l-9.9,3.7-4.2,1.5h-.6L.9,9.8A1.3,1.3,0,0,1,0,9.2V8.9a.9.9,0,0,1,.6-.4L14.5,3.3h1L29.4,8.5a.9.9,0,0,1,.6.4Z"/><path class="cls-1" d="M0,26a23.3,23.3,0,0,0,.7-2.5c.3-1.7.6-3.5.8-5.2v-1c.1-.2,0-.3-.2-.4a1.6,1.6,0,0,1-.8-1.5A1.5,1.5,0,0,1,1.6,14c.1-.1.2-.2.2-.3a10.7,10.7,0,0,1,.7-1.9c.1-.2.1-.3.3-.2l.6.2c.2.1.2.2.2.4A4.4,4.4,0,0,0,3,13.8c-.1.1,0,.3.1.4a1.6,1.6,0,0,1,0,2.6c-.1.1-.1.2-.1.4.3,1.7.5,3.4.8,5.2s.3,2.3.5,3.5a.7.7,0,0,1-.4.9H3.6a.8.8,0,0,1-.4-.7c-.2-.9-.3-1.7-.4-2.5s-.3-2.1-.5-3.1-.1.5-.1.7c-.3,1.7-.6,3.3-1,4.9s-.2.6-.5.7H0v-.7Z"/><path class="cls-1" d="M24.1,21.8c0,.5-.3.8-.7.7l-.3-.2-3.3-1.7c-.4-.1-.6-.1-.8.1l-3.5,2.6a.7.7,0,0,1-1,0l-3.6-2.7a.5.5,0,0,0-.5,0L7,22.3H6.7c-.5.2-.9-.1-.8-.5l.3-3.3c.1-1.2.3-2.4.4-3.6s.1-1.1.2-1.7.1-.2.3-.1l2.9,1L14.7,16a.9.9,0,0,0,.7,0l7.3-2.8H23c.1,0,.2,0,.2.2l.3,2.8c.2,1.4.3,2.7.4,4.1A10,10,0,0,1,24.1,21.8Z"/></svg>