<svg id="Layer_1" data-name="Layer 1" xmlns="http://www.w3.org/2000/svg" viewBox="0 0 72 72"><defs><style>.cls-1{fill:#002e5d;}</style></defs><title>HBLL_Film_Finder72</title><path class="cls-1" d="M42.1,59.1H4.1C1.1,58.1,0,56,0,52.9.1,42.8,0,32.7,0,22.6V17.9a5.1,5.1,0,0,1,5.1-5H41.3A4.9,4.9,0,0,1,44.4,14a5.6,5.6,0,0,1,2,4.7V53.1C46.4,56.4,45.2,58,42.1,59.1Z"/><path class="cls-1" d="M72,16.7V55.4c-.7,1.3-1.2,1.5-2.5.8l-4.2-2.4L50,45.3A2.4,2.4,0,0,1,48.7,43V31.4a2.1,2.1,0,0,1,.9-1.9L69.4,15.9C70.6,15.1,71.4,15.3,72,16.7Z"/></svg>