<svg id="Layer_1" data-name="Layer 1" xmlns="http://www.w3.org/2000/svg" viewBox="0 0 72 72"><defs><style>.cls-1{fill:#002957;}</style></defs><title>Help72</title><path class="cls-1" d="M72,36A36,36,0,1,1,36,0,36,36,0,0,1,72,36ZM20.3,27.4a4.1,4.1,0,0,0,3.2,1.3c2.1,0,3.6-1.3,4.4-3.9a14.2,14.2,0,0,1,3-5.5c1.2-1.3,3-1.9,5.5-1.9a7.1,7.1,0,0,1,5.2,1.9,5.7,5.7,0,0,1,2.1,4.6,4.8,4.8,0,0,1-.7,2.6,10.6,10.6,0,0,1-1.6,2.1l-3.2,2.9a48.4,48.4,0,0,0-3.9,3.8,12.6,12.6,0,0,0-2.4,3.6,12.8,12.8,0,0,0-.9,5,4.8,4.8,0,0,0,1.2,3.5,4.4,4.4,0,0,0,3,1.1c2.3,0,3.6-1.2,4.1-3.5s.4-1.9.5-2.4a7.5,7.5,0,0,1,.6-1.3,7.7,7.7,0,0,1,1-1.5L43.3,38c2.8-2.5,4.7-4.3,5.8-5.4a15,15,0,0,0,2.8-3.7A10.6,10.6,0,0,0,53,23.8,11.8,11.8,0,0,0,51,17a13.9,13.9,0,0,0-5.9-5,19.9,19.9,0,0,0-8.7-1.8,18.8,18.8,0,0,0-9.3,2.2A15.6,15.6,0,0,0,21,17.9a12,12,0,0,0-2,6.5A4.1,4.1,0,0,0,20.3,27.4Zm18.8,33a4.4,4.4,0,0,0,1.6-3.7,5.1,5.1,0,0,0-5.1-5.1,5,5,0,0,0-3.7,1.5,4.9,4.9,0,0,0-1.5,3.6A4.6,4.6,0,0,0,32,60.5a5.2,5.2,0,0,0,3.6,1.3A4.7,4.7,0,0,0,39.1,60.4Z"/></svg>