<svg id="Layer_1" data-name="Layer 1" xmlns="http://www.w3.org/2000/svg" viewBox="0 0 30 30"><defs><style>.cls-1{fill:#002e5d;}</style></defs><title>Internal_Network_Traffic30</title><path class="cls-1" d="M0,16.1V13.9c.1-.3.1-.7.2-1A14.9,14.9,0,0,1,11.1.5L13.8,0h2.4l.9.2A14.7,14.7,0,0,1,28.5,8.6,15,15,0,0,1,30,14.1a16.3,16.3,0,0,1-.3,3.8A15,15,0,0,1,12.9,29.8a14.6,14.6,0,0,1-8.8-4.6,14.6,14.6,0,0,1-3.8-7A15.2,15.2,0,0,0,0,16.1Zm4.9-2.2h2c.6,0,.6,0,.6-.6a19.7,19.7,0,0,1,.4-3.4.5.5,0,0,0-.3-.5L4.8,8c-.3-.2-.4-.1-.6.1a13.4,13.4,0,0,0-1.9,5.5c0,.2,0,.3.3.3Zm20.2,0h2.2c.3,0,.4-.1.4-.4a13.6,13.6,0,0,0-2-5.4c-.1-.2-.2-.3-.5-.1a14.3,14.3,0,0,1-2.8,1.3c-.3.2-.3.3-.3.6s.3,2.4.4,3.6.1.4.4.4Zm0,2.2H22.8a.3.3,0,0,0-.3.3c-.1,1.3-.2,2.5-.4,3.7s0,.4.3.5L25.3,22c.2.1.3.1.4-.1a13.5,13.5,0,0,0,2-5.5.3.3,0,0,0-.3-.3Zm-20.2,0H2.6c-.2,0-.3,0-.3.3a12.2,12.2,0,0,0,2,5.5c.1.2.2.2.3.1l3.1-1.4a.5.5,0,0,0,.2-.4,23.3,23.3,0,0,1-.4-3.7c0-.3-.2-.4-.5-.4Zm11.2,8.5v2.7c0,.1-.1.3.1.3s.8,0,.9-.2a16.7,16.7,0,0,0,2.3-5.1c0-.2,0-.3-.2-.4l-2.7-.4c-.3,0-.4.1-.4.4Zm0-19.2V8.1c0,.3.1.4.4.4l2.6-.4c.3-.1.3-.2.3-.4a21.3,21.3,0,0,0-2.1-4.9,1.1,1.1,0,0,0-.9-.5c-.2,0-.3,0-.3.3Zm-2.2,0V2.7c0-.2,0-.4-.3-.4a1.2,1.2,0,0,0-.9.4,17.1,17.1,0,0,0-2.1,5c-.1.2,0,.3.3.4l2.6.4c.3,0,.4,0,.4-.4Zm0,19.2V21.9c0-.4-.1-.4-.5-.4l-2.6.4c-.2.1-.3.2-.2.4a17.7,17.7,0,0,0,2.1,4.9,1.2,1.2,0,0,0,.7.5c.4,0,.5,0,.5-.5Zm4.2-10.7h1.7c.3,0,.5-.1.4-.4s-.1-2-.2-3-.2-.3-.5-.3a15.4,15.4,0,0,1-3.1.5.3.3,0,0,0-.3.3v2.6a.3.3,0,0,0,.3.3Zm.1,2.2H16.4a.3.3,0,0,0-.3.3V19a.3.3,0,0,0,.3.3,12.5,12.5,0,0,1,3.2.5c.2,0,.3-.1.4-.3s.2-2,.2-3,0-.4-.3-.4Zm-6.5-2.2h1.8c.3,0,.4-.1.4-.4a9.6,9.6,0,0,1,0-2.4.4.4,0,0,0-.4-.4,15.7,15.7,0,0,1-3-.5c-.4,0-.5,0-.5.4a28.5,28.5,0,0,0-.3,2.9c0,.3.1.4.3.4Zm.1,2.2H10c-.2,0-.3,0-.3.3a17.1,17.1,0,0,0,.3,3.1c0,.2.1.3.4.2a16.5,16.5,0,0,1,3.1-.4.4.4,0,0,0,.4-.4V16.5c0-.3-.1-.4-.4-.4Zm-2,10.5a27.2,27.2,0,0,1-1.3-3.7c-.1-.2-.2-.2-.4-.1a7.5,7.5,0,0,0-2,1c-.2,0-.2.1-.1.3l1.2,1A11,11,0,0,0,9.8,26.6ZM20.2,3.3c0,.1-.1.1,0,.1s.9,2.4,1.3,3.7.2.2.4.1l1.9-1c.3-.1.3-.2.1-.4a11.5,11.5,0,0,0-2.9-2ZM9.8,3.4H9.6A14.5,14.5,0,0,0,6,5.9c-.2.2-.1.3.1.3l2,1c.2.1.3,0,.4-.2A16.1,16.1,0,0,1,9.7,3.7C9.7,3.6,9.8,3.5,9.8,3.4ZM20.1,26.6h.1a13.4,13.4,0,0,0,3.7-2.5c.2-.2.1-.3,0-.4l-2-.9c-.3-.1-.3-.1-.4.2a16.6,16.6,0,0,1-1.2,3.1C20.3,26.3,20.2,26.4,20.1,26.6Z"/></svg>