<svg id="Layer_1" data-name="Layer 1" xmlns="http://www.w3.org/2000/svg" viewBox="0 0 72 72"><defs><style>.cls-1{fill:#002e5d;}</style></defs><title>Internal_Network_Traffic72</title><path class="cls-1" d="M0,38.6V33.3a9.3,9.3,0,0,0,.4-2.4A36,36,0,0,1,26.7,1.2C28.8.7,30.9.4,33.1.1h5.7l2.3.3C53.7,2.5,62.8,9.3,68.4,20.7a35.4,35.4,0,0,1,3.5,13.2,30.4,30.4,0,0,1-.7,9A35.9,35.9,0,0,1,9.8,60.6a35.6,35.6,0,0,1-9-17C.5,41.9.4,40.2,0,38.6Zm11.7-5.3h4.9c1.3,0,1.4,0,1.4-1.4a57.1,57.1,0,0,1,.9-8.2c.1-.7-.1-1-.7-1.2a42.7,42.7,0,0,1-6.8-3.3c-.6-.4-.9-.3-1.3.3a32.2,32.2,0,0,0-4.6,13c-.1.6.1.8.7.8Zm48.5,0h5.4c.6,0,.8-.1.8-.8a31.7,31.7,0,0,0-4.6-13c-.4-.6-.6-.7-1.2-.3a42.2,42.2,0,0,1-6.8,3.2,1,1,0,0,0-.7,1.4,80.8,80.8,0,0,1,.8,8.6c0,.7.3.9,1,.9Zm0,5.3c-1.8,0-3.6.1-5.5,0s-.8.3-.8.9a64.2,64.2,0,0,1-.9,8.7,1.1,1.1,0,0,0,.7,1.3,43.7,43.7,0,0,1,6.9,3.3c.5.3.8.2,1.1-.3a30.4,30.4,0,0,0,4.7-13.1c0-.6-.2-.8-.8-.8Zm-48.5,0H6.2c-.5,0-.8.1-.7.8a31.3,31.3,0,0,0,4.7,13.2c.3.4.5.5.9.3a44.3,44.3,0,0,1,7.3-3.5c.3-.2.6-.4.5-.8a68.4,68.4,0,0,1-.9-9.1c0-.7-.4-.9-1.1-.9S13.5,38.6,11.7,38.6ZM38.6,59v6.6c0,.3-.1.6.2.8a2.8,2.8,0,0,0,2.3-.7,41.7,41.7,0,0,0,5.4-12.2c.1-.5,0-.8-.5-.9a48.7,48.7,0,0,0-6.5-1c-.7-.1-1,.1-.9.9Zm0-46.1v6.6c-.1.7.2.9.9.9,2.2-.3,4.3-.6,6.4-1.1s.7-.3.6-.9a46.4,46.4,0,0,0-5-11.7,2.5,2.5,0,0,0-2-1.2c-.7,0-1,.1-1,.9S38.6,10.7,38.6,12.9Zm-5.3.1V6.4c-.1-.4,0-.8-.6-.8s-1.6,0-2.1.9a43.5,43.5,0,0,0-5.2,11.9c-.1.6.1.8.7,1a61.7,61.7,0,0,0,6.2.9c.8.1.9,0,1-.9Zm0,46.1V52.6c0-1-.1-1.1-1.1-1a45.8,45.8,0,0,0-6.3,1c-.5.1-.6.4-.5.9a45.8,45.8,0,0,0,5.1,11.8,2.3,2.3,0,0,0,1.7,1.1c.9,0,1.1,0,1.1-1ZM43.5,33.3h4.1c.7,0,1-.2,1-.9-.1-2.4-.4-4.8-.7-7.2-.1-.7-.4-.8-1-.7a38.8,38.8,0,0,1-7.6,1.2c-.5,0-.7.2-.7.8v6c0,.6.2.8.8.8Zm.1,5.3H39.3c-.5,0-.7.2-.7.7v6.3c0,.5.2.6.6.7A40.7,40.7,0,0,1,47,47.4c.6.2.8,0,.9-.6.3-2.4.6-4.8.7-7.3,0-.6-.2-.9-.9-.9S45,38.6,43.6,38.6ZM28.2,33.3h4.2c.6,0,.9-.2.9-.9a56.1,56.1,0,0,1,0-5.8c0-.7-.3-.9-.9-.9a58.4,58.4,0,0,1-7.3-1.1c-1-.2-1-.2-1.1.8a55.1,55.1,0,0,0-.7,7.1c-.1.7.2.8.8.8Zm0,5.3H23.9c-.4,0-.6.2-.6.7a63.4,63.4,0,0,0,.7,7.5c.1.6.3.7.9.6a38.7,38.7,0,0,1,7.6-1.1c.6-.1.8-.3.8-.9a58.1,58.1,0,0,1,0-5.9.8.8,0,0,0-.9-.9C31,38.7,29.6,38.6,28.2,38.6ZM23.5,63.9a80.8,80.8,0,0,1-3.2-9c-.1-.5-.4-.4-.8-.3A44.4,44.4,0,0,0,14.6,57c-.4.2-.5.4-.1.8l2.7,2.4A24.8,24.8,0,0,0,23.5,63.9ZM48.4,8v.3a52.2,52.2,0,0,1,3.2,8.6c.1.6.4.6.9.4L57.2,15c.6-.3.6-.5.1-1a34.1,34.1,0,0,0-6.8-5Zm-25,.1h-.2a31.5,31.5,0,0,0-8.8,6.1c-.4.4-.1.6.2.8s3.1,1.6,4.8,2.3.8,0,1-.6a46.9,46.9,0,0,1,2.9-7.9A.8.8,0,0,0,23.4,8.1ZM48.3,63.9h.3a33.6,33.6,0,0,0,8.9-6.1c.4-.5.1-.6-.2-.8a40.9,40.9,0,0,0-4.7-2.3c-.8-.3-.9-.3-1.1.6a56.3,56.3,0,0,1-2.7,7.5A11.7,11.7,0,0,0,48.3,63.9Z"/></svg>