<svg id="Layer_1" data-name="Layer 1" xmlns="http://www.w3.org/2000/svg" viewBox="0 0 30 30"><defs><style>.cls-1{fill:#002e5d;}</style></defs><title>Law_Library_Lib_Guides30</title><path class="cls-1" d="M0,26.7H29.5c.5,0,.5,0,.5.5v.3c0,.7-.2,1.2-.9,1.4H.3c-.3,0-.3,0-.3-.2Z"/><path class="cls-1" d="M15,25.7H1.5c-.4,0-.4,0-.4-.4v-.7a1,1,0,0,1,1-1.1h.6c.5,0,.5,0,.5-.5V12.2c0-.4,0-.4-.4-.4H1.7c-.5,0-.7-.2-.7-.7v-.7a.9.9,0,0,1,.5-.8L4.9,7.4l9.5-6.2a.9.9,0,0,1,1,0l8.9,5.7,4,2.5c.4.3.7.6.6,1.1v.6c0,.4-.2.7-.6.7H27.1c-.3,0-.3,0-.3.3V23.2a.3.3,0,0,0,.3.3h.7a1,1,0,0,1,1.1,1.1v.8c0,.2-.1.3-.2.3H15Zm-5.4-8V12.1a.3.3,0,0,0-.3-.3H7.9c-.4,0-.4,0-.4.4v11a.3.3,0,0,0,.3.3H9.3c.2,0,.3-.1.3-.4Zm6.4-.1V12.1a.3.3,0,0,0-.3-.3H14.2a.3.3,0,0,0-.3.3v11c0,.3.1.4.4.4h1.4c.2,0,.3-.1.3-.4Zm6.4.1V12.2c0-.4,0-.4-.4-.4H20.6a.3.3,0,0,0-.3.3,2.2,2.2,0,0,1,0,.8c.1,3.4.1,6.8.1,10.2,0,.3,0,.4.3.4h1.4c.3,0,.3-.1.3-.4Z"/></svg>