<svg id="Layer_1" data-name="Layer 1" xmlns="http://www.w3.org/2000/svg" viewBox="0 0 30 30"><defs><style>.cls-1{fill:#002e5d;}</style></defs><title>LDS-org30</title><path class="cls-1" d="M15,4.6A17.1,17.1,0,0,0,7,6.4,5.1,5.1,0,0,1,5.5,3.3c-.1-.6-.6-.9-1.3-.9a2.2,2.2,0,0,0-2,2.9,1.4,1.4,0,0,0,1.7.9,1.7,1.7,0,0,1,1.7.3l.5.4C2.4,8.9,0,12.3,0,16.1s4.7,9.8,11.1,11.1a23.4,23.4,0,0,0,3.9.4,18,18,0,0,0,6.2-1.1l.6-.2,2.3-1.1c3.6-2.1,5.9-5.4,5.9-9.1C30,9.7,23.3,4.6,15,4.6ZM1.9,16.1c0-3.3,2.3-6.2,5.8-7.9h0c1,.9.9.8.4,1.8a9.1,9.1,0,0,0-1.3,4.8,2.9,2.9,0,0,0,1.5,2.8,1.4,1.4,0,0,1,.8,1,3,3,0,0,0,1.2,1.9,1.1,1.1,0,0,1,.5,1.1,7.8,7.8,0,0,0,.4,3.4.3.3,0,0,0,.1.2C5.8,24,1.9,20.4,1.9,16.1Zm12.9,0a.8.8,0,0,1-.9.4l-.7-.3a3.7,3.7,0,0,0-1.5-.4A3.2,3.2,0,0,1,9.6,15a.9.9,0,0,1-.3-.5c0-.9-.1-1.8-.1-2.8s.4-.8,1.1-.9l.9.5,1.5,1.2a1.4,1.4,0,0,1,.5.8c.3.5.4,1,.7,1.5s.2.3.3.4h.2C14.7,15.5,14.9,15.7,14.8,16.1ZM23,23.6a.3.3,0,0,0-.1-.2c-.1-.3-.1-.6-.2-.9a3.5,3.5,0,0,1-.3-1.4,4.3,4.3,0,0,0-.4-2.7,2.7,2.7,0,0,0-2.2-1.6,5.6,5.6,0,0,1-1.6-.7c-.4-.2-.4-.5-.2-.9a9.4,9.4,0,0,0,.3-.9v-1a5.5,5.5,0,0,0-.2-2.2,2.6,2.6,0,0,0-1.8-1.6,1.9,1.9,0,0,0-2.6,1l-.6,1.1a3.9,3.9,0,0,1-1.9-2.3,1.6,1.6,0,0,0-1.5-1,1,1,0,0,1-1-.3l-.2-.2A16.7,16.7,0,0,1,15,6.6c7.3,0,13.1,4.2,13.1,9.5C28.1,19.2,26.1,21.9,23,23.6Z"/></svg>