<svg id="Layer_1" data-name="Layer 1" xmlns="http://www.w3.org/2000/svg" viewBox="0 0 72 72"><defs><style>.cls-1{fill:#002e5d;}</style></defs><title>LDS-org72</title><path class="cls-1" d="M36,11a44.5,44.5,0,0,0-19.3,4.3A13.3,13.3,0,0,1,13.1,8c-.1-1.5-1.3-2.2-2.9-2.2a5.3,5.3,0,0,0-4.8,6.9,3.1,3.1,0,0,0,3.9,2.2,4.7,4.7,0,0,1,4,.6l1.2.9C5.7,21.5,0,29.5,0,38.6,0,51.4,11.3,62.1,26.6,65.2a41.7,41.7,0,0,0,9.4,1,45.8,45.8,0,0,0,15-2.5l1.4-.5a45.3,45.3,0,0,0,5.4-2.7c8.6-5,14.2-13,14.2-21.9C72,23.4,55.9,11,36,11ZM4.5,38.6c0-7.9,5.5-14.9,13.9-19l.2.2c2.3,2.1,2,1.7.8,4.2s-3.3,7.4-3.2,11.5,1,5.4,3.8,6.8a3.1,3.1,0,0,1,1.9,2.4,6.8,6.8,0,0,0,2.8,4.5A2.9,2.9,0,0,1,26,52a20.5,20.5,0,0,0,.9,8.1.6.6,0,0,1,.1.4C14,57.7,4.5,49,4.5,38.6Zm31.1,0c-.2.7-1.5,1.1-2.2.9l-1.8-.7a9.9,9.9,0,0,0-3.4-.8c-1.9.1-3.6-1-5.2-2.1a1.5,1.5,0,0,1-.6-1.1c-.1-2.2-.3-4.4-.2-6.6s.7-2,2.4-2.2A10.4,10.4,0,0,1,27,27.1,45.7,45.7,0,0,1,30.6,30a6.4,6.4,0,0,1,1.1,2c.6,1.1,1,2.4,1.6,3.6s.6.6.9.9l.4.2C35.3,37.2,35.9,37.7,35.6,38.6ZM55.2,56.7a1.4,1.4,0,0,0-.2-.6,18,18,0,0,0-.6-2.2,5.7,5.7,0,0,1-.5-3.2,12.1,12.1,0,0,0-1.1-6.5,6.5,6.5,0,0,0-5.2-3.9,12.4,12.4,0,0,1-4-1.6c-.9-.4-.9-1.3-.4-2.1a14.2,14.2,0,0,0,.7-2.2,20.9,20.9,0,0,0,.1-2.5,13.1,13.1,0,0,0-.6-5.2,6.1,6.1,0,0,0-4.3-3.8c-3.4-.9-4.9-.1-6.2,2.3s-1,1.8-1.5,2.7a10.2,10.2,0,0,1-4.6-5.5c-.5-1.5-2.2-2.8-3.6-2.5a2.2,2.2,0,0,1-2.3-.7l-.5-.5a40.9,40.9,0,0,1,15.6-3c17.4,0,31.5,10.3,31.5,22.9C67.5,46,62.7,52.5,55.2,56.7Z"/></svg>