<svg id="Layer_1" data-name="Layer 1" xmlns="http://www.w3.org/2000/svg" viewBox="0 0 72 72"><defs><style>.cls-1{fill:#002e5d;}</style></defs><title>LDS_Tech_News72</title><path class="cls-1" d="M46.4,0a6.1,6.1,0,0,1,1.7.7,5,5,0,0,1,2.7,5.4,1.7,1.7,0,0,0,.5,1.2l10.3,9.9a16.8,16.8,0,0,1,4.8,11,15.2,15.2,0,0,1-.9,7.6,12.1,12.1,0,0,1-3.9,5.3c-.2.2-.3.4-.6.4a2.7,2.7,0,0,1,.2-1.3,12.8,12.8,0,0,0-1.7-8.3A21.4,21.4,0,0,0,56.7,28c-.4-.4-.7-.5-1.1-.1L40.5,43.1a1.3,1.3,0,0,0-.4,1,5.2,5.2,0,0,1-1.6,4.8L17.2,70.3A7.3,7.3,0,0,1,14.1,72h-2a7.8,7.8,0,0,1-3.9-2.5l-.9-.9a5.7,5.7,0,0,1,0-8.3L28.5,39.1a5.2,5.2,0,0,1,4.8-1.7,1.3,1.3,0,0,0,1.2-.4l15-15c.4-.4.4-.7,0-1l-5.3-5.2a3.5,3.5,0,0,0-2.9-1.3c-2.4.2-4-1.1-5-3.3a5.5,5.5,0,0,1,1.2-5.8c1-1,2.1-1.9,3-3A8.3,8.3,0,0,1,44.4,0Z"/><path class="cls-1" d="M17.7,0l3.1.5a16.6,16.6,0,0,1,12.5,16,17.7,17.7,0,0,1-.9,5.6.9.9,0,0,0,.2,1.1l3.6,3.3c.5.4.6.7.1,1.2-2.9,2.8-5.8,5.7-8.6,8.6-.5.4-.7.4-1.1-.1l-3.4-3.5a.8.8,0,0,0-1.1-.3A16.8,16.8,0,0,1,.3,20.1l-.3-2V15.3a15.5,15.5,0,0,1,.4-2.1c0-.3,0-.7.3-.8s.5.3.7.5l9.3,9.3a5.4,5.4,0,0,0,8,.1l3.4-3.5c2.6-2.6,2.6-5.8,0-8.3L12.7,1.3c-.5-.6-.5-.7.2-.8L15.7,0Z"/><path class="cls-1" d="M61.9,72c-2.4-.3-3.8-2.1-5.3-3.7l-7.8-8.4-8-8.5c-.3-.3-.3-.5,0-.9,3.2-3.2,6.5-6.4,9.7-9.7.5-.5.8-.2,1.1.1l5.4,5c4.2,4,8.3,7.9,12.6,11.8A7,7,0,0,1,72,61.6v1.6a6.7,6.7,0,0,1-2.4,3.9l-2.3,2.3A7.2,7.2,0,0,1,63.1,72Zm-.8-8.3a2.5,2.5,0,0,0,2.6,2.6,2.8,2.8,0,0,0,2.7-2.7A2.8,2.8,0,0,0,63.7,61,2.6,2.6,0,0,0,61.1,63.7Z"/></svg>