<svg id="Layer_1" data-name="Layer 1" xmlns="http://www.w3.org/2000/svg" viewBox="0 0 30 30"><defs><style>.cls-1{fill:#002e5d;}</style></defs><title>LDS_Newsroom30</title><path class="cls-1" d="M30,0V29.7c0,.3,0,.3-.3.3H0V.4C0,0,0,0,.4,0H30Zm-.5,17.9c.3,0,.4,0,.4-.3V.5c0-.3-.1-.3-.4-.3H.5C.2.2.1.2.1.5Q.3,9.1.1,17.6c0,.3.1.3.4.3h29Zm-21.6,5q-.3-.1-.3-.3V20.7l.2.2c.2.7.5,1.3.7,2s0,.2.1.2.1-.1.2-.2.3-.8.4-1.1a3,3,0,0,0,.4-1,.8.8,0,0,1,.1.4v1.2a.6.6,0,0,1-.4.7h1.2c-.2-.2-.4-.3-.3-.6V20.9c0-.3,0-.5.3-.6a.1.1,0,0,0,.1-.1h-.4c-.6,0-.6,0-.8.5l-.6,1.6-.6-1.4c-.3-.8-.3-.8-1.1-.7H6.9c0,.1.1.1.2.1s.3.4.3.6v1.2c0,.4,0,.8-.4,1H8.1C8.1,22.9,8,22.9,7.9,22.9Zm7.2-.8c0,.4.2.7-.3,1h1a1.6,1.6,0,0,1-.2-1.5c0-.2.2-.3.4-.3a.3.3,0,0,1,.3.3c0,.5.2,1-.1,1.5H17a1.8,1.8,0,0,1-.2-1.6c.1-.2.3-.2.5-.2s.3.1.3.2.2,1.1-.2,1.6h.9a.5.5,0,0,1-.3-.5v-1a.5.5,0,0,0-.4-.5c-.2-.1-.4.1-.7.2a.1.1,0,0,1-.2,0,.8.8,0,0,0-1,0s-.1.1-.1,0-.5-.1-.8,0S15.1,21.8,15.1,22.1ZM22.3,27V26c0-.2.3-.4.5-.4s.3.2.3.4v.9c0,.2,0,.4-.2.5h.9c-.1-.1-.3-.2-.3-.4V26c0-.2.3-.4.5-.4s.3.2.3.4v.8c.1.2,0,.4-.2.6h1c-.4-.1-.3-.4-.3-.7a2.2,2.2,0,0,0-.1-.8c0-.4-.2-.6-.5-.5h-.5c-.1.1-.2.1-.4,0a.6.6,0,0,0-.7-.1c-.1,0-.3.4-.4,0h-.7c.2.1.4.2.3.4s.3,1-.1,1.5h.9C22.5,27.2,22.3,27.2,22.3,27ZM7.4,25.1v1.5l-.3-.4L6,24.8a.9.9,0,0,0-1.1-.2.7.7,0,0,1,.6.7v1.3c0,.3,0,.6-.5.7H6.1a.5.5,0,0,1-.4-.6V25.2c.1.1.2.2.2.3a10.9,10.9,0,0,1,1.3,1.7l.4.3a14.7,14.7,0,0,0,0-2.1c0-.4.1-.7.5-.8a1.7,1.7,0,0,0-1.2,0C7.2,24.7,7.4,24.8,7.4,25.1Zm3.5,2.1c.1.1.1.2.2.2a.2.2,0,0,0,.2-.2l.5-1.2c.1.5.3.9.4,1.3s.1.2.2.1h.2c.2-.6.2-1.3.8-1.8h-.8a1.2,1.2,0,0,1-.1,1.3,4.9,4.9,0,0,1-.4-1.1c-.1-.1-.1-.2-.3-.2s-.1.1-.2.3a4.2,4.2,0,0,1-.4,1c-.1-.3-.1-.5-.2-.8s-.2-.4.1-.5h-.9A5.1,5.1,0,0,1,10.9,27.2Zm10.7-5.6c0-.2.2-.3.4-.3s.3,0,.3.2a1.9,1.9,0,0,1-.1,1.5h.9c-.3-.1-.3-.3-.3-.5v-.8c0-.6-.4-.9-.9-.6s-.3.3-.4,0h-.7c.4.2.3.6.3,1s.1.7-.2,1h.9A1.6,1.6,0,0,1,21.6,21.6Zm-9.8,1.6a1,1,0,0,0,1-1.1,1,1,0,1,0-1,1.1ZM19.6,21a1.2,1.2,0,0,0-1.1,1.1,1.1,1.1,0,0,0,1,1.1,1.1,1.1,0,0,0,1.1-1.1A1.1,1.1,0,0,0,19.6,21Zm.7,4.4a.9.9,0,0,0-1,1,1,1,0,1,0,2,0A.9.9,0,0,0,20.3,25.4Zm-2.3,0a.9.9,0,0,0-1,1,1,1,0,1,0,2,0A.9.9,0,0,0,18,25.4ZM9.8,27.1c-.3.1-.5.2-.7.1s-.3-.5-.4-.7.1-.1.2-.1h.9c.2,0,.3-.1.2-.3a.8.8,0,0,0-.7-.8,1,1,0,0,0-1,.7v.8a.8.8,0,0,0,.8.7A.7.7,0,0,0,10,27C9.9,27,9.8,27,9.8,27.1Zm4.5-1.7h-.2c-.3,0-.6.2-.6.4a.5.5,0,0,0,.4.7l.6.2a.4.4,0,0,1,.1.5c-.1.1-.3.2-.4.1s-.3-.2-.4-.3l-.4-.3v.4a.3.3,0,0,0,.3.3h.6A.7.7,0,0,0,15,27a.8.8,0,0,0-.4-.7l-.5-.2a.3.3,0,0,1-.3-.3.2.2,0,0,1,.2-.2.3.3,0,0,1,.4,0c.2.1.3.3.4.4S14.9,25.4,14.3,25.4ZM16,27V26c0-.3.2-.4.4-.2s.2.2.2.1.3-.2.2-.4a.2.2,0,0,0-.3-.1h-.3c-.1,0-.1.1-.2,0s-.5-.1-.8,0a.7.7,0,0,1,.4.8.2.2,0,0,0,0,.3c0,.3.1.6-.3.8a1.7,1.7,0,0,0,1,0C16.2,27.3,16,27.2,16,27Zm-2.1-4.1c-.1-.2-.2-1.3,0-1.4s.2-.4.3,0,.2.2.3.1.2-.2.2-.3-.2-.3-.4-.3-.4.3-.6.1-.4,0-.7.1.4.3.4.6v.6a.8.8,0,0,1-.2.7h.9Z"/><path class="cls-1" d="M12.4,22.2a4.3,4.3,0,0,0-.1.5.6.6,0,0,1-.6.3c-.2,0-.3-.2-.4-.4v-1c.1-.2.2-.4.4-.4a.7.7,0,0,1,.6.2A2.2,2.2,0,0,1,12.4,22.2Z"/><path class="cls-1" d="M20.1,22.1a1.3,1.3,0,0,1-.1.6c-.1.2-.2.3-.4.3a.5.5,0,0,1-.5-.3,1.7,1.7,0,0,1,0-1.2.5.5,0,0,1,.5-.3c.2,0,.4.1.4.3A1.3,1.3,0,0,1,20.1,22.1Z"/><path class="cls-1" d="M20.9,26.3a1.5,1.5,0,0,1-.2.8.4.4,0,0,1-.8,0,1.4,1.4,0,0,1,0-1.4c.1-.2.3-.2.6-.1A.9.9,0,0,1,20.9,26.3Z"/><path class="cls-1" d="M18.5,26.4V27a.8.8,0,0,1-.4.4.5.5,0,0,1-.5-.3,1.7,1.7,0,0,1,0-1.4c.1-.2.3-.2.5-.2l.4.4Z"/><path class="cls-1" d="M9.2,26.2H9.1c-.1-.1-.3.1-.4-.1a.5.5,0,0,1,.3-.5c.2-.1.3-.1.5.1h0c.1.1.2.3.1.4S9.3,26.1,9.2,26.2Z"/><path class="cls-1" d="M12.3,17.1c.3-.9.6-1.6.8-2.4s.2-.3-.2-.3H9.5c-.3,0-.4-.1-.4-.4V2.9c0-.3.1-.4.3-.4q5.5.2,11.1,0c.3,0,.4.1.4.4v11c0,.4-.1.5-.5.5H17.3l-.8.2-3.7,2.2Zm7.3-9.5c0-.2,0-.2-.2-.2H16.3c-.2,0-.3,0-.3.3v3.8c0,.2.1.2.2.2h3.2c.2,0,.2,0,.2-.2V7.6Zm-.7-1.4c.7,0,.7,0,.7-.7s0-.3-.2-.3H11c-.7,0-.6,0-.7.8s.1.2.3.2h8.3ZM14.8,8c.3.1.3-.1.3-.3s0-.3-.3-.3h-4c-.5,0-.4-.1-.4.4s.1.2.3.2h4.1Zm0,1.2c.3,0,.3-.1.3-.3s0-.3-.3-.3H10.6c-.3,0-.2.2-.2.4s0,.2.3.2h4.1Zm-4.2.6c-.3,0-.2.2-.2.4s-.1.3.2.3h4.2c.3,0,.3-.2.3-.4s0-.3-.3-.3H10.6Zm4.3,1.8c.2,0,.2-.1.2-.3s0-.3-.2-.3H10.6c-.3,0-.2.2-.2.3s-.1.3.2.3h4.3Z"/></svg>