<svg id="Layer_1" data-name="Layer 1" xmlns="http://www.w3.org/2000/svg" viewBox="0 0 72 72"><defs><style>.cls-1{fill:#002e5d;}</style></defs><title>LDS_Newsroom72</title><path class="cls-1" d="M72,.1V71.4c0,.5-.1.6-.6.6H.1a2.2,2.2,0,0,1-.1-.8V.9C0-.1-.1,0,.9,0H72Zm-1.1,43c.6,0,.8-.2.8-.9V1.2c0-.7-.2-.8-.8-.8H1.2C.5.4.4.5.4,1.2v41c0,.7.1.9.8.9H70.9Zm-52,11.8a.6.6,0,0,1-.5-.7c-.1-1.5-.1-3-.1-4.4a.5.5,0,0,1,.3.4L20.4,55c.1.1.1.4.3.4s.3-.2.3-.4l1.2-2.8a12.8,12.8,0,0,1,.9-2.2,1.2,1.2,0,0,1,.1.8,27.2,27.2,0,0,1,.1,2.8c0,.8.1,1.5-1,1.8h2.9c-.4-.4-.9-.6-.8-1.3v-4c0-.6,0-1.1.7-1.3s.3-.1.2-.3-.2-.1-.3-.1h-.6c-1.3,0-1.3,0-1.8,1.2s-1,2.5-1.5,4l-1.3-3.4c-.8-2-.8-2-2.8-1.8-.1,0-.3-.1-.3.1s.1.3.2.3.9.8.9,1.5a24.3,24.3,0,0,0,0,2.7c0,.9,0,1.9-1.1,2.4h2.7C19.3,55,19.1,55,18.9,54.9Zm17.4-1.8c0,.8.3,1.7-.8,2.3h2.4c-.9-1.1-.6-2.3-.5-3.5s.5-.8,1.1-.8a.7.7,0,0,1,.7.7c0,1.2.3,2.4-.3,3.6a13.4,13.4,0,0,0,2-.1c-1-1.1-.7-2.4-.5-3.7s.7-.5,1.1-.5.7.2.7.5.6,2.6-.4,3.8a7.9,7.9,0,0,0,2.2-.1c-.6-.2-.7-.7-.7-1.3s-.1-1.5-.1-2.3a1.2,1.2,0,0,0-.9-1.2c-.6-.3-1.1.1-1.6.4s-.4.3-.6.1a1.6,1.6,0,0,0-2.4-.1c-.1,0-.3.2-.4,0s-1.1-.3-1.9-.1C36.7,51.3,36.3,52.3,36.3,53.1ZM53.5,64.8a19.2,19.2,0,0,1,0-2.4,1,1,0,0,1,1.1-.9c.6.1.8.4.8,1v2a1.4,1.4,0,0,1-.5,1.3h2.3c-.4-.4-.8-.6-.8-1V62.4a1.2,1.2,0,0,1,1.2-.9c.6,0,.8.4.8,1v1.8a1.4,1.4,0,0,1-.5,1.5h2.3a1.5,1.5,0,0,1-.8-1.6V62.1c-.1-.9-.5-1.3-1.4-1.2l-1.1.3a.7.7,0,0,1-.9,0c-.5-.5-1-.4-1.6-.3s-.8,1-1.1,0h-.1a3,3,0,0,0-1.6.3c.4.2.9.4.8.9s.5,2.5-.4,3.7h2.2C53.9,65.4,53.5,65.3,53.5,64.8ZM17.8,60.2v3.6l-.7-.8-2.6-3.4a1.9,1.9,0,0,0-2.7-.5c.8.3,1.3.7,1.3,1.6v3.1c0,.7,0,1.5-1,1.7s-.2.1-.2.3h2.9c0-.3-.2-.3-.3-.4s-.8-.7-.8-1.3-.1-1.5-.1-2.2V60.5a2.2,2.2,0,0,1,.7.6l3,4.1a1.3,1.3,0,0,0,.9.7,40.1,40.1,0,0,0,.1-4.9c0-.9.1-1.7,1.1-1.9a3.9,3.9,0,0,0-3,0C17.2,59.3,17.7,59.5,17.8,60.2Zm8.4,5c.1.2.2.7.5.7s.4-.4.5-.7.7-1.7,1-2.7c.4,1.1.8,2,1.1,3s.2.4.5.4a.4.4,0,0,0,.3-.4c.6-1.5.7-3.2,2.1-4.4H30.3a3,3,0,0,1-.4,3.1L29,61.8c-.1-.3-.2-.7-.6-.6s-.4.4-.5.6L27,64.4c-.3-.7-.4-1.3-.6-1.9s-.4-1,.2-1.4H24.4A12.5,12.5,0,0,1,26.2,65.2ZM51.7,52c.1-.6.6-.8,1.1-.9a.6.6,0,0,1,.8.6c.1,1.2.5,2.5-.2,3.6h2.1a1.3,1.3,0,0,1-.8-1.4V52c0-1.5-1-2-2.3-1.4s-.6.8-.8,0-.2-.1-.3-.1l-1.4.2c1.1.5.8,1.5.8,2.3s.3,1.6-.5,2.4h2.2C51.3,54.3,51.6,53.1,51.7,52ZM28.4,55.7A2.5,2.5,0,0,0,30.8,53a2.4,2.4,0,0,0-2.4-2.6,2.5,2.5,0,0,0-2.5,2.7A2.5,2.5,0,0,0,28.4,55.7Zm18.5-5.3A2.5,2.5,0,0,0,44.5,53a2.5,2.5,0,1,0,2.4-2.6Zm1.8,10.5a2.2,2.2,0,0,0-2.4,2.5c0,1.6.9,2.7,2.3,2.7a2.5,2.5,0,0,0,2.5-2.7A2.2,2.2,0,0,0,48.7,60.9Zm-5.5,0a2.3,2.3,0,0,0-2.4,2.5,2.4,2.4,0,1,0,4.8,0A2.2,2.2,0,0,0,43.2,60.9ZM23.4,65a1.4,1.4,0,0,1-1.7.2c-.6-.3-.7-1-.8-1.7s.2-.2.3-.2h2.4c.4,0,.5-.2.5-.6a1.9,1.9,0,0,0-1.7-1.9A2.4,2.4,0,0,0,20,62.3a4.5,4.5,0,0,0-.1,2A2.2,2.2,0,0,0,22,66a1.9,1.9,0,0,0,2.1-1.3A1.5,1.5,0,0,0,23.4,65Zm10.8-4.1h-.3A1.4,1.4,0,0,0,32.4,62a1.3,1.3,0,0,0,1,1.6,7.5,7.5,0,0,1,1.3.6.7.7,0,0,1,.3,1c-.3.4-.6.6-1,.4a7.1,7.1,0,0,1-.9-.7c-.3-.3-.4-.6-.8-.8a3.1,3.1,0,0,1-.1,1c0,.5.1.7.7.8h1.5a1.4,1.4,0,0,0,1.5-1.1,1.4,1.4,0,0,0-.9-1.7l-1.1-.4c-.3-.1-.7-.2-.7-.7a.5.5,0,0,1,.4-.6.9.9,0,0,1,1,.1l1,.8C35.7,60.9,35.7,60.9,34.2,60.9Zm4.2,4V62.3c.1-.7.5-.8,1-.4s.3.5.6.3a1,1,0,0,0,.4-.9.6.6,0,0,0-.8-.4c-.3,0-.5.2-.8.3s-.2.2-.4,0-1.2-.1-1.9,0a1.4,1.4,0,0,1,.8,1.9v.7c.2.7.3,1.5-.7,1.9a3.6,3.6,0,0,0,2.5,0C38.8,65.5,38.4,65.4,38.4,64.9Zm-5-10a5,5,0,0,1,0-3.4c.1-.2.5-.8.7,0s.4.5.7.4a.8.8,0,0,0,.4-.7c-.1-.6-.4-.8-.9-.7s-.9.6-1.5,0-1,.1-1.7.3a1.2,1.2,0,0,1,1,1.5v1.6a1.7,1.7,0,0,1-.5,1.5h2.3A1.2,1.2,0,0,1,33.4,54.9Z"/><path class="cls-1" d="M29.8,53.2a6.5,6.5,0,0,1-.4,1.3,1,1,0,0,1-1.2.7c-.6,0-.9-.4-1-1a8.8,8.8,0,0,1,0-2.3,1.1,1.1,0,0,1,.9-1,1,1,0,0,1,1.3.6A4.3,4.3,0,0,1,29.8,53.2Z"/><path class="cls-1" d="M48.3,53a4,4,0,0,1-.3,1.5,1,1,0,0,1-1.1.7,1.1,1.1,0,0,1-1.1-.8,4.2,4.2,0,0,1,0-2.7,1.1,1.1,0,0,1,1.2-.8,1,1,0,0,1,1.1.7A6.8,6.8,0,0,1,48.3,53Z"/><path class="cls-1" d="M50.1,63.2a3.2,3.2,0,0,1-.4,1.8,1.1,1.1,0,0,1-2,0,3.3,3.3,0,0,1,0-3.2.9.9,0,0,1,1.4-.4A1.9,1.9,0,0,1,50.1,63.2Z"/><path class="cls-1" d="M44.5,63.5a3,3,0,0,1-.2,1.3,1,1,0,0,1-.9.8.9.9,0,0,1-1.1-.5,3.4,3.4,0,0,1,0-3.4,1.1,1.1,0,0,1,1.2-.4,1,1,0,0,1,.8.8A3.2,3.2,0,0,1,44.5,63.5Z"/><path class="cls-1" d="M22.1,62.9h-.3c-.3-.2-.8.2-.8-.3a1,1,0,0,1,.6-1.2.9.9,0,0,1,1.2.2h0a1.7,1.7,0,0,1,.3,1.1C22.9,63.1,22.4,62.8,22.1,62.9Z"/><path class="cls-1" d="M29.5,41c.7-2,1.4-3.8,2-5.7s.3-.8-.5-.8H22.7a.8.8,0,0,1-.9-.9c.1-8.9.1-17.9.1-26.8,0-.6.2-.8.8-.8H49.3c.6,0,.8.2.8.9v9c0,4.9,0,9.9.1,14.9v2.5c0,1-.2,1.2-1.1,1.2H41.4a4.1,4.1,0,0,0-1.8.5l-8.9,5.2ZM47.1,18.3c0-.4-.1-.6-.6-.6H39.2c-.5,0-.8.1-.8.7v9.2c0,.4.1.6.6.6h7.6c.4,0,.5-.1.5-.5V18.3ZM45.4,15c1.7,0,1.7,0,1.7-1.7s-.1-.7-.6-.7h-20c-1.7,0-1.7,0-1.7,1.7s.2.7.7.7H45.4Zm-9.9,4.3c.8,0,.7-.4.7-.8s.1-.8-.7-.8H25.9c-1.1,0-.9-.2-1,1s.2.6.7.6h4.9C32.2,19.3,33.9,19.2,35.5,19.3Zm.1,2.8c.6.1.6-.2.6-.7s.1-.7-.6-.7c-3.3,0-6.7.1-10.1,0-.7,0-.5.4-.6.8s.1.7.7.6h10ZM25.4,23.6c-.6,0-.5.4-.5.8s-.1.7.6.7H35.6c.7,0,.5-.4.6-.8s0-.7-.6-.7H25.4Zm10.3,4.3c.6,0,.5-.4.5-.7s.1-.7-.5-.7H25.4c-.6,0-.5.4-.5.7s-.1.7.5.7H35.7Z"/></svg>