<svg id="Layer_1" data-name="Layer 1" xmlns="http://www.w3.org/2000/svg" viewBox="0 0 72 72"><defs><style>.cls-1{fill:#002e5d;}</style></defs><title>LDS_World_News72</title><path class="cls-1" d="M38.7,71.9H33.4a37.5,37.5,0,0,1-5.7-.9A35.9,35.9,0,0,1,.5,41.7c-.3-1.5-.3-3-.5-4.4V34.7a51.7,51.7,0,0,1,.7-5.5A36.1,36.1,0,0,1,28.4.8l5-.7h5.3l3.6.5A36.1,36.1,0,0,1,71.4,29.2c.3,1.8.4,3.5.6,5.3v3c-.2,1.5-.3,3-.5,4.4A36.1,36.1,0,0,1,44.4,71,56.2,56.2,0,0,1,38.7,71.9ZM16.6,12.3h.7a11.3,11.3,0,0,1,4.9,2.4,3.1,3.1,0,0,0,4.1.3l1.5-.8a3.4,3.4,0,0,1,3.5-.2,2.9,2.9,0,0,0,1.6.4c.5.1.8,0,1-.6a1.5,1.5,0,0,1,1.8-.7,1.1,1.1,0,0,1,1,1.3,1.7,1.7,0,0,1-1.1,1.8,33.6,33.6,0,0,0-4.2,2.2c-.7.5-.7.6.1,1.1a5.7,5.7,0,0,1,2,1.8c.4.7.5.8,1.2.2a11.4,11.4,0,0,0,2.3-3,1.5,1.5,0,0,1,2.6-.3,1.1,1.1,0,0,0,1.1.4c.3-.1.5.1.5.4s.8,1.6,1.2,2.4.4,2.4-1.6,2.5c-.4,0-.7-.1-.4-.7s.1-.5-.3-.4-1-.1-1.2.3.3.6.5.9h0c.3.4.3.7-.2.8l-2,.7a15.1,15.1,0,0,0-2.9,1.3c-1.9,1.2-2.6,3.3-3.4,5.3-.1.3.1.8-.3.9a1.4,1.4,0,0,1-1.1-.3l-1.6-.8-1.6-.6a2.4,2.4,0,0,0-2.7,1.3,6,6,0,0,0-.6,1.9.8.8,0,0,0,1,1l1.7-.5c1.2-.3,1.2-.3,1.1.9s.6,2.7,2.5,3a24.4,24.4,0,0,0,3.8.1,8.6,8.6,0,0,1,3.9.9,27.2,27.2,0,0,1,4.2,2.7,30.6,30.6,0,0,0,4.7,3.3,2.1,2.1,0,0,1,1.2,2.7,11.7,11.7,0,0,1-1.6,3.6c-1.6,2.5-3.6,4.7-5.4,7a20.5,20.5,0,0,0-2,3.1,4.7,4.7,0,0,0-.5,2.6c.2,1,.6,1.4,1.7,1.3H40A30.6,30.6,0,0,0,59.2,56a29.5,29.5,0,0,0,6.4-12.1c.2-.5,0-.8-.5-1a16,16,0,0,1-3-1.3,16.6,16.6,0,0,1-7.3-7.5,11.4,11.4,0,0,1-1.1-4c-.3-3.4,1.3-5.8,4.2-7.4a19.2,19.2,0,0,1,4.2-1.6c.5-.1.5-.3.3-.7A36.1,36.1,0,0,0,59.1,16a1,1,0,0,0-1.1-.4,5.8,5.8,0,0,0-3.4,2.1,7.8,7.8,0,0,1-3.2,2.5c-2.3.8-4.3-.7-3.9-3.1.1-.5.1-1,.2-1.5a1.2,1.2,0,0,0-.6-1.5,9,9,0,0,1-1.9-1.5,2.2,2.2,0,0,1-.7-2.4,18.6,18.6,0,0,1,1-2.5c.3-.5.2-.7-.3-.9a30.2,30.2,0,0,0-8.9-1.5A31.2,31.2,0,0,0,24.9,7.4,31.8,31.8,0,0,0,16.6,12.3Zm1.6,21.3c.1.9-.1,1.1-.9.9a1.7,1.7,0,0,1-1.1-1.4,6.7,6.7,0,0,1-.2-2.8A63.8,63.8,0,0,1,17.2,24a2.8,2.8,0,0,0-.1-1.3,7.6,7.6,0,0,0-5.2-4.4,1.1,1.1,0,0,0-1.3.5C6,25.9,4.3,33.5,5.9,41.7c2,10.2,7.9,17.6,17.2,22.1a29.9,29.9,0,0,0,12.1,2.9c.2,0,.4.1.5-.1s-.1-.3-.1-.4a10.7,10.7,0,0,1-2-4.8c-.2-1.2-.4-2.5-.5-3.7A11.6,11.6,0,0,0,31,52a14.4,14.4,0,0,1-3-6.5,2.8,2.8,0,0,1,.3-2.2c1-1.8,1-1.8-.6-3l-.5-.2a13.9,13.9,0,0,0-4.6-2.2,4.6,4.6,0,0,1-2.7-2C19.4,35.1,18.8,34.4,18.2,33.6Z"/></svg>