<svg id="Layer_1" data-name="Layer 1" xmlns="http://www.w3.org/2000/svg" viewBox="0 0 30 30"><defs><style>.cls-1{fill:#002e5d;}</style></defs><title>LDS_Tech_News30</title><path class="cls-1" d="M19.3,0c.3.1.5.1.7.3a2.1,2.1,0,0,1,1.2,2.2c0,.3,0,.4.2.6l4.3,4.1a7.4,7.4,0,0,1,2,4.5,6.9,6.9,0,0,1-.4,3.2,4.5,4.5,0,0,1-1.6,2.2l-.3.2a4.3,4.3,0,0,1,.1-.5,5.3,5.3,0,0,0-.7-3.5,6.1,6.1,0,0,0-1.2-1.6c-.1-.2-.2-.2-.4-.1L16.9,18c-.2.1-.2.2-.2.4a2.5,2.5,0,0,1-.6,2L7.2,29.3a3.3,3.3,0,0,1-1.3.7H5a3.9,3.9,0,0,1-1.6-1,.8.8,0,0,0-.4-.4,2.4,2.4,0,0,1,0-3.5l8.9-8.8a2.1,2.1,0,0,1,2-.7.6.6,0,0,0,.5-.2c2.1-2.1,4.1-4.2,6.2-6.2.2-.2.2-.3,0-.5L18.4,6.6a1.1,1.1,0,0,0-1.2-.5,2.2,2.2,0,0,1-2.1-1.4,2.3,2.3,0,0,1,.5-2.4L16.9,1a2.9,2.9,0,0,1,1.6-1Z"/><path class="cls-1" d="M7.4,0,8.7.2a7,7,0,0,1,5.2,6.7,5.9,5.9,0,0,1-.4,2.3c-.1.2,0,.3.1.5L15.1,11c.2.2.2.3,0,.5l-3.6,3.6a.2.2,0,0,1-.4,0L9.7,13.6c-.2-.2-.3-.2-.5-.1A7,7,0,0,1,.1,8.4c0-.3-.1-.6-.1-.8V6.4c.1-.3.1-.6.2-.9s0-.3.1-.3.2.1.3.2L4.4,9.3a2.3,2.3,0,0,0,3.4,0L9.2,7.8a2.2,2.2,0,0,0,0-3.4L5.3.5C5.1.3,5.1.3,5.4.2L6.5,0Z"/><path class="cls-1" d="M25.8,30a3.8,3.8,0,0,1-2.2-1.5L20.3,25,17,21.4c-.1-.1-.1-.2,0-.4l4-4c.3-.2.4-.1.5.1a20.9,20.9,0,0,1,2.2,2L29,24a3,3,0,0,1,1,1.7v.6A3,3,0,0,1,29,28l-.9.9A2.9,2.9,0,0,1,26.3,30Zm-.4-3.5a1.1,1.1,0,0,0,2.2,0,1.1,1.1,0,0,0-2.2,0Z"/></svg>