<svg id="Layer_1" data-name="Layer 1" xmlns="http://www.w3.org/2000/svg" viewBox="0 0 30 30"><defs><style>.cls-1{fill:#002e5d;}</style></defs><title>LDS_Daily_Messages30</title><path class="cls-1" d="M27.9,10.2V24.1a2.5,2.5,0,0,1-2.5,1.7H19.8c-.5,0-.5.1-.5.6V30H15V26.3c0-.6,0-.6-.6-.6H4.6a2.5,2.5,0,0,1-2.5-1.7V10.2A2.5,2.5,0,0,1,4.6,8.5h6.5c.6,0,.6,0,.6-.6V0h9.7a.5.5,0,0,1-.2.4,21.3,21.3,0,0,1-1.6,2.5.6.6,0,0,0,0,.8L21.2,6a.5.5,0,0,1,.2.4H14.5c-.5,0-.5,0-.5.5V8c0,.5,0,.5.6.5H25.4A2.5,2.5,0,0,1,27.9,10.2ZM16,23.5h9.2c.5,0,.5,0,.5-.5V11.2c0-.3-.1-.5-.5-.5H14.5c-.4,0-.5.2-.5.6v3.5a.9.9,0,0,0,.3.7,2.3,2.3,0,0,1,.6,2.5,2.2,2.2,0,0,1-2.1,1.3,2.2,2.2,0,0,1-2-1.3,2.2,2.2,0,0,1,.6-2.4,1.3,1.3,0,0,0,.3-.8V11.2c0-.4-.1-.5-.5-.5H7c-.5,0-.5,0-.5.6V23c0,.5,0,.5.5.5Z"/></svg>