<svg id="Layer_1" data-name="Layer 1" xmlns="http://www.w3.org/2000/svg" viewBox="0 0 30 30"><defs><style>.cls-1{fill:#002e5d;}</style></defs><title>LDS_World_News30</title><path class="cls-1" d="M16.1,30H13.9l-2.3-.4A15,15,0,0,1,.2,17.4c-.1-.6-.1-1.3-.2-1.9v-1a16,16,0,0,1,.3-2.3A14.9,14.9,0,0,1,11.8.4L13.9,0h2.2l1.5.2a15,15,0,0,1,12.1,12,14.6,14.6,0,0,1,.3,2.2v1.2c-.1.7-.1,1.3-.2,1.9A15.1,15.1,0,0,1,18.5,29.6ZM6.9,5.1a.1.1,0,0,1,.1.1h.2a4.7,4.7,0,0,1,2,1,1.3,1.3,0,0,0,1.8.1l.6-.3a1.6,1.6,0,0,1,1.5-.1l.6.2c.2,0,.3,0,.4-.2s.4-.4.8-.3.4.2.4.5a.6.6,0,0,1-.5.7l-1.7.9c-.3.3-.3.3,0,.5a3.1,3.1,0,0,1,.9.7c.1.4.2.4.4.1a3.8,3.8,0,0,0,1-1.2c.3-.5.7-.5,1.1-.1s.2.2.4.1.2.1.3.2l.5,1c.3.7.1,1-.7,1s-.3,0-.2-.2.1-.2-.1-.2h-.5c-.1.1.1.2.2.4h0c.2.2.1.3-.1.4l-.8.3a3.1,3.1,0,0,0-1.2.5,4,4,0,0,0-1.4,2.2c-.1.1,0,.3-.2.4h-.4l-.7-.4-.6-.2a1,1,0,0,0-1.2.5,1.9,1.9,0,0,0-.2.8c-.1.3.1.5.4.4l.7-.2c.5-.1.5-.1.5.4s.2,1.1,1,1.2h1.6a2.9,2.9,0,0,1,1.6.4l1.7,1.1,2,1.4c.5.2.6.5.5,1.1a5.1,5.1,0,0,1-.7,1.5,27.7,27.7,0,0,1-2.2,2.9,5.7,5.7,0,0,0-.8,1.3,1.4,1.4,0,0,0-.2,1.1c0,.4.2.5.7.5h.3a12.9,12.9,0,0,0,8-4.4,12.6,12.6,0,0,0,2.6-5c.1-.2.1-.3-.2-.4l-1.2-.6a7.1,7.1,0,0,1-3.1-3.1,4.7,4.7,0,0,1-.4-1.7,2.9,2.9,0,0,1,1.7-3,6.7,6.7,0,0,1,1.8-.7c.2,0,.2-.1.1-.3a8.6,8.6,0,0,0-1.4-1.8c-.1-.2-.2-.2-.5-.2a2.4,2.4,0,0,0-1.4.9,3.2,3.2,0,0,1-1.3,1,1.1,1.1,0,0,1-1.6-1.3,1.3,1.3,0,0,1,.1-.6.4.4,0,0,0-.3-.6l-.8-.6a.9.9,0,0,1-.2-1.1,4.2,4.2,0,0,1,.4-1c.1-.2.1-.3-.2-.4a11.5,11.5,0,0,0-3.7-.6,12.7,12.7,0,0,0-4.7.9A12.2,12.2,0,0,0,6.9,5.1ZM7.6,14c0,.4-.1.5-.4.4s-.4-.3-.5-.6a2.4,2.4,0,0,1,0-1.2c.1-.9.3-1.7.4-2.6a.6.6,0,0,0,0-.6A3.2,3.2,0,0,0,5,7.6c-.3,0-.4,0-.6.3a12.3,12.3,0,0,0-1.9,9.5A12.7,12.7,0,0,0,14.7,27.8h.1a5,5,0,0,1-.8-2,7.8,7.8,0,0,1-.2-1.6,5,5,0,0,0-.9-2.3,5.5,5.5,0,0,1-1.2-2.8,1,1,0,0,1,.1-.9c.4-.7.4-.7-.3-1.2h-.1a7.2,7.2,0,0,0-2-.9A1.9,1.9,0,0,1,8.3,15C8.1,14.6,7.8,14.4,7.6,14Z"/></svg>