<svg id="Layer_1" data-name="Layer 1" xmlns="http://www.w3.org/2000/svg" viewBox="0 0 72 72"><defs><style>.cls-1{fill:#002e5d;}</style></defs><title>LDS_Daily_Messages72</title><path class="cls-1" d="M66.9,24.4V57.9a5.6,5.6,0,0,1-6,3.9H47.6c-1.2,0-1.2,0-1.3,1.3V72H36c0-2.9,0-5.9-.1-8.8s0-1.4-1.3-1.4H11.1c-3,0-4.9-1.1-6-3.9V24.4a5.6,5.6,0,0,1,6-3.9c5.1.1,10.3,0,15.5,0,1.6,0,1.6,0,1.6-1.6V0H51.4a1.9,1.9,0,0,1-.5,1C49.6,3,48.4,5,47,7a1.5,1.5,0,0,0,.1,1.9l3.8,5.5c.2.3.5.5.3.9s-.6.2-.9.2H34.8c-1.2,0-1.2,0-1.2,1.2a9.6,9.6,0,0,0,0,2.4c0,1.4,0,1.4,1.3,1.4,8.7,0,17.4.1,26,0C63.9,20.5,65.8,21.6,66.9,24.4ZM38.5,56.5H60.4c1.2,0,1.3,0,1.3-1.2,0-9.4-.1-18.9,0-28.4,0-.8-.3-1.1-1.2-1.1H34.7c-.9,0-1.2.3-1.2,1.2.1,2.9.1,5.7,0,8.6a2.1,2.1,0,0,0,.8,1.6,5.1,5.1,0,0,1,1.4,5.9,4.9,4.9,0,0,1-4.9,3.2A5,5,0,0,1,26,43.1a5.3,5.3,0,0,1,1.3-5.8,2.1,2.1,0,0,0,.9-1.8c-.1-2.9-.1-5.7,0-8.6,0-.9-.3-1.1-1.2-1.1H16.8c-1.3,0-1.3,0-1.3,1.3v28c0,1.4,0,1.4,1.4,1.4Z"/></svg>