<svg id="Layer_1" data-name="Layer 1" xmlns="http://www.w3.org/2000/svg" viewBox="0 0 72 72"><defs><style>.cls-1{fill:#002e5d;}</style></defs><title>Learning_Suite72</title><path class="cls-1" d="M72,26.6v.5l-.7.9-7.6,7.1c-.8.7-1.1.8-2.1.2l-3.1-1.6a6.8,6.8,0,0,0-6.9.1c-1.2.8-1.3,1.4-.1,2.3a26.7,26.7,0,0,0,7.1,3.2,27.9,27.9,0,0,1,6.8,3.1,12.2,12.2,0,0,1,5.5,6.9,16.7,16.7,0,0,1,.4,5.9A13.5,13.5,0,0,1,64.5,66a25.7,25.7,0,0,1-13,3.6,9.7,9.7,0,0,0-2.4.1H17.5c-1.1-.2-2.4-.1-3.6-.3-4.3-.6-8.1-2.3-10.8-6a17.9,17.9,0,0,1-3-9.8V45.2a3.4,3.4,0,0,0-.1-1V16a4.5,4.5,0,0,0,.1-1.1V3.8c0-.7.1-1.2.7-1.5H15.4a2.3,2.3,0,0,1,.6,2V52.8c0,2,.1,2.1,2.1,2.1H53.9c.6,0,1.1-.1,1.3-.8s-.3-1-.9-1.2L52.2,52c-3.4-1.5-6.9-2.8-10.3-4.5a12.1,12.1,0,0,1-5.7-5.7,14.8,14.8,0,0,1-1-7.8c.5-4.4,2.3-8,6.2-10.3a25,25,0,0,1,16.7-3.5,29.3,29.3,0,0,1,13,5.4A2.8,2.8,0,0,1,72,26.6Z"/></svg>