<svg id="Layer_1" data-name="Layer 1" xmlns="http://www.w3.org/2000/svg" viewBox="0 0 30 30"><defs><style>.cls-1{fill:#002e5d;}</style></defs><title>Learning_Suite30</title><path class="cls-1" d="M30,11.1v.2l-.3.4-3.2,2.9c-.3.3-.4.3-.8.1L24.4,14a3,3,0,0,0-2.9.1q-.7.5,0,.9a11.1,11.1,0,0,0,2.9,1.4,9,9,0,0,1,2.8,1.3,5.3,5.3,0,0,1,2.3,2.8,5.3,5.3,0,0,1,.2,2.5,5.5,5.5,0,0,1-2.8,4.5A10.5,10.5,0,0,1,21.5,29H5.8a5.9,5.9,0,0,1-4.5-2.5A6.6,6.6,0,0,1,.1,22.3C0,21.2,0,20,0,18.8s.1-.3,0-.4V1.6A.6.6,0,0,1,.3,1H6.4a.8.8,0,0,1,.3.8V22c0,.9,0,.9.8.9h15a.5.5,0,1,0,.1-.9l-.8-.3-4.3-1.9a4.7,4.7,0,0,1-2.4-2.4,5,5,0,0,1-.4-3.2,5.1,5.1,0,0,1,2.5-4.3,10.8,10.8,0,0,1,7-1.5,11.8,11.8,0,0,1,5.4,2.3Z"/></svg>