<svg id="Layer_1" data-name="Layer 1" xmlns="http://www.w3.org/2000/svg" viewBox="0 0 30 30"><defs><style>.cls-1{fill:#002e5d;}</style></defs><title>Legal30</title><path class="cls-1" d="M29.9,17,25.4,8.9h.9a.9.9,0,0,0,.9-.9,1,1,0,0,0-.9-1H17.8a.9.9,0,0,0-.9-.9h-.8V4.9a2.2,2.2,0,0,0,.9-1.6,1.9,1.9,0,1,0-3.8,0A2.2,2.2,0,0,0,14,4.9V6.1h-.8a.9.9,0,0,0-.9.9H3.8a1,1,0,0,0-1,1,.9.9,0,0,0,1,.9h.8L.1,17a2.5,2.5,0,0,0-.1.8,3.3,3.3,0,0,0,2.8,2.4H8.5A5.4,5.4,0,0,0,11.2,18a1.2,1.2,0,0,0-.1-1L6.6,8.9h5.6a.8.8,0,0,0,.9.8h.7l-.7,16H11.2a.9.9,0,0,0-.9.9H9.6a1.2,1.2,0,0,0-1.2,1.2v.3a.4.4,0,0,0,.4.4H21.2a.4.4,0,0,0,.4-.4v-.3a1.2,1.2,0,0,0-1.2-1.2h-.7a.9.9,0,0,0-.9-.9H16.9l-.7-16h.7a.8.8,0,0,0,.9-.8h5.6L18.9,17a.8.8,0,0,0-.1.8,3.1,3.1,0,0,0,2.7,2.4h5.8A5.2,5.2,0,0,0,29.9,18,1.7,1.7,0,0,0,29.9,17Zm-28.8.3L5.6,9.2l4.6,8.1Zm18.8,0,4.5-8.1,4.5,8.1Z"/></svg>