<svg id="Layer_1" data-name="Layer 1" xmlns="http://www.w3.org/2000/svg" viewBox="0 0 72 72"><defs><style>.cls-1{fill:#002e5d;}</style></defs><title>Legal72</title><path class="cls-1" d="M71.7,40.8,60.9,21.4H63a2.3,2.3,0,1,0,0-4.5H42.8v-.2a2.2,2.2,0,0,0-2.2-2.1H38.5V11.7a4.4,4.4,0,0,0,2.1-3.8,4.5,4.5,0,1,0-9,0,4.4,4.4,0,0,0,2.1,3.8v2.9H31.4a2.1,2.1,0,0,0-2.1,2.1v.2H9a2.2,2.2,0,0,0-2.2,2.2A2.2,2.2,0,0,0,9,21.4h2.1L.3,40.9a2.5,2.5,0,0,0-.2,1.9,7.7,7.7,0,0,0,6.6,5.6H20.5c.5,0,5-2.2,6.3-5.2a2.9,2.9,0,0,0-.1-2.4L15.9,21.4H29.3a2.1,2.1,0,0,0,2.1,2.1h1.7L31.5,61.9H26.9A2.1,2.1,0,0,0,24.8,64H23a2.8,2.8,0,0,0-2.7,2.8v.8a.9.9,0,0,0,.9.9H50.8a1,1,0,0,0,1-.9v-.8A2.9,2.9,0,0,0,49,64.1H47.3a2.1,2.1,0,0,0-2.2-2.1H40.5L38.9,23.6h1.7a2.1,2.1,0,0,0,2.2-2.1H56.1L45.3,40.9a3.2,3.2,0,0,0-.3,1.9c.8,3.2,4.2,5.6,6.6,5.6H65.4c.6,0,5.1-2.2,6.4-5.2A2.9,2.9,0,0,0,71.7,40.8Zm-69,.8L13.5,22.2,24.4,41.6Zm45,0L58.5,22.2,69.4,41.6Z"/></svg>