<svg id="Layer_1" data-name="Layer 1" xmlns="http://www.w3.org/2000/svg" viewBox="0 0 30 30"><defs><style>.cls-1{fill:#002e5d;}</style></defs><title>Library_Directory30</title><path class="cls-1" d="M28.8,7.7V13c-.2.7-.7.9-1.4.9H2.6c-.7,0-1.2-.2-1.4-.9V7.7c.2-.6.7-.8,1.4-.8H27.4C28.1,6.9,28.6,7.1,28.8,7.7ZM3.5,12.6a1.1,1.1,0,0,0,1.1-1.1,1,1,0,0,0-1.1-1,1,1,0,0,0-1.1,1A1.1,1.1,0,0,0,3.5,12.6Z"/><path class="cls-1" d="M28.8,23.8v6c0,.1,0,.2-.2.2H1.4c-.2,0-.2-.1-.2-.2v-6A1.3,1.3,0,0,1,2.6,23H27.4A1.3,1.3,0,0,1,28.8,23.8Zm-25.3,5a1.1,1.1,0,1,0-1.1-1.1A1.1,1.1,0,0,0,3.5,28.8Z"/><path class="cls-1" d="M1.2,21.1V15.8A1.2,1.2,0,0,1,2.5,15h25a1.2,1.2,0,0,1,1.3.8v5.3a1.3,1.3,0,0,1-1.3.9H2.5A1.3,1.3,0,0,1,1.2,21.1Zm2.3-2.6a1.1,1.1,0,1,0,1.1,1.1A1.1,1.1,0,0,0,3.5,18.5Z"/><path class="cls-1" d="M28.8,5.7H1.2L6.9,0H23.1Z"/></svg>