<svg id="Layer_1" data-name="Layer 1" xmlns="http://www.w3.org/2000/svg" viewBox="0 0 72 72"><defs><style>.cls-1{fill:#002e5d;}</style></defs><title>Library_Events72</title><path class="cls-1" d="M0,50.6v-2a6.5,6.5,0,0,1,1.7-3.3c2.6-2.6,5.5-3.9,9.2-3.3.2,0,.5.2.6,0s-.1-.5-.2-.6L4.2,30c-.6-1-.5-1.7.6-2.2l13.6-7.3c1.3-.7,2.3-.2,2.3,1.4s1.6,4.2,3.8,5.5a3.7,3.7,0,0,0,1.5.3,8.8,8.8,0,0,0,6.9-3.3,3,3,0,0,0,.8-2.3,6.4,6.4,0,0,0-3.4-5.5c-.5-.3-.9-.6-.9-1.2a1.4,1.4,0,0,1,.9-1.3L44.5,6.5h.7a2.5,2.5,0,0,1,1.2,1.1c2.3,3.8,4.7,7.6,7.1,11.4,0,.2.1.4.3.4s.2-.2.3-.4c1.2-3.4,3.9-5,7.2-5.8a7.7,7.7,0,0,1,7.8,2.6A13.1,13.1,0,0,1,72,21.4v2a9.9,9.9,0,0,1-1.2,2.8,11.9,11.9,0,0,1-5,3.5A9.7,9.7,0,0,1,61,30a.4.4,0,0,0-.5,0c-.1.2,0,.3.1.5s.1.2.2.3l7,11.3a1.3,1.3,0,0,1-.5,2.1l-.3.2-9.1,4.8L52.7,52c-.9.5-1.8.3-2.1-.5a2.5,2.5,0,0,1-.1-1.2,6.5,6.5,0,0,0-3.6-6.7,4,4,0,0,0-1.5-.3,9,9,0,0,0-6.8,3,3.3,3.3,0,0,0-.9,2.7,6.1,6.1,0,0,0,3.7,5.5l1.2.5a1.2,1.2,0,0,1,.2,2.3l-.4.2-14.9,8h-.7a2.5,2.5,0,0,1-1.2-1.1L18.6,53c-.1-.1-.2-.4-.4-.4s-.2.3-.3.4a8.8,8.8,0,0,1-5.3,5.2c-3.7,1.5-6.9.9-9.4-1.6A12.5,12.5,0,0,1,0,50.6Z"/></svg>