<svg id="Layer_1" data-name="Layer 1" xmlns="http://www.w3.org/2000/svg" viewBox="0 0 72 72"><defs><style>.cls-1{fill:#002e5d;}</style></defs><title>Library_Directory72</title><path class="cls-1" d="M69.2,18.5V31.3a3.2,3.2,0,0,1-3.3,2.1H6.1a3.2,3.2,0,0,1-3.3-2.1V18.5a3.3,3.3,0,0,1,3.4-2H65.8A3.3,3.3,0,0,1,69.2,18.5ZM8.4,30.3A2.6,2.6,0,0,0,11,27.7a2.5,2.5,0,0,0-2.6-2.6,2.6,2.6,0,0,0-2.7,2.6A2.7,2.7,0,0,0,8.4,30.3Z"/><path class="cls-1" d="M69.2,57.2V71.4c0,.5,0,.6-.5.6H3.3c-.5,0-.5-.1-.5-.6V57.2a3.3,3.3,0,0,1,3.4-2H65.8A3.3,3.3,0,0,1,69.2,57.2ZM8.3,69A2.6,2.6,0,0,0,11,66.5a2.5,2.5,0,0,0-2.6-2.7,2.5,2.5,0,0,0-2.7,2.6A2.6,2.6,0,0,0,8.3,69Z"/><path class="cls-1" d="M2.8,50.6V37.9a3.2,3.2,0,0,1,3.3-2c19.9.1,39.9.1,59.8,0a3.2,3.2,0,0,1,3.3,2V50.6a3.2,3.2,0,0,1-3.3,2.1H6.1A3.2,3.2,0,0,1,2.8,50.6Zm5.5-6.2A2.6,2.6,0,0,0,5.7,47a2.7,2.7,0,0,0,2.7,2.7A2.6,2.6,0,0,0,11,47.1,2.7,2.7,0,0,0,8.3,44.4Z"/><path class="cls-1" d="M69.2,13.7V14H2.8v-.3L16.5,0h39C60,4.6,64.6,9.1,69.2,13.7Z"/></svg>