<svg id="Layer_1" data-name="Layer 1" xmlns="http://www.w3.org/2000/svg" viewBox="0 0 72 72"><defs><style>.cls-1{fill:#002e5d;}</style></defs><title>Library_Homepage72</title><path class="cls-1" d="M36.4,12.7c4.1,1.2,8,2.8,12,4.2l21.7,7.8.9.4a1.7,1.7,0,0,1,1,1.6v11c0,.4-.2.5-.6.5H50.2c-.7,0-.7,0-.7-.7V28c0-.7,0-.7-.7-.7H23.5c-.7,0-.7,0-.7.8v9.4c0,.7,0,.7-.7.7H.8c-.8,0-.7-.5-.8-.9V29.7A12.2,12.2,0,0,0,.1,27a2,2,0,0,1,1.5-2.1l2.8-1.1L23,17.1l12.5-4.4Z"/><path class="cls-1" d="M30.4,59.2H28.9c-.2,0-.3,0-.3-.1s.1-.2.2-.2.7-.5.7-1a22.6,22.6,0,0,0,.1-2.6c0-2.2,0-4.3-.1-6.5s-.1-.9-.8-1-.4,0-.4-.2.2-.2.4-.2h4.2a3.2,3.2,0,0,1,1.3.2,2.8,2.8,0,0,1,1.9,3.4,4.5,4.5,0,0,1-1.4,2.4c-.3.3-.3.4,0,.8s1.7,2.2,2.7,3.3a6.9,6.9,0,0,0,1.3,1.1.8.8,0,0,0,1.1-.3,3.7,3.7,0,0,0,.5-1.1c1.2-3.1,2.3-6.3,3.5-9.4,0-.2.1-.3.1-.4s.1-.2.3-.2l.3.2.6,1.6c1,2.7,2.1,5.3,3.1,7.9l.3.8a1.8,1.8,0,0,0,1.4,1.1c.2,0,.3,0,.3.2s-.2.2-.3.2H47.3c-.2,0-.3-.1-.2-.3s.1-.4,0-.6l-1.2-3.2a.7.7,0,0,0-.7-.5,20.8,20.8,0,0,1-2.5,0,.6.6,0,0,0-.6.4l-1,3.1c-.1.4,0,.8.5.8s.3,0,.3.2-.2.2-.3.1-2.3.2-3.5,0a2.4,2.4,0,0,1-1.8-.7c-1-1.1-1.8-2.3-2.7-3.5a1.6,1.6,0,0,0-1.5-.8c-1.2.1-1.1-.2-1.1,1.2a19.2,19.2,0,0,0,0,2.4c0,.7.2,1.1,1,1.1s.4,0,.4.2-.3.1-.4.1Zm.6-8.4h-.1v1.3c0,1.5.1,1.5,1.6,1.6a2,2,0,0,0,2.2-2c0-.1.1-.3.1-.4,0-2.1-1.1-3.5-3.4-3.2a.5.5,0,0,0-.5.5A17,17,0,0,1,31,50.8Zm13-1h-.2l-1.2,3.8c-.1.3.1.3.3.3h2.2c.3,0,.3-.2.2-.4a5.8,5.8,0,0,0-.5-1.4A22.5,22.5,0,0,0,44,49.8Z"/><path class="cls-1" d="M39.4,33.6v4c0,.5-.1.7-.6.6H33.2c-.5.1-.6-.1-.6-.5V29.4c0-.4.1-.6.6-.6h5.7c.4,0,.5.2.5.6Z"/><path class="cls-1" d="M30.8,33.5v4.1c0,.5-.1.7-.6.6H24.9c-.4.1-.6-.1-.6-.5V29.3a.5.5,0,0,1,.6-.6,46.9,46.9,0,0,0,5.3,0c.5,0,.6.2.6.7Z"/><path class="cls-1" d="M47.7,33.6v4c0,.5-.1.7-.6.7H41.8c-.5,0-.6-.2-.6-.6V29.4c0-.4.1-.6.6-.6h5.3c.5,0,.6.2.6.6Z"/><path class="cls-1" d="M53.2,59.2H51.7c-.2,0-.3,0-.3-.1s.1-.2.2-.2.7-.5.7-.9a18.5,18.5,0,0,0,.1-2.3c0-2,.1-3.9,0-5.9a4.9,4.9,0,0,1-.1-1.2c0-.5-.2-.8-.7-.8h-.3c-.1-.1-.2-.1-.2-.2s.2-.2.3-.2h4.4a4.5,4.5,0,0,1,1.6.3,2.8,2.8,0,0,1,1.5,3.3,5.3,5.3,0,0,1-1.4,2.4c-.3.2-.3.4-.1.7s1.9,2.4,2.9,3.5a3.2,3.2,0,0,0,2.2,1.2c.2,0,.4,0,.4.2s-.2.2-.4.2H60.3a3.8,3.8,0,0,1-1.8-1.5l-2.3-2.9a1.1,1.1,0,0,0-1.1-.6h-.3c-1.1,0-1-.2-1,1.1v2.4c0,.9.2,1,1,1.2s.4,0,.4.2-.2.1-.4.1H53.2Zm2.1-5.5a2,2,0,0,0,2.2-1.9c0-.2.1-.4.1-.6,0-1.9-1-3.4-3.3-3.1-.4,0-.6.2-.5.6v3.4C53.8,53.6,53.8,53.6,55.3,53.7Z"/><path class="cls-1" d="M20.2,47.5a9.7,9.7,0,0,1,2.4.1,2.4,2.4,0,0,1,1.6,3.9c-.2.2-.3.5-.6.7s-.2.4.2.6l1.1.8a3.2,3.2,0,0,1-.9,5.3,3.9,3.9,0,0,1-1.8.4H18.4c-.1,0-.3.1-.3-.1s.1-.2.2-.2.7-.5.7-.9a26.2,26.2,0,0,0,.1-2.8c0-2.1,0-4.2-.1-6.3s0-1-.9-1.1-.3,0-.3-.2.3-.1.4-.1Zm.3,8h0V57c0,1.4.1,1.6,1.6,1.7h0a2.1,2.1,0,0,0,2.4-1.8,5.3,5.3,0,0,0-.1-1.3A3.3,3.3,0,0,0,20.8,53c-.3,0-.3.2-.3.5Zm0-5.3h0v1.1c0,1.2-.2,1.2,1.1,1.2s.9,0,1.2-.4a2.8,2.8,0,0,0,.3-3A1.9,1.9,0,0,0,21,48c-.4,0-.5.2-.5.5Z"/><path class="cls-1" d="M66.5,59.2H64.9c-.1,0-.3.1-.3-.1s.2-.2.3-.2.6-.3.6-.7a20.8,20.8,0,0,0,.1-3.5,4.6,4.6,0,0,0-.5-1.4l-2.5-4.1a3,3,0,0,0-1.7-1.4c-.1-.1-.2-.1-.2-.2l.3-.2a12.2,12.2,0,0,0,2.7,0c.2,0,.4.1.1.3s-.2.6,0,.9,1.3,2.4,2,3.5.4.9.8,1.2a7.5,7.5,0,0,1,.7-1.2l1.8-3.2c.3-.4.5-.8,0-1.2s-.1-.3.1-.3h2.5a.2.2,0,1,1,0,.4A2.2,2.2,0,0,0,70.1,49a39.9,39.9,0,0,0-2.7,4.4,5.8,5.8,0,0,0-.4,1.9c0,.9.1,1.8.1,2.7s.3.8.8.9h.2c.2,0,.4,0,.4.2a.4.4,0,0,1-.4.2H66.5Z"/><path class="cls-1" d="M4.3,53a30.5,30.5,0,0,0,.1,4.2c0,1.1.3,1.3,1.4,1.4H7.2a1.4,1.4,0,0,0,1.5-1.2c0-.1,0-.3.2-.3a.4.4,0,0,1,.2.4v.3c-.3,1.8-.3,1.5-1.8,1.5H2.2c-.1,0-.3.1-.3-.1s.1-.2.2-.2.7-.5.7-.9a19.3,19.3,0,0,0,.1-2.4V50.2a8.6,8.6,0,0,0-.1-1.6c0-.5-.2-.8-.7-.8H1.8c-.1-.1-.2-.1-.2-.2s.2-.2.3-.2H5.2c.1,0,.3,0,.3.2s-.2.2-.3.2-.8.2-.8.9S4.3,51.4,4.3,53Z"/><path class="cls-1" d="M12.2,52.9c0-1.4,0-2.8-.1-4.2s-.1-.9-.7-.9-.3,0-.3-.2.2-.2.3-.2a14.1,14.1,0,0,0,2.9,0c.1,0,.3,0,.3.2s-.1.2-.3.2-.6.4-.7.8c-.1,3.1-.1,6.2.1,9.3,0,.7.2.9.9,1s.4,0,.4.2-.2.2-.4.1H11.5c-.1,0-.3.1-.3-.1s.2-.2.3-.2.6-.5.6-.9.1-1.6.1-2.4Z"/><path class="cls-1" d="M1.1,39h2c-.8.4-.5,1.1-.5,1.6s0,1.3,1.2,1.3h2c.7,0,.7,0,.7-.8v-.8c0-.8,0-.8-.8-1.2H7.9c-.6.2-.5.8-.5,1.3s-.1,2.7,0,4.1-.2,1.3.7,1.4H5.8c.8-.3.7-.9.7-1.4V42.8c0-.4-.1-.5-.4-.5H3c-.3,0-.4.1-.4.4V45a.9.9,0,0,0,.7.9H1.2c.6-.2.5-.8.5-1.3V40A1,1,0,0,0,1.1,39Z"/><path class="cls-1" d="M44.7,45.9c.5,0,.5-.4.5-.7s0-3.5.1-5.2-.2-.8-.7-.8h0a8.8,8.8,0,0,1,2.8,0c1.2.2,1.6,1.3.8,2.4s-.4.6.2.9a1.9,1.9,0,0,1,.9,2.1,2.3,2.3,0,0,1-2,1.6h-.7Zm1.4-2h0V45a.8.8,0,0,0,.2.5,1.4,1.4,0,0,0,2.1-.6,2.1,2.1,0,0,0-1.8-2.6c-.3,0-.5.1-.5.5Zm0-3.3h0v1c0,.2.1.3.3.4s1.3-.2,1.4-1-.4-1.6-1-1.6-.7,0-.7.5Z"/><path class="cls-1" d="M34.1,45.9a1.1,1.1,0,0,0,.5-1.1V40.9a.7.7,0,0,0-.6-.7c.1-.2.2-.2.3-.2h2.8c1.9.1,3.1,1.3,3,3A3.1,3.1,0,0,1,37,46.1ZM35.4,43h0v2a.5.5,0,0,0,.4.6,2.6,2.6,0,0,0,2.9-.7A2.6,2.6,0,0,0,39,42a2.8,2.8,0,0,0-3-1.6c-.4,0-.6.1-.6.5Z"/><path class="cls-1" d="M24.7,46.1A2.9,2.9,0,0,1,21.6,43a3.1,3.1,0,0,1,3.3-3.1,3.1,3.1,0,0,1,3.2,3A3.3,3.3,0,0,1,24.7,46.1Zm-2.2-3.4a3.5,3.5,0,0,0,.6,2.1,2.3,2.3,0,0,0,2.5.8,2,2,0,0,0,1.5-1.7v-.4a3,3,0,0,0-.9-2.7,2.3,2.3,0,0,0-2.5-.3A2.2,2.2,0,0,0,22.5,42.7Z"/><path class="cls-1" d="M21.6,45.9c-.8.1-1.5.2-2.1-.5l-1.2-1.5c-.3-.5-.7-.4-1.2-.3s-.2.1-.2.3v.7c.1.5-.1,1.1.7,1.3H15.5c.7-.3.6-.7.7-1.1V41a.8.8,0,0,0-.6-.8c.1-.2.2-.2.3-.2h2a1.6,1.6,0,0,1,1.7,1,1.7,1.7,0,0,1-.4,1.8c-.4.4-.4.6-.1,1a14.2,14.2,0,0,1,1.2,1.3A2,2,0,0,0,21.6,45.9Zm-4.2-5.5c-.3-.1-.5.1-.5.6v1.6c0,.2,0,.3.2.4a1.4,1.4,0,0,0,1.5-.1,1.7,1.7,0,0,0,.1-1.8C18.5,40.6,18.1,40.4,17.4,40.4Z"/><path class="cls-1" d="M65.4,43.2a1.7,1.7,0,0,0-1.8-.7c-.2.1-.2.2-.2.4V45c0,.2,0,.4.2.5a1.6,1.6,0,0,0,2.1-.6h.1c.3.8,0,1.3-.8,1.3H62.1c-.1,0-.2,0-.2-.2s.5-.3.5-.7a44.7,44.7,0,0,0,.1-5.2.7.7,0,0,0-.8-.7,1.3,1.3,0,0,1,1-.2,11.5,11.5,0,0,0,2.6-.1c.2,0,.4.1.3.4a1.2,1.2,0,0,1-.1.8,1.7,1.7,0,0,0-1.9-.6c-.2,0-.2.1-.2.3v1.9c0,.3.1.4.3.4a3.9,3.9,0,0,0,1.5-.2c.3-.1.3.1.3.3A3.1,3.1,0,0,0,65.4,43.2Z"/><path class="cls-1" d="M71.1,40.1a1.7,1.7,0,0,0-1.9-.6c-.2,0-.2.1-.2.3v1.9c0,.3.1.4.3.4a3.9,3.9,0,0,0,1.5-.2c.3-.1.3.1.3.3a3.1,3.1,0,0,0-.1,1,1.7,1.7,0,0,0-1.8-.7c-.2.1-.2.2-.2.4V45c0,.2,0,.4.2.5a1.6,1.6,0,0,0,2.1-.6h.1c.3.8,0,1.3-.8,1.3H67.7c-.1,0-.2,0-.2-.2s.5-.3.5-.7a44.7,44.7,0,0,0,.1-5.2.7.7,0,0,0-.8-.7,1.3,1.3,0,0,1,1-.2,11.5,11.5,0,0,0,2.6-.1c.2,0,.4.1.3.4A2.5,2.5,0,0,1,71.1,40.1Z"/><path class="cls-1" d="M15,45.9H13.6a.2.2,0,0,1-.2-.2,7.6,7.6,0,0,0-.6-1.6c-.1-.3-.2-.4-.5-.4s-.2,0-.3,0-1.1-.2-1.7,1.2-.2.7.2.9a6,6,0,0,1-1.9,0c1-.2,1.1-.9,1.4-1.6l1.5-3.9c.1-.2.1-.4.3-.4s.2.2.3.4,1.1,2.7,1.7,4.1S14.2,45.7,15,45.9Zm-3.3-4.5h-.1L11,43.1c-.1.3.1.3.3.3s.8.2,1.1-.2h0C12.2,42.6,11.9,42,11.7,41.4Z"/><path class="cls-1" d="M60.5,44.7a1.4,1.4,0,0,1,0,1.1.5.5,0,0,1-.3.3,24.2,24.2,0,0,1-3.8-.2c.5,0,.5-.4.5-.8a45.1,45.1,0,0,0,.1-5.2c0-.4-.2-.7-.8-.7h2.2c-.7.2-.5.7-.5,1.2a25.4,25.4,0,0,0,0,3.9v.7c0,.5.3.8.8.7h.2C59.6,45.6,60.3,45.8,60.5,44.7Z"/><path class="cls-1" d="M29.2,40.1H31c-.6.2-.5.7-.5,1.2s.1,2.4.1,3.6a.5.5,0,0,0,.6.6c.1,0,.1.1.2,0s.9.3,1.6-.6c.2.7-.1,1.1-.7,1.1H29.2a1.2,1.2,0,0,0,.5-1.2V41A1.1,1.1,0,0,0,29.2,40.1Z"/></svg>