<svg id="Layer_1" data-name="Layer 1" xmlns="http://www.w3.org/2000/svg" viewBox="0 0 30 30"><defs><style>.cls-1{fill:#002e5d;}</style></defs><title>Library_Homepage30</title><path class="cls-1" d="M15.2,5.3l5,1.7,9,3.3h.4a.8.8,0,0,1,.4.7v4.6c0,.2-.1.2-.2.2H20.9c-.3,0-.3,0-.3-.3V11.7c0-.3,0-.3-.3-.3H9.8c-.3,0-.3,0-.3.3v3.9c0,.3,0,.3-.3.3H.3c-.3,0-.3-.2-.3-.4V12.4a4,4,0,0,0,0-1.1.8.8,0,0,1,.7-.9l1.1-.5L9.6,7.1l5.2-1.8Z"/><path class="cls-1" d="M12.7,24.7h-.8a.1.1,0,0,1,.1-.1c.3,0,.3-.2.3-.4V20.3c0-.3,0-.3-.4-.4h-.1c0-.1.1,0,.2,0h2.2a1,1,0,0,1,.8,1.4,3.1,3.1,0,0,1-.5,1c-.2.1-.2.2-.1.3L15.6,24a1,1,0,0,0,.5.4c.2.1.4.1.5-.1s.1-.3.2-.4,1-2.6,1.4-4h.1a.1.1,0,0,1,.2,0l.3.7c.4,1.1.8,2.2,1.3,3.3s.1.2.1.3a.7.7,0,0,0,.6.4c.1,0,.1,0,.1.1H19.6a.2.2,0,0,0,0-.3,6.9,6.9,0,0,0-.5-1.3c0-.2-.1-.2-.3-.2H17.6c-.2.4-.3.9-.5,1.3s0,.3.2.3.2.1.1.1H15.9c-.3-.1-.6-.1-.8-.3L14,22.9a.7.7,0,0,0-.6-.3c-.5,0-.5-.1-.5.5v1c0,.3.1.5.4.4s.2,0,.2.1h-.8Zm.2-3.5h0v.5c0,.6,0,.6.6.7a.9.9,0,0,0,1-.8v-.2c0-.9-.5-1.5-1.4-1.4s-.2.1-.2.3Zm5.4-.4h0l-.6,1.6c0,.1.1.1.2.1h.9c.1,0,.1-.1.1-.2a1.4,1.4,0,0,1-.2-.6Z"/><path class="cls-1" d="M16.4,14v1.7c0,.2,0,.2-.2.2H13.8c-.2,0-.2,0-.2-.2V12.3c0-.2,0-.3.2-.3h2.4c.2,0,.2.1.2.2Z"/><path class="cls-1" d="M12.8,14v1.7c0,.2,0,.2-.2.2H10.4c-.2,0-.3,0-.3-.2V12.2c0-.2.1-.2.3-.2h2.2c.2,0,.2.1.2.2Z"/><path class="cls-1" d="M19.9,14v1.7c0,.2-.1.2-.3.2H17.4c-.2,0-.2,0-.2-.2V12.3c0-.2,0-.3.2-.3h2.2a.3.3,0,0,1,.3.3Z"/><path class="cls-1" d="M22.2,24.7h-.7c.3,0,.3-.2.3-.4v-.9a19.2,19.2,0,0,0,0-2.4v-.5c0-.3-.1-.4-.3-.4h2.4a1.2,1.2,0,0,1,.6,1.4,2.1,2.1,0,0,1-.6,1,.2.2,0,0,0,0,.3L25.1,24a1.4,1.4,0,0,0,1,.5.1.1,0,0,1,.1.1H25.1c-.3,0-.5-.3-.7-.6l-1-1.2a.5.5,0,0,0-.4-.2h-.2c-.4,0-.4-.1-.4.5v1c0,.3.1.4.4.4s.2,0,.2.1h-.8Zm.9-2.3a.9.9,0,0,0,.9-.8v-.3A1.2,1.2,0,0,0,22.6,20c-.2.1-.2.1-.2.3v1.4C22.4,22.3,22.4,22.4,23.1,22.4Z"/><path class="cls-1" d="M8.4,19.8a3.4,3.4,0,0,1,1,0,1,1,0,0,1,.7,1.6q-.2.3-.3.3c-.1.2,0,.2.1.3l.5.3a1.4,1.4,0,0,1-.4,2.3H7.6c.3,0,.3-.2.3-.3S8,23.4,8,23a21.7,21.7,0,0,0-.1-2.6c0-.4,0-.4-.3-.5H7.4c0-.1.1,0,.2,0Zm.1,3.3h0v.6c0,.6.1.7.7.8h0c.6,0,1-.3,1-.8v-.5a1.4,1.4,0,0,0-1.5-1.1c-.2,0-.2.1-.2.2Zm0-2.2h0v.5c0,.5-.1.5.5.5s.4,0,.5-.2a1,1,0,0,0,.1-1.2c-.1-.4-.4-.5-.9-.5a.2.2,0,0,0-.2.2Z"/><path class="cls-1" d="M27.7,24.7H27c.2,0,.3-.1.3-.2a7.5,7.5,0,0,0,0-1.5,1.4,1.4,0,0,0-.2-.6l-1-1.7a1.3,1.3,0,0,0-.7-.6h1.1c.1,0,.2,0,.1.1s-.1.2,0,.4l.8,1.4.3.5.3-.5.8-1.3c.1-.2.2-.4,0-.5s0-.1,0-.1h1.1c-.4,0-.5.3-.7.5a17.4,17.4,0,0,0-1.1,1.8,3.1,3.1,0,0,0-.2.8,4.9,4.9,0,0,0,.1,1.2.3.3,0,0,0,.3.3h.1a.1.1,0,0,1,.1.1h-.8Z"/><path class="cls-1" d="M1.8,22.1v1.7c0,.5.1.6.6.6H3a.6.6,0,0,0,.6-.5h.1c.1,0,.1.1.1.2h0c-.1.7-.1.6-.8.6H.8a.1.1,0,0,1,.1-.1.3.3,0,0,0,.3-.3v-4a.3.3,0,0,0-.3-.3H2.2c-.3.1-.4.1-.4.4Z"/><path class="cls-1" d="M5.1,22A9.7,9.7,0,0,0,5,20.3c0-.2,0-.4-.3-.4H6c-.3,0-.3.2-.3.4a24.1,24.1,0,0,0,0,3.8c0,.3.1.4.4.4s.2,0,.1.1H4.6c0-.1.1-.1.2-.1s.2-.2.2-.3a3.8,3.8,0,0,0,.1-1Z"/><path class="cls-1" d="M.4,16.3h.9c-.3.1-.2.4-.2.6s0,.5.5.5h.8c.3,0,.3,0,.3-.3v-.3c0-.4,0-.4-.3-.5h.9c-.3.1-.2.3-.2.5v1.7c0,.3-.1.6.3.6h-1c.3-.1.3-.3.3-.6v-.7c0-.1,0-.2-.2-.2H1.3c-.2,0-.2.1-.2.2v1a.3.3,0,0,0,.3.3H.5c.2-.1.2-.3.2-.5V16.7C.7,16.5.6,16.3.4,16.3Z"/><path class="cls-1" d="M18.6,19.1c.2,0,.2-.1.2-.3a14.8,14.8,0,0,0,.1-2.1c0-.2-.1-.4-.3-.4h0a2,2,0,0,1,1.1,0,.6.6,0,0,1,.4,1c-.1.1-.2.2.1.4a.8.8,0,0,1,.3.9.9.9,0,0,1-.8.6H18.6Zm.6-.8h0V19a.6.6,0,0,0,.9-.3,1,1,0,0,0-.8-1.1.2.2,0,0,0-.2.2Zm0-1.4h0v.4l.2.2c.3,0,.5-.1.5-.4s-.1-.7-.4-.7-.3,0-.3.2Z"/><path class="cls-1" d="M14.2,19.1a.4.4,0,0,0,.2-.4V17c0-.1-.1-.2-.2-.3h1.3a1.2,1.2,0,0,1,1.2,1.2,1.2,1.2,0,0,1-1.3,1.3Zm.6-1.2h0v.9c0,.1,0,.2.1.2s.9.1,1.2-.3A1.2,1.2,0,0,0,15,16.8c-.2,0-.2.1-.2.3Z"/><path class="cls-1" d="M10.3,19.2A1.2,1.2,0,0,1,9,17.9a1.3,1.3,0,0,1,1.4-1.3,1.3,1.3,0,0,1,1.3,1.3A1.3,1.3,0,0,1,10.3,19.2Zm-.9-1.4a1.3,1.3,0,0,0,.2.9,1.1,1.1,0,0,0,1.1.3,1.1,1.1,0,0,0,.6-.7v-.2a1.2,1.2,0,0,0-.4-1.1.8.8,0,0,0-1-.1A.9.9,0,0,0,9.4,17.8Z"/><path class="cls-1" d="M9,19.1a.8.8,0,0,1-.9-.2l-.5-.6c-.1-.2-.3-.2-.5-.2v.5c0,.2-.1.4.2.5H6.5c.2-.1.2-.3.2-.5V17.1c0-.2,0-.3-.2-.4h1a.8.8,0,0,1,.7.4.6.6,0,0,1-.2.7c-.2.2-.2.3,0,.4l.5.6A.5.5,0,0,0,9,19.1ZM7.3,16.8c-.2,0-.3.1-.2.3v.7h0a.6.6,0,0,0,.6,0,.8.8,0,0,0,.1-.8A.5.5,0,0,0,7.3,16.8Z"/><path class="cls-1" d="M27.2,18a.5.5,0,0,0-.7-.3c-.1,0-.1.1-.1.2V19a.9.9,0,0,0,.9-.3h0c.1.3,0,.5-.3.5H25.8c.2,0,.2-.1.2-.3a16.1,16.1,0,0,0,0-2.2.3.3,0,0,0-.3-.3c.2-.1.3,0,.4,0h1.1c.1,0,.2,0,.1.2s.1.2,0,.3a1.1,1.1,0,0,0-.8-.3c-.1.1-.1.1-.1.2v.8c0,.1.1.1.2.1h.5c.2-.1.2,0,.2.1A.8.8,0,0,1,27.2,18Z"/><path class="cls-1" d="M29.6,16.7a1.1,1.1,0,0,0-.8-.3c0,.1-.1.1-.1.2v.8c0,.1.1.1.2.1h.6c.1-.1.1,0,.1.1V18a.7.7,0,0,0-.8-.3v1.1a.3.3,0,0,1,.1.2c.3.1.8,0,.9-.3h0c.2.3,0,.5-.3.5H28.1c.2,0,.2-.1.2-.3a15.5,15.5,0,0,0,.1-2.2c0-.2-.1-.3-.4-.3s.3,0,.4,0h1.1c.1,0,.2,0,.2.2A.4.4,0,0,1,29.6,16.7Z"/><path class="cls-1" d="M6.2,19.1H5.6l-.3-.7H5c-.6,0-.5-.1-.7.5s-.1.2.1.3H3.6c.4,0,.4-.4.5-.6a12.2,12.2,0,0,0,.7-1.7.1.1,0,0,1,.2,0c.3.6.5,1.2.8,1.7S5.9,19,6.2,19.1ZM4.9,17.3H4.8a2.5,2.5,0,0,1-.2.7c0,.1,0,.1.1.1s.3.1.5-.1h0Z"/><path class="cls-1" d="M25.2,18.6a.5.5,0,0,1,0,.5H23.5c.2,0,.2-.2.2-.3a16.2,16.2,0,0,0,0-2.2c0-.2,0-.3-.3-.3h.9c-.2.1-.2.3-.2.5v1.9c0,.2.1.3.4.3h0C24.8,19,25.1,19.1,25.2,18.6Z"/><path class="cls-1" d="M12.1,16.7h.8c-.2.1-.2.3-.2.5v1.5a.3.3,0,0,0,.3.3h.1c.4,0,.3.1.6-.3s0,.5-.3.5H12.2c.2-.1.2-.3.2-.5V17.1C12.4,16.9,12.3,16.8,12.1,16.7Z"/></svg>