<svg id="Layer_1" data-name="Layer 1" xmlns="http://www.w3.org/2000/svg" viewBox="0 0 30 30"><defs><style>.cls-1{fill:#002e5d;}</style></defs><title>Life_of_Christ_Videos30</title><path class="cls-1" d="M4.3,25.5V3.5L4.9,3,8.8,0h.7l3.6,1L25,4.2c.3.1.6.1.7.4V26.5a.6.6,0,0,1-.7.3.7.7,0,0,1-.4-.7V5.9c0-.6,0-.6-.6-.8L18.7,3.7,9.6,1.3a.6.6,0,0,0-.6,0l-2.6,2c-.1,0-.2.1-.1.2s.1.1.2.1h.1L20.8,7.4c.6.2.7.3.7,1V29.2a1.1,1.1,0,0,1-.3.8h-.7l-.6-.2L5.1,25.9Z"/><path class="cls-1" d="M23.6,17.3V27.9a.6.6,0,0,1-.6.5.5.5,0,0,1-.5-.5V7.6c0-.5,0-.5-.6-.7L9.5,3.5c-.6-.2-.8-.4-.7-.8s.4-.5,1-.3L22.9,6c.6.1.7.3.7,1Z"/></svg>