<svg id="Layer_1" data-name="Layer 1" xmlns="http://www.w3.org/2000/svg" viewBox="0 0 72 72"><defs><style>.cls-1{fill:#002e5d;}</style></defs><title>Life_of_Christ_Videos72</title><path class="cls-1" d="M10.3,61.1V8.3l1.4-1.1L21.2,0h1.5c2.8.9,5.8,1.6,8.6,2.4L60.1,10a2.3,2.3,0,0,1,1.6,1.1V63.5c-.4.6-.9,1-1.6.8A1.4,1.4,0,0,1,59,62.7V14c0-1.4,0-1.4-1.4-1.7L45,8.9,23.1,3.1a1.2,1.2,0,0,0-1.4.1L15.4,7.9c-.2.1-.4.2-.4.4s.3.3.5.3H16l33.8,9.1c1.5.3,1.8.7,1.8,2.3V70a2.4,2.4,0,0,1-.8,2H49.3l-1.6-.5L12.2,62A2.8,2.8,0,0,1,10.3,61.1Z"/><path class="cls-1" d="M56.7,41.4V65.5a7.6,7.6,0,0,1-.1,1.5,1.3,1.3,0,0,1-1.4,1.2,1.3,1.3,0,0,1-1.3-1.3V18.3c0-1.4,0-1.4-1.4-1.7L22.8,8.4c-1.3-.4-1.9-1-1.6-1.9s1-1.2,2.3-.8L55,14.3c1.4.4,1.7.8,1.7,2.5Z"/></svg>