<svg id="Layer_1" data-name="Layer 1" xmlns="http://www.w3.org/2000/svg" viewBox="0 0 72 72"><defs><style>.cls-1{fill:#002e5d;}</style></defs><title>Mix_Magazine72</title><path class="cls-1" d="M67.1,71.9H5.1A9,9,0,0,1,3,71.1a6.7,6.7,0,0,1-3-4.5V5.4A6.5,6.5,0,0,1,5.1.1h62A8.9,8.9,0,0,1,70,1.6a7.5,7.5,0,0,1,2,3.7V66.7a6.9,6.9,0,0,1-3.1,4.5ZM16.9,9.2c-.7-.1-.6.5-.7,1-1.8,7.6-3.5,15.3-5.3,23-.2.9-.1.9.8,1l6.4.9c4,.6,7.6,2.5,11.3,4.1l.4.3,5.5,4.9a10.8,10.8,0,0,1,2.1,2.2,1.3,1.3,0,0,1-.1,1.9l-.8.7-3.2,2.3c-.4.3-.4.5.1.8,7,3.9,14.1,7.7,21.2,11.5.3.1.5.3.7.1s1.2-.7,1.4-1.5c2.3-8,4.7-16.1,7-24.2.1-.2.3-.4.1-.6s-.4.1-.7.1l-6.9,2.5c-.5.2-.7.1-1-.4s-1.6-3.9-2.5-5.9a13.4,13.4,0,0,0-1.3-2.7l-4.5-6.5a13.7,13.7,0,0,0-2.3-2.5c-4.1-3.8-8.6-7.1-14.2-8.6-3.4-.9-6.8-2.3-10.1-3.5A18.9,18.9,0,0,0,16.9,9.2Z"/><path class="cls-1" d="M18.6,12.2c2,.4,3.9.8,5.9,1.4a46.2,46.2,0,0,1,16.9,8.7A40.5,40.5,0,0,1,53.5,40.1l.7,2.2c.2.6.4.7,1,.5s3.6-1.6,5.5-2.4c.1-.1.4-.3.5-.1s.1.4,0,.6L55.5,61.1c-.2.5-.3.8-1,.4L37.4,52.2l-.2-.2c-.5-.2-.4-.4,0-.7l3.3-2.2c.8-.5.8-.5.2-1.3-5-7.8-12.3-12.3-21.3-14-2-.4-3.9-.6-5.9-.8s-.9-.1-.7-1l5.1-19.1C18,12.5,18,12.1,18.6,12.2Zm13,13c.2.2.1.4.1.6-.4,2.7-.7,5.5-1.1,8.2-.1.7.3,1.9.7,2s1.2-.8,1.4-1.5.5-1.8.7-2.7c.8-3.2,1.7-6.3,2.5-9.5a2.2,2.2,0,0,0-.9-2.5c-1.3-.9-2.6-.7-3.8.6l-4.5,5.3c-.1.2-.2.4-.4.3s-.2-.2-.1-.4.2-2.9.2-4.4a16,16,0,0,0,.1-3.8c-.2-1.4-.9-2-2.4-2.3s-1.7.3-2.3,1.5c-1.5,2.9-2.9,5.8-4.3,8.7-.6,1.4-1.3,2.8-1.9,4.3A1,1,0,0,0,17,31a2.4,2.4,0,0,0,1.6-1.3c1.4-2.2,2.6-4.5,3.8-6.7.2-.2.2-.5.5-.6s.1.6.1.9v5.2a6.1,6.1,0,0,0,.8,3c.2.3.3.5.6.3a4.9,4.9,0,0,0,2.3-1.4l4.2-4.6C31.1,25.6,31.3,25.3,31.6,25.2ZM49.9,43.5H52a1.1,1.1,0,0,0,1.1-1.1,1.7,1.7,0,0,0-1.7-2.1H47.3c-.8,0-.8-.1-.7-.8s.9-3.9,1.4-5.9a3,3,0,0,0,.2-1q0-1.2-1.5-1.5a1.3,1.3,0,0,0-1.5,1,1.9,1.9,0,0,0-.2.8l-1.5,5.8c-.3,1.2-.3,1.2-1.5,1a11.9,11.9,0,0,0-4.2.1c-.6.1-1,.3-1,1a1.1,1.1,0,0,0,1,.9l4,.9c1.1.3,1.1.3,1,1.3a6.2,6.2,0,0,0-.1,1.3,15.5,15.5,0,0,0-.1,2.2c.1.5.3,1.2.8,1.2s.9-.4,1.2-.9a1.4,1.4,0,0,0,.2-.7c.3-1,.6-2,.8-3a.8.8,0,0,1,.9-.7ZM34.1,37.2c0,1.2.4,1.4,1.5.9l.4-.3c2.7-2.9,5.4-5.8,7.9-8.8,1.2-1.4,1-1.1-.2-2.4a1.6,1.6,0,0,0-2.8.2c-2.2,3-4.4,6.1-6.5,9.3A1.4,1.4,0,0,0,34.1,37.2ZM57.5,48.1a4.7,4.7,0,0,0-.2-1.6c-.4-1.7-1.2-2-2.7-1.2s-.2,0-.2.1a54.5,54.5,0,0,0-5.8,4,2,2,0,0,0-.8,1.2.8.8,0,0,0,.5,1.2A2.5,2.5,0,0,0,50,52a50.7,50.7,0,0,0,5.4-.9A2.8,2.8,0,0,0,57.5,48.1Zm-11.2,4c0-.4-.4-.7-.7-1s-1-.9-2,0-.9,1.2,0,2.1,1,1.3,2.1,0A1.5,1.5,0,0,0,46.3,52.1Z"/></svg>