<svg id="Layer_1" data-name="Layer 1" xmlns="http://www.w3.org/2000/svg" viewBox="0 0 30 30"><defs><style>.cls-1{fill:#002e5d;}</style></defs><title>Mix_Magazine30</title><path class="cls-1" d="M27.9,30H2.1a2,2,0,0,1-.8-.4A2.6,2.6,0,0,1,0,27.7V2.3A2.8,2.8,0,0,1,2.1,0H27.9l1.3.7A3.6,3.6,0,0,1,30,2.2V27.8a3.1,3.1,0,0,1-1.3,1.9ZM7.1,3.8c-.3,0-.3.3-.4.4L4.6,13.8c-.1.4-.1.4.3.5l2.6.3a23.8,23.8,0,0,1,4.7,1.7c.1.1.2.1.2.2l2.3,2,.9.9a.6.6,0,0,1,0,.8l-.4.3-1.3,1q-.3.2,0,.3l8.9,4.8h.3a1,1,0,0,0,.5-.6l3-10.1c0-.1.1-.2,0-.2h-.3l-2.9,1.1c-.2.1-.3,0-.4-.2l-1-2.5a3.9,3.9,0,0,0-.6-1.1l-1.9-2.7a8.7,8.7,0,0,0-.9-1.1,14.7,14.7,0,0,0-5.9-3.5c-1.5-.4-2.8-1-4.3-1.5Z"/><path class="cls-1" d="M7.7,5.1a10.2,10.2,0,0,1,2.5.6,18,18,0,0,1,7,3.6,17.3,17.3,0,0,1,5.1,7.4l.3.9c.1.3.1.3.4.2l2.3-1c.1,0,.1-.1.2,0a.1.1,0,0,1,0,.2l-2.4,8.4c-.1.3-.1.4-.4.2l-7.1-3.9h-.1q-.3-.1,0-.3l1.4-.9c.3-.3.3-.3.1-.6a13.2,13.2,0,0,0-8.9-5.8,10.1,10.1,0,0,0-2.5-.3c-.4-.1-.4-.1-.3-.5C6.1,10.7,6.8,8,7.5,5.4,7.5,5.2,7.5,5,7.7,5.1Zm5.5,5.4a.1.1,0,0,1,0,.2c-.1,1.2-.3,2.3-.5,3.5s.2.8.3.8.5-.3.6-.6l.3-1.1c.4-1.4.7-2.7,1-4a.8.8,0,0,0-.3-1.1,1.1,1.1,0,0,0-1.6.3c-.6.7-1.2,1.5-1.9,2.2s-.1.2-.1.1a.1.1,0,0,1-.1-.1c0-.6.1-1.2.1-1.9s.1-1,.1-1.5a1.1,1.1,0,0,0-1.1-1q-.6-.1-.9.6L7.3,10.5l-.8,1.8c-.1.2-.1.4.1.5s.3.2.5.1a1.8,1.8,0,0,0,.7-.5c.5-.9,1-1.9,1.6-2.8a.4.4,0,0,1,.1-.3.8.8,0,0,1,.1.4v2.2a2.4,2.4,0,0,0,.3,1.2c.1.1.1.2.3.2s.7-.3.9-.6l1.8-1.9C13,10.7,13,10.6,13.2,10.5Zm7.6,7.6h.8c.4,0,.5-.1.5-.4a.7.7,0,0,0-.7-.9H19.7c-.3,0-.3,0-.3-.3L20,14v-.4c0-.4-.2-.6-.7-.6s-.4,0-.6.4a.4.4,0,0,1-.1.3l-.6,2.4c-.1.5-.1.5-.6.5a3.7,3.7,0,0,0-1.8,0,.4.4,0,0,0-.4.4c.1.3.2.3.5.4l1.6.4c.5.1.5.1.4.5v.5a2.7,2.7,0,0,0,0,.9.6.6,0,0,0,.3.6c.2,0,.3-.2.5-.4v-.3l.3-1.3c.1-.2.2-.3.4-.2Zm-6.6-2.6c0,.5.2.6.6.4s.2-.1.2-.2l3.3-3.6c.5-.6.4-.5-.1-1s-.8-.4-1.2.1L14.3,15A.9.9,0,0,0,14.2,15.5ZM24,20.1c0-.2-.1-.5-.1-.7s-.5-.9-1.2-.5h0a14.6,14.6,0,0,0-2.4,1.7,1,1,0,0,0-.4.5.4.4,0,0,0,.2.5h.7l2.3-.4A1.2,1.2,0,0,0,24,20.1Zm-4.7,1.6c0-.2-.2-.3-.3-.4s-.4-.4-.8,0-.4.5,0,.9.4.5.8,0S19.3,21.9,19.3,21.7Z"/></svg>