<svg id="Layer_1" data-name="Layer 1" xmlns="http://www.w3.org/2000/svg" viewBox="0 0 30 30"><defs><style>.cls-1{fill:#002e5d;}</style></defs><title>Mormon-org30</title><path class="cls-1" d="M9.8,0a1.6,1.6,0,0,1,.6.8l.6.6,1.2.7c.2.1.5.2.6.4l.5.5.5.4.6.6a.4.4,0,0,0,.1-.3,4.3,4.3,0,0,1,.1-.5,1.2,1.2,0,0,1,.5-.5,1.2,1.2,0,0,1,1,.2,3.9,3.9,0,0,1,.8,1.4,3.3,3.3,0,0,1,0,1.4.8.8,0,0,1-.2.4l.5.2.8.3a1.6,1.6,0,0,1,.9,1.2,4.2,4.2,0,0,0,.4,1l.3.8a5.9,5.9,0,0,1,.6,1.4,3.6,3.6,0,0,0,.2,1v.2a1,1,0,0,0,.4.5c.2.1.2.3.3.5s-.1.3-.2.3l-.6.2-.4-.2c-.1-.1-.1-.3-.2-.4l-.2-.5-.6-1.2-.6-1.5h-.1V10a4.3,4.3,0,0,1,.1.5V11a1.7,1.7,0,0,1,.1.7c0,.3.1.6.1.8s0,2.1-.1,3.1l-.3.5a1.3,1.3,0,0,0-.1.6c-.1.3,0,.6-.1.9h0a3.4,3.4,0,0,0-.1,1,6.2,6.2,0,0,1-.1,1.3v1.2a6.2,6.2,0,0,1-.1,1.3h-.4a.9.9,0,0,0,.3.6l.3.2,1,.6.7.9.3.8a4.1,4.1,0,0,1,.1,1.1,3.5,3.5,0,0,1-.3,1.1,2,2,0,0,1-.4.8l-.5.6-.7.5-1.1.2a.1.1,0,0,1-.1.1H15.6a3,3,0,0,1-1.5-.5,5.2,5.2,0,0,1-1-1.1,3.6,3.6,0,0,1-.4-1.1v-1a3.6,3.6,0,0,1,.8-1.9,2.9,2.9,0,0,1,1.2-1,2.2,2.2,0,0,0,.9-.7c.1-.1.1-.2,0-.4s-.1-.2-.1-.4l-.6-.6-.9-.8c-.2-.1-.2-.4-.2-.6a4.8,4.8,0,0,1,0-1.2V17.1a3.7,3.7,0,0,0,.1-1.1v-.2h-.7a6.5,6.5,0,0,1,0-1.4,17.7,17.7,0,0,1-.1-2.3c0-.3.1-.5.1-.8s.2-.7.2-1.1.1-.7.1-1.1a2.4,2.4,0,0,0-.7-1.8l-1.1-.8a1.2,1.2,0,0,1-.7-.7,3.2,3.2,0,0,1,.3-1.4l.6-1.8L10,1.4H9.3C9.1,1.4,9,1.2,9,1H8.9V.7A1.3,1.3,0,0,1,9.5,0Zm7.7,6.8-.3.2h.2V6.8h.3c-.1.9,0,1.8-.1,2.7v2.1a.4.4,0,0,0,.1.3h.3c0-.2.1-.3,0-.4v-.4a3.1,3.1,0,0,0-.1-1V8.9a8.6,8.6,0,0,1-.1-1.6c0-.2,0-.3-.1-.4V6.7Zm-4.8-1h0l.2.2.6.4h.4c-.1-.1-.1-.2-.2-.2l-.9-.4Zm2.4,23.1h2.5a1.1,1.1,0,0,0,.7-.3,2,2,0,0,0,.8-.8,2.7,2.7,0,0,0,.2-2,2.5,2.5,0,0,0-1.1-1.6,2.7,2.7,0,0,0-1.9-.6h-.7l-.7.2a2.2,2.2,0,0,0-.9.7,3.3,3.3,0,0,0-.7,1.6,1.7,1.7,0,0,0,0,1,3.1,3.1,0,0,0,.5,1l.6.5ZM17,8a1.1,1.1,0,0,0,.1-.5c0-.2.1-.3,0-.4h-.5c.1-.1.4-.2.5-.4l-.4.2V6.5h-.5l.2-.4c0-.5,0-.6-.2-.9l-.3.6a.3.3,0,0,0,.1.2.4.4,0,0,0,.1.3v.2l-.2.3H14.7v.7c-.1.2-.1.4-.2.6a1.1,1.1,0,0,0-.3.8,1.3,1.3,0,0,0,.1.6v.7l.4.4v-.3l.2-.3a1.1,1.1,0,0,0,.8.1l.3-.4h.4c.2-.1.3-.2.3-.4V8H17Zm.8,7.4a11.2,11.2,0,0,1-.5-1.3,4.2,4.2,0,0,0-.9-1.4,2.2,2.2,0,0,1-.7-.9l-.2-.4a11.9,11.9,0,0,1,1.6.8l.2-.5h-.6c-.3-.1-.3-.1-.4-.3l.9-.2a2.2,2.2,0,0,0-.6-.7h-.9a3.2,3.2,0,0,0-.9.3v.8c.2.4.3.9.5,1.3a7.5,7.5,0,0,0,.7,1.2l.8,1,.4.5.4.4C17.9,15.9,17.8,15.6,17.8,15.4ZM14.5,4.3,13,3.4h-.3l-.4.3V5a.7.7,0,0,0,.4.5l1.9.6.6.2Zm1.3,14.5-.2-.3a4.6,4.6,0,0,0-.7-.7c0-.1-.1-.2-.1-.3v-.3c0-.3.3-.4.4-.5l-.5-1.2a2.7,2.7,0,0,1-.2-1.3h0c-.1-.3-.1-.7-.2-1a2.9,2.9,0,0,0-.2-.9,7.6,7.6,0,0,0-.1,1.5,4,4,0,0,1,0,1.1c0,.3.1.6.1,1a11.2,11.2,0,0,0,.5,1.3v.2c0,.2.1.4.1.6a1.7,1.7,0,0,0,.1.7v.5a.6.6,0,0,1,.1.4v.4a1.9,1.9,0,0,0,.2.7h.7l-.4-.9h.1c.3.3.4.8.8,1.1l-1.1-2.1Zm1.9-1.7h0a3.6,3.6,0,0,0-.4-1.1l-.5-.5-.3-.2-.3-.2-.6-.8a16.7,16.7,0,0,1-.8-2,4.3,4.3,0,0,0-.1-.5,3.8,3.8,0,0,0-.3-1h-.2c0,.2.1.3.1.4a1.4,1.4,0,0,0,.1.9l.6,2.1a12.4,12.4,0,0,0,1,2,2.4,2.4,0,0,0,.8.6h.9Zm-3.9-4.5V8.1a1.5,1.5,0,0,1,.6-.9V6.7l-.3.3V6.7h0a5.8,5.8,0,0,0-.3,1.4c-.1.2,0,.5-.1.8v1h0a.9.9,0,0,0-.1.5.7.7,0,0,1-.1.5c0,.3.1.5,0,.7V12c.1.2.1.4.2.6Zm5.4-2.7.8,2.8h0l.3.2c-.1-.2-.1-.4-.2-.6v-.4c0-.2-.1-.4-.1-.6a3.5,3.5,0,0,0-.3-1.1l-.3-.4ZM16.3,5.1c.1-.2,0-.5,0-.7a1.3,1.3,0,0,0-.5-.7h-.3l.2.4-.3.2a1.4,1.4,0,0,0,.2.6h.2Zm2.8,4.3V9.2l-.3-.9a3.7,3.7,0,0,0-.5-1.1c0-.1,0-.1-.1-.2v.4c.1.3.1.5.2.8a1.4,1.4,0,0,0,.2.6C18.8,8.9,18.9,9.1,19.1,9.4Zm-1.4,3.2v1h.2a1.4,1.4,0,0,0,.2-.7l-.3-.5Zm-2.2-6c.1-.1.3-.1.4-.3l-.5-.6-.2.7C15.3,6.4,15.3,6.6,15.5,6.6ZM14.2,17.3h-.1v2.5h.1Zm.9-1.4a13,13,0,0,0,1,1.5h.1l-1-1.7h-.1Zm-1.6-1.8a2,2,0,0,0,0-1.1A2,2,0,0,0,13.5,14.1Zm1.6-10,.3-.5-.4.2Z"/></svg>