<svg id="Layer_1" data-name="Layer 1" xmlns="http://www.w3.org/2000/svg" viewBox="0 0 72 72"><defs><style>.cls-1{fill:#002e5d;}</style></defs><title>Mormon-org72</title><path class="cls-1" d="M23.5,0a6.9,6.9,0,0,1,1.6,1.8,3.7,3.7,0,0,0,1.3,1.5,15.3,15.3,0,0,0,3,1.9l1.4.7A3.4,3.4,0,0,1,32,7.1l1,1.2,1.6,1.3a.9.9,0,0,0,.3-.8c0-.4.1-.9.1-1.2a2.8,2.8,0,0,1,1.2-1,2.1,2.1,0,0,1,2.4.4,6.1,6.1,0,0,1,1.9,3.3,6.2,6.2,0,0,1,.1,3.3l-.5,1.1a5,5,0,0,0,1.3.5l1.7.6a3.9,3.9,0,0,1,2.2,2.8,9.3,9.3,0,0,0,1,2.5,15.1,15.1,0,0,0,.9,1.8,20.6,20.6,0,0,1,1.2,3.5c.2.8.3,1.6.5,2.5v.4a2.7,2.7,0,0,0,.9,1.2,1.7,1.7,0,0,1,.8,1.3,1.5,1.5,0,0,1-.5.7,2.9,2.9,0,0,1-1.3.5,1.5,1.5,0,0,1-1-.6l-.6-1-.5-1.2-1.2-2.9A36.8,36.8,0,0,1,44,23.8q0-.2-.3-.3v.4a5.9,5.9,0,0,0,.2,1.3c.1.4,0,.8.1,1.2a8.8,8.8,0,0,1,.2,1.7,12.8,12.8,0,0,1,.1,1.9c-.3,2.5,0,5-.1,7.5a3.9,3.9,0,0,0-.6,1.1,3.3,3.3,0,0,0-.5,1.5,8.2,8.2,0,0,1-.2,2.2h0c-.1.8-.1,1.7-.2,2.5s0,2-.1,3-.1,2-.1,3-.1,2-.2,3h-.9a1.4,1.4,0,0,0,.5,1.5,2.5,2.5,0,0,0,.9.4,9.1,9.1,0,0,1,2.4,1.6,15.6,15.6,0,0,1,1.6,2,10.7,10.7,0,0,1,.7,1.9,8.6,8.6,0,0,1,.2,2.8,8.2,8.2,0,0,1-.6,2.6,17.4,17.4,0,0,1-1,1.9,5.3,5.3,0,0,1-1.2,1.4l-1.7,1.1a7.7,7.7,0,0,1-2.6.7H37.5a6.9,6.9,0,0,1-3.6-1.3,7.8,7.8,0,0,1-2.4-2.7,7.7,7.7,0,0,1-1-2.5,10.5,10.5,0,0,1,0-2.5,8.1,8.1,0,0,1,1.9-4.6,8.9,8.9,0,0,1,3-2.4,4.7,4.7,0,0,0,2-1.7.7.7,0,0,0,.1-.9l-.3-.9A18.5,18.5,0,0,0,35.8,51a19.9,19.9,0,0,1-2.1-2,1.7,1.7,0,0,1-.6-1.5,13.1,13.1,0,0,1,0-2.8c.1-1.2,0-2.4.1-3.6a24.4,24.4,0,0,0,.1-2.7V38H32.1l-.3-.3a18.3,18.3,0,0,1-.2-3.3c-.1-1.8-.1-3.6-.1-5.4s.2-1.3.2-2,.4-1.7.5-2.6a12.3,12.3,0,0,0,.2-2.7,6.4,6.4,0,0,0-1.8-4.3,11.8,11.8,0,0,0-2.5-1.9A3.1,3.1,0,0,1,26.5,14a8.3,8.3,0,0,1,.6-3.5c.5-1.4.9-2.8,1.4-4.2L24.1,3.4H22.3a1.2,1.2,0,0,1-.8-.9.1.1,0,0,0-.1-.1V1.7A3.7,3.7,0,0,1,22.7,0ZM42.1,16.4a1.8,1.8,0,0,0-.7.5h0l.4.2.3-.8h.5c-.1,2.2.1,4.3-.1,6.5s0,3.5,0,5.2.1.4.1.6h.9a3.3,3.3,0,0,0,0-1,3.8,3.8,0,0,1-.1-1,17.7,17.7,0,0,0-.1-2.3c-.1-1-.1-2.1-.1-3.1s-.1-2.6-.2-3.9a1.3,1.3,0,0,0-.4-1v-.4ZM30.4,13.9h0l.6.6,1.3,1,1-.3-.4-.3-2.1-1Zm5.8,55.4h6a3.5,3.5,0,0,0,1.7-.6,5.2,5.2,0,0,0,1.9-2,6.4,6.4,0,0,0,.6-4.7,6.1,6.1,0,0,0-2.8-4,7.1,7.1,0,0,0-4.4-1.5H37.6a5.3,5.3,0,0,0-4,2.3,8.4,8.4,0,0,0-1.7,3.7,5.7,5.7,0,0,0,.1,2.6,6.3,6.3,0,0,0,1.2,2.3,3.5,3.5,0,0,0,1.4,1.3Zm4.7-50.2c0-.4.1-.8.1-1.1s.3-.7.1-1.1l-1.1.2h-.1v-.2c.3-.3.8-.4,1.2-.8l-1,.2v-.6H39.1l.5-1.1a2.8,2.8,0,0,0-.6-2.2,12.1,12.1,0,0,0-.5,1.4c-.1.2,0,.4,0,.5l.3.9-.2.4-.5.7a4.5,4.5,0,0,0-2.8,0c0,.6-.1,1.2-.1,1.7a3.9,3.9,0,0,1-.5,1.4,3.6,3.6,0,0,0-.6,2c0,.5.1.9.1,1.4s.1.8.2,1.2a.8.8,0,0,0,.2.4l.9,1,.3-.7a3,3,0,0,1,.4-.8,2.7,2.7,0,0,0,2,.4l.7-1c.2-.2.6-.1.9-.1s.8-.4.7-.9a1.1,1.1,0,0,1-.1-.5c0-.3-.1-.5-.1-.8s.1-.5.1-.7v-1c0-.1,0-.1.1-.2Zm1.8,17.8a23.7,23.7,0,0,0-1.3-3.2,8.3,8.3,0,0,0-2-3.2,12,12,0,0,1-1.7-2.1,2.1,2.1,0,0,1-.4-1.2c1.2.7,2.4,1.5,3.7,2.1l.4-1.3H40c-.6-.3-.7-.3-.8-.8l2.1-.5a4.6,4.6,0,0,0-1.6-1.5,5,5,0,0,0-2.1.2,6.6,6.6,0,0,0-2,.6c0,.2.1.4.1.6a5.7,5.7,0,0,0,.1,1.3,17.3,17.3,0,0,0,1.1,3.2,17.5,17.5,0,0,0,1.8,2.9,22.3,22.3,0,0,0,1.9,2.4l1,1.2a4.7,4.7,0,0,0,1,1A3.7,3.7,0,0,0,42.7,36.9ZM34.8,10.4a26.4,26.4,0,0,0-3.5-2.3h-.8l-1,.7-.3,3.3a1.8,1.8,0,0,0,1.1,1l4.6,1.5,1.4.5ZM37.9,45l-.4-.6-1.6-1.7-.5-.6v-.8c.2-.6.8-.9,1-1.3a21.8,21.8,0,0,0-1.1-2.7,7.2,7.2,0,0,1-.5-3.2v-.3a20,20,0,0,1-.4-2.4c-.2-.7-.3-1.3-.5-2.1a21.1,21.1,0,0,0-.2,3.5v2.6a10.1,10.1,0,0,0,.3,2.5A8.7,8.7,0,0,0,35,41v.5l.3,1.5a8.6,8.6,0,0,0,.1,1.6c.1.4.1.8.2,1.2s0,.6.1.9.1.7.1,1a3.4,3.4,0,0,0,.5,1.7l.7.4h.9l-1-2.2.2-.3c.8.8,1.1,1.9,1.9,2.6l-2.4-4.9Zm4.5-3.9h.1a8.1,8.1,0,0,0-1.1-2.7,3.2,3.2,0,0,0-1.1-1.2l-.7-.3c-.3-.2-.6-.3-.7-.6a14.3,14.3,0,0,1-1.4-2,17.2,17.2,0,0,1-1.9-4.7,5,5,0,0,1-.3-1.3,9.4,9.4,0,0,0-.7-2.2l-.4.2v.9a7.6,7.6,0,0,0,.3,2.1c.5,1.7,1,3.5,1.6,5.1A22.8,22.8,0,0,0,38.4,39a3.8,3.8,0,0,0,2,1.5,4.4,4.4,0,0,0,1.6.2ZM33.1,30.4V21.2a9.1,9.1,0,0,1,.1-1.7,3.2,3.2,0,0,1,1.3-2.2V16.1l-.6.7-.3-.8v.3a13,13,0,0,0-.7,3.3c-.3.6-.1,1.3-.2,1.9a19.4,19.4,0,0,0-.2,2.4c0,.1.1.2,0,.3a2.8,2.8,0,0,0-.1,1.3c0,.4-.1.8-.1,1.2a9.7,9.7,0,0,1-.1,1.7.4.4,0,0,0,0,.5,8.3,8.3,0,0,0,.4,1.5ZM46,23.8l2,6.7h.1l.6.7c-.1-.6-.3-1.1-.4-1.7a2.2,2.2,0,0,0-.1-.8c0-.6-.2-1-.2-1.6a7.9,7.9,0,0,0-.8-2.6l-.7-.9ZM39,12.2a2.5,2.5,0,0,0,.1-1.7,3.1,3.1,0,0,0-1.3-1.7c-.2-.1-.4-.3-.7-.1l.7.9L37,10a3.8,3.8,0,0,0,.5,1.5l.3.3Zm6.7,10.2c.2-.2.2-.3.1-.4l-.7-2.2A11.9,11.9,0,0,0,44,17.2l-.4-.4a8.7,8.7,0,0,0,.2,1,11.3,11.3,0,0,0,.3,1.8,3.2,3.2,0,0,0,.6,1.5A6.4,6.4,0,0,1,45.7,22.4Zm-3.2,7.7v2.6h.4a4.9,4.9,0,0,0,.6-1.7l-.7-1.2ZM37.1,15.8c.3-.2.8-.3,1-.7a14.9,14.9,0,0,0-1.2-1.4l-.5,1.6C36.8,15.3,36.7,15.8,37.1,15.8Zm-3,25.6c-.2.1-.2.2-.2.2v6h.2Zm2.1-3.3,2.3,3.7h.4L36.5,38h-.3Zm-3.8-4.3a5.7,5.7,0,0,0,0-2.6A5.6,5.6,0,0,0,32.4,33.8Zm3.8-24A5,5,0,0,0,37,8.6l-1,.5Z"/></svg>