<svg id="Layer_1" data-name="Layer 1" xmlns="http://www.w3.org/2000/svg" viewBox="0 0 72 72"><defs><style>.cls-1{fill:#002e5d;}</style></defs><title>Mormon_Channel72</title><path class="cls-1" d="M67.2,38.8v5c-.2,1-.2,2.1-.5,3.1-2.8,12.2-10.1,20.2-22.1,24a42.1,42.1,0,0,1-6,1.1H33.9l-3.1-.4A31.1,31.1,0,0,1,5.3,38a30.6,30.6,0,0,1,7.2-17,26.5,26.5,0,0,1,4.1-4.1c.2-.2.6-.4.2-.7a5.9,5.9,0,0,0-3.7-1.6l-3.2.2c-3.2-.2-4.7-1.6-5-4.2V7.9a11.6,11.6,0,0,1,1-2.8A9.3,9.3,0,0,1,12.7,0h2.1c3.3,1.1,4.6,2.7,4.5,6.2a8.3,8.3,0,0,0,2,6.2l.3.3c.3.6.7.6,1.2.3,9.7-4.4,19.3-4.2,28.5.9a29.7,29.7,0,0,1,15,19.5A33.8,33.8,0,0,1,67.2,38.8ZM40.9,32.5c.1-.7.2-1.2-.2-1.6a2.3,2.3,0,0,1,0-2.6c.8-1.3,1.7-2.5,3.5-2.3.3,0,.4-.1.5-.4a1.4,1.4,0,0,1,1-1.1,10.2,10.2,0,0,1,4.9-.9,2.1,2.1,0,0,1,1.1.4,2.5,2.5,0,0,0,1.2.7,4.6,4.6,0,0,1,1.5.9,7.5,7.5,0,0,1,2.1,4.9,5.1,5.1,0,0,0,.9,2.7,1.9,1.9,0,0,1,.5,1.4c.1,1.6.1,3.2.2,4.8a3.1,3.1,0,0,1-.7,2.1.8.8,0,0,0-.1,1.1,1.2,1.2,0,0,1-.2,1.7l-.9.9a1.3,1.3,0,0,0-.4,1l.3,2.1c.2.7.5.9,1.2.7a3.1,3.1,0,0,1,2.3-.1l2.1.5c1.1.2,1.1.1,1.4-.9a27.2,27.2,0,0,0-1.9-20A27.9,27.9,0,0,0,29.8,13.8,24.6,24.6,0,0,0,25,15.4c-.6.3-.6.5-.2.9a1.7,1.7,0,0,0,1.8.6,3.9,3.9,0,0,1,2.6.3L33,19a2.7,2.7,0,0,1,1,4,.6.6,0,0,0,0,.7c.4.4.3.8.1,1.3s-.2,1.1.4,1.6l3.1,2.9ZM8.3,40.9v1.9c0,.5.1,1,.1,1.5a27.4,27.4,0,0,0,9.9,18.1,26.8,26.8,0,0,0,11.1,5.7c.9.2,1,.1,1-.7s-.1-2.4-.2-3.6a1.1,1.1,0,0,0-.7-1.1l-2.2-1.2a6.5,6.5,0,0,1-2.8-2.9A2.8,2.8,0,0,0,22.9,57a25.9,25.9,0,0,1-3.8-1.7,8,8,0,0,1-3.3-3,23.8,23.8,0,0,1-3-8.6,13.9,13.9,0,0,1-.2-5,1.8,1.8,0,0,1,1-1.3,2.7,2.7,0,0,0,1-1.1,41.3,41.3,0,0,1,6.3-10.5,12.6,12.6,0,0,0,2.2-3.9,1.3,1.3,0,0,0-.5-1.5l-2-1.6c-.5-.4-.9-.4-1.5.1A27.8,27.8,0,0,0,8.3,40.9Zm32.7,6c1.9,0,1.9,0,2.2-1.7a.4.4,0,0,1,.1-.3,1.7,1.7,0,0,0-.5-1.6,1.6,1.6,0,0,1-.8-1.4,17.5,17.5,0,0,0-.9-3.8,3.1,3.1,0,0,1-.3-2.3,1.3,1.3,0,0,0-.6-1.6l-6.7-5.4a2.5,2.5,0,0,0-2.7-.7c-.3.1-.7-.1-1-.1a6.5,6.5,0,0,0-1.4,0,1.8,1.8,0,0,0-2.1,1.8,56.9,56.9,0,0,1-2,9.1c-.3,1.2.4,1.9,1.6,1.6a3.9,3.9,0,0,1,3,.4l2,1.1a4.7,4.7,0,0,1,2.5,3,.9.9,0,0,0,1.3.7,16.1,16.1,0,0,1,3.8.1.9.9,0,0,1,.8.4A1.5,1.5,0,0,0,41,46.9Zm-.6,4a8.9,8.9,0,0,0,.1,2.3A71.4,71.4,0,0,0,42,65.4c0,.4,0,.9.4.9s.6-.4.8-.7,0-.2.1-.2a26.6,26.6,0,0,1,7.3-10.2.8.8,0,0,0,.4-.4c.4-.4.3-.7-.1-.9a1.5,1.5,0,0,0-.9-.2H47.2a8.1,8.1,0,0,1-5.4-2.7c-.6-.6-.5-.7.2-1.1a.6.6,0,0,0,.1-1.1,1.1,1.1,0,0,0-1.7.8A6.5,6.5,0,0,0,40.4,50.9Zm9.7-20.6c-.1-.4-.4-.5-.6-.7a5.7,5.7,0,0,0-5.9.3,3.1,3.1,0,0,0-1.1,1.6.7.7,0,0,0-.1.6c.2.3.5.1.7,0s1.4.1,1.3,1.1-.1.6-.1.9.1.9,1,.9a2.1,2.1,0,0,1,1.5.5.5.5,0,0,1,.1.8c-.5.7-.5.7.4,1.1s.7.3.3.6-1.5,1.5-2.7,1.3-.9-.3-.6-1,.3-.6,0-.9l-1.2-.9c-.5-.3-.7-.1-.7.3a.6.6,0,0,0,0,.6l.8,2.9a.7.7,0,0,0,1.1.5,7.6,7.6,0,0,1,3.6-.6,1.3,1.3,0,0,0,1.4-1.1,6.1,6.1,0,0,0,.1-1.9,3.7,3.7,0,0,1,1.1-2.8,1.2,1.2,0,0,0,.4-1.1c-.1-1.1-2.1-2.1-3.1-1.7l-.3.3c.1.3.3.2.4.3a2,2,0,0,1,1.1.2.5.5,0,0,1,.4.8c-.2.3-.6.6-1,.2s-.5-.2-.7.1a1.1,1.1,0,0,1-1.3.1,1.8,1.8,0,0,1-.9-1.6,1.4,1.4,0,0,1,.9-1.3,3.3,3.3,0,0,1,1.7-.4ZM17.3,5.6a5,5,0,0,0-.4-1.9,3.4,3.4,0,0,0-2.8-1.8c-.2,0-.5,0-.5.2s.1.3.3.4c2.1,1.2,2.6,2.8,1.6,5-.2.3-.3.9-.8.9s-.4-.7-.5-1.1l-.3-.7a1,1,0,0,0-.8-.7,2.3,2.3,0,0,0-2.9,2.6c.1.8.2.9.8.4a1.5,1.5,0,0,1,1.6-.1.9.9,0,0,1,.5,1,1.3,1.3,0,0,1-.9,1.2A3.2,3.2,0,0,1,7.9,8.3a9.9,9.9,0,0,1,.3-2.4c.1-.2.2-.5-.1-.6s-.5.1-.6.3A6.2,6.2,0,0,0,6.6,10c.4,2.2,2,3,4,3A7.5,7.5,0,0,0,17.3,5.6Zm.5,33.9c.8.1,1.2-.5,1.4-1.2s1.7-4.5,2.6-6.8a23.4,23.4,0,0,1,2.3-5.1,2.5,2.5,0,0,1,1.2-1.1,1.1,1.1,0,0,0,.4-1.9c-.6-.6-1-.6-1.4.1A40.5,40.5,0,0,1,22.2,27l-3.7,5.4a18.7,18.7,0,0,0-2.3,5.2C15.9,38.8,16.5,39.5,17.8,39.5ZM38.3,51.2c-.1-.9-.2-1.9-.4-2.9a.7.7,0,0,0-.8-.8c-1.1-.1-2.3-.3-3.2.9s-.9.5-1.2-.2L32,46.1a5.5,5.5,0,0,0-3.5-3.5c-.5-.3-.8,0-.9.5a1.6,1.6,0,0,0,1.1,2.1A5.7,5.7,0,0,1,31.9,50a9.9,9.9,0,0,0,.2,1.7c.1.6.3.7.8.3l1.9-1.7a1,1,0,0,1,1.7.3l.6,1c.3.3.4.8.8.7S38.2,51.6,38.3,51.2Zm15.2,4.4a2.3,2.3,0,0,0-1.4.7,24.7,24.7,0,0,0-2.8,2.8,20.5,20.5,0,0,0-4.1,7c-.1.2-.3.6,0,.7s.5-.2.6-.4a43.7,43.7,0,0,1,4.9-5.6l3.6-3.4c.7-.7.7-1.3-.3-1.6ZM17.8,9.8c-.2,0-.2.1-.2.3a10.9,10.9,0,0,0-.1,1.8,2.1,2.1,0,0,0,.7,2L25.4,20c.1.1.3.3.5.1s0-.4-.2-.6l-1.8-1.8c-2.1-2.4-4.6-4.5-5.8-7.7C18,9.9,18,9.8,17.8,9.8ZM47.3,51.5h.4c.4-.1.6-.4.3-.7a12.1,12.1,0,0,1-2.8-4.6c-.1-.2-.2-.4-.4-.4s-.3.2-.4.4l-.3,2.6c-.2,1.5.1,2,1.6,2.5ZM27.9,18.4c-.7,0-.9.3-.5.9s.9,1.5,0,2.3-.2.5,0,.7a.5.5,0,0,0,.7-.1,1.8,1.8,0,0,0,.8-1.4c.1-.2.2-.6.5-.2s1.3,0,1.7.6.8.1,1.1.4a.4.4,0,0,0,.5.1.6.6,0,0,0,.1-.4,1.3,1.3,0,0,0-.9-1.2l-3.4-1.6ZM16.3,42.9a5,5,0,0,0,2.1-.5c.2-.1.5-.3.4-.6s-.3-.3-.6-.4l-2.6-.5c-.5-.1-1-.1-1.2.5a1,1,0,0,0,.8,1.3Z"/></svg>