<svg id="Layer_1" data-name="Layer 1" xmlns="http://www.w3.org/2000/svg" viewBox="0 0 30 30"><defs><style>.cls-1{fill:#002e5d;}</style></defs><title>Most_Popular_Apps30</title><path class="cls-1" d="M15.1,28.4h-.2a5.2,5.2,0,0,0-1.1-1L8.9,23.8a27.9,27.9,0,0,1-5.4-4.9A14.6,14.6,0,0,1,.4,13,14.3,14.3,0,0,1,0,10.8V9.4A8.4,8.4,0,0,1,5.3,2.3a7.2,7.2,0,0,1,2.5-.7H9.5a8.1,8.1,0,0,1,5.3,2.6c.2.2.3.1.4,0a9.5,9.5,0,0,1,3.1-2.1,8.6,8.6,0,0,1,2.3-.6h1.8a8.5,8.5,0,0,1,7.2,6.1A11.6,11.6,0,0,1,30,9.6v1.2a1.3,1.3,0,0,1-.1.6,11.6,11.6,0,0,1-2.1,5.7A23.8,23.8,0,0,1,23,22.3c-1.8,1.5-3.8,2.9-5.7,4.2A13.7,13.7,0,0,0,15.1,28.4Z"/></svg>