<svg id="Layer_1" data-name="Layer 1" xmlns="http://www.w3.org/2000/svg" viewBox="0 0 72 72"><defs><style>.cls-1{fill:#002e5d;}</style></defs><title>Most_Popular_Apps72</title><path class="cls-1" d="M36.1,68.1h-.2A34.7,34.7,0,0,0,33,65.6L21.4,57.2a77.2,77.2,0,0,1-13-11.9,34,34,0,0,1-7.5-14A33.8,33.8,0,0,1,0,25.9V23.1c0-.2.1-.3.1-.5,1-8.1,5.2-13.8,12.6-17.2a24,24,0,0,1,6-1.5h4.1a20.3,20.3,0,0,1,12.8,6.3c.3.4.6.3.9,0a20.6,20.6,0,0,1,7.4-5,27.8,27.8,0,0,1,5.5-1.4h4.4A20.6,20.6,0,0,1,71.2,18.6a35.4,35.4,0,0,1,.8,4.5v2.8c0,.5-.1.9-.1,1.4a31.4,31.4,0,0,1-5.2,13.8A55.3,55.3,0,0,1,55.1,53.6c-4.3,3.6-9,6.8-13.5,10.1A46.1,46.1,0,0,0,36.1,68.1Z"/></svg>