<svg id="Layer_1" data-name="Layer 1" xmlns="http://www.w3.org/2000/svg" viewBox="0 0 72 72"><defs><style>.cls-1{fill:#002e5d;}</style></defs><title>My_Classes72</title><path class="cls-1" d="M0,57.6a3,3,0,0,1,2.3-1.9A25.7,25.7,0,0,0,13.5,49c.5-.6.5-.6,0-1.1a21.2,21.2,0,0,1-4-8.6,9.7,9.7,0,0,1,.8-6.5,7.9,7.9,0,0,1,6-4.1,7.2,7.2,0,0,1,6.4,1.8,8.4,8.4,0,0,1,2.4,5,13.4,13.4,0,0,1-1,7.4,28.9,28.9,0,0,1-3,5.8c-.3.4-.3.6.1.8,3.2,2.2,6.5,2.9,10.1,1.2a12.4,12.4,0,0,0,4.1-3.1,4.6,4.6,0,0,1,.7-.7,1.3,1.3,0,0,1,1.8,1.7c-2.4,3.3-5.5,5.8-9.7,6.4a13.3,13.3,0,0,1-9.1-2.1c-.9-.5-.8-.5-1.5.2A26.6,26.6,0,0,1,3.7,60.5l-.6.2H1.8A2.9,2.9,0,0,1,0,58.9ZM19.6,37.1a3.5,3.5,0,0,0-.3-2,1.5,1.5,0,0,0-1.5-1.2c-2,0-3.5.8-3.6,3a13.3,13.3,0,0,0,2.3,7.5c.2.4.4.1.5-.1a23.8,23.8,0,0,0,2.2-4.9A4.7,4.7,0,0,0,19.6,37.1Z"/><path class="cls-1" d="M72,20.2l-3.9,3.9-1.7,1.6c-.2.2-.3.2-.6,0l-8.2-8.2c-.3-.3-.1-.5.1-.7l5-5a1,1,0,0,0,.4-.5h.2l.4.4,7.9,8,.4.3Z"/><path class="cls-1" d="M64.7,27.4l-.3.4-5.7,5.7L49.1,43c-.3.4-.5.4-.8,0l-7.9-7.9c-.5-.5-.5-.5,0-.9L55.5,19c.4-.3.6-.4.9,0l7.9,7.9Z"/><path class="cls-1" d="M37.3,46.3c-.2,0-.3-.2-.2-.5.3-2.3.6-4.6,1-6.9l.3-2.4c0-.1,0-.3.2-.3s.2,0,.3.1L47,44.5c.1.1.2.1.2.3s-.2.1-.3.1l-9.4,1.4Z"/></svg>