<svg id="Layer_1" data-name="Layer 1" xmlns="http://www.w3.org/2000/svg" viewBox="0 0 30 30"><defs><style>.cls-1{fill:#002e5d;}</style></defs><title>My_Classes30</title><path class="cls-1" d="M0,24a1.2,1.2,0,0,1,1-.8,9.6,9.6,0,0,0,4.6-2.8c.2-.2.2-.2,0-.4a9.9,9.9,0,0,1-1.7-3.6,4.1,4.1,0,0,1,.4-2.7A3.2,3.2,0,0,1,6.8,12a2.7,2.7,0,0,1,2.6.7,4.3,4.3,0,0,1,1.1,2.1,5.5,5.5,0,0,1-.5,3.1,13.4,13.4,0,0,1-1.2,2.4.2.2,0,0,0,0,.3,4,4,0,0,0,4.2.5,5.5,5.5,0,0,0,1.8-1.3.2.2,0,0,1,.2-.2.5.5,0,0,1,.7,0,.4.4,0,0,1,.1.6,5.8,5.8,0,0,1-4.1,2.7A4.9,4.9,0,0,1,8,22c-.4-.2-.4-.2-.7.1a10.6,10.6,0,0,1-5.8,3.1H.7a1.4,1.4,0,0,1-.7-.8Zm8.2-8.6a2.5,2.5,0,0,0-.1-.8c-.2-.3-.3-.5-.7-.5a1.4,1.4,0,0,0-1.5,1.3,6,6,0,0,0,1,3.1c.1.2.1,0,.2,0A9.5,9.5,0,0,0,8,16.4,3,3,0,0,0,8.2,15.4Z"/><path class="cls-1" d="M30,8.4,28.4,10l-.7.7a.2.2,0,0,1-.3,0L24,7.3c-.1-.1,0-.2,0-.3l2.1-2.1.2-.2h.1c0,.1.1.1.1.2l3.3,3.3H30Z"/><path class="cls-1" d="M26.9,11.4v.2L24.4,14l-3.9,3.9c-.2.2-.2.2-.4,0l-3.3-3.3c-.2-.2-.2-.2,0-.4l6.3-6.3c.2-.1.3-.1.4,0l3.3,3.3Z"/><path class="cls-1" d="M15.6,19.3c-.2,0-.2-.1-.1-.2a28.9,28.9,0,0,1,.4-2.9c0-.3.1-.7.1-1h.2c1.1,1.2,2.3,2.3,3.4,3.4s.1.1.1.2h-.2l-3.9.6Z"/></svg>