<svg id="Layer_1" data-name="Layer 1" xmlns="http://www.w3.org/2000/svg" viewBox="0 0 72 72"><defs><style>.cls-1{fill:#002e5d;}</style></defs><title>My_Dining_Account72</title><path class="cls-1" d="M37.8,7.7l.3.3a1.3,1.3,0,0,1,.5,1.3,1.4,1.4,0,0,1-1,1h-14c-.5,0-.7.1-.8.7s-.9,4-1.3,6.1-.2.7.6.7h9.6c1.4,0,1.9.6,1.7,1.9-.4,3-.7,6.1-1.1,9.1s-.7,5.9-1,8.8-.7,5.9-1.1,8.8-.7,6.6-1.1,9.9-.5,4.1-.7,6.1a2.2,2.2,0,0,1-.9,1.7H5.9a1.6,1.6,0,0,1-.8-1.4c-.1-.3-.1-.6-.2-.9-.3-3.3-.7-6.6-1.1-9.9L2.6,42.2c-.3-3-.7-6-1-9S.9,27.3.5,24.4C.4,23,.2,21.6,0,20.3V18.7a1.9,1.9,0,0,1,1.7-.8H17.9c.5,0,.7-.2.8-.7.6-2.7,1.2-5.4,1.7-8.1a2.4,2.4,0,0,1,.9-1.5ZM25.7,20.6H21.4c-.5,0-.7.2-.8.7L18.2,32.8c-.1.4,0,.6.4.7a23.6,23.6,0,0,0,9.9,1c.3,0,.5-.1.5-.5l.3-2.1,1.2-10.6c.1-.5,0-.7-.5-.7Zm-15.3,0H3.8c-1,0-1,0-.9,1.1.3,2.7.6,5.4,1,8.1s-.1,1.2,1.3,1h.4a25.8,25.8,0,0,1,9.5,1.4c.3.1.5.1.5-.3.8-3.6,1.5-7.1,2.3-10.7.1-.5,0-.6-.5-.6Zm0,37a1.3,1.3,0,0,0,.8,1.4c.8.2,1.4-.2,1.6-1.3,1.7-7.8,3.3-15.6,4.9-23.4.2-.9.4-.8-.6-1.2l-.8-.3c-.6-.3-.7-.3-.8.4L11,54.5C10.8,55.6,10.6,56.7,10.4,57.6Z"/><path class="cls-1" d="M72,56.6H34.2c-.9,0-.9,0-.9-.9V52c0-.5.1-.7.6-.6H72Z"/><path class="cls-1" d="M38.5,64.3l-1.3-.4a5.8,5.8,0,0,1-3.6-4.3c-.1-.4,0-.6.4-.5H71c.9,0,.9,0,.7.9a5.9,5.9,0,0,1-4.4,4l-.8.3Z"/><path class="cls-1" d="M52.7,48.9H34.3c-.8,0-.9,0-.6-.8a5.7,5.7,0,0,1,5.7-4.4H65.6a6.1,6.1,0,0,1,6.1,4.4c.2.8.2.8-.6.8Z"/></svg>