<svg id="Layer_1" data-name="Layer 1" xmlns="http://www.w3.org/2000/svg" viewBox="0 0 30 30"><defs><style>.cls-1{fill:#002e5d;}</style></defs><title>My_Dining_Account30</title><path class="cls-1" d="M15.8,3.2h.1a1.4,1.4,0,0,1,.2.6.7.7,0,0,1-.5.4H9.8a.3.3,0,0,0-.3.3A23.8,23.8,0,0,0,9,7.2c-.1.3-.1.3.2.3h4c.6,0,.8.2.7.8s-.3,2.5-.4,3.8-.3,2.4-.5,3.6-.3,2.5-.4,3.7-.3,2.8-.5,4.1l-.3,2.6a.9.9,0,0,1-.3.7h-9a.7.7,0,0,1-.4-.6v-.4c-.2-1.4-.4-2.7-.5-4.1s-.3-2.7-.5-4.1S.8,15.1.6,13.9.4,11.4.2,10.1.1,9,0,8.5V7.8a.9.9,0,0,1,.7-.3H7.5a.3.3,0,0,0,.3-.3c.2-1.1.5-2.2.7-3.4a2.1,2.1,0,0,1,.4-.6ZM10.7,8.6H8.9a.3.3,0,0,0-.3.3c-.3,1.6-.7,3.2-1,4.8s0,.2.2.3a11.2,11.2,0,0,0,4.1.4.2.2,0,0,0,.2-.2c0-.3.1-.6.1-.9s.3-3,.5-4.4,0-.3-.2-.3Zm-6.3,0H1.6c-.4,0-.4,0-.4.4s.3,2.3.4,3.4,0,.5.6.5h.1a13.4,13.4,0,0,1,4,.6c.1.1.2,0,.2-.1s.6-3,1-4.5-.1-.2-.2-.2ZM4.3,24a.5.5,0,0,0,.4.6c.3.1.6-.1.6-.6l2.1-9.7c.1-.4.2-.3-.3-.5H6.8c-.3-.1-.3-.1-.3.1-.7,3-1.3,6-1.9,8.9Z"/><path class="cls-1" d="M30,23.6H14.2c-.3,0-.3,0-.3-.4V21.7c0-.2,0-.3.2-.3H30Z"/><path class="cls-1" d="M16,26.8l-.5-.2A2.3,2.3,0,0,1,14,24.8c0-.1,0-.2.2-.2H29.6c.4,0,.4,0,.3.4A2.7,2.7,0,0,1,28,26.7H16Z"/><path class="cls-1" d="M21.9,20.4H14.3c-.4,0-.4,0-.3-.4a2.5,2.5,0,0,1,2.4-1.8H27.3A2.6,2.6,0,0,1,29.9,20c.1.4.1.4-.3.4Z"/></svg>