<svg id="Layer_1" data-name="Layer 1" xmlns="http://www.w3.org/2000/svg" viewBox="0 0 72 72"><defs><style>.cls-1{fill:#002e5d;}</style></defs><title>My_Housing_Account72</title><path class="cls-1" d="M61.7,72H10.3V41.9c0-.1,0-.3-.1-.3s-.3.1-.4.2L8.4,43.2c-.6.6-.6.6-1.3,0l-7-7.1v-.2l.5-.5L35.5.5l.4-.5h.2L48.2,12.2c.1.1.2.3.4.2s.1-.3.1-.5v-4a2.6,2.6,0,0,1,2.9-2.7h2a2.8,2.8,0,0,1,3,3.1V19.8a1.5,1.5,0,0,0,.6,1.3l3.1,3.1L71.9,35.9v.2l-.6.7c-2.2,2.1-4.4,4.3-6.5,6.5-.5.4-.7.4-1.1,0a18.5,18.5,0,0,0-1.4-1.4c-.2-.2-.3-.4-.5-.3s-.1.3-.1.5V72ZM56.4,50c0-5.2,0-10.5.1-15.7a1.8,1.8,0,0,0-.6-1.4L36.5,13.5c-.4-.4-.6-.4-1,0L16.1,32.8a2.2,2.2,0,0,0-.6,1.4c.1,10.5.1,21.1.1,31.6,0,.9,0,1,.8,1H27.1c1.1,0,1.1,0,1.1-1.1V54a7.8,7.8,0,1,1,15.6.1V65.9c0,.8.1.9.9.9H55.4c1,0,1,0,1-1Z"/><path class="cls-1" d="M41.2,33.4a5.2,5.2,0,1,1-10.4,0,5.2,5.2,0,0,1,10.4,0Z"/></svg>