<svg id="Layer_1" data-name="Layer 1" xmlns="http://www.w3.org/2000/svg" viewBox="0 0 30 30"><defs><style>.cls-1{fill:#002e5d;}</style></defs><title>My_Housing_Account30</title><path class="cls-1" d="M25.7,30H4.3V17.5c0-.1,0-.1-.1-.2H4.1l-.6.6c-.3.3-.3.3-.5,0L0,15.1v-.2H.2L14.8.2,15,0h0l5.1,5.1h.2V3.3a1.2,1.2,0,0,1,1.2-1.2,2.2,2.2,0,0,0,.8,0,1.3,1.3,0,0,1,1.3,1.3V8.2a.8.8,0,0,0,.2.6,15.9,15.9,0,0,1,1.3,1.3L30,14.9v.2l-.3.2L27,18c-.2.2-.3.2-.5,0l-.6-.6h-.1a.3.3,0,0,0-.1.2V30Zm-2.2-9.2V14.3c0-.3,0-.4-.2-.6L15.2,5.6c-.2-.2-.3-.1-.4,0L6.7,13.7a.8.8,0,0,0-.2.5V27.4c0,.4,0,.4.4.4h4.4c.4,0,.5,0,.5-.4s-.1-3.3,0-4.9a3.2,3.2,0,1,1,6.4,0c.1,1.7,0,3.3,0,4.9s.1.4.4.4h4.5c.4,0,.4,0,.4-.4Z"/><path class="cls-1" d="M17.2,13.9a2.2,2.2,0,0,1-4.4,0,2.2,2.2,0,0,1,4.4,0Z"/></svg>