<svg id="Layer_1" data-name="Layer 1" xmlns="http://www.w3.org/2000/svg" viewBox="0 0 72 72"><defs><style>.cls-1{fill:#002e5d;}.cls-2{font-size:2.54px;fill:#fff;font-family:ArialMT, Arial;}.cls-3{letter-spacing:-0.02em;}</style></defs><title>MyBYU_Help_Videos72</title><path class="cls-1" d="M68.4,72H3.6A5.1,5.1,0,0,1,0,67.9V4.2c.1-.3.1-.6.2-.9A4.6,4.6,0,0,1,4.6,0H67.4l1.1.2A4.6,4.6,0,0,1,72,3.9V68.2A5.1,5.1,0,0,1,68.4,72ZM4.6,34.1a5.9,5.9,0,0,1,0-2.3V28.3c0-.3,0-.6-.4-.6s-.5.2-.5.5v7a.8.8,0,0,0,.5.7c.3.1.5-.1.7-.3l.5-.6a13.8,13.8,0,0,0,1.5-4.3c.1-.2,0-.5.3-.6s.3.3.4.5,1.5,2.8,2.2,4.2.6.8,1.2.3l.9-.9A19.4,19.4,0,0,0,14,31.3c.1-.1.2-.4.4-.3s.2.3.3.5a18,18,0,0,0,.5,1.9,3.5,3.5,0,0,0,4.8,2,1.6,1.6,0,0,1,.7,0,2.3,2.3,0,0,0,2.4-.1l1.7-.8c.2-.1.4-.3.6,0a1.5,1.5,0,0,1-.4,1.8,9.6,9.6,0,0,0-2.7,2.6,8.4,8.4,0,0,0-1.9,4.7c-.3,4,2.4,6.4,6.3,5.8a2.8,2.8,0,0,0,2.5-2.5,5.5,5.5,0,0,0-.1-2.2,31.9,31.9,0,0,0-1.3-4.4c-.4-1.2-.8-2.5-1.1-3.7s0-.8.5-.9l1.9-.5c.3-.1.5-.2.7.1s.5.4.9.4h5.8a8.3,8.3,0,0,0,2.2-.3,4.2,4.2,0,0,0,2.8-4.1,3.9,3.9,0,0,0-2.7-4c-.1-.1-.3-.1-.4-.3s.3-.2.4-.3a3.2,3.2,0,0,0,1.6-2.8c0-2.5-1.5-4.1-4.2-4.3s-3.5,0-5.3,0-1.1,0-1.1,1.2V33.1c0,1.7,0,1.7-1.6,2h-.4c-1.3.3-1.7-.1-1.5-1.5s.3-.6.5-.9a5.6,5.6,0,0,0,1.5-3.3c0-.5,0-1-.5-1.2s-.9.1-1.2.5a6.3,6.3,0,0,0-1.3,3.5,1.3,1.3,0,0,1-.3,1,5.9,5.9,0,0,1-2.8,1.5.9.9,0,0,1-1.3-.7,4.1,4.1,0,0,1-.2-1.6l.3-2.6c.1-.3,0-.6-.4-.6s-.4.1-.5.4a11.6,11.6,0,0,0,0,4.9c.1.4,0,.5-.4.6a3,3,0,0,1-2.9-1,5.3,5.3,0,0,1-1.1-2.4,11.5,11.5,0,0,1-.3-2.6c0-.3,0-.6-.4-.7a.7.7,0,0,0-.5.4,7.5,7.5,0,0,0-.7,1.2,13.1,13.1,0,0,1-2.6,3.7c-.5.5-.6.5-.9-.2a38.4,38.4,0,0,0-1.8-3.5,5.4,5.4,0,0,0-.9-1.2c-.6-.6-1.1-.5-1.4.3s-.1.8-.2,1.2A10.5,10.5,0,0,1,4.6,34.1Zm53.7-8.7V20.1c0-.5-.2-.8-.8-.8h-.6c-.5,0-.7.2-.7.8V30.7a4.6,4.6,0,0,0,1.6,3.5,6.3,6.3,0,0,0,4.9,1.5,5.4,5.4,0,0,0,5.6-5.8V20.3c0-.9,0-1-.9-1s-1.2,0-1.2,1.2v9.8A3.9,3.9,0,0,1,62,34.2a3.7,3.7,0,0,1-3.7-4ZM47.2,32.2v2.7c-.1,1,.6.8,1.1.8s1,0,1-.8,0-2.7,0-4.1a3.2,3.2,0,0,1,.3-1.4l2.6-4.8,2.3-4.3c.1-.2.4-.5,0-.7a2.2,2.2,0,0,0-2.4.8l-3.3,6.3c-.1.3-.2.8-.5.8s-.5-.5-.6-.8c-1.1-2-2.1-3.9-3-5.9a2,2,0,0,0-2.1-1.2c-.9.1-1,.1-.6.9l3.9,7.1C46.8,29.2,47.5,30.7,47.2,32.2Z"/><path class="cls-1" d="M21.2,43.7a10.2,10.2,0,0,1,4-6.9c.3-.2.5-.3.6.1.7,2.5,1.5,4.9,2.2,7.3a8,8,0,0,1,.3,1.5,2.4,2.4,0,0,1-2.7,2.9C23,48.6,21.2,46.7,21.2,43.7Z"/><path class="cls-1" d="M31.9,31.1V28.9c0-.5.2-.8.7-.8h3.8a3,3,0,0,1,3,3,2.7,2.7,0,0,1-2.7,3c-1.3.1-2.8,0-4.2,0s-.6-.2-.6-.7Z"/><path class="cls-1" d="M31.9,23.8v-2c0-.3.1-.6.5-.6a16,16,0,0,1,3.8.1,2.4,2.4,0,0,1,2.1,2.8,2.3,2.3,0,0,1-2.4,2.3H32.5c-.4,0-.6-.3-.6-.7v-2Z"/><text class="cls-2" transform="translate(30 39.2) scale(1.03 1)">EXPLORE<tspan class="cls-3" x="12" y="0"> </tspan><tspan x="12.6" y="0">YOUR EXPERIENCE</tspan></text></svg>