<svg id="Layer_1" data-name="Layer 1" xmlns="http://www.w3.org/2000/svg" viewBox="0 0 30 30"><defs><style>.cls-1{fill:#002e5d;}</style></defs><title>MyBYU_Info30</title><path class="cls-1" d="M30,1.6V28.4A2.2,2.2,0,0,1,28.5,30H1.5A2.2,2.2,0,0,1,0,28.3V1.7c0-.1.1-.2.1-.3A1.9,1.9,0,0,1,1.9,0H28.6A1.8,1.8,0,0,1,30,1.6ZM1.9,14.2c-.1-.1,0-.3,0-.4v-2c0-.1,0-.3-.1-.3a.3.3,0,0,0-.3.3v2.8a.5.5,0,0,0,.2.4l.4-.2v-.2a6.7,6.7,0,0,0,.7-1.8.4.4,0,0,1,.1-.3l.2.2.9,1.8c.1.3.2.3.5.1l.4-.3.8-1.2.2-.2c.1,0,.1.2.1.3s.1.4.2.6a1.5,1.5,0,0,0,2.1,1c.1-.1.1-.1.2,0a1.1,1.1,0,0,0,1-.1l.7-.3h.3a.7.7,0,0,1-.2.7L9.3,16.2a3.6,3.6,0,0,0-.8,2,2.1,2.1,0,0,0,2.6,2.4,1.3,1.3,0,0,0,1.1-1.1,2.8,2.8,0,0,0-.1-.9,12.1,12.1,0,0,0-.5-1.8c-.2-.5-.3-1-.5-1.6s0-.3.3-.3l.7-.2h.3c.1.2.2.2.4.2h2.5l1-.2a1.8,1.8,0,0,0,1-1.7,1.5,1.5,0,0,0-1.1-1.6H16a.2.2,0,0,1,.2-.2,1.4,1.4,0,0,0,.6-1.6,1.6,1.6,0,0,0-1.7-1.3H12.9c-.5,0-.5,0-.5.4v5.2c0,.8.1.7-.6.8h-.2c-.6.1-.7-.1-.6-.7l.2-.3a2.5,2.5,0,0,0,.6-1.4c0-.2,0-.4-.2-.5s-.4.1-.5.2a1.9,1.9,0,0,0-.5,1.4l-.2.5a2.4,2.4,0,0,1-1.1.6.4.4,0,0,1-.6-.3,1.5,1.5,0,0,1-.1-.7c.1-.3.1-.7.2-1s0-.3-.2-.3a.2.2,0,0,0-.2.2,3.4,3.4,0,0,0,0,2c0,.2,0,.2-.2.3a1.7,1.7,0,0,1-1.3-.5,6.1,6.1,0,0,1-.5-1.8c0-.2.1-.4-.1-.5s-.3.2-.4.4A6.6,6.6,0,0,1,4.7,14c-.3.3-.3.3-.5-.1a7.6,7.6,0,0,0-.9-1.8l-.5-.2c-.2,0-.2.2-.2.4a7.5,7.5,0,0,1-.5,1.6Zm21.5-3.6v2.1h0a2,2,0,0,0,1.4,1.9,2.6,2.6,0,0,0,2.1,0,2.2,2.2,0,0,0,1.6-2V8.3c0-.1,0-.2-.1-.2h-.7c-.2,0-.1.2-.1.4v4.1a1.6,1.6,0,0,1-1.7,1.6,1.5,1.5,0,0,1-1.6-1.6V8.4c0-.3-.2-.4-.4-.3s-.5,0-.5.3ZM17.9,8.2c-.6,0-.6,0-.3.4l1.8,3.5a1.1,1.1,0,0,1,.3.8c-.1.5,0,1.1-.1,1.6s.1.4.4.4h.2a.3.3,0,0,0,.3-.3V12.9a1.4,1.4,0,0,1,.2-.7l1.1-2,.9-1.7c.1-.1.2-.2,0-.3s-.9,0-1,.3l-1.4,2.7c-.1.1-.1.3-.2.3s-.1-.2-.2-.3L18.5,8.6C18.4,8.3,18.2,8.1,17.9,8.2Zm3.8,16.5h0v-.4a1.7,1.7,0,0,0-1.6-1.6,1.7,1.7,0,0,0-1.7,1.4,3.4,3.4,0,0,0-.1,1,1.8,1.8,0,0,0,1.6,1.6,1.7,1.7,0,0,0,1.8-1.4Zm-9.1.5h0V24c-.1-.4.4-.7.8-.8a.8.8,0,0,1,.9.7,3.8,3.8,0,0,1,.1,1v1.5c0,.2.1.2.3.2s.3,0,.3-.2a13.4,13.4,0,0,0-.1-2.8c0-.3-.3-.6-.6-.8a1.4,1.4,0,0,0-1.5.3c-.1.1-.1.2-.2.1s-.1-.1-.1-.2a.3.3,0,0,0-.6,0v3.3c0,.3.2.3.4.3s.3,0,.3-.3Zm5-4.2a1.2,1.2,0,0,0-1.3,1.4c0,.2,0,.4-.3.4s-.2.1-.2.2,0,.3.2.3.3.2.3.5v2.5c0,.3.1.3.4.3a.3.3,0,0,0,.3-.3V23.7c0-.3,0-.4.4-.4s.3-.1.3-.4-.3-.1-.4-.1-.3-.1-.3-.4.1-.7.8-.9l.2-.2c0-.2-.1-.2-.2-.2ZM10,24v2.3a.3.3,0,0,0,.3.3c.3,0,.4-.1.4-.3V21.8c0-.2-.1-.3-.4-.4s-.3.2-.3.4Z"/><path class="cls-1" d="M8.8,18.2a4.5,4.5,0,0,1,1.1-2.3l.6-.6c.1-.1.2-.1.2.1s.8,2.2,1.1,3.4h0c.1,1.1-.5,1.7-1.5,1.4A1.9,1.9,0,0,1,8.8,18.2Z"/><path class="cls-1" d="M14.4,11.7h.8A1.3,1.3,0,0,1,16.4,13c.1.6-.3,1.1-1.1,1.2a10.8,10.8,0,0,1-1.8,0c-.1,0-.2-.1-.2-.3V12a.3.3,0,0,1,.3-.3Z"/><path class="cls-1" d="M13.3,9.9V9.1c0-.2,0-.3.2-.3h1.6a1,1,0,0,1,.9,1.2,1.1,1.1,0,0,1-1.1.9H13.6a.3.3,0,0,1-.3-.3V9.9Z"/><path class="cls-1" d="M21,24.7a1.2,1.2,0,0,1-.2,1,.9.9,0,0,1-1.6,0,2.3,2.3,0,0,1,0-2,.9.9,0,0,1,1.6,0A1.5,1.5,0,0,1,21,24.7Z"/></svg>