<svg id="Layer_1" data-name="Layer 1" xmlns="http://www.w3.org/2000/svg" viewBox="0 0 72 72"><defs><style>.cls-1{fill:#002e5d;}.cls-2{font-size:2.54px;fill:#fff;font-family:ArialMT, Arial;}.cls-3{letter-spacing:-0.02em;}</style></defs><title>MyBYU_Info72</title><path class="cls-1" d="M72,3.9V68.2A5.1,5.1,0,0,1,68.4,72H3.6A5.1,5.1,0,0,1,0,67.9V4.2c.1-.3.1-.6.2-.9A4.6,4.6,0,0,1,4.6,0H67.4l1.1.2A4.6,4.6,0,0,1,72,3.9ZM4.6,34c-.2-.2-.1-.5-.1-.8s.1-3.2.1-4.8,0-.7-.4-.7-.5.3-.5.7v6.7c0,.4.1.7.5.8s.6-.1.8-.4l.4-.5a13.8,13.8,0,0,0,1.5-4.3c.1-.2,0-.6.3-.6s.3.3.4.5a31.7,31.7,0,0,1,2.1,4.1c.4.8.7.9,1.4.4l.9-.9a26.1,26.1,0,0,0,1.9-2.7c.1-.2.2-.6.5-.5s.2.5.3.7a7.4,7.4,0,0,1,.4,1.4,3.5,3.5,0,0,0,5,2.3.6.6,0,0,1,.6,0,2.5,2.5,0,0,0,2.4,0l1.7-.9c.1-.1.3-.3.5,0a1.4,1.4,0,0,1-.3,1.8,11.1,11.1,0,0,0-2.7,2.6,8.2,8.2,0,0,0-1.9,4.7c-.3,4,2.4,6.4,6.3,5.8a2.8,2.8,0,0,0,2.5-2.5,5.5,5.5,0,0,0-.1-2.2,31.9,31.9,0,0,0-1.3-4.4c-.4-1.2-.8-2.5-1.1-3.7s0-.8.5-.9l1.9-.5c.3-.1.5-.2.7.1a.7.7,0,0,0,.8.4h6.1a5.9,5.9,0,0,0,2.3-.5,4,4,0,0,0,2.5-4,4,4,0,0,0-2.6-3.9c-.2-.1-.4,0-.5-.3s.3-.3.5-.4a3.5,3.5,0,0,0,1.4-3.8,4.1,4.1,0,0,0-4.1-3.2H30.9c-1,0-1.1,0-1.1,1.1V33.2c0,1.9.1,1.6-1.5,1.9h-.5c-1.3.3-1.7-.1-1.5-1.5s.3-.6.5-.9a5.6,5.6,0,0,0,1.5-3.3c0-.5,0-1-.5-1.2s-.9.2-1.3.5a7,7,0,0,0-1.2,3.5,1.3,1.3,0,0,1-.3,1,5.9,5.9,0,0,1-2.8,1.5c-.7.2-1.1,0-1.3-.8a3.9,3.9,0,0,1-.2-1.5l.3-2.6c.1-.3,0-.6-.4-.6s-.5.1-.5.4a11.6,11.6,0,0,0,0,4.9c.1.4,0,.5-.4.6a2.9,2.9,0,0,1-3-1.2,7.2,7.2,0,0,1-1.3-4.2c0-.5.2-1.1-.4-1.2s-.7.5-.9.9a16.2,16.2,0,0,1-2.8,4.2c-.6.7-.7.6-1.1-.2a22.6,22.6,0,0,0-2.4-4.3.9.9,0,0,0-1-.6c-.5.1-.6.6-.6,1A14.6,14.6,0,0,1,5,33.5C4.9,33.7,4.9,34,4.6,34Zm51.6-8.6v5.2a4.8,4.8,0,0,0,3.4,4.7,7.8,7.8,0,0,0,5,.1,5.1,5.1,0,0,0,3.7-4.8c.1-3.6,0-7.1,0-10.6,0-.2,0-.5-.2-.6a2.9,2.9,0,0,0-1.6,0c-.4.1-.3.6-.3,1v9.8a3.9,3.9,0,0,1-4.1,4,3.7,3.7,0,0,1-3.8-4v-10c0-.8-.4-.9-1-.9s-1.1.1-1.1.9ZM43,19.6c-1.4,0-1.4,0-.8,1.1L46.7,29a4.1,4.1,0,0,1,.5,1.9c-.1,1.3,0,2.6,0,3.9s.1,1,.8.9h.5c.5.1.8-.2.8-.7s0-2.8,0-4.1a2.3,2.3,0,0,1,.4-1.6l2.5-4.7,2.3-4.3c.1-.2.4-.4,0-.7a2.4,2.4,0,0,0-2.4.7L48.7,27c-.1.2-.2.6-.5.6s-.3-.4-.4-.6l-3.3-6.5C44.1,19.8,43.7,19.4,43,19.6Zm9.1,39.7H52a2.7,2.7,0,0,0,0-.9,3.9,3.9,0,0,0-3.7-3.8,3.8,3.8,0,0,0-4.2,3.2,6.5,6.5,0,0,0-.1,2.4,4,4,0,0,0,8,.4C52.1,60.2,52,59.8,52.1,59.3ZM30.2,60.4h0a24.3,24.3,0,0,0,0-2.7,1.9,1.9,0,0,1,2-1.9,1.8,1.8,0,0,1,2.2,1.6,19.3,19.3,0,0,1,.1,2.4v3.5c0,.5.2.6.7.6s.8,0,.8-.5a37.8,37.8,0,0,0-.2-6.7,2.1,2.1,0,0,0-1.5-1.9,3.4,3.4,0,0,0-3.6.6c-.1.2-.2.4-.5.3s-.1-.3-.1-.5-.4-.7-.8-.7-.6.3-.6.7v8c0,.6.2.7.7.7s.8-.1.8-.7Zm12-9.9c-2,0-3,1.1-3,3.2,0,.6-.1,1.1-.9,1s-.5.3-.5.6.1.6.5.6.9.5.9,1.1v6.1c0,.6.2.8.8.8s.7-.3.7-.8V56.9c0-.7.2-1.1,1-1s.9-.3.7-.9-.5-.3-.8-.3-.9-.3-.9-.9.4-1.8,2-2.1.4-.3.5-.7-.2-.4-.5-.5ZM24,57.6c0,1.8.1,3.7,0,5.5s.2.8.8.8.8-.3.8-.8V52.3c0-.5-.2-.8-.8-.8s-.8.3-.8.8S24,55.9,24,57.6Z"/><path class="cls-1" d="M21.2,43.6a10.3,10.3,0,0,1,2.6-5.5l1.5-1.3c.2-.2.4-.3.5.1.7,2.7,1.9,5.3,2.4,8.1v.2c.4,2.6-1,3.9-3.6,3.3S21.2,46.3,21.2,43.6Z"/><path class="cls-1" d="M34.5,28.1h2a3,3,0,0,1,2.9,3,2.8,2.8,0,0,1-2.6,3c-1.4.1-2.9,0-4.3,0s-.6-.2-.6-.7V28.8c0-.5.2-.7.7-.7Z"/><path class="cls-1" d="M31.9,23.8v-2c0-.4.1-.6.5-.6a16.1,16.1,0,0,1,3.8.1,2.5,2.5,0,0,1,2.1,2.9,2.4,2.4,0,0,1-2.5,2.2H32.6c-.6,0-.7-.3-.7-.8V23.8Z"/><path class="cls-1" d="M50.5,59.3a4.7,4.7,0,0,1-.5,2.4,2.3,2.3,0,0,1-3.9,0,4.8,4.8,0,0,1,0-4.8,2.2,2.2,0,0,1,3.8-.1A4.9,4.9,0,0,1,50.5,59.3Z"/><text class="cls-2" transform="translate(30 39.2) scale(1.03 1)">EXPLORE<tspan class="cls-3" x="12" y="0"> </tspan><tspan x="12.6" y="0">YOUR EXPERIENCE</tspan></text></svg>