<svg id="Layer_1" data-name="Layer 1" xmlns="http://www.w3.org/2000/svg" viewBox="0 0 30 30"><defs><style>.cls-1{fill:#002e5d;}</style></defs><title>MyBYU_Help_Videos30</title><path class="cls-1" d="M28.5,30H1.5A2.2,2.2,0,0,1,0,28.3V1.7c0-.1.1-.2.1-.3A1.9,1.9,0,0,1,1.9,0H28.6A1.8,1.8,0,0,1,30,1.6V28.4A2.2,2.2,0,0,1,28.5,30ZM1.9,14.2V11.8c0-.1,0-.3-.1-.3s-.2.1-.3.3v2.9c0,.1.1.2.2.3l.4-.2v-.2a6.7,6.7,0,0,0,.7-1.8.4.4,0,0,1,.1-.3l.2.2.9,1.8c.1.3.2.3.5.1l.4-.3.8-1.2.2-.2c.1,0,.1.1.1.2s.1.5.2.8a1.5,1.5,0,0,0,2,.9.2.2,0,0,1,.3,0,.9.9,0,0,0,1-.1l.7-.3h.3a.6.6,0,0,1-.2.7L9.3,16.2a3,3,0,0,0-.8,2,2.1,2.1,0,0,0,2.6,2.4,1.3,1.3,0,0,0,1.1-1.1,2.8,2.8,0,0,0-.1-.9,12.1,12.1,0,0,0-.5-1.8c-.2-.5-.3-1-.5-1.6s0-.3.2-.3l.8-.2h.3c.1.2.2.2.4.2h2.4l.9-.2A1.6,1.6,0,0,0,17.3,13a1.6,1.6,0,0,0-1.1-1.6H16c0-.1.1-.1.2-.2a1.3,1.3,0,0,0,.6-1.1,1.6,1.6,0,0,0-1.7-1.8H12.9c-.5,0-.5,0-.5.4v5.2c0,.7,0,.7-.7.8h-.1c-.6.1-.7-.1-.6-.7l.2-.3a2.5,2.5,0,0,0,.6-1.4c0-.2,0-.4-.2-.5s-.4.1-.5.2a1.9,1.9,0,0,0-.5,1.4l-.2.5a2.3,2.3,0,0,1-1.2.6c-.2.1-.4,0-.5-.3a1.3,1.3,0,0,1-.1-.6c.1-.4.1-.8.2-1.1s0-.3-.2-.3a.2.2,0,0,0-.2.2,3.4,3.4,0,0,0,0,2c0,.2,0,.2-.2.3A1.3,1.3,0,0,1,7,14.2a2.3,2.3,0,0,1-.5-1,3.4,3.4,0,0,1-.1-1c0-.2,0-.3-.1-.3H6l-.2.5a9.1,9.1,0,0,1-1.1,1.6c-.2.2-.3.2-.4-.1a6.4,6.4,0,0,0-.8-1.4L3.2,12c-.3-.2-.5-.2-.6.2a4.3,4.3,0,0,0-.1.5A4.7,4.7,0,0,1,1.9,14.2Zm22.4-3.6V8.4q0-.5-.3-.3h-.3q-.3-.1-.3.3v4.4a1.8,1.8,0,0,0,.7,1.5,3,3,0,0,0,2,.6,2.4,2.4,0,0,0,2.4-2.4V8.4c0-.3-.1-.3-.4-.3s-.5,0-.5.4v4.1a1.6,1.6,0,0,1-1.8,1.6,1.4,1.4,0,0,1-1.5-1.6Zm-4.6,2.8a4.5,4.5,0,0,1-.1,1.2c0,.3.3.3.5.3s.4,0,.4-.3V12.8a1.4,1.4,0,0,1,.2-.6l1-2a9.5,9.5,0,0,0,1-1.7c.1-.1.2-.2,0-.3a.8.8,0,0,0-1,.3l-1.3,2.6c-.1.1-.1.4-.3.4s-.2-.2-.2-.4S19,9.5,18.6,8.7s-.4-.6-.9-.5-.4,0-.2.3,1.1,2,1.6,3A2.9,2.9,0,0,1,19.7,13.4Z"/><path class="cls-1" d="M8.8,18.2a4.2,4.2,0,0,1,1.7-2.9c.1-.1.2-.1.3.1l.9,3c0,.2.1.4.1.7a1,1,0,0,1-1.1,1.2A2,2,0,0,1,8.8,18.2Z"/><path class="cls-1" d="M13.3,12.9V12a.3.3,0,0,1,.3-.3h1.6A1.2,1.2,0,0,1,16.4,13c.1.6-.4,1.1-1.1,1.2a9.6,9.6,0,0,1-1.7,0,.3.3,0,0,1-.3-.3Z"/><path class="cls-1" d="M13.3,9.9V9.1c0-.2,0-.3.2-.3h1.6a1,1,0,0,1,.9,1.2,1.1,1.1,0,0,1-1,.9H13.5l-.2-.2V9.9Z"/></svg>