<svg id="Layer_1" data-name="Layer 1" xmlns="http://www.w3.org/2000/svg" viewBox="0 0 72 72"><defs><style>.cls-1{fill:#002e5d;}</style></defs><title>Network_Traffic72</title><path class="cls-1" d="M40,72H32.2c0-.3-.1-.6-.1-1V55c0-1,0-1-1-1H10.8a2.6,2.6,0,0,1-1.7-.7L.8,45A2.8,2.8,0,0,1,0,43.9v-.4a2.1,2.1,0,0,1,.8-1.1l8.1-8.2a3.3,3.3,0,0,1,2.2-.9H31.2c.9,0,.9,0,.9-.8V29.4c0-1,0-1-1-1H15.6a2.6,2.6,0,0,1-2.7-2.6c-.1-5.1,0-10.3,0-15.5a2.7,2.7,0,0,1,2.2-2.6h16c1,0,1,0,1-1.1V3.8A3.9,3.9,0,0,1,33.9.7,3.5,3.5,0,0,1,35.4,0h1.4C39.3.9,40,2,40,4.7V7c0,.5.2.7.6.7H61a2.6,2.6,0,0,1,2.1.8l6.2,6.3A34.4,34.4,0,0,1,72,17.5v1a3.9,3.9,0,0,1-.8,1l-7.9,7.9a3.1,3.1,0,0,1-2.4,1h-20c-.9,0-.9,0-.9.8v3.3c0,.6.2.8.8.8H56.1c2.1,0,3.1,1.1,3.2,3.2V50.9C59.2,53,58.2,54,56.2,54H40.9c-.9,0-.9.1-.9.9V72Z"/></svg>