<svg id="Layer_1" data-name="Layer 1" xmlns="http://www.w3.org/2000/svg" viewBox="0 0 30 30"><defs><style>.cls-1{fill:#002e5d;}</style></defs><title>Network_Traffic30</title><path class="cls-1" d="M16.6,30H13.4V22.9c0-.4,0-.4-.4-.4H4.5a.9.9,0,0,1-.7-.3L.3,18.8,0,18.3v-.2l.3-.4,3.4-3.4a1.2,1.2,0,0,1,.9-.4H13c.4,0,.4,0,.4-.4V12.3c0-.5,0-.5-.4-.5H6.5a1,1,0,0,1-1.1-1V4.3a1,1,0,0,1,.9-1.1h6.6c.5,0,.5,0,.5-.5V1.6A1.6,1.6,0,0,1,14.1.3l.6-.3h.6a1.7,1.7,0,0,1,1.4,2v.9c0,.2,0,.3.2.3h8.5a1.2,1.2,0,0,1,.9.3l2.6,2.6L30,7.3v.4l-.3.4-3.3,3.3a1.3,1.3,0,0,1-1,.4H17c-.3,0-.3,0-.3.4v1.4c0,.2,0,.3.3.3h6.4a1.2,1.2,0,0,1,1.3,1.3v6c0,.9-.4,1.3-1.3,1.3H17c-.3,0-.3,0-.3.4v5.3A10.9,10.9,0,0,1,16.6,30Z"/></svg>