<svg id="Layer_1" data-name="Layer 1" xmlns="http://www.w3.org/2000/svg" viewBox="0 0 30 30"><defs><style>.cls-1{fill:#002e5d;}</style></defs><title>PDP30</title><path class="cls-1" d="M26.2,25.7H3.8A4.9,4.9,0,0,1,3.9,24a4.5,4.5,0,0,1,2.4-3.8,20.2,20.2,0,0,1,3.6-1.8,12.7,12.7,0,0,0,1.8-.6,1.1,1.1,0,0,0,.6-.9,5.9,5.9,0,0,0-.6-3.2,5.4,5.4,0,0,1-1-3,11.2,11.2,0,0,1,.5-3.6,3.8,3.8,0,0,1,2.5-2.6l.7-.2h1.3l1,.3A4.4,4.4,0,0,1,19,7.5a9.8,9.8,0,0,1,.3,3.4,4,4,0,0,1-.7,2.4,5.7,5.7,0,0,0-.9,3.6,1.5,1.5,0,0,0,.6.9l.9.3a25.2,25.2,0,0,1,4.7,2.2,4.3,4.3,0,0,1,1.9,2.3A6.5,6.5,0,0,1,26.2,25.7Z"/><path class="cls-1" d="M30,22.5H27.1c-.1,0-.3,0-.3-.2a7.2,7.2,0,0,0-2.9-3.1A15.9,15.9,0,0,0,21,17.7c-.2,0-.3-.1-.1-.2s.5-1.1.5-1.8a3.6,3.6,0,0,0-.6-2,2.6,2.6,0,0,1-.4-1.5,6.3,6.3,0,0,1,.4-3,3.3,3.3,0,0,1,3.9-1.6,2.8,2.8,0,0,1,1.7,1.8,6.4,6.4,0,0,1,.3,3.6,4.7,4.7,0,0,1-.5,1,4,4,0,0,0-.4,2.4.8.8,0,0,0,.5.8l1.9,1.2A3.3,3.3,0,0,1,30,21.2h0Z"/><path class="cls-1" d="M0,22.1a6.6,6.6,0,0,0,.1-1.4,3.5,3.5,0,0,1,1.2-1.9,15,15,0,0,1,2.3-1.5,1.1,1.1,0,0,0,.7-1.2,4.6,4.6,0,0,0-.6-2.3,4.8,4.8,0,0,1-.5-1.7,10.1,10.1,0,0,1,.3-2.5A3,3,0,0,1,7.7,7.8a3,3,0,0,1,1.8,2.4,5.2,5.2,0,0,1,.1,2.5,2.5,2.5,0,0,1-.4,1.1,4.5,4.5,0,0,0-.6,2.8,1,1,0,0,0,.4.7c.3.3.3.3-.1.5a11.9,11.9,0,0,0-4.4,2.7,5.2,5.2,0,0,0-1.2,1.7c-.1.3-.2.3-.4.3H0Z"/></svg>