<svg id="Layer_1" data-name="Layer 1" xmlns="http://www.w3.org/2000/svg" viewBox="0 0 72 72"><defs><style>.cls-1{fill:#002e5d;}</style></defs><title>PDP72</title><path class="cls-1" d="M63,61.7H9c0-1.4.1-2.7.2-4A11.6,11.6,0,0,1,15,48.5a54.7,54.7,0,0,1,8.8-4.2L28,42.7a2.4,2.4,0,0,0,1.5-2.1c.1-2.7,0-5.4-1.5-7.8a13.9,13.9,0,0,1-2.3-7.1,22.7,22.7,0,0,1,1.1-8.6,9.6,9.6,0,0,1,6.1-6.3l1.7-.5h3a24.1,24.1,0,0,1,2.5.8c3,1.4,4.6,3.9,5.5,7a22.1,22.1,0,0,1,.7,8.1,10.6,10.6,0,0,1-1.7,5.7,13,13,0,0,0-2,8.6,2.2,2.2,0,0,0,1.3,2.1,20.4,20.4,0,0,0,2.2.9,53.7,53.7,0,0,1,11.4,5.3A9.7,9.7,0,0,1,62,54.2,18.9,18.9,0,0,1,63,61.7Z"/><path class="cls-1" d="M72,54H65.1c-.4.1-.7,0-.8-.4-1.4-3.4-4-5.7-6.9-7.6a36.1,36.1,0,0,0-7.1-3.5c-.3-.1-.7-.2-.3-.5s1.5-2.7,1.4-4.4a9.7,9.7,0,0,0-1.5-4.7,7.6,7.6,0,0,1-1.1-3.6A13.2,13.2,0,0,1,50,22.2a7.7,7.7,0,0,1,9.3-3.9,7.1,7.1,0,0,1,4.2,4.3,15.4,15.4,0,0,1,.5,8.5,6.6,6.6,0,0,1-1.1,2.4,10.4,10.4,0,0,0-1,6,2.2,2.2,0,0,0,1.3,1.9l4.5,2.8a7.7,7.7,0,0,1,4.2,6.6c0,.1.1.1.1.2Z"/><path class="cls-1" d="M0,53c.2-1,.1-2.1.3-3.2A7.2,7.2,0,0,1,3.2,45a59.5,59.5,0,0,1,5.3-3.4,3,3,0,0,0,1.8-3,9.6,9.6,0,0,0-1.4-5.5,8.8,8.8,0,0,1-1.1-4.2A14.7,14.7,0,0,1,8.5,23c1.5-4.8,6.1-6,9.9-4.4a7.7,7.7,0,0,1,4.5,5.8,15.2,15.2,0,0,1,.2,6,6.7,6.7,0,0,1-1,2.6,11.5,11.5,0,0,0-1.4,6.8,2.7,2.7,0,0,0,1,1.8c.7.7.7.7-.2,1.1a28.6,28.6,0,0,0-10.7,6.4,13,13,0,0,0-2.9,4.3,1,1,0,0,1-1,.7H.8c-.3,0-.6.1-.8-.1Z"/></svg>