<svg id="Layer_1" data-name="Layer 1" xmlns="http://www.w3.org/2000/svg" viewBox="0 0 72 72"><defs><style>.cls-1{fill:#002e5d;}</style></defs><title>Personal_Notices72</title><path class="cls-1" d="M.3,0,1,.5l70.1,35,.9.4v.3l-1,.4L1.1,71.6c-.3.1-.7.5-1,.3s.2-.7.3-1L15.1,36.7a1.9,1.9,0,0,0,0-1.3L5.5,13.1C3.7,9,1.9,4.8.2.6A1.4,1.4,0,0,1,0,0ZM8,64a1.5,1.5,0,0,0,.7-.3L63.3,36.4c.2-.1.5-.1.5-.4s-.3-.3-.5-.4L8.7,8.3c-.2-.1-.4-.3-.7-.2l.3.7,5,11c2,4.4,4,8.7,5.9,13.1.2.4.4.6.8.6l10.5.7,9.2.6,13.9.9,2.9.3a1.1,1.1,0,0,1-.9.2l-7,.4-9.8.7-6.6.4-11.7.8a1.3,1.3,0,0,0-1.4.9c-2.6,5.8-5.2,11.6-7.9,17.4Z"/></svg>