<svg id="Layer_1" data-name="Layer 1" xmlns="http://www.w3.org/2000/svg" viewBox="0 0 30 30"><defs><style>.cls-1{fill:#002e5d;}</style></defs><title>Personal_Notices30</title><path class="cls-1" d="M.1,0,.4.2,29.6,14.8l.4.2h0l-.4.2L.5,29.8c-.2.1-.3.3-.4.2s0-.3.1-.4c2-4.8,4-9.6,6.1-14.3a.6.6,0,0,0,0-.6c-1.4-3-2.7-6.1-4-9.2S.8,2,.1.3A.4.4,0,0,1,0,0ZM3.3,26.6c.2.1.2,0,.3-.1L26.4,15.2l.2-.2-.2-.2L3.6,3.5c-.1-.1-.1-.2-.3-.1a.4.4,0,0,1,.1.3L5.5,8.3c.9,1.8,1.7,3.6,2.5,5.4q.1.3.3.3l4.4.3,3.8.2,5.9.4h.8l-3,.2-4,.2-2.8.2L8.5,16c-.2.1-.4.1-.5.4L4.7,23.6Z"/></svg>