<svg id="Layer_1" data-name="Layer 1" xmlns="http://www.w3.org/2000/svg" viewBox="0 0 72 72"><defs><style>.cls-1{fill:#002e5d;}</style></defs><title>Provo_Temple_Information72</title><path class="cls-1" d="M7.4,30.6A2.5,2.5,0,0,1,10,29H62a2.4,2.4,0,0,1,2.6,1.6V60.1A2.3,2.3,0,0,1,62,61.8H10.1c-1.3,0-2.2-.3-2.7-1.5Zm6.1,14.8V32.1c0-.9,0-.9-.9-.9H10.4c-.8,0-.8,0-.8.9V58.7c0,.9,0,.9.9.9a16.1,16.1,0,0,1,2.2,0c.6.1.8-.2.8-.9Zm24.5,0V32c0-.6-.2-.9-.8-.8H35.1c-1.1,0-1.1,0-1.1,1V59a.5.5,0,0,0,.6.6H37c1,0,1,0,1-.9Zm4.2-.1c0,4.5,0,9-.1,13.5,0,.6.2.8.8.8h2.2c1,0,1,0,1-1V31.7c0-.4-.2-.5-.6-.5H43c-.6-.1-.9.1-.9.8C42.2,36.4,42.2,40.9,42.2,45.3Zm20.2.1c0-4.4,0-8.9.1-13.4,0-.7-.2-.9-.8-.8H59.5c-1,0-1,0-1,.9V59a.5.5,0,0,0,.6.6,20.9,20.9,0,0,1,2.5,0c.7,0,.9-.2.9-.9C62.4,54.3,62.4,49.9,62.4,45.4Zm-40.8,0V32c0-.6-.1-.9-.8-.8H18.7c-.9,0-.9,0-.9,1V58.9c0,.5.1.7.7.7h2.2c.9,0,.9,0,.9-1Zm4.3-.1V58.5c0,1.1,0,1.1,1.1,1.1h1.8c1,0,1,0,1-1V32.8c0-.3-.1-.6,0-.8s-.2-.9-.8-.8H26.8c-.9,0-.9,0-.9.9Zm24.5.1V58.7c0,.9,0,.9.9.9h2c.9,0,.9,0,.9-.9V32.2c0-1,0-1-1-1H51.3c-.9,0-.9,0-.9.9Z"/><path class="cls-1" d="M64.6,63.7v2.2H61.2c-.5,0-.7.1-.7.6v2.7c0,.5.2.6.7.6h3.4v1.8c0,.2,0,.3-.3.3H8c-.5,0-.7-.1-.6-.6V69.9h3.5c.4,0,.6-.1.6-.6V66.5c0-.5-.2-.6-.7-.6H7.4V63.7H64.6ZM24.7,69.8h8.4c.6,0,.8-.2.8-.8a10.4,10.4,0,0,1,0-2.5c0-.5-.2-.6-.7-.6H16.3c-.5,0-.6.2-.6.6v2.6c-.1.6.2.7.7.7Zm22.5,0h8.4c.5,0,.8-.1.7-.6V66.5c0-.5-.1-.6-.6-.6H39.2c-1.1,0-1.1,0-1.1,1.1a13.3,13.3,0,0,1,0,2c0,.7.2.8.8.8Z"/><path class="cls-1" d="M36.1,0a16.4,16.4,0,0,0,.2,2.3c.2,3.6.4,7.1.7,10.7s.6,9.5,1,14.2c0,.5-.1.8-.6.8H34.6c-.5,0-.6-.2-.6-.7s.3-4.1.4-6.1.4-4.4.5-6.6l.6-9.2c.2-1.6.3-3.2.4-4.9A.4.4,0,0,1,36.1,0Z"/></svg>