<svg id="Layer_1" data-name="Layer 1" xmlns="http://www.w3.org/2000/svg" viewBox="0 0 30 30"><defs><style>.cls-1{fill:#002e5d;}</style></defs><title>Provo_Temple_Information30</title><path class="cls-1" d="M3.1,12.8a1,1,0,0,1,1.1-.7H25.8a1,1,0,0,1,1.1.7V25.1c-.2.5-.5.6-1.1.6H4.2c-.5,0-.9-.1-1.1-.6Zm2.5,6.1V13.4c0-.4,0-.4-.4-.4H4.3c-.3,0-.3,0-.3.4v11c0,.4,0,.4.4.4h.9c.3.1.3-.1.3-.3Zm10.2,0V13.3c0-.2,0-.3-.3-.3h-.9c-.4,0-.4,0-.4.4V24.6c0,.2,0,.2.2.2h1c.4,0,.4,0,.4-.3Zm1.8,0v5.6c0,.3,0,.3.3.3h.9c.4,0,.4,0,.4-.4V13.2A.2.2,0,0,0,19,13H17.9c-.3,0-.3.1-.3.3Zm8.4,0V13.3a.3.3,0,0,0-.3-.3h-.9c-.4,0-.4,0-.4.4V24.6c0,.2,0,.2.2.2h1.1q.3.1.3-.3Zm-17,0V13.3a.3.3,0,0,0-.3-.3H7.8c-.4,0-.4,0-.4.4V24.5a.3.3,0,0,0,.3.3h.9c.4,0,.4,0,.4-.4Zm1.8,0v5.5c0,.4,0,.4.5.4H12c.4,0,.4,0,.4-.4V13.3a.3.3,0,0,0-.3-.3h-.9c-.4,0-.4,0-.4.4Zm10.2,0v5.5c0,.4,0,.4.4.4h.8c.4,0,.4,0,.4-.4v-11c0-.4,0-.4-.4-.4h-.8c-.4,0-.4,0-.4.4Z"/><path class="cls-1" d="M26.9,26.6v.8a6.6,6.6,0,0,1-1.4,0,.3.3,0,0,0-.3.3v1.1a.3.3,0,0,0,.3.3h1.4v.8c0,.1,0,.1-.1.1H3.3c-.2,0-.2,0-.2-.3v-.6H4.5c.2,0,.3-.1.3-.2V27.7a.3.3,0,0,0-.3-.3,6.6,6.6,0,0,1-1.4,0v-.8H26.9ZM10.3,29.1h3.5c.2,0,.3-.1.3-.4v-1a.3.3,0,0,0-.3-.3c-2.3.1-4.7.1-7,0a.3.3,0,0,0-.3.3v1.1a.3.3,0,0,0,.3.3Zm9.4,0h3.5a.3.3,0,0,0,.3-.3V27.7a.3.3,0,0,0-.3-.3H16.3c-.4,0-.4,0-.4.4v.9a.3.3,0,0,0,.3.3Z"/><path class="cls-1" d="M15,0a3.8,3.8,0,0,1,.1,1l.3,4.4c.1,2,.3,4,.4,5.9,0,.3,0,.4-.2.4H14.4c-.2,0-.2-.1-.2-.3s.1-1.7.1-2.6a24.5,24.5,0,0,0,.2-2.7l.3-3.8A14.8,14.8,0,0,0,14.9.2Z"/></svg>