<svg id="Layer_1" data-name="Layer 1" xmlns="http://www.w3.org/2000/svg" viewBox="0 0 30 30"><defs><style>.cls-1{fill:#002e5d;}</style></defs><title>Quote_of_the_Day30</title><path class="cls-1" d="M30,12.8l-.3,1.5a3.8,3.8,0,0,1-1.1,1.4,8.2,8.2,0,0,1-2.6,1H25c-.3,0-.4,0-.6.3a6.2,6.2,0,0,1-1.8,1.8,3.6,3.6,0,0,1-2.3.3l-1.5-.5a2,2,0,0,1-.8-.4.6.6,0,0,0-.7-.1,3.8,3.8,0,0,1-1.7.8,3.4,3.4,0,0,1-3.4-1.4c-.2-.2-.3-.3-.5-.2a3.8,3.8,0,0,1-2.7.7,5.7,5.7,0,0,1-3.1-1,3.1,3.1,0,0,1-1.4-1.6C4.4,15,4.2,15,4,15a4.5,4.5,0,0,1-2.3-.4A2.9,2.9,0,0,1,0,12.2H0v-.4l.3-1.4a5.8,5.8,0,0,1,2.5-3,3.8,3.8,0,0,1,2.1-.5h.4A2.1,2.1,0,0,1,6.6,6c.3,0,.4-.1.5-.5A3.5,3.5,0,0,1,9.8,2.7a3,3,0,0,1,3.2.8c.2.1.3.1.5-.1l.7-.7a5.6,5.6,0,0,1,2.1-.9H18a3.2,3.2,0,0,1,2.6,1.5h.3l.9.2a1.4,1.4,0,0,0,.9.1,3.9,3.9,0,0,1,2.4.1l1.5.6.4.2a8.4,8.4,0,0,1,1.1,2.1A3.8,3.8,0,0,1,28,8.9c0,.2,0,.4.3.5l.7.4a1.6,1.6,0,0,1,.6.8c.1.5.3.9.4,1.3ZM27.2,7.9a3.3,3.3,0,0,0-.5-1.8,3,3,0,0,0-3.8-1.4c-.5.2-.9.3-1.2-.1l-.3-.2c-.2-.1-.3-.1-.4,0s-1,.2-1.2-.4a1.4,1.4,0,0,0-.5-.8l-1.2-.5a3,3,0,0,0-2.1.1,4.6,4.6,0,0,0-2.1,1.8c-.3.5-.7.5-1,0a2.7,2.7,0,0,0-1-1.1,2.4,2.4,0,0,0-2.8.3A2.8,2.8,0,0,0,8,6.3a1.4,1.4,0,0,1-.2.6c-.1.2-.2.2-.5.1s-.6-.4-1.2.3a.3.3,0,0,1-.1.2c-.2.3-.5.5-.7.3a1.4,1.4,0,0,0-1.5,0A4.7,4.7,0,0,0,1,11.1a2.2,2.2,0,0,0,.8,2.5c.8.6,1.6,1.1,2.6.3s.7,0,.8.3a2.8,2.8,0,0,0,1.7,2.2l.4.2a3.3,3.3,0,0,0,4-.3l.3-.2c.4-.4.8-.3,1.1.2a4.7,4.7,0,0,0,.6.9l1,.7h.5a2.8,2.8,0,0,0,2.4-1c.5-.6.9-.5,1.3.1a1.8,1.8,0,0,0,1.1.8l.9.3a2.5,2.5,0,0,0,1.7-.3,4.1,4.1,0,0,0,1.5-1.7c.3-.8.3-.8,1.1-.5a2.6,2.6,0,0,0,2.1,0l.5-.2a3.2,3.2,0,0,0,1.2-1.1,4.7,4.7,0,0,0,.2-3.1,1.7,1.7,0,0,0-1.5-1.4c-.5,0-.7-.3-.5-.8l.3-.7C27.1,8.2,27.2,8.1,27.2,7.9Z"/><path class="cls-1" d="M7.2,28.2a2.8,2.8,0,0,1-1.1-.8c-.2-.2-.5-.2-.7-.3s-.6-.3-.6-.8a1.5,1.5,0,0,1,1.6-1.7,1.6,1.6,0,0,0,.9-.3,1.6,1.6,0,0,1,2.4.8l.3.3.6.3a.7.7,0,0,1,.2,1.2,1.3,1.3,0,0,1-1.4.7l-.4.2-1,.4Zm1.6-1.5h.4a.6.6,0,0,0,.8-.4c0-.2-.1-.3-.2-.3H9.5c-.5,0-.8-.2-.8-.7a.7.7,0,0,0-.1-.5q-.3-.5-.6,0l-.3.4a.5.5,0,0,1-.8.1.6.6,0,0,0-.7,0l-.5.6c-.1.3,0,.4.3.4h.3c.4,0,.5.2.6.5s.1.3.2.3A.7.7,0,0,0,8.3,27,.5.5,0,0,1,8.8,26.7Z"/><path class="cls-1" d="M6.7,21.1s0-.2.1-.2.8-1.3,1.7-1.4h.1a2.5,2.5,0,0,0,1.6-.6,1.2,1.2,0,0,1,1.3-.1c.3.2.7.3.9.7s.3.1.5.1a1.5,1.5,0,0,1,1.5.8,1.7,1.7,0,0,1,.3,1.2,1.4,1.4,0,0,1-1.3,1.1H13a1.2,1.2,0,0,0-.9.4,2.7,2.7,0,0,1-2.6.3H9.3c-.3-.5-.7-.5-1.2-.6A1.5,1.5,0,0,1,6.7,21.1Zm7,0a.6.6,0,0,0-.9-.6c-.8.2-1,0-1.3-.7a.7.7,0,0,0-.5-.4,1.1,1.1,0,0,0-.9.5c-.1.5-.2.5-.7.4a1.6,1.6,0,0,0-.7,0,1.8,1.8,0,0,0-.8.7.6.6,0,0,0,0,.8c.1.3.4.3.7.2h.3c.5-.1.8,0,.9.5s.1.3.2.3a1.1,1.1,0,0,0,1.5-.5c.1-.4.2-.4.6-.4h.4A.8.8,0,0,0,13.7,21.1Z"/></svg>