<svg id="Layer_1" data-name="Layer 1" xmlns="http://www.w3.org/2000/svg" viewBox="0 0 72 72"><defs><style>.cls-1{fill:#002e5d;}</style></defs><title>Quote_of_the_Day72</title><path class="cls-1" d="M72,30.7a24.5,24.5,0,0,1-.8,3.7,7.2,7.2,0,0,1-2.5,3.2,15.7,15.7,0,0,1-6.3,2.5,11,11,0,0,1-2.5-.2,1,1,0,0,0-1.2.5,16.1,16.1,0,0,1-4.5,4.5,7.3,7.3,0,0,1-5.4.6,30.4,30.4,0,0,1-3.7-1.1,4,4,0,0,1-1.8-1,1.2,1.2,0,0,0-1.7-.1,9.3,9.3,0,0,1-4.2,1.8c-3.4.4-6.2-.5-8.2-3.4-.3-.4-.6-.8-1.1-.3s-4.3,1.6-6.6,1.5a12.3,12.3,0,0,1-7.3-2.4,8.9,8.9,0,0,1-3.5-3.9c-.2-.5-.7-.5-1.1-.5A10.5,10.5,0,0,1,4.1,35C1.8,33.8.2,32.1.1,29.3c0-.1-.1-.2-.1-.3V28a19.8,19.8,0,0,1,.8-3.3c1.3-3,3-5.6,6-7.2a7.7,7.7,0,0,1,4.9-1.2.9.9,0,0,0,1-.3,3.7,3.7,0,0,1,3-1.5c.9,0,1.2-.3,1.4-1.2a8.3,8.3,0,0,1,6.3-6.9,8.2,8.2,0,0,1,7.9,1.9c.4.4.7.4,1.1-.1a9.8,9.8,0,0,1,1.8-1.7,16.7,16.7,0,0,1,4.9-2.2h3l1.1.3c2.6.3,4.9,1.1,6.3,3.6a.6.6,0,0,0,.6.3,4.2,4.2,0,0,1,2.2.5,4.1,4.1,0,0,0,2.2.1,10.4,10.4,0,0,1,5.8.2c1.2.5,2.4.9,3.6,1.5s.7.3.9.6a15.4,15.4,0,0,1,2.6,4.9,9.4,9.4,0,0,1-.1,5,1.1,1.1,0,0,0,.5,1.3l1.8,1a2.9,2.9,0,0,1,1.5,1.9,28,28,0,0,1,.9,3.1ZM65.2,19A7.4,7.4,0,0,0,64,14.7a6.9,6.9,0,0,0-9.1-3.4c-1.1.5-2.1.6-2.9-.4l-.7-.4a.8.8,0,0,0-1,.1c-1.3.8-2.2.5-2.7-1a3.3,3.3,0,0,0-1.4-1.9L43.4,6.6a6.9,6.9,0,0,0-4.9.1A11.5,11.5,0,0,0,33.3,11c-.8,1.2-1.7,1.2-2.2-.1a5.7,5.7,0,0,0-2.6-2.5,5.7,5.7,0,0,0-6.5.7A6.8,6.8,0,0,0,19.2,15a2.3,2.3,0,0,1-.5,1.5.8.8,0,0,1-1.1.3c-1.7-.8-1.4-1-2.8.7l-.5.6a1.2,1.2,0,0,1-1.7.6c-1.2-.9-2.4-.5-3.6,0a11.3,11.3,0,0,0-6.5,7.8c-.6,2.4-.2,4.7,1.9,6.2s3.8,2.5,6.1.7a1.2,1.2,0,0,1,1.9.7,7.2,7.2,0,0,0,4.1,5.2l1.1.6a8,8,0,0,0,9.5-.7l.7-.6a1.7,1.7,0,0,1,2.7.4c.5.7.7,1.7,1.5,2.2a18.8,18.8,0,0,0,2.3,1.6,2.9,2.9,0,0,0,1.3.5,6.8,6.8,0,0,0,5.6-2.6c1.3-1.3,2.3-1.2,3.3.4a3.8,3.8,0,0,0,2.6,1.8l2.2.7a5.3,5.3,0,0,0,3.9-.6,8.3,8.3,0,0,0,3.6-4.2c.8-1.8.9-1.9,2.8-1.1a5.6,5.6,0,0,0,4.9-.1l1.2-.4a5.7,5.7,0,0,0,2.9-2.8,10.5,10.5,0,0,0,.6-7.4c-.6-1.9-1.7-3-3.7-3.1s-1.6-.9-1.2-2a12.2,12.2,0,0,1,.7-1.7A2.5,2.5,0,0,0,65.2,19Z"/><path class="cls-1" d="M17.4,67.7a5.8,5.8,0,0,1-2.7-1.9,4.2,4.2,0,0,0-1.8-.8c-1-.3-1.3-.7-1.4-1.8a3.6,3.6,0,0,1,3.8-4.1,4.4,4.4,0,0,0,2.2-.7c2-1.3,4.7-1.1,5.7,1.8a1.9,1.9,0,0,0,.7.8l1.6.8a1.8,1.8,0,0,1,.5,2.8,3.9,3.9,0,0,1-3.4,1.8,1.4,1.4,0,0,0-1.1.2,5.4,5.4,0,0,1-2.3,1.1Zm3.7-3.5a1.6,1.6,0,0,1,1,.2A1.4,1.4,0,0,0,24,63.3c0-.3-.1-.6-.5-.6h-.7c-1.1.2-1.8-.4-1.8-1.6a1.9,1.9,0,0,0-.4-1.2c-.5-.6-.9-.6-1.4-.1l-.8,1a1.2,1.2,0,0,1-1.9.3,1.4,1.4,0,0,0-1.6,0,2.7,2.7,0,0,0-1.1,1.5c-.3.6,0,.9.7.8h.6c.9,0,1.3.3,1.4,1.1a.7.7,0,0,0,.5.7c1.1.6,2,1,2.9-.4S20.5,64.1,21.1,64.2Z"/><path class="cls-1" d="M16.1,50.7a.8.8,0,0,1,.2-.6c1.1-1.4,2.1-3,4.1-3.3h.2a5.9,5.9,0,0,0,3.8-1.4,2.7,2.7,0,0,1,3.2-.2c.8.4,1.7.5,2.1,1.5s.9.4,1.4.4a3.6,3.6,0,0,1,3.5,1.8,4.4,4.4,0,0,1,.6,3,3.1,3.1,0,0,1-3,2.6h-.9a3.3,3.3,0,0,0-2.3.9,6.1,6.1,0,0,1-6.1.7c-.2-.1-.4-.1-.5-.3s-1.8-1.1-2.9-1.2A3.6,3.6,0,0,1,16.1,50.7Zm16.7,0c0-1.4-.8-2-2.1-1.6s-2.5.2-3.2-1.5a1.5,1.5,0,0,0-1.2-1.1,2.3,2.3,0,0,0-2,1.2c-.4,1.2-.6,1.3-1.8,1.1s-1-.4-1.5-.1a4.9,4.9,0,0,0-2.1,1.6,1.8,1.8,0,0,0,0,2.1,1.4,1.4,0,0,0,1.7.4l.7-.2c1.2-.3,1.9,0,2.2,1.3a1,1,0,0,0,.6.7,2.5,2.5,0,0,0,3.4-1.3c.4-.9.6-1,1.5-.9l1.1.3A1.9,1.9,0,0,0,32.8,50.7Z"/></svg>