<svg id="Layer_1" data-name="Layer 1" xmlns="http://www.w3.org/2000/svg" viewBox="0 0 72 72"><defs><style>.cls-1{fill:#002e5d;}</style></defs><title>SB_Nation72</title><path class="cls-1" d="M0,28a2.5,2.5,0,0,1,1.7-.3H25.8c1.3,0,1.6-.2,2.1-1.6,2.5-7.6,4.9-15.3,7.4-23,.2-.5.2-1.3.7-1.3s.4.8.5,1.2c2.6,7.7,5,15.4,7.5,23,.5,1.6.7,1.7,2.3,1.7H56.7l13.5-.2A3.9,3.9,0,0,1,72,28h0l-3.3,2.3L51.5,42.9c-1.6,1.1-1.7,1.3-1.1,3.1,2.4,7.2,4.8,14.4,7.1,21.6a8.8,8.8,0,0,1,.5,1.5c.1.2.2.6-.1.8s-.5-.2-.7-.3L46,61.4l-8.7-6.3a1.9,1.9,0,0,0-2.6,0l-.6.4L26.5,61,14,70.1h-.2a13.2,13.2,0,0,1,.8-3.3c2.3-7.1,4.7-14.2,7-21.2.4-1.3.3-1.7-.8-2.4l-8.1-5.9L0,28.1Zm65.6,1.8c-2.1-.3-4.2-.2-6.3-.3-4.1-.1-8.3,0-12.4-.2a6.6,6.6,0,0,0-6.2,3.5,31.1,31.1,0,0,1-3.6,5.1c-.3.3-.4.9-.9.7s-.3-.7-.3-1.2V9.1c0-.3.2-.9-.2-1s-.4.6-.5.9c-2,6.1-3.9,12.2-5.9,18.3-.6,1.8-1.1,2.2-3,2.2H7.3a2.2,2.2,0,0,0-.8,0h0L11,31.3c7.5,2.6,15.1,4.8,22.6,7.4a7.2,7.2,0,0,0,4.6,0L58,32.3Zm-28.7,10c-.4,0-.5.2-.3.4l.3.5L48.3,56.4l5.9,8c.2.2.3.7.6.5s0-.5-.1-.8-.7-1.9-1-2.9c-1.7-5.5-3.6-10.9-5.3-16.4A2.6,2.6,0,0,0,46.7,43l-7.8-2.6ZM17.1,65c.3,0,.4-.3.6-.6,1.4-1.9,2.8-3.9,4.3-5.8L34.8,40.9c.2-.2.5-.4.4-.6s-.5-.1-.8,0c-3,.7-6,1.7-9,2.6a2.4,2.4,0,0,0-1.8,1.8c-2.1,6.5-4.3,13-6.4,19.6C17.1,64.5,16.9,64.7,17.1,65Z"/></svg>