<svg id="Layer_1" data-name="Layer 1" xmlns="http://www.w3.org/2000/svg" viewBox="0 0 30 30"><defs><style>.cls-1{fill:#002e5d;}</style></defs><title>SB_Nation30</title><path class="cls-1" d="M0,11.6H10.7c.6,0,.7-.1.9-.7,1.1-3.2,2.1-6.4,3.1-9.6.1-.2.1-.5.3-.5s.2.3.2.5c1.1,3.2,2.1,6.4,3.1,9.6.2.6.3.7,1,.7H30l-1.4,1-7.2,5.2c-.6.4-.6.5-.4,1.3l3,9a1.4,1.4,0,0,0,.2.6.4.4,0,0,1-.1.3c-.1.1-.2,0-.3-.1l-4.6-3.4c-1.2-.9-2.4-1.8-3.7-2.6s-.6-.3-1.1,0h-.2L11,25.4C9.3,26.7,7.6,28,5.8,29.2h0a3.5,3.5,0,0,1,.3-1.4C7,24.9,8,21.9,9,19c.2-.5.1-.7-.3-1L5.3,15.5,0,11.7Zm27.3.8H19.5a2.9,2.9,0,0,0-2.6,1.5,13.7,13.7,0,0,1-1.5,2.1c-.1.1-.1.4-.3.3s-.1-.3-.1-.5V3.8c0-.2,0-.4-.1-.4s-.2.2-.3.4l-2.4,7.6c-.2.7-.4.9-1.2.9H2.7l1.9.8c3.1,1,6.3,1.9,9.4,3a3.1,3.1,0,0,0,1.9,0l8.3-2.6ZM15.4,16.6c-.2,0-.2,0-.2.2h.2l4.7,6.6,2.5,3.3c.1.1.1.3.3.2s-.1-.2-.1-.3l-.4-1.2c-.7-2.3-1.5-4.5-2.3-6.8-.1-.4-.2-.7-.6-.8l-3.3-1.1ZM7.1,27.1c.2,0,.2-.2.3-.2l1.7-2.5L14.5,17c.1,0,.2-.1.1-.2s-.2,0-.3,0l-3.7,1.1a1.1,1.1,0,0,0-.8.7c-.8,2.7-1.7,5.5-2.6,8.2A.4.4,0,0,0,7.1,27.1Z"/></svg>