<svg id="Layer_1" data-name="Layer 1" xmlns="http://www.w3.org/2000/svg" viewBox="0 0 30 30"><defs><style>.cls-1{fill:#002e5d;}</style></defs><title>Service_and_Clubs30</title><path class="cls-1" d="M30,7.5V29.7c0,.2,0,.3-.3.3H.3c-.3,0-.3-.1-.3-.3V7.5H30ZM18.2,9.7H16.4a.3.3,0,0,0-.3.3v3.6a.3.3,0,0,0,.3.3H20a.3.3,0,0,0,.3-.3V10a.3.3,0,0,0-.3-.3ZM7.5,24.6V22.8a.3.3,0,0,0-.3-.3H3.6a.3.3,0,0,0-.3.3v3.6a.3.3,0,0,0,.3.3H7.1c.3,0,.4-.1.4-.4Zm10.7-2.1H16.4a.3.3,0,0,0-.3.3v3.6c0,.2.1.3.4.3H20a.3.3,0,0,0,.3-.3V22.8a.3.3,0,0,0-.3-.3Zm-6.4-8.6h1.7c.3,0,.4-.1.4-.4V10a.3.3,0,0,0-.3-.3H10a.3.3,0,0,0-.3.3v3.5c0,.3.1.4.3.4Zm10.7-2.1v1.7c0,.3.1.4.4.4h3.4c.3,0,.4-.1.4-.4V10a.3.3,0,0,0-.3-.3H22.9c-.3,0-.4.1-.4.3ZM5.4,16.1H3.6a.3.3,0,0,0-.3.3V20a.3.3,0,0,0,.3.3H7.2a.3.3,0,0,0,.3-.3V16.4a.3.3,0,0,0-.3-.3Zm14.9,2.1V16.5c0-.3-.1-.4-.3-.4H16.4a.3.3,0,0,0-.3.3V20a.3.3,0,0,0,.3.3H20a.3.3,0,0,0,.3-.3Zm-6.4,6.4V22.8a.3.3,0,0,0-.3-.3H10a.3.3,0,0,0-.3.3v3.6a.3.3,0,0,0,.3.3h3.6a.3.3,0,0,0,.3-.3Zm-2.1-4.3h1.7c.3,0,.4-.1.4-.3V16.4a.3.3,0,0,0-.3-.3H10a.3.3,0,0,0-.3.3V20a.3.3,0,0,0,.3.3Zm12.8,0h1.8a.3.3,0,0,0,.3-.3V16.4a.3.3,0,0,0-.3-.3H22.8a.3.3,0,0,0-.3.3V20a.3.3,0,0,0,.3.3Z"/><path class="cls-1" d="M4.8,0H5.9V2.8c0,.4.1.4.4.4H23.7c.3,0,.4,0,.4-.4V0h1.1V2.7c0,.5,0,.5.5.5H30V6.4H0V3.2H4.4c.4,0,.4,0,.4-.4Z"/><path class="cls-1" d="M19.3,11.8v.8a.3.3,0,0,1-.3.3H17.4a.3.3,0,0,1-.3-.3V11a.3.3,0,0,1,.3-.3h1.7c.1,0,.2.1.2.3v.8Z"/><path class="cls-1" d="M5.4,23.5h.8a.3.3,0,0,1,.3.3v1.7c0,.2-.1.2-.3.2H4.5c-.2,0-.2-.1-.2-.2V23.8c0-.2.1-.3.2-.3Z"/><path class="cls-1" d="M19.3,24.6v.9c0,.2-.1.2-.3.2H17.4c-.2,0-.3-.1-.3-.2V23.8a.3.3,0,0,1,.3-.3H19a.3.3,0,0,1,.3.3v.8Z"/><path class="cls-1" d="M11.8,12.9h-.9c-.1,0-.2-.1-.2-.3V11c0-.2,0-.3.2-.3h1.7a.3.3,0,0,1,.3.3v1.6a.3.3,0,0,1-.3.3Z"/><path class="cls-1" d="M24.6,12.9h-.8a.3.3,0,0,1-.3-.3V11a.3.3,0,0,1,.3-.3h1.6a.3.3,0,0,1,.3.3v1.6a.3.3,0,0,1-.3.3Z"/><path class="cls-1" d="M6.5,18.2v.9c0,.1-.1.2-.3.2H4.5c-.2,0-.2-.1-.2-.2V17.4c0-.2,0-.3.2-.3H6.2a.3.3,0,0,1,.3.3Z"/><path class="cls-1" d="M19.3,18.2V19a.3.3,0,0,1-.3.3H17.4a.3.3,0,0,1-.3-.3V17.4a.3.3,0,0,1,.3-.3H19a.3.3,0,0,1,.3.3Z"/><path class="cls-1" d="M11.8,25.7H11c-.2,0-.3,0-.3-.2V23.8a.3.3,0,0,1,.3-.3h1.6a.3.3,0,0,1,.3.3v1.6a.3.3,0,0,1-.3.3Z"/><path class="cls-1" d="M12.9,18.2V19a.3.3,0,0,1-.3.3H10.9c-.2,0-.2-.1-.2-.3V17.4a.3.3,0,0,1,.3-.3h1.6a.3.3,0,0,1,.3.3v.8Z"/><path class="cls-1" d="M25.7,18.2V19a.3.3,0,0,1-.3.3H23.8a.3.3,0,0,1-.3-.3V17.4a.3.3,0,0,1,.3-.3h1.6a.3.3,0,0,1,.3.3Z"/></svg>