<svg id="Layer_1" data-name="Layer 1" xmlns="http://www.w3.org/2000/svg" viewBox="0 0 72 72"><defs><style>.cls-1{fill:#002e5d;}</style></defs><title>Service_and_Clubs72</title><path class="cls-1" d="M72,18V71.3c0,.5,0,.7-.6.7H.6c-.6,0-.6-.2-.6-.7V18H72ZM43.7,23.2c-1.4,0-2.8.1-4.3,0s-.7.2-.7.8v8.5c0,.6.2.8.8.8H48c.5,0,.8-.2.8-.8-.1-2.8-.1-5.7,0-8.5,0-.6-.3-.8-.8-.8S45.1,23.2,43.7,23.2ZM18,59.1c0-1.5-.1-2.9,0-4.4s-.2-.7-.7-.7H8.6c-.5,0-.7.3-.7.8v8.5c0,.6.2.8.8.8h8.4c.7,0,.9-.3.9-.9S18,60.5,18,59.1ZM43.7,54H39.4c-.5,0-.7.3-.7.8v8.4c0,.7.2.9.8.9H48c.5,0,.8-.2.8-.8-.1-2.8-.1-5.7,0-8.5,0-.6-.2-.8-.8-.8ZM28.3,33.3h4.2c.6,0,.8-.2.8-.8V24c0-.6-.2-.8-.8-.8-2.8.1-5.6.1-8.5,0-.5,0-.8.2-.8.8.1,2.8.1,5.7,0,8.5,0,.6.3.8.9.8Zm25.7-5c0,1.4.1,2.8,0,4.2s.3.8.9.8h8.3c.7,0,.9-.2.9-.8V24c0-.6-.2-.8-.8-.8-2.8.1-5.6.1-8.5,0-.6,0-.8.2-.8.8S54,26.9,54,28.3ZM13,38.7H8.7c-.6,0-.8.2-.8.7V48c0,.5.2.8.7.8h8.6c.6,0,.8-.3.8-.8,0-2.9-.1-5.7,0-8.5,0-.6-.2-.8-.8-.8Zm35.7,5.1c0-1.4,0-2.9.1-4.3s-.2-.8-.8-.8H39.5c-.6,0-.8.2-.8.8V48c0,.5.2.8.7.8H48c.6,0,.8-.2.8-.8S48.7,45.2,48.7,43.8ZM33.3,59.1V54.8c0-.5-.2-.8-.8-.8H24c-.6,0-.8.2-.8.8.1,2.8.1,5.7,0,8.5,0,.6.2.8.8.8h8.5c.6,0,.8-.2.8-.8Zm-5-10.4h4.2c.6,0,.8-.2.8-.8V39.5c0-.6-.2-.8-.8-.8H24c-.5,0-.8.2-.8.7.1,2.9.1,5.8,0,8.6,0,.6.2.8.8.8Zm30.8,0h4.2c.6,0,.8-.2.8-.8V39.5c0-.6-.2-.8-.8-.8H54.8c-.5,0-.8.2-.8.8V48c0,.6.2.8.8.8Z"/><path class="cls-1" d="M11.5,0h2.7c0,2.3,0,4.5.1,6.7s0,1,.9,1H56.8c.9,0,.9,0,.9-1s.1-4.4.1-6.7h2.7V6.6c0,1.1,0,1.1,1.1,1.1H72v7.8a3.8,3.8,0,0,1-1.5.1H0V7.7H10.4c1.1,0,1.1,0,1.1-1Z"/><path class="cls-1" d="M46.3,28.3v2c0,.5-.2.7-.6.7h-4c-.5,0-.7-.2-.7-.7v-4c0-.4.2-.6.7-.6h4a.5.5,0,0,1,.6.6v2Z"/><path class="cls-1" d="M12.9,56.5H15a.5.5,0,0,1,.5.5v4.2c0,.4-.2.5-.6.5H10.8c-.4,0-.6-.1-.6-.6v-4c0-.5.3-.6.7-.6Z"/><path class="cls-1" d="M46.3,59v2.2c0,.4-.2.5-.6.5H41.6c-.4.1-.6-.2-.6-.6v-4c0-.4.2-.6.7-.6h4c.5,0,.6.2.6.7V59Z"/><path class="cls-1" d="M28.2,31H26.3c-.5,0-.7-.2-.7-.7v-4a.5.5,0,0,1,.6-.6h4.1c.4,0,.7.2.7.6a26.7,26.7,0,0,0,0,4,.6.6,0,0,1-.7.7Z"/><path class="cls-1" d="M59.1,31h-2c-.5,0-.7-.2-.7-.7v-4c0-.5.2-.6.7-.6H61c.5,0,.7.2.7.7v3.8c0,.5-.2.8-.7.8A12.1,12.1,0,0,0,59.1,31Z"/><path class="cls-1" d="M15.5,43.7v2c0,.5-.2.7-.6.7H10.8a.5.5,0,0,1-.6-.6V41.7a.6.6,0,0,1,.7-.7h4c.4,0,.6.3.6.7Z"/><path class="cls-1" d="M46.3,43.7v2c0,.4-.1.7-.6.7h-4a.6.6,0,0,1-.7-.7v-4c0-.5.2-.7.7-.7h3.9c.5,0,.7.2.7.7Z"/><path class="cls-1" d="M28.3,61.8h-2a.6.6,0,0,1-.7-.7v-4c0-.5.3-.6.7-.6h3.9c.6,0,.8.2.8.7A24.1,24.1,0,0,0,31,61c0,.5-.2.8-.8.8Z"/><path class="cls-1" d="M31,43.7a13.4,13.4,0,0,0,0,2,.6.6,0,0,1-.7.7h-4a.6.6,0,0,1-.7-.7V41.8c0-.5.2-.8.7-.8h4c.5,0,.7.3.7.8a12.1,12.1,0,0,0,0,1.9Z"/><path class="cls-1" d="M61.7,43.7v2c.1.5-.2.7-.6.7h-4a.6.6,0,0,1-.7-.7V41.8c0-.5.2-.8.7-.8H61c.6,0,.8.3.7.8Z"/></svg>