<svg id="Layer_1" data-name="Layer 1" xmlns="http://www.w3.org/2000/svg" viewBox="0 0 72 72"><defs><style>.cls-1{fill:#002e5d;}</style></defs><title>Sick_and_Vacation_Balances72</title><path class="cls-1" d="M2.6,50.6v-6A3.8,3.8,0,0,1,4,43.2L27.3,27a2.1,2.1,0,0,0,.9-1.8c0-5.8-.1-11.6,0-17.4a7.6,7.6,0,0,1,4.3-7A19.5,19.5,0,0,1,34.7,0h2.4a9.9,9.9,0,0,1,3,1.2,7.6,7.6,0,0,1,3.7,7V25.4a1.7,1.7,0,0,0,.8,1.5L68.1,43.3a4,4,0,0,1,1.3,1.3v5.9c-.6,1.1-1.1,1.2-2.4.7L44.8,42.3c-.9-.4-1-.3-1,.7V56.4a2,2,0,0,0,.6,1.5l6.3,6.2a2.7,2.7,0,0,1,.8,1.9v4.2c0,1.7-1,2.3-2.5,1.4L37,65a1.8,1.8,0,0,0-2,.1L22.9,71.7c-1.4.7-2.4.2-2.4-1.4V66a2.4,2.4,0,0,1,.7-1.8L27.5,58a2.2,2.2,0,0,0,.7-1.7V43.1c0-1.2,0-1.2-1.1-.8L4.9,51.2C3.7,51.7,3.4,51.6,2.6,50.6Z"/></svg>