<svg id="Layer_1" data-name="Layer 1" xmlns="http://www.w3.org/2000/svg" viewBox="0 0 30 30"><defs><style>.cls-1{fill:#002e5d;}</style></defs><title>Sick_and_Vacation_Balances30</title><path class="cls-1" d="M1.1,21.1V18.6c.1-.3.3-.4.6-.6l9.7-6.8a.9.9,0,0,0,.3-.7V3.3a3.6,3.6,0,0,1,1.8-3l1-.3h1a3.1,3.1,0,0,1,1.2.5,3.3,3.3,0,0,1,1.6,2.9v7.2c0,.3,0,.4.3.6L28.4,18c.2.2.4.3.5.6V21c-.3.5-.4.5-1,.3l-9.2-3.7c-.4-.1-.4-.1-.4.3v5.6c0,.3,0,.4.2.6s1.7,1.8,2.6,2.6a.9.9,0,0,1,.4.8,9.6,9.6,0,0,0,0,1.7c-.1.8-.4,1-1.1.6l-5-2.7a.6.6,0,0,0-.8,0L9.5,29.9c-.6.3-1,0-1-.6a10.8,10.8,0,0,0,0-1.8,1.3,1.3,0,0,1,.3-.8l2.7-2.5a1,1,0,0,0,.2-.7V17.9c0-.4,0-.4-.4-.3L2,21.3C1.6,21.5,1.4,21.5,1.1,21.1Z"/></svg>