<svg id="Layer_1" data-name="Layer 1" xmlns="http://www.w3.org/2000/svg" viewBox="0 0 30 30"><defs><style>.cls-1{fill:#002e5d;}</style></defs><title>Site_Map30</title><path class="cls-1" d="M30,8.6c-.1.3-.3.4-.5.6l-3.6,2.2a.5.5,0,0,0-.2.4v.3c0,.5,0,.8.5,1.1a1.5,1.5,0,0,1,.4,1.9,1.7,1.7,0,0,1-1.6,1,1.9,1.9,0,0,1-1.5-1.2,1.8,1.8,0,0,1,.7-1.8c.3-.2.4-.3.4-.6-.1-2.1,0-4.3-.1-6.4a.8.8,0,0,1,.5-.8h.3L29.5,8a.8.8,0,0,1,.5.5Z"/><path class="cls-1" d="M0,22.6a2,2,0,0,1,.8-1,1.6,1.6,0,0,1,2.3.7,1.7,1.7,0,0,1-.8,2.2,1.6,1.6,0,0,1-2.2-.9c0-.1-.1-.1-.1-.2Z"/><path class="cls-1" d="M6.9,13.5a.6.6,0,0,1-.6-.5.4.4,0,0,1,.4-.6H7.9a.6.6,0,0,1,.6.6.6.6,0,0,1-.6.5h-1Z"/><path class="cls-1" d="M2.2,19.2v.6c-.1.3-.3.6-.6.6s-.5-.3-.6-.6a4.9,4.9,0,0,1,.1-1.2.4.4,0,0,1,.6-.4.5.5,0,0,1,.5.5v.5Z"/><path class="cls-1" d="M5.3,13.5c.1.2,0,.4-.3.5l-.8.5a.6.6,0,0,1-.8-.1.5.5,0,0,1,.2-.8,2.1,2.1,0,0,1,1-.6C5,12.8,5.3,13.1,5.3,13.5Z"/><path class="cls-1" d="M2.5,15.1a.5.5,0,0,1,.5.8,10.4,10.4,0,0,0-.4,1,.6.6,0,0,1-.7.3.8.8,0,0,1-.4-.7,3.4,3.4,0,0,1,.6-1.2A.5.5,0,0,1,2.5,15.1Z"/><path class="cls-1" d="M24.6,18.1c0-.1-.1-.3,0-.4s.2-.6.5-.6a.6.6,0,0,1,.6.6v.9a.6.6,0,0,1-.6.6.7.7,0,0,1-.6-.7v-.4Z"/><path class="cls-1" d="M13.3,17.4a.6.6,0,0,1,.6.5c.1.3.1.6.2,1a.6.6,0,0,1-.4.6.6.6,0,0,1-.7-.3,5.1,5.1,0,0,1-.2-1.3C12.7,17.6,13,17.4,13.3,17.4Z"/><path class="cls-1" d="M24.4,21.9a.6.6,0,0,1-.6-.8l.4-.9a.5.5,0,0,1,.7-.3.5.5,0,0,1,.3.7,9.4,9.4,0,0,1-.3.9C24.7,21.8,24.6,21.9,24.4,21.9Z"/><path class="cls-1" d="M16,22.8h.3l.8.4c.3.1.5.4.4.6a.6.6,0,0,1-.7.4l-1.1-.5a.6.6,0,0,1-.3-.6A.5.5,0,0,1,16,22.8Z"/><path class="cls-1" d="M12.4,14.5a.5.5,0,0,1,.5.3l.4.9c.1.4,0,.7-.3.8a.6.6,0,0,1-.7-.4,3,3,0,0,1-.4-.8A.5.5,0,0,1,12.4,14.5Z"/><path class="cls-1" d="M14.1,20.4a.5.5,0,0,1,.5.3,3.6,3.6,0,0,1,.4.9.4.4,0,0,1-.2.7.4.4,0,0,1-.7-.2,3.1,3.1,0,0,1-.5-1C13.4,20.7,13.7,20.4,14.1,20.4Z"/><path class="cls-1" d="M23,22.4c.3,0,.4.1.5.4s.1.4-.1.5a2.6,2.6,0,0,1-1.1.7.6.6,0,0,1-.7-.2c-.1-.3-.1-.5.2-.7l1-.6C22.8,22.4,22.9,22.4,23,22.4Z"/><path class="cls-1" d="M19.2,24.7H19c-.4,0-.5-.2-.5-.5a.5.5,0,0,1,.5-.5h1c.4,0,.6.2.6.5s-.2.6-.6.6h-.8Z"/><path class="cls-1" d="M11,14.1h-.3l-.9-.4a.5.5,0,0,1-.3-.7.6.6,0,0,1,.7-.3l1.1.5a.4.4,0,0,1,.2.6A1,1,0,0,1,11,14.1Z"/></svg>