<svg id="Layer_1" data-name="Layer 1" xmlns="http://www.w3.org/2000/svg" viewBox="0 0 72 72"><defs><style>.cls-1{fill:#002e5d;}</style></defs><title>Site_Map72</title><path class="cls-1" d="M72,20.7A2.2,2.2,0,0,1,70.8,22l-8.5,5.4a.8.8,0,0,0-.6,1V29c-.1,1.2,0,2.1,1.2,2.8s1.7,2.8,1.1,4.4a4,4,0,0,1-4.1,2.4,3.9,3.9,0,0,1-3.4-3,3.6,3.6,0,0,1,1.7-4.1,1.5,1.5,0,0,0,.7-1.5V14.7a1.9,1.9,0,0,1,1-1.9h.8l10.2,6.3A3,3,0,0,1,72,20.5Z"/><path class="cls-1" d="M0,54.2a4.9,4.9,0,0,1,2-2.5,4,4,0,1,1,3.5,7.1A4,4,0,0,1,.2,56.7c-.1-.2-.1-.4-.2-.5Z"/><path class="cls-1" d="M16.5,32.4a1.4,1.4,0,0,1-1.4-1.2,1.3,1.3,0,0,1,1-1.5,9.5,9.5,0,0,1,2.9-.2,1.3,1.3,0,0,1,1.3,1.3A1.3,1.3,0,0,1,19,32.2H17.7Z"/><path class="cls-1" d="M5.2,46.1v1.5a1.5,1.5,0,0,1-1.3,1.3,1.4,1.4,0,0,1-1.4-1.4,13.1,13.1,0,0,1,.1-2.8,1.4,1.4,0,0,1,1.5-1.1A1.3,1.3,0,0,1,5.3,45v1.1Z"/><path class="cls-1" d="M12.8,32.4a1.3,1.3,0,0,1-.7,1.2l-2,1.2a1.3,1.3,0,0,1-1.9-.3,1.4,1.4,0,0,1,.3-1.9,10,10,0,0,1,2.4-1.4A1.3,1.3,0,0,1,12.8,32.4Z"/><path class="cls-1" d="M6,36.2a1.4,1.4,0,0,1,1.3,1.9L6.2,40.5a1.4,1.4,0,0,1-1.6.7,1.2,1.2,0,0,1-.9-1.5A7.6,7.6,0,0,1,5,36.8,1.3,1.3,0,0,1,6,36.2Z"/><path class="cls-1" d="M58.9,43.6V42.4a1.4,1.4,0,0,1,2.8,0v2.2c-.1,1-.7,1.6-1.5,1.5a1.5,1.5,0,0,1-1.3-1.6v-.9Z"/><path class="cls-1" d="M31.9,41.8a1.4,1.4,0,0,1,1.4,1.1c.2.8.4,1.6.5,2.3a1.4,1.4,0,0,1-2.5.9,10.8,10.8,0,0,1-.7-3.1A1.3,1.3,0,0,1,31.9,41.8Z"/><path class="cls-1" d="M58.5,52.5c-1.2,0-1.7-.9-1.3-1.8a18.9,18.9,0,0,1,.9-2.1,1.4,1.4,0,0,1,1.7-.9,1.4,1.4,0,0,1,.8,1.8l-.9,2.2A1.3,1.3,0,0,1,58.5,52.5Z"/><path class="cls-1" d="M38.3,54.7l.7.2a9.5,9.5,0,0,0,2.1.9,1.3,1.3,0,0,1,.8,1.6,1.3,1.3,0,0,1-1.6.9,8.3,8.3,0,0,1-2.7-1.2,1.2,1.2,0,0,1-.5-1.5C37.2,55,37.7,54.8,38.3,54.7Z"/><path class="cls-1" d="M29.7,34.8a1.3,1.3,0,0,1,1.2.7,9.4,9.4,0,0,1,1,2.3,1.2,1.2,0,0,1-.7,1.7,1.3,1.3,0,0,1-1.8-.8l-.9-2.1A1.2,1.2,0,0,1,29.7,34.8Z"/><path class="cls-1" d="M33.8,49a1.3,1.3,0,0,1,1.3.8l1,2.1a1.3,1.3,0,0,1-.5,1.7,1.4,1.4,0,0,1-1.9-.5,10.4,10.4,0,0,1-1.1-2.4A1.2,1.2,0,0,1,33.8,49Z"/><path class="cls-1" d="M55.1,53.8a1.4,1.4,0,0,1,1.4.8,1.2,1.2,0,0,1-.3,1.4,7.4,7.4,0,0,1-2.7,1.6,1.2,1.2,0,0,1-1.6-.6,1.2,1.2,0,0,1,.3-1.6l2.4-1.5Z"/><path class="cls-1" d="M46.2,59.2h-.7a1.2,1.2,0,0,1-1.2-1.3,1.4,1.4,0,0,1,1.4-1.3h2.2a1.5,1.5,0,0,1,1.7,1.3c0,.8-.6,1.3-1.5,1.4H46.2Z"/><path class="cls-1" d="M26.3,33.8l-.6-.2a9.5,9.5,0,0,0-2.1-.9,1.3,1.3,0,0,1-.9-1.6,1.4,1.4,0,0,1,1.7-.9,11.1,11.1,0,0,1,2.7,1.2,1.1,1.1,0,0,1,.5,1.4A1.4,1.4,0,0,1,26.3,33.8Z"/></svg>