<svg id="Layer_1" data-name="Layer 1" xmlns="http://www.w3.org/2000/svg" viewBox="0 0 72 72"><defs><style>.cls-1{fill:#002e5d;}</style></defs><title>Stowaway_Magazine_Twitter72</title><path class="cls-1" d="M51.7,72c.2-2,.6-3.9.9-5.8,1.4-8.5,2.8-17,4.3-25.6.9-5.9,1.9-11.8,2.9-17.8.1-.6.4-.8,1-.8h4a1.5,1.5,0,0,1,.9.2h0c-.3,1.4-.6,2.8-.8,4.3L60.7,52.1c-1.2,6.6-2.3,13.3-3.4,19.9Z"/><path class="cls-1" d="M6.3,32c1.3-4.6,2.6-9.2,3.8-13.8A5.6,5.6,0,0,1,17,14.3l4.5,1.2c.9.2.9.2.7,1.1C20.5,23,18.7,29.3,17,35.7l-.9,3.4a.5.5,0,0,1-.8.4l-5-1.3c-2.3-.7-3.4-2.3-4-4.5Z"/><path class="cls-1" d="M35.1,0a7.7,7.7,0,0,1,4.2,2.6A7,7,0,0,1,28.9,12,7,7,0,0,1,31.7.3l.7-.3Z"/><path class="cls-1" d="M28.6,52.9c-.5,1.4-.9,2.7-1.3,4-1,2.9-1.9,5.8-2.9,8.7a10.1,10.1,0,0,0-.3,1.7c-.5,3-3,4.8-6.2,4.6A5.6,5.6,0,0,1,13,66.5a6.7,6.7,0,0,1,.4-2.4c3.1-12.1,6.3-24.2,9.5-36.3.5-1.8,1-3.6,1.4-5.3a7.9,7.9,0,0,1,7.5-6,8.4,8.4,0,0,1,8.6,6,5,5,0,0,1,.1,3.4c-.5,1.6-.8,3.2-1.3,4.8s.1.8.6,1L51,35.6c.6.2.9.5.9,1.1s0,2.7,0,4-.1.8-.9.7L37.5,39c-.8-.1-.8-.1-.6.7,2.1,8.4,4.3,16.8,6.4,25.2a5.5,5.5,0,0,1-4.1,6.9,5.6,5.6,0,0,1-6.8-4.3c-.9-4.8-2.5-9.4-3.6-14.1C28.7,53.3,28.7,53.2,28.6,52.9Z"/></svg>