<svg id="Layer_1" data-name="Layer 1" xmlns="http://www.w3.org/2000/svg" viewBox="0 0 30 30"><defs><style>.cls-1{fill:#002e5d;}</style></defs><title>Stowaway_Magazine_Twitter30</title><path class="cls-1" d="M21.5,30c.1-.8.3-1.6.4-2.4l1.8-10.7,1.2-7.4c.1-.2.2-.3.4-.3h2.1c-.1.6-.3,1.2-.4,1.8-.5,3.5-1.1,7.1-1.7,10.6s-1,5.5-1.4,8.3Z"/><path class="cls-1" d="M2.6,13.3c.6-1.9,1.1-3.8,1.6-5.7A2.4,2.4,0,0,1,7.1,5.9L9,6.4c.3.1.3.2.2.5l-2.1,8c-.1.4-.3.9-.4,1.4s-.1.2-.3.2l-2.1-.6A2.5,2.5,0,0,1,2.6,14Z"/><path class="cls-1" d="M14.6,0a3.4,3.4,0,0,1,1.8,1.1A2.9,2.9,0,0,1,16.1,5,2.9,2.9,0,1,1,13.2.1h1.4Z"/><path class="cls-1" d="M11.9,22.1a9.8,9.8,0,0,0-.5,1.6l-1.2,3.6a6.4,6.4,0,0,1-.2.7,2.3,2.3,0,0,1-2.5,2,2.4,2.4,0,0,1-2.1-2.3,3.6,3.6,0,0,1,.2-1c1.3-5,2.6-10.1,4-15.1.2-.8.3-1.5.5-2.2a3.3,3.3,0,0,1,3.2-2.5,3.5,3.5,0,0,1,3.5,2.5,2.3,2.3,0,0,1,.1,1.4l-.6,2c0,.2.1.3.3.4l4.7,1.6a.5.5,0,0,1,.3.5v1.6c0,.4,0,.4-.4.4l-5.6-1c-.3-.1-.3-.1-.2.3L18.1,27a2.4,2.4,0,0,1-1.8,2.9,2.4,2.4,0,0,1-2.8-1.8c-.4-2-1-3.9-1.5-5.8C12,22.2,11.9,22.2,11.9,22.1Z"/></svg>