<svg id="Layer_1" data-name="Layer 1" xmlns="http://www.w3.org/2000/svg" viewBox="0 0 72 72"><defs><style>.cls-1{fill:#002e5d;}</style></defs><title>Study_Room_Scheduler72</title><path class="cls-1" d="M37.4,72H34.6a11.1,11.1,0,0,0-1.9-.2,32.9,32.9,0,0,1-17.9-7.5.9.9,0,0,0-1.5.1L6.6,71.2a5,5,0,0,1-1.2.8H5.1c-1.4-.7-1.6-1.5-.5-2.6l6.1-6.2c1.6-1.6,1.5-1.1.1-2.7A33,33,0,0,1,2.7,35.7,32.7,32.7,0,0,1,13.8,13.6,32.7,32.7,0,0,1,40,5.4,32.4,32.4,0,0,1,60.3,15.7,32.5,32.5,0,0,1,69,43.2a32.2,32.2,0,0,1-8.2,17.7c-.9,1-.9,1,.1,1.9l6.5,6.6c1.1,1,.9,1.9-.5,2.6h-.3a2.7,2.7,0,0,1-1.2-.9c-2.2-2.2-4.5-4.4-6.6-6.6-.6-.7-1-.7-1.7-.1a32.2,32.2,0,0,1-14.4,6.9A51.5,51.5,0,0,1,37.4,72Zm-.2-44.9h0c0-3.8,0-7.5-.1-11.3,0-.9-.4-1.4-1.1-1.4s-1.1.5-1.2,1.4V36.1c0,1.3,0,1.3-1.2,1.3H20.5a1.3,1.3,0,0,0-1,1.2,1,1,0,0,0,1,1.1H35.4c1.5,0,1.8-.3,1.8-1.8Z"/><path class="cls-1" d="M13.7,0a14.2,14.2,0,0,1,4.6,1.2L20,2a1.4,1.4,0,0,1,.3,2.2l-.4.5L4.7,19.9l-.4.4a1.5,1.5,0,0,1-2.4-.4,14.3,14.3,0,0,1-1.8-5c0-.2-.1-.5-.1-.7v-2c0-.3.1-.5.1-.7A13,13,0,0,1,10,.4L12.5,0Z"/><path class="cls-1" d="M72,13.9a15.6,15.6,0,0,1-1.5,5.2l-.6,1a1.3,1.3,0,0,1-2,.3l-.7-.6-15-15-.5-.6A1.3,1.3,0,0,1,52,2,13.4,13.4,0,0,1,57.5.1h2.6A13.1,13.1,0,0,1,71,8.1a15.1,15.1,0,0,1,1,4.2Z"/></svg>