<svg id="Layer_1" data-name="Layer 1" xmlns="http://www.w3.org/2000/svg" viewBox="0 0 30 30"><defs><style>.cls-1{fill:#002e5d;}</style></defs><title>Study_Room_Scheduler30</title><path class="cls-1" d="M15.6,30h-2a13.3,13.3,0,0,1-7.4-3.1.5.5,0,0,0-.7,0L2.7,29.6l-.4.4H2.1c-.6-.3-.6-.6-.2-1.1s1.7-1.7,2.6-2.6.6-.4,0-1.1A13.9,13.9,0,0,1,1.1,14.9,13.2,13.2,0,0,1,5.8,5.7,13.1,13.1,0,0,1,16.7,2.3a12.7,12.7,0,0,1,8.4,4.3A13.6,13.6,0,0,1,28.8,18a13.8,13.8,0,0,1-3.5,7.4c-.3.4-.3.4.1.8l2.7,2.7c.4.4.4.8-.2,1.1h-.2l-.5-.4-2.7-2.7c-.3-.3-.4-.3-.7-.1a14,14,0,0,1-6,2.9A16.6,16.6,0,0,1,15.6,30Zm-.1-18.7h0V6.6c0-.4-.2-.6-.5-.6s-.5.2-.5.6V15c0,.6,0,.6-.5.6H8.5c-.2.1-.4.2-.4.5a.4.4,0,0,0,.4.4h6.2c.7,0,.8-.1.8-.7Z"/><path class="cls-1" d="M5.7,0A5.9,5.9,0,0,1,7.6.5l.7.3a.7.7,0,0,1,.2,1,.2.2,0,0,0-.2.2L2,8.3H1.8c-.4.3-.7.3-1-.1A4.8,4.8,0,0,1,.1,6.2.4.4,0,0,1,0,5.9V5.1a.4.4,0,0,1,.1-.3A5.1,5.1,0,0,1,4.2.2l1-.2Z"/><path class="cls-1" d="M30,5.8A9,9,0,0,1,29.4,8l-.3.4a.5.5,0,0,1-.8.1L28,8.2c-2.1-2-4.2-4.1-6.2-6.2l-.3-.2a.7.7,0,0,1,.2-1A4.5,4.5,0,0,1,24,.1h1a5.5,5.5,0,0,1,4.6,3.4A8.5,8.5,0,0,1,30,5.1Z"/></svg>