<svg id="Layer_1" data-name="Layer 1" xmlns="http://www.w3.org/2000/svg" viewBox="0 0 30 30"><defs><style>.cls-1{fill:#002e5d;}</style></defs><title>Student_Wellness30</title><path class="cls-1" d="M29,25.7H1a1.2,1.2,0,0,1-1-.8V5.1a1.2,1.2,0,0,1,1-.8H29a1.4,1.4,0,0,1,1,.8V24.9A1.4,1.4,0,0,1,29,25.7ZM8,21.4h4.2c.5,0,.6-.2.6-.6a9.5,9.5,0,0,0-.9-4.1,4.6,4.6,0,0,0-1.6-2.1c-.3-.2-.3-.2,0-.4a3.6,3.6,0,0,0,1.4-3.7A3.7,3.7,0,0,0,7.4,7.6a3.8,3.8,0,0,0-3.1,3.8,3.6,3.6,0,0,0,1.6,2.8c.1.2.2.3,0,.4a4,4,0,0,0-1.4,1.5,9.3,9.3,0,0,0-1.2,4.6c0,.5.1.7.6.7ZM21.4,7.5H16.7c-.6,0-.6,0-.6.6s0,.4.5.4h9.5c.7,0,.6.1.6-.6s0-.4-.4-.4Zm0,2.2H16.7c-.6,0-.6-.1-.6.5s0,.5.5.5h9.5c.7,0,.6.1.6-.7s0-.3-.4-.3Zm0,5.3h4.8c.5,0,.5,0,.5-.6s0-.4-.4-.4H16.7c-.7,0-.6-.1-.6.6s0,.4.4.4Zm0,2.1h4.7c.7,0,.6.1.6-.6s0-.4-.4-.4H16.7c-.7,0-.6-.1-.6.6s0,.4.4.4Zm0,2.1h4.8c.5,0,.5,0,.5-.5s0-.5-.4-.5H16.7c-.7,0-.6,0-.6.7s0,.3.4.3Zm0-7.4H16.5c-.4,0-.4.1-.4.4v.2c0,.4,0,.4.5.4h9.5c.6,0,.6,0,.6-.6s0-.4-.4-.4Zm0,9.6h5a.3.3,0,0,0,.3-.3v-.2c0-.5,0-.5-.4-.5H16.7c-.7,0-.6,0-.6.6s0,.4.4.4Z"/></svg>