<svg id="Layer_1" data-name="Layer 1" xmlns="http://www.w3.org/2000/svg" viewBox="0 0 72 72"><defs><style>.cls-1{fill:#002e5d;}</style></defs><title>Student_Wellness72</title><path class="cls-1" d="M69.6,61.8H2.4A3,3,0,0,1,0,59.7V12.3a3,3,0,0,1,2.4-2.1H69.6A3.2,3.2,0,0,1,72,12.3V59.7A3,3,0,0,1,69.6,61.8ZM19.3,51.3h10c1.1,0,1.5-.4,1.4-1.5a24.9,24.9,0,0,0-2.1-9.7,10.9,10.9,0,0,0-3.8-4.9c-.8-.6-.8-.6-.1-1.1A8.6,8.6,0,0,0,28,25.3a8.7,8.7,0,0,0-10.3-7,8.9,8.9,0,0,0-7.3,9,8.8,8.8,0,0,0,3.7,6.9c.4.3.5.5,0,.8a10.3,10.3,0,0,0-3.3,3.6A22.7,22.7,0,0,0,7.9,49.7c-.1,1.2.3,1.6,1.5,1.6ZM51.4,18.1H40c-1.4,0-1.3-.1-1.3,1.3s0,1.1,1,1.1H62.6c1.6,0,1.5.2,1.5-1.5s0-.9-.9-.9Zm0,5.1H40c-1.4,0-1.3-.1-1.3,1.4s0,1,1,1H62.6c1.7,0,1.5.2,1.5-1.5s0-.9-.9-.9Zm0,12.8H62.8c1.3,0,1.3,0,1.3-1.4s0-1.1-1.1-1.1H40.2c-1.7,0-1.5-.1-1.5,1.6s0,.9.8.9Zm-.1,5.1H62.7c1.5,0,1.4.1,1.4-1.4s0-1-1-1c-7.6,0-15.3-.1-22.9,0-1.7,0-1.5-.2-1.5,1.5s0,.9.8.9Zm.1,5.1H62.8c1.3,0,1.3,0,1.3-1.4s0-1-1-1h-23c-1.6,0-1.4-.2-1.4,1.5s0,.9.8.9Zm.1-17.8H39.6c-.9,0-.9.1-.9.9v.4c0,1.1,0,1.1,1,1.1H62.8c1.3,0,1.3,0,1.3-1.4s0-1-.9-1Zm-.1,22.9h12c.5,0,.8-.2.7-.7v-.5c0-1.1,0-1.1-1.1-1.1H40.1c-1.6,0-1.4-.1-1.4,1.4s0,.9.8.9Z"/></svg>