<svg id="Layer_1" data-name="Layer 1" xmlns="http://www.w3.org/2000/svg" viewBox="0 0 30 30"><defs><style>.cls-1{fill:#002e5d;}</style></defs><title>The_Wall_Twitter30</title><path class="cls-1" d="M15,30H.2C0,30,0,30,0,29.8V.2C0,0,0,0,.2,0H29.8c.2,0,.2,0,.2.2V29.8c0,.2,0,.2-.2.2ZM27.6,14.3h0V9.9c0-.2-.1-.4-.3-.3l-2.5.4a.3.3,0,1,0,0,.6c.6.1.7.3.7.9V19c-.1.2-.1.5-.4.5a2.9,2.9,0,0,1-1.3,0c-.3,0-.4-.1-.4-.3a3.8,3.8,0,0,1-.1-1V9.8a.3.3,0,0,0-.3-.3l-2.3.5c-.2,0-.5.1-.5.3s.3.3.5.3a.7.7,0,0,1,.5.7c0,.3.1.6.1.9v5.1a9.7,9.7,0,0,1-.1,1.7.9.9,0,0,1-1.4.6,1.4,1.4,0,0,1-.5-1V15A1.7,1.7,0,0,0,18,13.4a3.8,3.8,0,0,0-3.7.7.6.6,0,0,0-.2.7c0,.2.1.4.3.4a.3.3,0,0,0,.3-.3l.5-.5a1.7,1.7,0,0,1,2.1.9c.2.6,0,.8-.5.9l-2,.5a1.8,1.8,0,0,0-1.5,1.9,1.8,1.8,0,0,0,1.1,1.8,2.1,2.1,0,0,0,1.9-.3l.7-.6c.2-.1.3-.1.3.2s.2.6.8.6.1-.1.2-.1h10c.3,0,.5-.2.4-.5a.4.4,0,0,0-.4-.2c-.6-.1-.7-.3-.7-.9V14.3Zm-24-.9H1.7a.3.3,0,0,0-.3.3c0,.1.1.2.2.3h.1a.8.8,0,0,1,.7.7l.3.9c.4,1.4.9,2.8,1.3,4.2s.2.6.6.6,1-.1,1.2-.7a35.4,35.4,0,0,1,1.6-3.4c0-.1,0-.3.2-.2s.1.1.1.2a18.7,18.7,0,0,1,1.5,3.2c.3.8.6.9,1.3.9s.5-.1.7-.5,1.1-3.5,1.7-5.2a.9.9,0,0,1,.6-.7h.3c.1-.1.2-.2.2-.3s-.2-.3-.3-.3H11.1c-.2,0-.3.1-.3.2s.1.3.2.3h.4c.4.1.5.2.4.6l-.9,2.8c-.1.1-.1.2-.2.2s-.1-.1-.1-.1L10,16.3,8.8,13.6a.7.7,0,0,0-.6-.4.7.7,0,0,0-.7.4v.2L5.8,17.1c0,.1,0,.2-.2.2s-.1-.1-.1-.2a11.3,11.3,0,0,1-.8-2.4c-.1-.3-.1-.4.3-.6h.3c.1-.1.3-.2.2-.4l-.3-.2H3.6Z"/><path class="cls-1" d="M17.4,17.8c0,.8-.2,1.1-.9,1.3s-.8,0-1-.4a.9.9,0,0,1,.1-1.2,2.6,2.6,0,0,1,1.5-.7c.2,0,.3.2.3.4Z"/></svg>