<svg id="Layer_1" data-name="Layer 1" xmlns="http://www.w3.org/2000/svg" viewBox="0 0 72 72"><defs><style>.cls-1{fill:#002e5d;}</style></defs><title>The_Wall_Twitter72</title><path class="cls-1" d="M35.9,72H.6c-.5,0-.6-.1-.6-.6V.6C0,.1.1,0,.6,0H71.4c.5,0,.6.1.6.6V71.4c0,.5-.1.6-.6.6ZM66.1,34.4h.1V23.6c0-.4-.1-.8-.7-.7l-6,1.1c-.4.1-.8.3-.8.7s.4.6.8.7,1.8.8,1.8,2.2c0,4.3,0,8.7-.1,13a43.4,43.4,0,0,1-.1,5.1c0,.5-.1,1.1-.8,1.1a12.2,12.2,0,0,1-3.3,0,.9.9,0,0,1-.9-.8,6.5,6.5,0,0,1-.2-2.4c0-6.4,0-12.7.1-19.1a3.8,3.8,0,0,0-.1-1c0-.5-.3-.7-.8-.6L49.6,24c-.5.1-1.1.3-1.1.8s.6.6,1.1.7A1.4,1.4,0,0,1,50.9,27a17,17,0,0,1,.1,2.2c.1,4.1.1,8.2.1,12.3a18.4,18.4,0,0,1-.3,4.1A2.1,2.1,0,0,1,47.6,47a2.9,2.9,0,0,1-1.3-2.4c0-2.8.1-5.6,0-8.5a4.2,4.2,0,0,0-3.1-4c-3.3-1.1-6.1-.2-8.8,1.7a1.7,1.7,0,0,0-.6,1.8.7.7,0,0,0,.7.8.8.8,0,0,0,.9-.5,1.7,1.7,0,0,1,1.1-1.2,3.7,3.7,0,0,1,5,2.1c.4,1.2.1,1.8-1.2,2.1l-4.8,1.2c-2.4.8-3.4,2-3.5,4.5a3.9,3.9,0,0,0,2.6,4.3,4.4,4.4,0,0,0,4.4-.7l1.8-1.3c.6-.4.7-.4.8.3s.3,1.5,1.7,1.4h.6c6.2-.1,12.5.1,18.7.1h5.3c.8,0,1.2-.5.9-1.2s-.6-.4-.9-.4-1.7-.7-1.8-2.2V34.4ZM8.5,32a24.3,24.3,0,0,1-2.7,0,4.7,4.7,0,0,0-1.7.2c-.4,0-.8.2-.8.6a.8.8,0,0,0,.7.7c0,.1.1.1.2.1a2.1,2.1,0,0,1,1.7,1.6c.2.7.4,1.5.7,2.3,1,3.3,1.9,6.7,2.9,10,.2.8.6,1.4,1.5,1.4s2.3-.1,2.9-1.7,2.5-5.5,3.8-8.2c.1-.2.1-.5.4-.5s.3.3.4.5a80,80,0,0,1,3.6,7.9c.7,1.7,1.3,2.1,3.2,2.1a1.5,1.5,0,0,0,1.5-1.2L31,35.2a2.2,2.2,0,0,1,1.5-1.5l.6-.2a.6.6,0,0,0,.4-.7.7.7,0,0,0-.7-.6H26.6c-.4,0-.6.2-.6.5a.5.5,0,0,0,.4.7l1,.3c.9.2,1.1.5.8,1.3l-2.1,6.9c-.1.1-.1.4-.3.4s-.3-.2-.4-.3-1-2-1.4-3-2-4.2-2.9-6.3a1.6,1.6,0,0,0-3.1,0,.4.4,0,0,1-.1.3L14,41.1c-.1.2-.2.5-.5.5s-.3-.3-.4-.5a42.3,42.3,0,0,1-1.9-5.7c-.2-.9-.1-1.2.8-1.6l.8-.3c.2-.2.6-.5.4-.8a.7.7,0,0,0-.7-.6h-4Z"/><path class="cls-1" d="M41.8,42.6c0,2-.4,2.7-2.1,3.1a1.8,1.8,0,0,1-2.5-.8,2.3,2.3,0,0,1,.2-3,6.8,6.8,0,0,1,3.5-1.5c.5-.1.8.3.8.8A6.6,6.6,0,0,1,41.8,42.6Z"/></svg>