<svg id="Layer_1" data-name="Layer 1" xmlns="http://www.w3.org/2000/svg" viewBox="0 0 72 72"><defs><style>.cls-1{fill:#002e5d;}</style></defs><title>University_Announcements72</title><path class="cls-1" d="M34.7,7.8h2.9a7.8,7.8,0,0,1,5.7,10.3c-.3.6.1.7.5.8A33.2,33.2,0,0,1,69.4,50.1c.1,1.5.2,1.4-1.4,1.4H3.2c-.5,0-.7-.2-.7-.7a29.8,29.8,0,0,1,.7-6c3.2-13.6,11.6-22.2,25-25.9.6-.2.6-.4.4-1a7.6,7.6,0,0,1,.7-6.4A7.7,7.7,0,0,1,34.7,7.8ZM10.9,46.2h1.6c.7.1.9-.2,1.1-.8,2.9-9.5,9.3-15.2,19.1-16.9.4-.1.7-.3.6-.8V25c.1-1.9.1-1.7-1.6-1.4-9.8,1.7-16.8,7.1-21.2,15.9a24.9,24.9,0,0,0-2,6c-.1.5-.1.8.6.7ZM33.5,15.5a2.5,2.5,0,1,0,5-.1,2.5,2.5,0,0,0-5,.1Z"/><path class="cls-1" d="M0,56.5H72v.3c-.9,2.4-1.7,4.9-2.5,7.4H2.5L0,56.8Z"/></svg>