<svg id="Layer_1" data-name="Layer 1" xmlns="http://www.w3.org/2000/svg" viewBox="0 0 30 30"><defs><style>.cls-1{fill:#002e5d;}</style></defs><title>University_Announcements30</title><path class="cls-1" d="M14.5,3.2h1.2A3.1,3.1,0,0,1,18,7.5c-.1.3.1.3.3.4a14.2,14.2,0,0,1,7.3,4.4,13.5,13.5,0,0,1,3.3,8.6c0,.6.1.6-.5.6H1.3a.3.3,0,0,1-.3-.3,23,23,0,0,1,.3-2.6C2.7,13,6.1,9.4,11.7,7.9c.3-.1.3-.2.2-.4a3.2,3.2,0,0,1,.3-2.7A3.2,3.2,0,0,1,14.5,3.2ZM4.5,19.3c.3,0,.5-.1.7,0s.4-.1.5-.4a9.4,9.4,0,0,1,7.9-7c.2-.1.3-.2.3-.4V10.4c0-.8,0-.7-.7-.6a11.5,11.5,0,0,0-8.8,6.7,11.7,11.7,0,0,0-.9,2.4c0,.3,0,.4.3.4S4.3,19.3,4.5,19.3ZM14,6.4a1,1,0,1,0,2,0,1,1,0,1,0-2,0Z"/><path class="cls-1" d="M0,23.5H30c-.4,1.1-.7,2.1-1,3.2H1L0,23.6Z"/></svg>