<svg id="Layer_1" data-name="Layer 1" xmlns="http://www.w3.org/2000/svg" viewBox="0 0 72 72"><defs><style>.cls-1{fill:#002e5d;}</style></defs><title>Utah_Valley72</title><path class="cls-1" d="M17.1,72H15.5a3.7,3.7,0,0,1-1.6-2.1c-1.2-3.7-2.4-7.5-3.5-11.3a2.4,2.4,0,0,1,.6-2.5l6.5-7a5.2,5.2,0,0,0,1.2-5.3c-.2-.9-.2-1,.7-1.2a3.7,3.7,0,0,0,3-4.3,4,4,0,0,0-4.2-3.2,3.8,3.8,0,0,0-3.4,3.8c0,1,0,1.1-1,1.1A5,5,0,0,0,9,42.4l-.9,1.2c-.2.2-.3.7-.6.6s-.3-.6-.4-.9c-.4-2.7-.8-5.3-1.1-8-.1-1,0-1.2,1-1.2a5.7,5.7,0,0,0,3.5-1.2c.4-.3.6-1,1.1-1s.8.6,1.3.9a3.4,3.4,0,0,0,3.8.6A3.9,3.9,0,0,0,18.5,28,3.9,3.9,0,0,0,13,26.7c-.6.4-.8.4-1.1-.3a5.5,5.5,0,0,0-3.5-3,15.5,15.5,0,0,0-3.1-.3V13.7a.8.8,0,0,0,.2-.7c.1-.9.1-1.8.2-2.7s.3-4.5.6-6.7A2.3,2.3,0,0,1,8.4,1.3h1.9L22,.3A4,4,0,0,0,24.4,0h2.8A3.8,3.8,0,0,1,28,2.3a58.9,58.9,0,0,0-.1,8.4c0,1,.5,1.4,1.6,1.4H30l8.2-1L48.8,9.8c1.7-.2,2.3.3,2.6,2A125.4,125.4,0,0,0,62.1,44.5c1.4,2.9,3,5.8,4.6,8.7v1.1a3.7,3.7,0,0,1-1.9,1.1L54.1,59.2,42.8,63.1c-1,.3-1.2.2-1.5-.7s-.5-1.9-.8-2.8c-1.3-4.4-2.7-8.8-4-13.1a5.2,5.2,0,0,0-4-3.7c-1-.3-1-.3-.7-1.2a3.9,3.9,0,0,0-3.9-5.1,4.2,4.2,0,0,0-3.5,3,3.8,3.8,0,0,0,2.1,4.3c.6.3.7.6.3,1.1a5.2,5.2,0,0,0-.4,5.6l6.7,14.4c.6,1.2.6,1.3-.7,1.7L21.9,70.3A39,39,0,0,0,17.1,72Zm17-35.4a4.3,4.3,0,0,0,2.2-.6c.7-.4.9-.2,1.2.4a5.4,5.4,0,0,0,4.7,3.1l5.4.5,6.1.5c.5,0,.8-.1.5-.7C53.1,36.9,52,34,51.1,31a1.1,1.1,0,0,0-.9-.8l-6.3-1.4a5.4,5.4,0,0,0-5.6,1.7.7.7,0,0,1-1.1,0A3.7,3.7,0,0,0,33.8,29a4,4,0,0,0-3.4,3.9A3.8,3.8,0,0,0,34.1,36.6ZM23.6,14.8a6.8,6.8,0,0,0-.8-3.1c-.8-1.8-1.7-3.6-2.5-5.3s-.6-1-1.6-1l-3.4.3L10.6,6c-.7.1-.8.2-.6.9l3,9.5a4.8,4.8,0,0,0,2.4,3,4.5,4.5,0,0,0,1.8.7c.5.1.6.3.5.8a5.9,5.9,0,0,0-.2,1.4,3.6,3.6,0,0,0,4.2,3.9A3.9,3.9,0,0,0,25,22.8a3.6,3.6,0,0,0-2.2-3.9c-.6-.3-.6-.5-.2-1A5.7,5.7,0,0,0,23.6,14.8Zm20.4.5h-.5l-7.5.9-4.8.7c-.7.1-.9.4-.8,1.1l.3,1.1c.2.7.1.9-.5,1l-.9.2A4,4,0,0,0,27,24.8a3.9,3.9,0,0,0,4.4,2.8,3.9,3.9,0,0,0,3.2-3.7c0-1.1,0-1.1,1.2-1.1a4.6,4.6,0,0,0,3.8-1.5A71.5,71.5,0,0,0,44,15.3Z"/></svg>