<svg id="Layer_1" data-name="Layer 1" xmlns="http://www.w3.org/2000/svg" viewBox="0 0 30 30"><defs><style>.cls-1{fill:#002e5d;}</style></defs><title>Utah_Valley30</title><path class="cls-1" d="M7.1,30H6.5a1.3,1.3,0,0,1-.7-.9L4.3,24.4a1,1,0,0,1,.3-1l2.7-2.9a2.3,2.3,0,0,0,.5-2.2c-.1-.4-.1-.4.3-.5A1.6,1.6,0,0,0,9.3,16a1.6,1.6,0,0,0-1.7-1.4,1.6,1.6,0,0,0-1.4,1.6c0,.4,0,.5-.4.4a2.5,2.5,0,0,0-2.1,1.1l-.3.5-.3.2c-.2,0-.1-.2-.1-.4s-.4-2.2-.5-3.3,0-.5.4-.5a2.1,2.1,0,0,0,1.5-.5c.1-.1.2-.4.4-.4s.4.2.6.4a1.5,1.5,0,0,0,1.6.2,1.6,1.6,0,0,0,.7-2.2,1.7,1.7,0,0,0-2.3-.6c-.2.2-.3.2-.4-.1A2.3,2.3,0,0,0,3.5,9.8L2.2,9.6V5.7a.4.4,0,0,0,.1-.3,4.5,4.5,0,0,1,.1-1.1,26.4,26.4,0,0,1,.2-2.8,1.2,1.2,0,0,1,.9-1h.8L9.2.1a1.8,1.8,0,0,0,1-.1h1.1a1.3,1.3,0,0,1,.4,1c-.1,1.1-.1,2.3-.1,3.4s.2.7.7.7h.2l3.4-.4,4.5-.5c.6-.1.9.1,1,.8a53,53,0,0,0,4.5,13.6c.6,1.3,1.2,2.5,1.9,3.7v.4a1.4,1.4,0,0,1-.8.5l-4.5,1.5-4.7,1.7c-.4.1-.5.1-.6-.3l-.3-1.1c-.6-1.9-1.1-3.7-1.7-5.5a2.1,2.1,0,0,0-1.7-1.6c-.4-.1-.4-.1-.2-.5a1.7,1.7,0,0,0-1.7-2.1,1.6,1.6,0,0,0-1.4,1.3,1.5,1.5,0,0,0,.8,1.8c.3.1.3.2.2.4A2.1,2.1,0,0,0,11,21l2.8,6c.3.5.2.6-.3.8L9.1,29.3Zm7.1-14.8a1,1,0,0,0,.9-.2c.3-.2.4-.1.5.2a2.4,2.4,0,0,0,2,1.3l2.2.2,2.6.2c.2,0,.3-.1.2-.3s-.9-2.4-1.3-3.7-.2-.3-.4-.3L18.3,12a2.4,2.4,0,0,0-2.4.7c-.1.2-.2.2-.4,0a1.8,1.8,0,0,0-1.4-.6,1.5,1.5,0,0,0-1.4,1.6A1.4,1.4,0,0,0,14.2,15.2Zm-4.4-9a2.8,2.8,0,0,0-.3-1.3c-.3-.8-.7-1.5-1-2.2s-.3-.5-.7-.4H4.4c-.3,0-.3.1-.2.4l1.2,4a2.3,2.3,0,0,0,1,1.2l.8.3c.2,0,.2.1.2.3a1.3,1.3,0,0,0-.1.6A1.5,1.5,0,0,0,9,10.9a1.6,1.6,0,0,0,1.4-1.4,1.6,1.6,0,0,0-.9-1.6c-.3-.1-.2-.2-.1-.4A2.2,2.2,0,0,0,9.8,6.2Zm8.5.2h-.2L15,6.8,13,7c-.3.1-.4.2-.3.5s.1.3.1.5,0,.3-.2.4h-.4a1.6,1.6,0,0,0-.9,1.8,1.6,1.6,0,0,0,1.8,1.2A1.5,1.5,0,0,0,14.4,10c0-.5,0-.5.5-.5a1.9,1.9,0,0,0,1.6-.6A22.7,22.7,0,0,0,18.3,6.4Z"/></svg>