<svg id="Layer_1" data-name="Layer 1" xmlns="http://www.w3.org/2000/svg" viewBox="0 0 30 30"><defs><style>.cls-1{fill:#002e5d;}</style></defs><title>Vocal_Point30</title><path class="cls-1" d="M0,15V.3C0,0,.1,0,.3,0H29.7c.2,0,.3,0,.3.3V29.7c0,.3-.1.3-.3.3H.3c-.3,0-.3-.1-.3-.3ZM6.6,6.8H5.2c-.4,0-.4,0-.2.4l7.6,15.2c0,.1,0,.3.2.3s.1-.2.2-.3c1.5-3.5,3.1-7,4.7-10.4.7-1.7,1.5-3.3,2.2-4.9s.1-.3-.2-.3H18.1c-.8-.1-1,.1-1.3.9l-3.7,8.7c-.1.1-.1.3-.3.3a.3.3,0,0,1-.3-.3,12.4,12.4,0,0,1-1-2c-1-2.2-2.1-4.3-3.1-6.5A1.6,1.6,0,0,0,6.6,6.8ZM19.5,17.2a6.2,6.2,0,0,0,1.9-.2,5.2,5.2,0,0,0,4.3-6.2,4.5,4.5,0,0,0-2.8-3.3,1,1,0,0,0-1.5.5,5.4,5.4,0,0,1-.5,1.1c-.1.2,0,.3.2.4l.8.6a2.2,2.2,0,0,1,.9,1.7,2.7,2.7,0,0,1-3.1,2.9,1.8,1.8,0,0,0-1.7.9c-1,2.1-2,4.3-2.9,6.4a1.1,1.1,0,0,0-.2.8.3.3,0,0,0,.3.3H17a.6.6,0,0,0,.7-.6V17.8a.7.7,0,0,1,.7-.6Z"/></svg>