<svg id="Layer_1" data-name="Layer 1" xmlns="http://www.w3.org/2000/svg" viewBox="0 0 72 72"><defs><style>.cls-1{fill:#002e5d;}</style></defs><title>Vocal_Point72</title><path class="cls-1" d="M.1,36V.7C.1.1.2,0,.8,0H71.2c.5,0,.7.1.7.7V71.4c0,.5-.1.6-.6.6H.7c-.6,0-.6-.2-.6-.7ZM15.9,16.3H14.2l-1.7.2c-1,0-1,0-.6.9L30.2,54c.1.3.2.7.5.7s.3-.4.4-.7c3.8-8.3,7.6-16.7,11.3-25.1,1.8-3.9,3.6-7.8,5.3-11.7.4-.7.3-.8-.5-.8s-2.5.1-3.7,0-2.5.3-3.2,2.2c-2.9,7.1-5.9,14-8.9,21-.2.4-.3.7-.7.8s-.6-.4-.8-.7l-2.3-4.8c-2.4-5.3-5.1-10.5-7.4-15.8A4.1,4.1,0,0,0,15.9,16.3ZM46.7,41.2a17.5,17.5,0,0,0,4.6-.3c7.3-1.4,11.9-8,10.3-15-.9-3.8-3-6.6-6.6-8-1.5-.6-2.8-.4-3.5,1.3l-1.2,2.5a.8.8,0,0,0,.3,1.2l1.9,1.3a5.5,5.5,0,0,1,2.3,4.2c-.1,4.3-2.9,7-7.6,6.8a4.3,4.3,0,0,0-4.1,2.3c-2.4,5.1-4.7,10.2-7,15.3a5.8,5.8,0,0,0-.4,1.8c0,.5.2.8.7.8h4.3c1.1.1,1.7-.4,1.7-1.6.1-3.1.2-6.3.1-9.5a8.6,8.6,0,0,1,0-1.6,1.7,1.7,0,0,1,1.7-1.6Z"/></svg>