<svg id="Layer_1" data-name="Layer 1" xmlns="http://www.w3.org/2000/svg" viewBox="0 0 72 72"><defs><style>.cls-1{fill:#002e5d;}</style></defs><title>Weather72</title><path class="cls-1" d="M72,36V71.5c0,.4-.1.5-.5.5H.5c-.4,0-.5-.1-.5-.5V.5C0,.1.1,0,.5,0h71c.4,0,.5.1.5.5ZM21.6,36A14.4,14.4,0,1,0,36,21.6,14.5,14.5,0,0,0,21.6,36Zm1.1-14.4a1.5,1.5,0,0,0-.6-1.1l-8-8a1,1,0,0,0-.5-.4,1.1,1.1,0,0,0-1.1,0,1.1,1.1,0,0,0-.6,1,1.5,1.5,0,0,0,.6,1.1l7.9,7.9.6.5A1.2,1.2,0,0,0,22.7,21.6ZM60.1,59a2,2,0,0,0-.6-1.2L51.7,50c-.8-.8-1.5-.9-2-.4s-.5,1.3.3,2.1l7.7,7.7a1.8,1.8,0,0,0,.7.5A1.1,1.1,0,0,0,60.1,59ZM34.9,9.5h0v6.1a1.1,1.1,0,1,0,2.2,0V3.4a1.2,1.2,0,0,0-1.1-1,1,1,0,0,0-1.1,1V9.5ZM62.4,37.1H68c1.1,0,1.6-.3,1.6-1.1s-.5-1.1-1.7-1.1H56.4A1,1,0,0,0,55.3,36a1.1,1.1,0,0,0,1.2,1.1ZM34.9,62.5h0v5.7c0,.9.4,1.4,1.1,1.4s1.1-.5,1.1-1.4V56.4A1.1,1.1,0,0,0,36,55.3a1.1,1.1,0,0,0-1.1,1.2ZM9.6,37.1h5.8c.8,0,1.3-.4,1.3-1.1s-.5-1.1-1.3-1.1H3.3A1.2,1.2,0,0,0,2.4,36a1,1,0,0,0,.9,1.1,1.6,1.6,0,0,0,.7,0ZM50.5,22.7a1.5,1.5,0,0,0,1-.6l8-7.9.4-.5a1.1,1.1,0,0,0-.2-1.5,1.1,1.1,0,0,0-1.4-.1l-.5.4-7.9,8-.4.4a1.1,1.1,0,0,0-.1,1.2A1.3,1.3,0,0,0,50.5,22.7ZM22.7,50.6a1.3,1.3,0,0,0-.7-1.2,1.1,1.1,0,0,0-1.3.3l-8.4,8.4a1.2,1.2,0,0,0-.1,1.7,1.2,1.2,0,0,0,1.7-.1l8.4-8.3A2,2,0,0,0,22.7,50.6Z"/></svg>