<svg id="Layer_1" data-name="Layer 1" xmlns="http://www.w3.org/2000/svg" viewBox="0 0 30 30"><defs><style>.cls-1{fill:#002e5d;}</style></defs><title>Weather30</title><path class="cls-1" d="M30,15V29.8c0,.2,0,.2-.2.2H.2C0,30,0,30,0,29.8V.2C0,0,0,0,.2,0H29.8c.2,0,.2,0,.2.2ZM9,15a6,6,0,0,0,6,6,6,6,0,1,0-6-6Zm.4-6c.1-.2-.1-.3-.2-.5L5.9,5.2,5.7,5H5.2c-.2.1-.2.3-.2.5a.5.5,0,0,0,.2.4L8.5,9.2l.3.2C9.1,9.6,9.4,9.3,9.4,9ZM25,24.6a.8.8,0,0,0-.2-.5l-3.3-3.3c-.3-.3-.6-.3-.8-.1s-.2.5.1.8L24,24.7l.3.3A.5.5,0,0,0,25,24.6ZM14.5,4h0V6.5A.5.5,0,0,0,15,7c.2,0,.4-.2.5-.5V1.4A.7.7,0,0,0,15,1a.7.7,0,0,0-.5.4V4ZM26,15.5h2.3c.5,0,.7-.2.7-.5s-.2-.5-.7-.5H23.5c-.3.1-.5.3-.5.5a.5.5,0,0,0,.5.5ZM14.5,26h0v2.4c0,.4.2.6.5.6s.5-.2.5-.6V23.5c-.1-.3-.2-.5-.5-.5a.5.5,0,0,0-.5.5ZM4,15.5H6.4c.4,0,.6-.2.6-.5a.6.6,0,0,0-.6-.5h-5A.5.5,0,0,0,1,15c0,.3.1.4.4.5H4Zm17-6c.2,0,.3-.2.5-.3l3.3-3.3c0-.1.1-.1.1-.2a.4.4,0,0,0,0-.6.4.4,0,0,0-.6,0h-.2L20.8,8.5l-.2.2a.5.5,0,0,0,0,.5C20.7,9.4,20.8,9.5,21,9.5ZM9.4,21.1c0-.3,0-.4-.2-.5a.5.5,0,0,0-.6.1C7.5,21.9,6.3,23,5.1,24.2a.5.5,0,0,0,.7.7l3.5-3.5C9.4,21.3,9.5,21.2,9.4,21.1Z"/></svg>