<svg id="Layer_1" data-name="Layer 1" xmlns="http://www.w3.org/2000/svg" viewBox="0 0 30 30"><defs><style>.cls-1{fill:#002e5d;}</style></defs><title>Weather_at_BYU30</title><path class="cls-1" d="M0,15V.2C0,.1,0,0,.2,0H29.8c.2,0,.2,0,.2.2V29.8c0,.1,0,.2-.2.2H.2c-.2,0-.2-.1-.2-.2ZM18.3,9.1a3.3,3.3,0,1,0-6.6,0A3.3,3.3,0,0,0,15,12.5,3.4,3.4,0,0,0,18.3,9.1ZM10,22.5a.1.1,0,0,1,.1-.1,1.6,1.6,0,0,0,.8-2,1.7,1.7,0,0,0-1.7-1.3,15.1,15.1,0,0,0-3-.1c-.2,0-.2.1-.2.3v7c0,.2,0,.3.3.3H9.6a1.9,1.9,0,0,0,1.9-1.7,2,2,0,0,0-1.3-2.2C10.1,22.6,10,22.6,10,22.5Zm8.7-.6h0a20.8,20.8,0,0,0,0,2.5,2,2,0,0,0,1.2,1.9,3.1,3.1,0,0,0,2.3.3,2.4,2.4,0,0,0,2.1-2.5V19.5c0-.5,0-.5-.5-.5s-.4,0-.4.4,0,3.2-.1,4.9a1.5,1.5,0,0,1-1.1,1.5,1.9,1.9,0,0,1-2.6-1.6V19.6c0-.7.1-.6-.6-.6s-.4.1-.4.3A22.6,22.6,0,0,1,18.7,21.9Zm-4.3,3.2v.8c0,.8-.1.7.7.7s.3-.1.3-.3V24.2a.9.9,0,0,1,.1-.5l.8-1.4L18,19.2c.1-.1,0-.2-.2-.2h-.5a.5.5,0,0,0-.5.3l-1.7,3.2c0,.1,0,.2-.1.2s-.2-.1-.2-.2l-1.5-2.8c-.4-.7-.4-.7-1.2-.7s-.3.1-.2.2l1.9,3.5A3,3,0,0,1,14.4,25.1ZM14.7,3V4.3a.3.3,0,0,0,.3.3.3.3,0,0,0,.3-.3V1.7c0-.2-.1-.4-.3-.4s-.3.2-.3.4Zm.6,12.3V14c0-.2-.1-.4-.3-.4a.3.3,0,0,0-.3.3v2.7a.3.3,0,1,0,.6,0Zm5.3-.8c0-.2-.1-.2-.2-.3l-1.2-1.3-.6-.5a.2.2,0,0,0-.4-.1c-.2.2-.1.3,0,.4l1.9,1.9h.1Zm0-10.7a.2.2,0,0,0-.2-.2c-.1-.1-.2,0-.3.1L18.3,5.5c-.2.1-.3.3-.1.4s.3.1.4,0l1.8-1.8C20.5,4,20.6,3.9,20.6,3.8Zm-8.7,8.7c0-.1,0-.2-.1-.2s-.3,0-.4.1L9.6,14.2a.2.2,0,0,0-.1.4c.2.2.3.1.4,0l1.8-1.9A.2.2,0,0,0,11.9,12.5Zm0-6.8a.2.2,0,0,0-.2-.2L10,3.7H9.8a.2.2,0,0,0-.3,0,.2.2,0,0,0,0,.3.3.3,0,0,0,.1.2l1.7,1.7.2.2C11.7,6.1,11.9,6,11.9,5.7Zm9.2,3.7h1.3c.2,0,.4-.1.4-.3s-.2-.2-.4-.2H19.8c-.1,0-.3,0-.3.2a.3.3,0,0,0,.3.3ZM8.9,8.9H7.6c-.2,0-.4,0-.4.2s.2.3.4.3h2.6a.3.3,0,0,0,.3-.3c0-.2-.2-.2-.3-.2Z"/><path class="cls-1" d="M8.2,25.8h-1a.2.2,0,0,1-.2-.2V23.3c0-.2,0-.3.2-.3a14.7,14.7,0,0,1,2.1,0,1.5,1.5,0,0,1,1.1,2,1.3,1.3,0,0,1-1.3.8Z"/><path class="cls-1" d="M7,21V20c0-.2,0-.2.2-.2H8.7A1.2,1.2,0,0,1,10,21.1a1.1,1.1,0,0,1-1,1.1,10.8,10.8,0,0,1-1.8,0c-.2,0-.2,0-.2-.2Z"/></svg>