<svg id="Layer_1" data-name="Layer 1" xmlns="http://www.w3.org/2000/svg" viewBox="0 0 72 72"><defs><style>.cls-1{fill:#002e5d;}</style></defs><title>Weather_at_BYU72</title><path class="cls-1" d="M0,36V.5C0,.1,0,0,.5,0h71c.4,0,.5.1.5.5v71c0,.4,0,.5-.5.5H.5c-.5,0-.5-.2-.5-.5ZM44,21.9a8,8,0,1,0-8,8A8,8,0,0,0,44,21.9ZM24,54l.3-.3c1.9-1.1,2.4-2.6,1.8-4.8S24,46,22,45.7a55.8,55.8,0,0,0-7.1-.1c-.5,0-.6.3-.6.7q.1,8.4,0,16.8c0,.5.2.7.8.7H18a41.3,41.3,0,0,0,5-.1,4.9,4.9,0,0,0,1.4-9.5C24.2,54.2,24.1,54.2,24,54Zm20.8-1.5h0c0,2-.1,4,0,6a5.5,5.5,0,0,0,3,4.7,7.8,7.8,0,0,0,5.6.7,5.9,5.9,0,0,0,5-6.2V46.9c0-1.3,0-1.3-1.2-1.3s-1.1,0-1.1,1.1c0,3.8.1,7.7-.1,11.5A4.1,4.1,0,0,1,53.2,62c-2.9.9-5.9-.5-6.1-3.9v-11c0-1.7.1-1.5-1.5-1.5s-.8.2-.8.8ZM34.6,60.3v1.9c0,1.8-.2,1.6,1.6,1.6s.8-.2.8-.8V58.1a2.4,2.4,0,0,1,.3-1.2l1.8-3.3,4-7.5c.2-.4.2-.6-.3-.5H41.5c-.6-.1-.9.1-1.2.7l-4,7.8c-.1.2-.2.5-.4.5s-.4-.3-.5-.5c-1.1-2.3-2.3-4.5-3.4-6.7s-1-1.9-3-1.8-.6.1-.4.6c1.6,2.8,3,5.6,4.6,8.3A8,8,0,0,1,34.6,60.3Zm.8-53.2v3.2c0,.4.1.8.6.8s.6-.4.6-.9V4.1c0-.5-.1-.9-.6-.9s-.6.4-.6.9Zm1.2,29.5V33.5c0-.4-.1-.8-.6-.8s-.6.4-.6.8v6.3c0,.4.1.8.6.8s.6-.4.6-.9Zm12.8-1.9A1,1,0,0,0,49,34l-3-3a15.9,15.9,0,0,1-1.3-1.3c-.3-.3-.7-.5-1-.2s-.2.7.1,1.1l4.4,4.3.3.3A.7.7,0,0,0,49.4,34.7Zm0-25.6a.5.5,0,0,0-.4-.5c-.3-.2-.6,0-.8.2l-4.4,4.4c-.3.3-.6.6-.2,1s.8.2,1.1-.1L49,9.7A.7.7,0,0,0,49.4,9.1ZM28.5,30a.7.7,0,0,0-.3-.6c-.3-.2-.6,0-.9.2l-4.4,4.5a.7.7,0,0,0-.1,1c.4.4.7.1,1-.2l4.4-4.3C28.3,30.4,28.5,30.2,28.5,30Zm0-16.2a1,1,0,0,0-.4-.7L23.9,8.9l-.3-.3a.6.6,0,0,0-.8,0,1,1,0,0,0-.1.9l.4.3c1.3,1.4,2.7,2.8,4.1,4.1l.4.4A.6.6,0,0,0,28.5,13.8Zm22.3,8.7h3c.4,0,.9-.1.8-.6s-.3-.6-.7-.6H47.6c-.4,0-.8.1-.8.6s.4.6.8.6ZM21.3,21.3H18.1a.7.7,0,0,0-.8.5c0,.6.4.7.8.7h6.3c.4,0,.8-.1.8-.6s-.4-.6-.8-.6Z"/><path class="cls-1" d="M19.7,62a17.6,17.6,0,0,0-2.3,0c-.5,0-.7-.2-.7-.7s0-3.7,0-5.5.2-.6.5-.6a29,29,0,0,1,5.1.1A3.5,3.5,0,0,1,25,60a3.2,3.2,0,0,1-3.1,1.9Z"/><path class="cls-1" d="M16.7,50.4a17.6,17.6,0,0,0,0-2.3c0-.5.2-.7.6-.7h3.6c2,.1,3.1,1.2,3,3.1a2.7,2.7,0,0,1-2.3,2.7,30.9,30.9,0,0,1-4.3.1.5.5,0,0,1-.6-.6A19.2,19.2,0,0,0,16.7,50.4Z"/></svg>