<svg id="Layer_1" data-name="Layer 1" xmlns="http://www.w3.org/2000/svg" viewBox="0 0 30 30"><defs><style>.cls-1{fill:#002e5d;}</style></defs><title>Web_Server_Usage30</title><path class="cls-1" d="M8.6.6c.8.3,1,.7,1,1.6V21.7c0,.5,0,.5.5.5h4c.1,0,.2,0,.2.1s-.1.1-.1.2c-2.3,2.2-4.5,4.5-6.8,6.8-.2.1-.3.1-.4-.1C4.7,27,2.5,24.8.3,22.5L0,22.3H4.4c.4,0,.4,0,.4-.4V1.9A1.2,1.2,0,0,1,5.7.7H8.6Z"/><path class="cls-1" d="M30,4.5a2.2,2.2,0,0,1-.5.8l-.8.2H13.2A1.2,1.2,0,0,1,12,4.2V2.1c0-.9.2-1.2,1-1.5H28.9a1.4,1.4,0,0,1,1.1,1Z"/><path class="cls-1" d="M18.6,12.7H13.3A1.2,1.2,0,0,1,12,11.4V9.1a1.2,1.2,0,0,1,1.2-1.3H24.3a1.2,1.2,0,0,1,.9,1.2v2.3a1.2,1.2,0,0,1-1.3,1.3Z"/><path class="cls-1" d="M16.2,15h2.9a1.2,1.2,0,0,1,1.3,1.2v2.4a1.2,1.2,0,0,1-1.3,1.3H13.3c-.9,0-1.3-.5-1.3-1.4V16.3A1.2,1.2,0,0,1,13.2,15Z"/></svg>