<svg id="Layer_1" data-name="Layer 1" xmlns="http://www.w3.org/2000/svg" viewBox="0 0 72 72"><defs><style>.cls-1{fill:#002e5d;}</style></defs><title>Web_Server_Usage72</title><path class="cls-1" d="M20.5,1.5c2,.7,2.6,1.5,2.6,3.7v47c0,1.1,0,1.1,1.1,1.1h9.6c.2,0,.5-.1.6.2s-.2.3-.4.5L17.8,70.2c-.4.5-.7.4-1.1,0L.6,54.1,0,53.5H10.5c1,0,1,0,1-.9V4.7a2.8,2.8,0,0,1,2.2-3.1h6.8Z"/><path class="cls-1" d="M72,10.8a4.1,4.1,0,0,1-1.3,1.9,2.5,2.5,0,0,1-1.7.4H31.7a2.8,2.8,0,0,1-3-3v-5c0-2.2.5-2.9,2.5-3.6H69.4A3.4,3.4,0,0,1,72,3.9Z"/><path class="cls-1" d="M44.5,30.4H31.8a2.9,2.9,0,0,1-3.1-3.1V22a3,3,0,0,1,3.1-3.3H56.7a4.1,4.1,0,0,1,1.6.2,2.8,2.8,0,0,1,2.2,2.9v5.6a2.9,2.9,0,0,1-3.1,3Z"/><path class="cls-1" d="M38.9,36.1h7A2.9,2.9,0,0,1,49,39a54.2,54.2,0,0,1,0,5.7,2.9,2.9,0,0,1-3.2,3H31.9c-2.1,0-3.2-1.2-3.2-3.4V39.1a2.8,2.8,0,0,1,3-3Z"/></svg>