<svg id="Layer_1" data-name="Layer 1" xmlns="http://www.w3.org/2000/svg" viewBox="0 0 30 30"><defs><style>.cls-1{fill:#002e5d;}</style></defs><title>Web_Server_Comparison30</title><path class="cls-1" d="M8.8.6A1.3,1.3,0,0,1,9.6,2V21.7c0,.5,0,.5.5.5h4.2c.1.1-.1.2-.2.3L7.5,29.1l-.2.3H7.1L0,22.2H4.3c.5,0,.5,0,.5-.5,0-6.5,0-13-.1-19.6A1.5,1.5,0,0,1,5.6.6Z"/><path class="cls-1" d="M30,18.7a1.1,1.1,0,0,1-.6.9l-.6.2H13.1A1.1,1.1,0,0,1,12,18.7a11.3,11.3,0,0,1,0-2.6A1.1,1.1,0,0,1,13.1,15H28.5c.9,0,1.2.2,1.5,1Z"/><path class="cls-1" d="M19.5.6a1.4,1.4,0,0,1,.9,1.5V4A1.3,1.3,0,0,1,19,5.5H13.3C12.4,5.5,12,5,12,4.1a13.4,13.4,0,0,0-.1-2A1.6,1.6,0,0,1,12.8.6Z"/><path class="cls-1" d="M18.6,12.6H13.4a1.5,1.5,0,0,1-1.5-1.5A14.8,14.8,0,0,0,12,9.1a1.2,1.2,0,0,1,1.2-1.3H23.7c1,0,1.5.4,1.5,1.4v2.1a1.2,1.2,0,0,1-1.3,1.3Z"/></svg>