<svg id="Layer_1" data-name="Layer 1" xmlns="http://www.w3.org/2000/svg" viewBox="0 0 72 72"><defs><style>.cls-1{fill:#002e5d;}</style></defs><title>Web_Server_Comparison72</title><path class="cls-1" d="M21,1.5a3.3,3.3,0,0,1,2.1,3.3C23,20.6,23,36.3,23,52.1c0,1.1,0,1.1,1.1,1.1h9.4c.3,0,.7-.2.8.1s-.2.5-.4.7L18.1,69.8l-.7.7h-.3L0,53.4v-.2H10.3c1.1,0,1.1,0,1.1-1.1V5.2c0-1.7.5-3,2-3.7Z"/><path class="cls-1" d="M72,44.9a3.3,3.3,0,0,1-1.4,2.2,2.8,2.8,0,0,1-1.5.4H31.5a2.8,2.8,0,0,1-2.8-2.7V38.7a2.8,2.8,0,0,1,2.7-2.8H68.3c2.2,0,2.9.5,3.7,2.6Z"/><path class="cls-1" d="M46.9,1.5A3.3,3.3,0,0,1,49,4.9V9.7a3.1,3.1,0,0,1-3.4,3.4H31.9a3,3,0,0,1-3.2-3.3V5.1a3.4,3.4,0,0,1,2-3.6Z"/><path class="cls-1" d="M44.5,30.4H32.1a3.2,3.2,0,0,1-3.4-3.5c.1-1.7,0-3.4,0-5.2a2.9,2.9,0,0,1,3-3H56.9c2.4,0,3.6,1.2,3.6,3.5v5a3.1,3.1,0,0,1-3.3,3.2Z"/></svg>