<svg id="Layer_1" data-name="Layer 1" xmlns="http://www.w3.org/2000/svg" viewBox="0 0 72 72"><defs><style>.cls-1{fill:#002e5d;}</style></defs><title>Wellness_Faculty_Staff72</title><path class="cls-1" d="M72,17.4c-.2,1-.2,2-.5,3A12.2,12.2,0,0,1,69,24.5C58.4,35.1,47.8,45.6,37.3,56.2c-.5.5-.8.5-1.3,0C29.3,49.4,22.6,42.7,15.8,36c-.5-.5-.5-.8,0-1.3L47.5,3A9.6,9.6,0,0,1,54.1.1h1.2A9.8,9.8,0,0,1,62,3.2l7,7a11.8,11.8,0,0,1,2.5,4c.3,1,.3,2,.5,2.9ZM58.1,34.8c0-.3-.3-.5-.5-.7C51,27.6,44.4,21,37.9,14.4l-.4-.3c-.2-.2-.4-.4-.7-.1s-1.1.7-1.1,1.5v.2l.3.2c6.6,6.7,13.3,13.3,20,20,.4.5.7.6,1.2,0l.7-.7C58.1,35.1,58.2,35,58.1,34.8ZM36,28.2a2.5,2.5,0,0,0,2.5-2.4,2.5,2.5,0,0,0-2.4-2.5,2.6,2.6,0,0,0-2.6,2.4A2.6,2.6,0,0,0,36,28.2ZM28.2,36a2.5,2.5,0,0,0-2.4-2.5,2.5,2.5,0,0,0-2.5,2.4,2.6,2.6,0,0,0,2.4,2.6A2.5,2.5,0,0,0,28.2,36Zm10.3,0a2.5,2.5,0,0,0-5-.1,2.7,2.7,0,0,0,2.4,2.6A2.6,2.6,0,0,0,38.5,36Zm10.2,0a2.6,2.6,0,0,0-2.5-2.5A2.5,2.5,0,0,0,43.8,36a2.5,2.5,0,0,0,2.4,2.5A2.6,2.6,0,0,0,48.7,36ZM36,43.8a2.5,2.5,0,1,0,0,4.9,2.5,2.5,0,1,0,0-4.9ZM28.5,30.9a2.3,2.3,0,0,0,2.3,2.4,2.4,2.4,0,0,0,2.5-2.4,2.3,2.3,0,0,0-2.4-2.4A2.3,2.3,0,0,0,28.5,30.9Zm15,0a2.3,2.3,0,0,0-2.3-2.4,2.3,2.3,0,0,0-2.5,2.4,2.4,2.4,0,0,0,2.4,2.4A2.3,2.3,0,0,0,43.5,30.9ZM30.9,43.5a2.3,2.3,0,0,0,2.4-2.3,2.4,2.4,0,0,0-2.4-2.5,2.3,2.3,0,0,0-2.4,2.4A2.3,2.3,0,0,0,30.9,43.5Zm12.6-2.4a2.3,2.3,0,0,0-2.3-2.4,2.4,2.4,0,0,0-2.5,2.4,2.3,2.3,0,0,0,2.4,2.4A2.3,2.3,0,0,0,43.5,41.1Z"/><path class="cls-1" d="M0,54.6a17,17,0,0,1,.6-3.1,9.7,9.7,0,0,1,2.2-3.8L14.5,36c.1-.1.2-.2.6,0l-.9.6c-.5.4-.4.7.1,1.1l.4.5L34.3,57.7c.7.8.7.8,0,1.5-3.2,3.2-6.4,6.3-9.5,9.5a10.2,10.2,0,0,1-6.9,3.2H16.8a10.1,10.1,0,0,1-6.9-3.1L3.1,62A10.4,10.4,0,0,1,.2,56.2,5.9,5.9,0,0,0,0,54.9Z"/></svg>