<svg id="Layer_1" data-name="Layer 1" xmlns="http://www.w3.org/2000/svg" viewBox="0 0 30 30"><defs><style>.cls-1{fill:#002e5d;}</style></defs><title>Wellness_Faculty_Staff30</title><path class="cls-1" d="M30,7.3c-.1.4-.1.8-.2,1.2a3.9,3.9,0,0,1-1.1,1.7L15.5,23.4c-.2.2-.3.2-.5,0L6.6,15c-.2-.2-.2-.3,0-.5L19.8,1.3A4.1,4.1,0,0,1,22.5,0H23a4.6,4.6,0,0,1,2.8,1.3l2.9,2.9a6.2,6.2,0,0,1,1.1,1.7c.1.4.1.8.2,1.2Zm-5.8,7.2-.2-.3L15.8,6h-.2a.2.2,0,0,0-.3-.1c-.1.2-.4.3-.4.7H15L23.4,15c.2.2.3.2.5,0s.2-.2.2-.3ZM15,11.8a1.1,1.1,0,0,0,1-1.1,1,1,0,0,0-1-1,1.1,1.1,0,0,0-1,1A1,1,0,0,0,15,11.8ZM11.8,15a1.1,1.1,0,0,0-1.1-1,1,1,0,0,0-1,1,1.1,1.1,0,0,0,1,1A1.1,1.1,0,0,0,11.8,15ZM16,15a1,1,0,1,0-1,1A1,1,0,0,0,16,15Zm4.3,0a1,1,0,0,0-1-1,1,1,0,0,0-1.1,1,1.1,1.1,0,0,0,1.1,1A1.1,1.1,0,0,0,20.3,15ZM15,18.2a1,1,0,0,0-1,1.1,1,1,0,0,0,2,0A1.1,1.1,0,0,0,15,18.2Zm-3.1-5.3a1,1,0,0,0,.9,1,1.1,1.1,0,0,0,1.1-1,1,1,0,0,0-1-1C12.3,11.8,11.9,12.3,11.9,12.9Zm6.2,0a.9.9,0,0,0-.9-1,1,1,0,0,0-1.1,1,1.1,1.1,0,0,0,1,1A.9.9,0,0,0,18.1,12.9Zm-5.2,5.2a1,1,0,0,0,1-.9,1.1,1.1,0,0,0-1-1.1,1,1,0,0,0-1,1C11.8,17.7,12.3,18.1,12.9,18.1Zm5.2-1a1,1,0,0,0-.9-1,1,1,0,0,0-1.1,1,.9.9,0,0,0,1,1C17.7,18.2,18.1,17.7,18.1,17.1Z"/><path class="cls-1" d="M0,22.7c.1-.4.1-.8.2-1.2a3.4,3.4,0,0,1,1-1.6c1.6-1.7,3.2-3.3,4.9-4.9h.2l-.4.2c-.2.2-.2.4,0,.5l.2.2L14.3,24c.3.4.3.4,0,.7l-4,3.9A4.4,4.4,0,0,1,7.4,30H7a4.7,4.7,0,0,1-2.9-1.4L1.3,25.8A3.5,3.5,0,0,1,.1,23.4c-.1-.2,0-.4-.1-.5Z"/></svg>