<svg id="Layer_1" data-name="Layer 1" xmlns="http://www.w3.org/2000/svg" viewBox="0 0 72 72"><defs><style>.cls-1{fill:#002e5d;}</style></defs><title>Wired_Campus72</title><path class="cls-1" d="M72,21.1a7.4,7.4,0,0,1-1.9,1.6l-11,7.7c-.2.1-.4.3-.6.3a1.3,1.3,0,0,1-2.1-1.1v-3c.1-.5-.1-.7-.6-.7H46.6a.9.9,0,0,0-.8.4L25.3,50.9,21.8,55a4.9,4.9,0,0,1-3.9,1.7H5.3A5.3,5.3,0,0,1,.2,52.8L0,52.3V50.6A5.8,5.8,0,0,1,1.3,48,5.8,5.8,0,0,1,6,46.2c2.9,0,5.9-.1,8.9,0a1.4,1.4,0,0,0,1.2-.6l23.4-28A5.5,5.5,0,0,1,44,15.4H55.6c.7,0,.9-.3.8-.9a20.8,20.8,0,0,0,0-2.5,1.7,1.7,0,0,1,1-1.8h.7l.9.5,12,8.4a3.2,3.2,0,0,1,1,1Z"/><path class="cls-1" d="M57.3,61.7a1.8,1.8,0,0,1-.9-1.7,20.8,20.8,0,0,0,0-2.5c.1-.6-.1-.8-.8-.8H44.3a5.6,5.6,0,0,1-4.7-2.1c-2.2-2.5-4.3-5.1-6.4-7.6-.6-.8-.6-1.3.1-2.2s3.1-3.7,4.7-5.6a1.3,1.3,0,0,1,2.3,0l5.2,6.2a1.8,1.8,0,0,0,1.5.8c2.9-.1,5.7-.1,8.6,0,.6,0,.9-.2.8-.9V42.7a1.6,1.6,0,0,1,.8-1.5,1.4,1.4,0,0,1,1.6.3l12.5,8.7a2.2,2.2,0,0,1,.7.9v.8A4.1,4.1,0,0,1,70.8,53l-6.5,4.5-6,4.2Z"/><path class="cls-1" d="M0,19.8a5.2,5.2,0,0,1,3.6-4.1,5.1,5.1,0,0,1,1.7-.3H17.9A4.9,4.9,0,0,1,22,17.3c2.2,2.5,4.3,5.1,6.4,7.7a1.2,1.2,0,0,1,0,1.9l-4.9,5.9a1.4,1.4,0,0,1-2.2-.1c-1.1-1.3-2.2-2.7-3.4-4l-1.8-2.2a1.6,1.6,0,0,0-1.4-.7H6.3C2.9,26,.8,24.5,0,21.5Z"/></svg>