<svg id="Layer_1" data-name="Layer 1" xmlns="http://www.w3.org/2000/svg" viewBox="0 0 30 30"><defs><style>.cls-1{fill:#002e5d;}</style></defs><title>Wired_Campus30</title><path class="cls-1" d="M30,8.8a2.4,2.4,0,0,1-.8.6l-4.6,3.3h-.2a.6.6,0,0,1-.9-.5V11.1a.3.3,0,0,0-.3-.3H19.4c-.1,0-.2,0-.3.2L10.5,21.2a11.5,11.5,0,0,1-1.4,1.7,2,2,0,0,1-1.6.7H2.2A2.1,2.1,0,0,1,.1,22v-.9A2.2,2.2,0,0,1,.5,20a2.4,2.4,0,0,1,2-.8H6.2c.2,0,.4,0,.5-.2L16.4,7.3a2.3,2.3,0,0,1,1.9-.9h4.9c.2,0,.3,0,.3-.3V5a.7.7,0,0,1,.4-.7h.3l.4.2,5,3.5.4.4Z"/><path class="cls-1" d="M23.9,25.7a.7.7,0,0,1-.4-.7V24c0-.3-.1-.4-.3-.4H18.5a2.2,2.2,0,0,1-2-.9l-2.7-3.1c-.2-.4-.2-.6.1-.9l1.9-2.4a.7.7,0,0,1,1,0A27.5,27.5,0,0,0,19,18.9a.6.6,0,0,0,.6.3h3.6a.3.3,0,0,0,.3-.3V17.8a.6.6,0,0,1,.3-.6.6.6,0,0,1,.7.1l5.2,3.6.3.4v.3l-.5.5L26.8,24l-2.5,1.7Z"/><path class="cls-1" d="M0,8.3A2.3,2.3,0,0,1,1.5,6.5h6a2.3,2.3,0,0,1,1.7.8c.9,1.1,1.8,2.1,2.6,3.2s.3.5,0,.8l-2,2.5c-.3.3-.6.3-.9-.1a11.5,11.5,0,0,1-1.4-1.7L6.7,11c-.1-.2-.3-.2-.6-.2s-2.3-.1-3.5,0A2.4,2.4,0,0,1,0,9Z"/></svg>