<svg id="Layer_1" data-name="Layer 1" xmlns="http://www.w3.org/2000/svg" viewBox="0 0 72 72"><defs><style>.cls-1{fill:#002e5d;}</style></defs><title>Word_of_the_Day72</title><path class="cls-1" d="M7.7,68.1V3.9A5.5,5.5,0,0,1,11.6,0H60.4a5.5,5.5,0,0,1,3.9,3.9V61.7H15a2.3,2.3,0,0,0-2,2.4,2.2,2.2,0,0,0,2,2.4H64.3v1.2A5.5,5.5,0,0,1,60.4,72H11.6A5.5,5.5,0,0,1,7.7,68.1ZM25.8,30.8v12c-.1.7.2.9.9.9,2.8-.1,5.7,0,8.6,0a26.6,26.6,0,0,0,2.8-.3A12.7,12.7,0,0,0,37,18.2c-3.4-.2-6.8-.1-10.2-.1-1-.1-1,0-1,.9Z"/><path class="cls-1" d="M30.8,30.8V24c0-.7.2-.9.9-.9h4.8a7.8,7.8,0,0,1,.9,15.4,41.4,41.4,0,0,1-6.1.1c-.6,0-.5-.5-.5-.8Z"/></svg>