<svg id="Layer_1" data-name="Layer 1" xmlns="http://www.w3.org/2000/svg" viewBox="0 0 30 30"><defs><style>.cls-1{fill:#002e5d;}</style></defs><title>Word_of_the_Day30</title><path class="cls-1" d="M3.2,28.4V1.6A2.5,2.5,0,0,1,4.9,0H25.1a2.5,2.5,0,0,1,1.7,1.6V25.7H6.3a1,1,0,0,0,0,2H26.8v.5A2.5,2.5,0,0,1,25.1,30H4.9A2.5,2.5,0,0,1,3.2,28.4Zm7.5-15.6v5c0,.3.1.4.4.4h4.8a5.3,5.3,0,0,0,4.4-5.4,5.2,5.2,0,0,0-4.9-5.1H11.1c-.4,0-.4,0-.4.4Z"/><path class="cls-1" d="M12.8,12.8V10c0-.3.1-.4.4-.4h2a3.2,3.2,0,0,1,3,3,3.3,3.3,0,0,1-2.6,3.5H13.1c-.3,0-.3-.2-.3-.4Z"/></svg>