<svg id="Layer_1" data-name="Layer 1" xmlns="http://www.w3.org/2000/svg" viewBox="0 0 72 72"><defs><style>.cls-1{fill:#002e5d;}</style></defs><title>Y-Business_Links72</title><path class="cls-1" d="M26.5,2.7h19l.6.2A10.2,10.2,0,0,1,54,11.6a46.9,46.9,0,0,1,0,5.3c.1,1,.1,1.1,1.1,1.1H66.8a5,5,0,0,1,4.9,3.6l.3.8V32.9a34.5,34.5,0,0,1-10.7,6.9,56,56,0,0,1-16.2,3.6c-1.4.1-1.5.1-1.5-1.4s-.3-.8-1-.8H30c-1.6,0-1.7-.2-1.6,1.5s-.3.8-.9.8l-3.6-.4C15,42,6.7,39.3,0,32.9V22.4c.7-2.8,2.7-4.6,6.2-4.5s7.2,0,10.8.1c.7,0,1-.3,1-1a30.8,30.8,0,0,1,0-4.3,10,10,0,0,1,2.5-6.6A10.7,10.7,0,0,1,26.5,2.7ZM36,18H47.7c.9,0,1-.1,1-1.1v-4a5,5,0,0,0-4.9-5q-7.8-.2-15.6,0a5,5,0,0,0-4.9,5v4c0,1,.1,1.1,1,1.1Z"/><path class="cls-1" d="M72,39.4V65a5.5,5.5,0,0,1-3.9,4.3H3.9A5.5,5.5,0,0,1,0,65V39.4c1.1.6,2.1,1.4,3.2,2.1,7.1,4.3,15,6.1,23.2,6.8,2,.2,2,.1,2,2s.3,1,1,1H41.8c2,0,1.8.2,1.8-1.7v-.3c0-.6.2-.8.8-.9,2.5-.2,4.9-.4,7.4-.8a47.9,47.9,0,0,0,19.6-7.8Z"/></svg>