<svg id="Layer_1" data-name="Layer 1" xmlns="http://www.w3.org/2000/svg" viewBox="0 0 30 30"><defs><style>.cls-1{fill:#002e5d;}</style></defs><title>Y-Business_Links30</title><path class="cls-1" d="M11,1.1h8.2a4.1,4.1,0,0,1,3.3,3.6,16.1,16.1,0,0,1,0,2.2c0,.5,0,.5.5.5h4.8A2.2,2.2,0,0,1,29.9,9c0,.1.1.2.1.3v4.4a15.1,15.1,0,0,1-4.5,2.9,21.8,21.8,0,0,1-6.7,1.5c-.6,0-.6,0-.6-.6s-.2-.3-.4-.3H12.5c-.7,0-.7-.1-.7.6s-.1.3-.3.3H10c-3.8-.5-7.2-1.6-10-4.3V9.3A2.3,2.3,0,0,1,2.6,7.5H7.1c.3,0,.4-.1.4-.4V5.3A4.1,4.1,0,0,1,8.6,2.5,4.5,4.5,0,0,1,11,1.1Zm4,6.4h4.9c.4,0,.4,0,.4-.4V5.4a2.1,2.1,0,0,0-2.1-2.1H11.8A2.1,2.1,0,0,0,9.7,5.4V7.1c0,.4,0,.4.4.4Z"/><path class="cls-1" d="M30,16.4V27.1a2.4,2.4,0,0,1-1.6,1.8H1.6A2.4,2.4,0,0,1,0,27.1V16.4l1.3.9A22.2,22.2,0,0,0,11,20.1c.8.1.8.1.8.9s.1.4.4.4h5.2c.9,0,.8,0,.8-.7h0c0-.3.1-.4.3-.4l3.1-.4a19.7,19.7,0,0,0,8.1-3.2Z"/></svg>