<svg id="Layer_1" data-name="Layer 1" xmlns="http://www.w3.org/2000/svg" viewBox="0 0 72 72"><defs><style>.cls-1{fill:#002e5d;}</style></defs><title>Y-Time72</title><path class="cls-1" d="M39.3,72H32.7l-1.6-.2A36.1,36.1,0,0,1,1.3,45.9,48.1,48.1,0,0,1,0,39.3V32.7a8.8,8.8,0,0,0,.2-1.6A36.1,36.1,0,0,1,26.1,1.3,48.1,48.1,0,0,1,32.7,0h6.6l1.6.2A36.1,36.1,0,0,1,70.7,26.1,48.1,48.1,0,0,1,72,32.7v6.6a8.8,8.8,0,0,0-.2,1.6A36.1,36.1,0,0,1,45.9,70.7,48.1,48.1,0,0,1,39.3,72ZM35.6,5.3a20.1,20.1,0,0,0-5.8.6A30.7,30.7,0,0,0,5.4,39.3a30.3,30.3,0,0,0,9.8,19.3c.4.4.6.6,1.1.1a20.7,20.7,0,0,1,7.3-5,33.2,33.2,0,0,1,19.7-1.6,24.5,24.5,0,0,1,12.5,6.6c.4.5.6.3,1,0C65,50.8,68.2,41.2,66.1,30,63.4,15.6,50.7,5.3,35.6,5.3Zm.7,61.4a28.4,28.4,0,0,0,14.8-4c.8-.4.8-.4.1-1.1a13.4,13.4,0,0,0-3.7-2.5,27.6,27.6,0,0,0-17.9-1.7,18.4,18.4,0,0,0-8.9,4.2c-.6.7-.6.7.1,1.1A30.4,30.4,0,0,0,36.3,66.7Z"/><path class="cls-1" d="M45.1,24.9a3.7,3.7,0,0,1-.5,1.7L41,32.7a1.4,1.4,0,0,0-.1,1.4,5.2,5.2,0,1,1-5.7-3.3,1.3,1.3,0,0,0,1.2-.8L40,23.7a2.9,2.9,0,0,1,2.5-1.5A2.7,2.7,0,0,1,45.1,24.9Z"/><path class="cls-1" d="M33.3,14.1a10.9,10.9,0,0,1,.1-1.8A2.7,2.7,0,0,1,36,10.2a2.6,2.6,0,0,1,2.6,2.1,10.9,10.9,0,0,1,0,3.6A2.6,2.6,0,0,1,36,18.1,2.7,2.7,0,0,1,33.4,16,12.1,12.1,0,0,1,33.3,14.1Z"/><path class="cls-1" d="M13.4,24.6A2.6,2.6,0,0,1,17.2,22c.9.4,1.7,1,2.6,1.5a2.8,2.8,0,0,1,.8,3.5,2.6,2.6,0,0,1-3.3,1.1,10.5,10.5,0,0,1-2.9-1.7A2.2,2.2,0,0,1,13.4,24.6Z"/><path class="cls-1" d="M58.6,24.6a2.4,2.4,0,0,1-1.2,2L55,28a2.6,2.6,0,0,1-3.5-1,2.5,2.5,0,0,1,.9-3.6A13.8,13.8,0,0,1,54.8,22,2.6,2.6,0,0,1,58.6,24.6Z"/><path class="cls-1" d="M14.2,38.6H12.7a2.6,2.6,0,0,1-2.4-2.8,2.5,2.5,0,0,1,2.6-2.5h2.6a2.6,2.6,0,0,1,2.7,2.6,2.7,2.7,0,0,1-2.6,2.7Z"/><path class="cls-1" d="M57.8,33.3h1.3a2.6,2.6,0,0,1,2.6,2.5,2.5,2.5,0,0,1-2.3,2.7,8.6,8.6,0,0,1-3.2,0,2.6,2.6,0,0,1-2.4-2.6,2.7,2.7,0,0,1,2.5-2.6Z"/><path class="cls-1" d="M13.4,47.3a2.3,2.3,0,0,1,1.2-2L17,43.8a2.7,2.7,0,0,1,3.5,1,2.5,2.5,0,0,1-.9,3.6,13.8,13.8,0,0,1-2.4,1.4A2.6,2.6,0,0,1,13.4,47.3Z"/><path class="cls-1" d="M58.6,47.2a2.6,2.6,0,0,1-3.8,2.6,17.4,17.4,0,0,1-2.6-1.5,2.6,2.6,0,0,1-.8-3.4,2.7,2.7,0,0,1,3.4-1.2l2.8,1.6A2.4,2.4,0,0,1,58.6,47.2Z"/><path class="cls-1" d="M25.5,20.8a2.3,2.3,0,0,1-1.9-1.1l-1.5-2.5a2.7,2.7,0,0,1,1.1-3.6,2.7,2.7,0,0,1,3.6,1,20.1,20.1,0,0,1,1.4,2.5A2.7,2.7,0,0,1,25.5,20.8Z"/><path class="cls-1" d="M46.6,20.8c-2.3,0-3.6-1.9-2.8-3.6a25.4,25.4,0,0,1,1.6-2.8,2.6,2.6,0,0,1,3.4-.8A2.6,2.6,0,0,1,50,16.9a12.2,12.2,0,0,1-1.7,2.9A2.2,2.2,0,0,1,46.6,20.8Z"/></svg>