<svg id="Layer_1" data-name="Layer 1" xmlns="http://www.w3.org/2000/svg" viewBox="0 0 30 30"><defs><style>.cls-1{fill:#002e5d;}</style></defs><title>Y-Time30</title><path class="cls-1" d="M16.4,30H13A15.2,15.2,0,0,1,.5,19.1,25.6,25.6,0,0,1,0,16.4V13.6c0-.2.1-.4.1-.6A15.2,15.2,0,0,1,10.9.5L13.6,0H17A15.2,15.2,0,0,1,29.5,10.9a25.6,25.6,0,0,1,.5,2.7v2.8c0,.2-.1.4-.1.6A15.2,15.2,0,0,1,19.1,29.5ZM14.8,2.2l-2.4.2a12.8,12.8,0,0,0-10.1,14,12.3,12.3,0,0,0,4,8c.2.2.3.3.5.1a7.8,7.8,0,0,1,3-2.1,13.9,13.9,0,0,1,8.3-.7,10.3,10.3,0,0,1,5.1,2.8c.2.2.3.1.5-.1a12.6,12.6,0,0,0,3.9-11.9A12.9,12.9,0,0,0,14.8,2.2Zm.3,25.6a11.9,11.9,0,0,0,6.2-1.7c.3-.1.3-.2.1-.4a5.7,5.7,0,0,0-1.6-1.1,12,12,0,0,0-7.5-.7,7.6,7.6,0,0,0-3.7,1.8c-.2.2-.2.3.1.4A12.5,12.5,0,0,0,15.1,27.8Z"/><path class="cls-1" d="M18.8,10.4a2.5,2.5,0,0,1-.2.7l-1.5,2.5a.7.7,0,0,0-.1.6,2.2,2.2,0,1,1-4.1,1.3,2.1,2.1,0,0,1,1.8-2.6,1,1,0,0,0,.5-.4l1.5-2.6a1,1,0,0,1,1-.6A1,1,0,0,1,18.8,10.4Z"/><path class="cls-1" d="M13.9,5.9V5.1a1.2,1.2,0,0,1,2.2,0,3.8,3.8,0,0,1,0,1.5,1.1,1.1,0,0,1-1.1.9,1.1,1.1,0,0,1-1.1-.8Z"/><path class="cls-1" d="M5.6,10.2a1.1,1.1,0,0,1,1.6-1l1,.6a1.1,1.1,0,0,1,.4,1.4,1.1,1.1,0,0,1-1.4.5L6,11A.9.9,0,0,1,5.6,10.2Z"/><path class="cls-1" d="M24.4,10.2a1,1,0,0,1-.5.9l-1,.6a1.1,1.1,0,0,1-1.5-.4,1.1,1.1,0,0,1,.4-1.5,2.7,2.7,0,0,1,1-.6A1.1,1.1,0,0,1,24.4,10.2Z"/><path class="cls-1" d="M5.9,16.1H5.3a1.2,1.2,0,0,1-1-1.2,1,1,0,0,1,1.1-1H6.5A1.1,1.1,0,0,1,7.6,15a1.2,1.2,0,0,1-1.1,1.1Z"/><path class="cls-1" d="M24.1,13.9h.5a1,1,0,0,1,1.1,1,1.1,1.1,0,0,1-1,1.2H23.4a1.2,1.2,0,0,1-1-1.2,1.1,1.1,0,0,1,1.1-1Z"/><path class="cls-1" d="M5.6,19.7a.8.8,0,0,1,.5-.8,2.1,2.1,0,0,1,1-.6,1.1,1.1,0,0,1,1.5.4,1.2,1.2,0,0,1-.4,1.5l-1,.6A1.1,1.1,0,0,1,5.6,19.7Z"/><path class="cls-1" d="M24.4,19.7a1.1,1.1,0,0,1-1.6,1.1l-1-.7a1.1,1.1,0,0,1-.4-1.4,1.1,1.1,0,0,1,1.4-.5l1.2.7A.9.9,0,0,1,24.4,19.7Z"/><path class="cls-1" d="M10.6,8.7a1.2,1.2,0,0,1-.8-.5L9.2,7.1a1,1,0,0,1,.5-1.4,1.1,1.1,0,0,1,1.5.4,4.7,4.7,0,0,1,.5,1A1.1,1.1,0,0,1,10.6,8.7Z"/><path class="cls-1" d="M19.4,8.7a1.1,1.1,0,0,1-1.1-1.6A6,6,0,0,1,18.9,6a1,1,0,0,1,1.4-.3A1,1,0,0,1,20.8,7a5.4,5.4,0,0,1-.7,1.3A.9.9,0,0,1,19.4,8.7Z"/></svg>