<svg id="Layer_1" data-name="Layer 1" xmlns="http://www.w3.org/2000/svg" viewBox="0 0 72 72"><defs><style>.cls-1{fill:#002e5d;}</style></defs><title>YTrain72</title><path class="cls-1" d="M0,15.6V10.2H4c1,0,1.1,0,1.1-1.1V5.9c0-.6.2-.8.8-.8H9.4c.6,0,.8-.2.8-.8a4.7,4.7,0,0,1,.1-1.7h5.1a1.6,1.6,0,0,1,.2,1V9c0,1.2,0,1.2,1.2,1.2H55.3c1.1,0,1.1,0,1.1-1.1V3.7a2,2,0,0,1,.2-1.1h5.1a4.7,4.7,0,0,1,.1,1.7c0,.6.2.8.8.8h3.5c.6,0,.8.2.8.8V9.1c0,1.1.1,1.1,1.1,1.1h4v5.4H67.8c-.7,0-.9.2-.9.8V20c0,.5-.2.7-.7.7H63.7c-1.8,0-1.8,0-1.9,1.8s-.2.8-.8.8-2.3,0-3.4,0-1.2-.1-1.2-1.2V16.5c0-.5,0-.9-.6-.9H51.1c-.5,0-.5.2-.4.6a13.8,13.8,0,0,1,.4,8.3A17.4,17.4,0,0,1,44,35.3a1.4,1.4,0,0,0-.8,1.1c-.7,3.8-1.6,7.5-2.2,11.4a.7.7,0,0,0,.2.6,14.4,14.4,0,0,1,4.3,7.9,33.6,33.6,0,0,1,.9,7c0,.7.2.9.8.9a3.4,3.4,0,0,1,1,0c.5,0,.7.2.7.6v4.6H41.1V64a36.8,36.8,0,0,0-.6-5.8c-.5-2.2-1.1-4.3-2.8-5.8a2.2,2.2,0,0,0-3.4,0,9.1,9.1,0,0,0-2.4,4,25.4,25.4,0,0,0-.9,7.2c-.1,1.9-.1,3.9-.1,5.8H23.1V66c0-2.1-.2-1.8,1.7-1.8s.8-.2.8-.9a34.3,34.3,0,0,1,.6-5.5c.6-3.6,1.8-6.9,4.6-9.4.3-.2.2-.4.2-.7-.6-3.7-1.5-7.3-2.1-11a2.3,2.3,0,0,0-1-1.5,16.4,16.4,0,0,1-6.7-9.6,14.7,14.7,0,0,1,.1-9.5c.2-.5-.1-.5-.4-.5H16.7c-1.1,0-1.1,0-1.1,1.1v5.5c0,1-.1,1.1-1.1,1.1H12c-1.9-.1-1.8.2-1.8-1.7s-.2-.9-.8-.9H5.9c-.6,0-.8-.2-.8-.8V16.4c0-.6-.2-.8-.9-.8ZM37.8,28.2A5.7,5.7,0,0,1,42,29.5c.3.3.5,0,.7-.2A11.5,11.5,0,0,0,46,18.9a1.3,1.3,0,0,0-.7-1,2.7,2.7,0,0,1-1.6-1.7c-.1-.5-.4-.6-.9-.6H29.1c-.4,0-.7.1-.8.6a2.8,2.8,0,0,1-1.5,1.7,1.2,1.2,0,0,0-.8,1,10.2,10.2,0,0,0,0,3.9,11.6,11.6,0,0,0,3.1,6.5c.3.2.5.5.9.2a5.7,5.7,0,0,1,4.2-1.3c-3.1-2.2-4-4.1-3.2-6.7A5.2,5.2,0,0,1,36.2,18,5.1,5.1,0,0,1,41,21.8C41.7,24.3,40.7,26.3,37.8,28.2Z"/></svg>