<svg id="Layer_1" data-name="Layer 1" xmlns="http://www.w3.org/2000/svg" viewBox="0 0 30 30"><defs><style>.cls-1{fill:#002e5d;}</style></defs><title>YTrain30</title><path class="cls-1" d="M0,6.5V4.3H1.7c.4,0,.4-.1.4-.5V2.4a.3.3,0,0,1,.3-.3H3.9c.3,0,.4-.1.4-.3s-.1-.5,0-.7H6.4a.6.6,0,0,1,.1.4V3.7c0,.5,0,.6.5.6H23.1c.4,0,.4-.1.4-.5V1.5a.6.6,0,0,1,.1-.4h2.1c.1.2,0,.4,0,.7s.1.3.4.3h1.5a.3.3,0,0,1,.3.3V3.8c0,.4,0,.5.4.5H30V6.5H28.2a.3.3,0,0,0-.3.3V8.3a.3.3,0,0,1-.3.3H26.5c-.7,0-.7,0-.8.8a.3.3,0,0,1-.3.3H24c-.5,0-.5,0-.5-.5V6.9c0-.2,0-.4-.3-.4H21.3c-.2,0-.2.1-.2.2a6,6,0,0,1,.2,3.5,7,7,0,0,1-3,4.5.6.6,0,0,0-.3.5l-.9,4.7a.4.4,0,0,0,.1.3A6.1,6.1,0,0,1,19,23.4a15.3,15.3,0,0,1,.3,3c0,.2.1.4.4.3h.4a.3.3,0,0,1,.3.3v1.9H17.1V26.7a19.5,19.5,0,0,0-.2-2.5,4.6,4.6,0,0,0-1.2-2.4,1,1,0,0,0-1.4,0,4.2,4.2,0,0,0-1,1.7,10.3,10.3,0,0,0-.4,3v2.4H9.6V27.5c0-.9-.1-.8.7-.8s.4-.1.4-.3a16.4,16.4,0,0,1,.2-2.3,6.9,6.9,0,0,1,1.9-3.9.4.4,0,0,0,.1-.3c-.2-1.6-.6-3.1-.9-4.6a.5.5,0,0,0-.4-.6,7.4,7.4,0,0,1-2.8-4,6.8,6.8,0,0,1,.1-4c.1-.2-.1-.2-.2-.2H6.9c-.4,0-.4,0-.4.4V9.2c0,.5,0,.5-.5.5H5c-.8,0-.7.1-.7-.7s-.1-.4-.4-.4H2.5c-.3,0-.4-.1-.4-.3V6.8a.3.3,0,0,0-.3-.3Zm15.7,5.2a2.8,2.8,0,0,1,1.8.6c.1.1.2,0,.3-.1a5,5,0,0,0,1.4-4.3c-.1-.2-.1-.4-.3-.4a1.2,1.2,0,0,1-.7-.7c0-.2-.2-.3-.4-.3H12.1a.3.3,0,0,0-.3.3,1.3,1.3,0,0,1-.6.7c-.2,0-.3.2-.4.4a4.3,4.3,0,0,0,0,1.6,5.7,5.7,0,0,0,1.3,2.7c.1.1.2.2.4.1a2.7,2.7,0,0,1,1.7-.6C13,10.8,12.6,10,12.9,9a2.3,2.3,0,0,1,2.2-1.5,2.1,2.1,0,0,1,2,1.6C17.4,10.1,17,11,15.7,11.7Z"/></svg>