<svg id="Layer_1" data-name="Layer 1" xmlns="http://www.w3.org/2000/svg" viewBox="0 0 25 25"><defs><style>.cls-1{fill:#fabe15;}.cls-2{isolation:isolate;}.cls-3{fill:#fff;}</style></defs><title>GradeIcon_C+</title><g id="Ellipse_7" data-name="Ellipse 7"><circle class="cls-1" cx="12.5" cy="12.5" r="12.5"/></g><g id="C_" data-name="C " class="cls-2"><g class="cls-2"><path class="cls-3" d="M14,10.8v.4H11.2v-.5A1.4,1.4,0,0,0,9.7,9.4c-1.1,0-1.7.9-1.7,2.1v2.1c0,1.2.6,2.1,1.7,2.1a1.4,1.4,0,0,0,1.5-1.3V14H14v.4c0,2.2-1.6,3.7-4.3,3.7s-4.6-1.7-4.6-4.5V11.5A4.2,4.2,0,0,1,9.7,7C12.5,7,14,8.5,14,10.8Z"/><path class="cls-3" d="M20.3,8.9v2.6h2.6v2.1H20.3v2.6H18.1V13.6H15.5V11.5h2.6V8.9Z"/></g></g></svg>