<svg id="Layer_1" data-name="Layer 1" xmlns="http://www.w3.org/2000/svg" viewBox="0 0 25 25"><defs><style>.cls-1{fill:#0057b6;}.cls-2{isolation:isolate;}.cls-3{fill:#fff;}</style></defs><title>GradeIcon_B-</title><g id="Ellipse_4" data-name="Ellipse 4"><circle class="cls-1" cx="12.5" cy="12.5" r="12.5"/></g><g id="B" class="cls-2"><g class="cls-2"><path class="cls-3" d="M11.5,7.1c2.5,0,3.5,1,3.5,2.6v.5a2,2,0,0,1-1.8,2.1h0c1.3.3,1.9.9,1.9,2.1v.6c0,1.6-1,2.6-3.6,2.6H6.7V7.1Zm-2,4.3h1.6c.7,0,1.1-.3,1.1-.9v-.3c0-.6-.4-.9-1.1-.9H9.5Zm0,4.1h1.6c.7,0,1.1-.3,1.1-.9v-.4c0-.6-.4-.9-1.1-.9H9.5Z"/><path class="cls-3" d="M21,11.9v2.2H16.4V11.9Z"/></g></g></svg>