<?xml version="1.0" encoding="utf-8"?>
<!-- Generator: Adobe Illustrator 23.0.1, SVG Export Plug-In . SVG Version: 6.00 Build 0)  -->
<svg version="1.1" id="Layer_1" xmlns="http://www.w3.org/2000/svg" xmlns:xlink="http://www.w3.org/1999/xlink" x="0px" y="0px"
	 viewBox="0 0 30.5 27.2" style="enable-background:new 0 0 30.5 27.2;" xml:space="preserve">
<g>
	<g>
		<path d="M7.5,12.1V2.9H11c0.7,0,1.3,0.1,1.7,0.3s0.8,0.5,1,0.9S14,4.8,14,5.2c0,0.4-0.1,0.8-0.3,1.1c-0.2,0.3-0.5,0.6-1,0.8
			c0.6,0.2,1,0.4,1.3,0.8c0.3,0.4,0.5,0.9,0.5,1.4c0,0.4-0.1,0.8-0.3,1.2c-0.2,0.4-0.4,0.7-0.7,0.9s-0.6,0.4-1,0.5
			c-0.4,0.1-0.9,0.2-1.5,0.2H7.5z M8.7,6.8h2c0.5,0,0.9,0,1.2-0.1c0.3-0.1,0.5-0.2,0.7-0.5c0.2-0.2,0.2-0.5,0.2-0.8
			c0-0.3-0.1-0.6-0.2-0.8c-0.1-0.2-0.4-0.4-0.6-0.5C11.7,4,11.2,4,10.6,4H8.7V6.8z M8.7,11H11c0.4,0,0.7,0,0.8,0
			c0.3-0.1,0.5-0.1,0.7-0.3s0.3-0.3,0.5-0.5s0.2-0.5,0.2-0.8c0-0.3-0.1-0.6-0.3-0.9c-0.2-0.3-0.4-0.4-0.7-0.5
			c-0.3-0.1-0.8-0.2-1.4-0.2H8.7V11z"/>
		<path d="M16.2,12.1V2.9h6.7V4h-5.5v2.8h5.1v1.1h-5.1V11h5.7v1.1H16.2z"/>
	</g>
	<g>
		<path d="M27.4,1c0.9,0,1.6,0.3,1.9,0.8C29.6,2.3,29.5,3,29,3.8l-12.2,21c-0.5,0.8-1.1,1.3-1.6,1.3s-1.2-0.5-1.6-1.3L1.5,3.8
			C1,3,0.9,2.3,1.2,1.8C1.4,1.3,2.1,1,3.1,1H27.4 M27.4,0H3.1C0.3,0-0.8,1.9,0.6,4.3l12.2,21c0.7,1.2,1.6,1.8,2.5,1.8
			c0.9,0,1.8-0.6,2.5-1.8l12.2-21C31.3,1.9,30.1,0,27.4,0L27.4,0z"/>
	</g>
</g>
</svg>
