<?xml version="1.0" encoding="utf-8"?>
<!-- Generator: Adobe Illustrator 23.0.0, SVG Export Plug-In . SVG Version: 6.00 Build 0)  -->
<svg version="1.1" id="Layer_1" xmlns="http://www.w3.org/2000/svg" xmlns:xlink="http://www.w3.org/1999/xlink" x="0px" y="0px"
	 viewBox="0 0 21 21" style="enable-background:new 0 0 21 21;" xml:space="preserve">
<style type="text/css">
	.st0{fill:#8D8D8D;}
</style>
<path class="st0" d="M10.5,0C4.7,0,0,4.7,0,10.5C0,16.3,4.7,21,10.5,21S21,16.3,21,10.5C21,4.7,16.3,0,10.5,0z M10,16.1
	c-0.3,0.2-0.6,0.4-1,0.4c-0.4,0-0.9-0.2-1.1-0.5c-0.5-0.6-0.5-1.6,0.2-2.1l3.6-3L8,7.9C7.4,7.3,7.3,6.4,7.8,5.7S9.3,5,10,5.5
	l6.4,5.2L10,16.1z"/>
</svg>
