<?xml version="1.0" encoding="utf-8"?>
<!-- Generator: Adobe Illustrator 23.0.0, SVG Export Plug-In . SVG Version: 6.00 Build 0)  -->
<svg version="1.1" id="Layer_1" xmlns="http://www.w3.org/2000/svg" xmlns:xlink="http://www.w3.org/1999/xlink" x="0px" y="0px"
	 viewBox="0 0 9 9.6" style="enable-background:new 0 0 9 9.6;" xml:space="preserve">
<style type="text/css">
	.st0{fill:#666666;}
</style>
<g id="Group_28" transform="translate(-1081.5 -281.3)">
	<path id="Path_25" class="st0" d="M1090.5,283.3v1.1h-9v-1.1c0-0.4,0.3-0.7,0.7-0.7c0,0,0,0,0,0h1v0.6c0,0.3,0.3,0.6,0.6,0.6
		c0.3,0,0.6-0.3,0.6-0.6c0,0,0,0,0,0v-0.6h3.3v0.6c0,0.3,0.3,0.6,0.6,0.6c0.3,0,0.6-0.3,0.6-0.6c0,0,0,0,0,0v-0.6h1
		C1090.3,282.6,1090.5,282.9,1090.5,283.3z"/>
	<path id="Path_26" class="st0" d="M1089.8,285.1v5.1h-7.6v-5.1H1089.8 M1090.5,284.4h-9v5.8c0,0.4,0.3,0.7,0.7,0.7c0,0,0,0,0,0h7.6
		c0.4,0,0.7-0.3,0.7-0.7c0,0,0,0,0,0L1090.5,284.4L1090.5,284.4z"/>
	<path id="Path_27" class="st0" d="M1083.8,284.2c-0.5,0-0.9-0.3-0.9-0.8v-1.3c0-0.5,0.4-0.8,0.8-0.8c0,0,0,0,0.1,0
		c0.5,0,0.9,0.3,0.9,0.8v1.3C1084.6,283.8,1084.3,284.2,1083.8,284.2z M1083.8,281.8c-0.2,0-0.3,0.1-0.3,0.2v1.3
		c0,0.1,0.1,0.2,0.3,0.2c0.1,0,0.3-0.1,0.3-0.2V282C1084,281.9,1083.9,281.8,1083.8,281.8L1083.8,281.8z"/>
	<path id="Path_28" class="st0" d="M1088.3,284.2c-0.5,0-0.9-0.3-0.9-0.8v-1.3c0-0.5,0.4-0.8,0.8-0.8c0,0,0,0,0.1,0
		c0.5,0,0.9,0.3,0.9,0.8v1.3C1089.1,283.8,1088.7,284.1,1088.3,284.2z M1088.3,281.8c-0.2,0-0.3,0.1-0.3,0.2v1.3
		c0,0.1,0.1,0.2,0.3,0.2s0.3-0.1,0.3-0.2V282C1088.5,281.9,1088.4,281.8,1088.3,281.8L1088.3,281.8z"/>
</g>
</svg>
