<?xml version="1.0" encoding="utf-8"?>
<!-- Generator: Adobe Illustrator 23.0.0, SVG Export Plug-In . SVG Version: 6.00 Build 0)  -->
<svg version="1.1" id="Layer_1" xmlns="http://www.w3.org/2000/svg" xmlns:xlink="http://www.w3.org/1999/xlink" x="0px" y="0px"
	 viewBox="0 0 9 9.6" style="enable-background:new 0 0 9 9.6;" xml:space="preserve">
<style type="text/css">
	.st0{fill:#666666;}
	.st1{fill:none;stroke:#666666;stroke-width:0.5;stroke-miterlimit:10;}
</style>
<g id="Group_31" transform="translate(-1105.5 -516.8)">
	<g id="Group_30">
		<path id="Path_29" class="st0" d="M1114.5,518.8v1.1h-9v-1.1c0-0.4,0.3-0.7,0.7-0.7c0,0,0,0,0,0h1v0.6c0,0.3,0.3,0.6,0.6,0.6
			c0.3,0,0.6-0.3,0.6-0.6c0,0,0,0,0,0v-0.6h3.3v0.6c0,0.3,0.3,0.6,0.6,0.6c0.3,0,0.6-0.3,0.6-0.6c0,0,0,0,0,0v-0.6h1
			C1114.3,518.1,1114.5,518.4,1114.5,518.8z"/>
		<path id="Path_30" class="st0" d="M1113.8,520.6v5.1h-7.6v-5.1H1113.8 M1114.5,519.9h-9v5.8c0,0.4,0.3,0.7,0.7,0.7c0,0,0,0,0,0
			h7.6c0.4,0,0.7-0.3,0.7-0.7c0,0,0,0,0,0L1114.5,519.9L1114.5,519.9z"/>
		<path id="Path_31" class="st0" d="M1107.8,519.7c-0.5,0-0.9-0.3-0.9-0.8v-1.3c0-0.5,0.4-0.8,0.8-0.8c0,0,0,0,0.1,0
			c0.5,0,0.9,0.3,0.9,0.8v1.3C1108.7,519.4,1108.3,519.7,1107.8,519.7z M1107.8,517.3c-0.2,0-0.3,0.1-0.3,0.2v1.3
			c0,0.1,0.1,0.2,0.3,0.2s0.3-0.1,0.3-0.2v-1.3C1108.1,517.4,1108,517.3,1107.8,517.3z"/>
		<path id="Path_32" class="st0" d="M1112.3,519.7c-0.5,0-0.9-0.3-0.9-0.8v-1.3c0-0.5,0.4-0.8,0.8-0.8c0,0,0,0,0.1,0
			c0.5,0,0.9,0.3,0.9,0.8v1.3C1113.2,519.4,1112.8,519.7,1112.3,519.7z M1112.3,517.3c-0.2,0-0.3,0.1-0.3,0.2v1.3
			c0,0.1,0.1,0.2,0.3,0.2s0.3-0.1,0.3-0.2v-1.3C1112.6,517.4,1112.4,517.3,1112.3,517.3z"/>
	</g>
	<line id="Line_13" class="st1" x1="1106.1" y1="522.2" x2="1114.1" y2="522.2"/>
	<line id="Line_14" class="st1" x1="1106" y1="524.1" x2="1114.1" y2="524.1"/>
	<line id="Line_15" class="st1" x1="1108" y1="520.5" x2="1108" y2="526"/>
	<line id="Line_16" class="st1" x1="1110" y1="520.5" x2="1110" y2="526"/>
	<line id="Line_17" class="st1" x1="1112.1" y1="520.5" x2="1112.1" y2="526"/>
</g>
</svg>
