<?xml version="1.0" encoding="utf-8"?>
<!-- Generator: Adobe Illustrator 23.0.0, SVG Export Plug-In . SVG Version: 6.00 Build 0)  -->
<svg version="1.1" id="Layer_1" xmlns="http://www.w3.org/2000/svg" xmlns:xlink="http://www.w3.org/1999/xlink" x="0px" y="0px"
	 viewBox="0 0 11.9 11.9" style="enable-background:new 0 0 11.9 11.9;" xml:space="preserve">
<style type="text/css">
	.st0{fill:#8D8D8D;}
</style>
<path id="Sun_3_" class="st0" d="M11.2,6c0.1-0.5,0.3-1,0.7-1.4c0.1-0.1,0.1-0.3,0-0.3c0,0-0.1,0-0.1-0.1c-1-0.1-1.6-0.9-1.6-1.9
	c0-0.1,0-0.2,0.1-0.3c0-0.1-0.1-0.3-0.2-0.3c0,0-0.1,0-0.1,0C9,1.9,8.1,1.4,7.8,0.5c0-0.1,0-0.2-0.1-0.3C7.7,0,7.6,0,7.4,0.1
	C6.8,0.8,5.7,1,4.9,0.4C4.8,0.3,4.7,0.2,4.6,0.1C4.5,0,4.3,0,4.2,0.1c0,0,0,0.1-0.1,0.1c-0.1,1-0.9,1.6-1.9,1.6
	c-0.1,0-0.2,0-0.3-0.1c-0.1,0-0.3,0.1-0.3,0.2c0,0,0,0.1,0,0.1c0.3,0.9-0.3,1.9-1.2,2.1c-0.1,0-0.2,0-0.3,0.1C0,4.3,0,4.4,0.1,4.6
	C0.8,5.1,1,6.2,0.4,7C0.3,7.1,0.2,7.3,0.1,7.4C0,7.5,0,7.6,0.1,7.7c0,0,0.1,0,0.1,0.1c1,0.1,1.6,0.9,1.6,1.9c0,0.1,0,0.2-0.1,0.3
	c0,0.1,0.1,0.3,0.2,0.3c0,0,0.1,0,0.1,0c0.9-0.3,1.9,0.3,2.1,1.2c0,0.1,0,0.2,0.1,0.3C4.3,12,4.4,12,4.6,11.9
	c0.6-0.8,1.7-0.9,2.5-0.3c0.1,0.1,0.3,0.2,0.3,0.3c0.1,0.1,0.3,0.1,0.3,0c0,0,0-0.1,0.1-0.1c0.1-1,0.9-1.6,1.9-1.6
	c0.1,0,0.2,0,0.3,0.1c0.1,0,0.3-0.1,0.3-0.2c0,0,0-0.1,0-0.1C10,9,10.5,8.1,11.5,7.8c0.1,0,0.2,0,0.3-0.1C12,7.7,12,7.6,11.9,7.4
	C11.4,7,11.2,6.5,11.2,6z M5.8,10.6c-2.5,0-4.6-2.1-4.6-4.6s2.1-4.6,4.6-4.6s4.6,2.1,4.6,4.6v0C10.4,8.5,8.3,10.6,5.8,10.6
	C5.8,10.6,5.8,10.6,5.8,10.6z M9.8,6c0,2.2-1.8,4-4,4s-4-1.8-4-4s1.8-4,4-4C8,2,9.7,3.8,9.8,6z"/>
</svg>
