<svg id="alert_icon_layer" data-name="alert icon layer" xmlns="http://www.w3.org/2000/svg" xmlns:xlink="http://www.w3.org/1999/xlink" viewBox="0 0 114.48 101.4"><defs><style>.cls-1{stroke-miterlimit:10;stroke-width:5px;fill:url(#linear-gradient);stroke:url(#linear-gradient-2);}.cls-2{fill:url(#linear-gradient-3);}</style><linearGradient id="linear-gradient" x1="259.95" y1="597.63" x2="335.01" y2="672.69" gradientUnits="userSpaceOnUse"><stop offset="0" stop-color="#ffdcdc"/><stop offset="0.02" stop-color="#ffd5d5"/><stop offset="0.16" stop-color="#fba0a0"/><stop offset="0.3" stop-color="#f77272"/><stop offset="0.45" stop-color="#f54c4c"/><stop offset="0.59" stop-color="#f32f2f"/><stop offset="0.73" stop-color="#f11b1b"/><stop offset="0.87" stop-color="#f00e0e"/><stop offset="1" stop-color="#f00a0a"/></linearGradient><linearGradient id="linear-gradient-2" x1="258.18" y1="595.87" x2="336.78" y2="674.46" gradientUnits="userSpaceOnUse"><stop offset="0" stop-color="#b40a0a"/><stop offset="1" stop-color="#600000"/></linearGradient><linearGradient id="linear-gradient-3" x1="273.44" y1="608.07" x2="321.53" y2="656.16" gradientUnits="userSpaceOnUse"><stop offset="0" stop-color="#fafafa"/><stop offset="0.38" stop-color="#f7f7f7"/><stop offset="0.61" stop-color="#efefef"/><stop offset="0.8" stop-color="#e1e1e1"/><stop offset="0.97" stop-color="#cdcdcd"/><stop offset="1" stop-color="#c8c8c8"/></linearGradient></defs><title>icon-alert-2</title><g id="alert_icon_group" data-name="alert icon group"><g id="alert_sign_group" data-name="alert sign group"><path id="red_outer_triangle" data-name="red outer triangle" class="cls-1" d="M292.29,565.6,243.55,650a6,6,0,0,0,5.2,9h97.46a6,6,0,0,0,5.2-9l-48.73-84.4A6,6,0,0,0,292.29,565.6Z" transform="translate(-240.24 -560.1)"/><path id="red_outer_triangle-2" data-name="red outer triangle" class="cls-2" d="M294.88,586.77l-32.09,55.6a3,3,0,0,0,2.59,4.49h64.2a3,3,0,0,0,2.6-4.49l-32.1-55.6A3,3,0,0,0,294.88,586.77Z" transform="translate(-240.24 -560.1)"/></g><g id="exclamation_group" data-name="exclamation group"><path d="M302.23,602.42q0,1.47-1.22,9.85t-2.16,16.2H296q-.81-7.83-2-16.2t-1.21-9.85a3.56,3.56,0,0,1,1.34-2.81,5.69,5.69,0,0,1,6.82,0A3.54,3.54,0,0,1,302.23,602.42Z" transform="translate(-240.24 -560.1)"/><circle cx="57.24" cy="77.57" r="5"/></g></g></svg>