<?xml version="1.0" encoding="utf-8"?>
<!-- Generator: Adobe Illustrator 23.0.0, SVG Export Plug-In . SVG Version: 6.00 Build 0)  -->
<svg version="1.1" id="Layer_1" xmlns="http://www.w3.org/2000/svg" xmlns:xlink="http://www.w3.org/1999/xlink" x="0px" y="0px"
	 viewBox="0 0 9.8 9.8" style="enable-background:new 0 0 9.8 9.8;" xml:space="preserve">
<style type="text/css">
	.st0{fill:#666666;}
	.st1{fill:none;}
	.st2{enable-background:new    ;}
</style>
<g id="Group_26" transform="translate(-1085.6 -129)">
	<g id="Group_24">
		<g id="Path_24">
			<path class="st0" d="M1090.5,129.8c2.3,0,4.2,1.9,4.2,4.2s-1.9,4.2-4.2,4.2c-2.3,0-4.2-1.9-4.2-4.2c0,0,0,0,0,0
				C1086.3,131.7,1088.2,129.8,1090.5,129.8 M1090.5,129c-2.7,0-4.9,2.2-4.9,4.9c0,2.7,2.2,4.9,4.9,4.9s4.9-2.2,4.9-4.9
				C1095.4,131.2,1093.2,129,1090.5,129z"/>
		</g>
	</g>
	<g id="Group_25">
		<g id="Rectangle_280">
			<rect x="1086.2" y="131.3" class="st1" width="8.5" height="5.4"/>
		</g>
		<g class="st2">
			<path class="st0" d="M1091.2,131.3v1h-1.3v-1H1091.2z M1091.2,132.8v3.7h-1.3v-3.7H1091.2z"/>
		</g>
	</g>
</g>
</svg>
