<?xml version="1.0" encoding="utf-8"?>
<!-- Generator: Adobe Illustrator 23.0.6, SVG Export Plug-In . SVG Version: 6.00 Build 0)  -->
<svg version="1.1" id="Layer_1" xmlns="http://www.w3.org/2000/svg" xmlns:xlink="http://www.w3.org/1999/xlink" x="0px" y="0px"
	 viewBox="0 0 187.8 175.7" style="enable-background:new 0 0 187.8 175.7;" xml:space="preserve">
<style type="text/css">
	.st0{fill:#002E5D;}
</style>
<path class="st0" d="M157,96.8l30.8-31.3c-34.7-27.4-69.7-19.3-77.5-14.9c-10.6,6.2-19.5,14.7-22.8,24.8
	c-3.7,10.1-2.8,21.2,2.1,30.6c3.9,6.5,9.5,11.7,16.3,14.9c3.7,1.9,26.3,9.9,27.8,10.6H48.4V0H0c0,0,0,94.3,0,135.8
	s41.2,40,43.5,39.8c0,0,66.5,0,86.6,0s31.1-6,41.2-16.3c10.1-10.4,12-26.7,8.1-38.2C173.1,102.4,157,96.8,157,96.8z M164.2,155.6
	c-8.5,9.2-21.4,12.7-29.2,12.7c-9.5,0-66,0-91.8,0S7.1,150.1,7.1,135.8c0-13.6,0-125.7,0-125.7h34.1c0,0,0,121.7,0,125
	c0,3.5,2.1,5.7,5.7,5.7c3.5,0,85.2,0,85.2,0c2.1-0.2,11.1,0.9,11.3-7.8c0.2-6.4-11-11-21.2-13.6S99,108.1,96,103.1
	c-3.7-7.6-4.2-16.3-1.4-24.2c2.1-8.1,9.9-15.2,17-19.8c14.5-9.4,45.3-5.8,64,8.5l-17.7,18.6c-4.2-4.1-9.7-6.9-15.6-7.8
	c-4.6-1.1-9.2-0.5-13.4,1.4c-3,1.1-5.7,4.2-5.5,7.3c0.2,2.8,1.4,7.4,11.7,10.1c31.8,8.3,35.2,16.8,37.8,27.4
	C175.5,135.1,172.7,146.4,164.2,155.6z M155,96c0,0-26.3-8.1-24.2-9.2C141.8,81.2,155,96,155,96z"/>
</svg>
