<?xml version="1.0" encoding="utf-8"?>
<!-- Generator: Adobe Illustrator 23.0.1, SVG Export Plug-In . SVG Version: 6.00 Build 0)  -->
<svg version="1.1" id="Layer_1" xmlns="http://www.w3.org/2000/svg" xmlns:xlink="http://www.w3.org/1999/xlink" x="0px" y="0px"
	 viewBox="0 0 274 223" style="enable-background:new 0 0 274 223;" xml:space="preserve">
<style type="text/css">
	.st0{fill:#002E5D;}
</style>
<g>
	<path class="st0" d="M172.7,64.2l17.4-17.7c-19.6-15.5-39.4-10.9-43.8-8.4c-6,3.5-11,8.3-12.9,14c-2.1,5.7-1.6,12,1.2,17.3
		c2.2,3.7,5.4,6.6,9.2,8.4c2.1,1.1,14.9,5.6,15.7,6h-48.2V9.5H83.9c0,0,0,53.3,0,76.8s23.3,22.6,24.6,22.5c0,0,37.6,0,49,0
		c11.4,0,17.6-3.4,23.3-9.2c5.7-5.9,6.8-15.1,4.6-21.6C181.8,67.4,172.7,64.2,172.7,64.2z M176.8,97.5c-4.8,5.2-12.1,7.2-16.5,7.2
		c-5.4,0-37.3,0-51.9,0S88,94.4,88,86.3c0-7.7,0-71.1,0-71.1h19.3c0,0,0,68.8,0,70.7c0,2,1.2,3.2,3.2,3.2s48.2,0,48.2,0
		c1.2-0.1,6.3,0.5,6.4-4.4c0.1-3.6-6.2-6.2-12-7.7s-13.2-6.4-14.9-9.2c-2.1-4.3-2.4-9.2-0.8-13.7c1.2-4.6,5.6-8.6,9.6-11.2
		c8.2-5.3,25.6-3.3,36.2,4.8l-10,10.5c-2.4-2.3-5.5-3.9-8.8-4.4c-2.6-0.6-5.2-0.3-7.6,0.8c-1.7,0.6-3.2,2.4-3.1,4.1
		c0.1,1.6,0.8,4.2,6.6,5.7c18,4.7,19.9,9.5,21.4,15.5C183.2,85.9,181.6,92.3,176.8,97.5z M171.6,63.8c0,0-14.9-4.6-13.7-5.2
		C164.1,55.4,171.6,63.8,171.6,63.8z"/>
	<g>
		<path class="st0" d="M63.2,162.3v-28.2h3.7V159h13.9v3.3H63.2z"/>
		<path class="st0" d="M98.8,155.7l3.5,0.5c-0.6,2.1-1.6,3.7-3.1,4.9c-1.5,1.2-3.5,1.7-5.8,1.7c-3,0-5.4-0.9-7.1-2.8
			c-1.7-1.8-2.6-4.4-2.6-7.7c0-3.5,0.9-6.1,2.7-8c1.7-1.9,4.1-2.8,6.8-2.8s5,0.9,6.7,2.8c1.7,1.9,2.6,4.5,2.6,7.9c0,0.2,0,0.6,0,0.9
			H87.2c0.2,2.2,0.8,3.9,1.9,5.1c1.1,1.2,2.6,1.8,4.2,1.8c1.3,0,2.4-0.3,3.2-1C97.5,158.3,98.2,157.2,98.8,155.7z M87.4,150.2h11.4
			c-0.2-1.7-0.6-3-1.3-3.9c-1.1-1.3-2.5-2-4.2-2c-1.6,0-2.9,0.6-4,1.6C88.1,146.9,87.5,148.3,87.4,150.2z"/>
		<path class="st0" d="M120,159.8c-1.3,1.1-2.5,1.9-3.7,2.3c-1.2,0.5-2.4,0.7-3.8,0.7c-2.2,0-3.9-0.6-5.2-1.7
			c-1.2-1.1-1.8-2.5-1.8-4.2c0-1,0.2-1.9,0.7-2.8c0.5-0.8,1-1.5,1.8-2c0.7-0.5,1.6-0.9,2.5-1.1c0.7-0.2,1.7-0.3,3.1-0.6
			c2.8-0.3,4.9-0.7,6.1-1.2c0-0.5,0-0.8,0-0.9c0-1.4-0.3-2.4-0.9-3c-0.9-0.8-2.2-1.2-3.9-1.2c-1.7,0-2.8,0.3-3.6,0.9
			c-0.8,0.6-1.3,1.6-1.7,3l-3.4-0.5c0.3-1.4,0.8-2.6,1.5-3.5c0.7-0.9,1.7-1.6,3.1-2c1.3-0.5,2.9-0.7,4.6-0.7s3.1,0.2,4.2,0.6
			s1.9,0.9,2.4,1.6c0.6,0.6,0.9,1.4,1.1,2.4c0.1,0.6,0.2,1.7,0.2,3.2v4.6c0,3.2,0.1,5.3,0.2,6.1c0.2,0.9,0.5,1.7,0.9,2.4h-3.8
			C120.3,161.6,120.1,160.7,120,159.8z M119.7,152c-1.3,0.6-3.1,0.9-5.7,1.3c-1.4,0.2-2.4,0.5-3,0.7s-1,0.6-1.3,1.1
			c-0.3,0.5-0.5,1-0.5,1.7c0,0.9,0.3,1.7,1,2.3c0.7,0.6,1.7,0.9,3.1,0.9c1.3,0,2.5-0.3,3.5-0.9c1-0.6,1.8-1.4,2.3-2.4
			c0.4-0.8,0.6-2,0.6-3.5C119.7,153.4,119.7,152,119.7,152z"/>
		<path class="st0" d="M128.5,162.3v-20.4h3.1v3.1c0.8-1.4,1.5-2.4,2.2-2.8s1.4-0.7,2.2-0.7c1.2,0,2.4,0.4,3.5,1.1l-1.2,3.2
			c-0.9-0.5-1.7-0.8-2.5-0.8c-0.8,0-1.4,0.2-2,0.7c-0.6,0.5-1,1.1-1.3,1.9c-0.4,1.3-0.6,2.6-0.6,4v10.7H128.5z"/>
		<path class="st0" d="M141.6,162.3v-20.4h3.1v2.9c1.5-2.2,3.7-3.4,6.5-3.4c1.3,0,2.4,0.2,3.4,0.6c1,0.5,1.8,1,2.3,1.7
			c0.6,0.7,0.9,1.6,1.1,2.5c0.2,0.6,0.2,1.7,0.2,3.4v12.5h-3.5v-12.4c0-1.4-0.2-2.4-0.4-3.1c-0.2-0.7-0.7-1.3-1.4-1.7
			c-0.7-0.4-1.5-0.6-2.4-0.6c-1.5,0-2.8,0.5-3.8,1.4c-1.1,0.9-1.6,2.7-1.6,5.4v11.2L141.6,162.3L141.6,162.3z"/>
		<path class="st0" d="M163.5,138.1v-4h3.5v4H163.5z M163.5,162.3v-20.4h3.5v20.4H163.5z"/>
		<path class="st0" d="M172.3,162.3v-20.4h3.1v2.9c1.5-2.2,3.7-3.4,6.5-3.4c1.3,0,2.4,0.2,3.4,0.6c1,0.5,1.8,1,2.3,1.7
			c0.6,0.7,0.9,1.6,1.1,2.5c0.2,0.6,0.2,1.7,0.2,3.4v12.5h-3.5v-12.4c0-1.4-0.2-2.4-0.4-3.1c-0.2-0.7-0.7-1.3-1.4-1.7
			s-1.5-0.6-2.4-0.6c-1.5,0-2.8,0.5-3.8,1.4c-1.1,0.9-1.6,2.7-1.6,5.4v11.2L172.3,162.3L172.3,162.3z"/>
		<path class="st0" d="M193.5,164l3.4,0.5c0.2,1,0.6,1.8,1.2,2.3c0.9,0.6,2,0.9,3.5,0.9c1.6,0,2.8-0.3,3.7-0.9
			c0.9-0.6,1.5-1.6,1.7-2.7c0.2-0.7,0.2-2.2,0.2-4.4c-1.5,1.8-3.4,2.7-5.7,2.7c-2.8,0-5-1-6.5-3.1c-1.6-2-2.3-4.5-2.3-7.3
			c0-2,0.3-3.8,1-5.4c0.7-1.7,1.7-2.9,3.1-3.8s2.9-1.3,4.7-1.3c2.4,0,4.4,0.9,6,2.9V142h3.2v17.6c0,3.1-0.3,5.4-0.9,6.8
			c-0.6,1.3-1.7,2.4-3.1,3.1c-1.4,0.8-3.1,1.2-5.2,1.2c-2.4,0-4.4-0.6-5.9-1.7C194.2,167.9,193.5,166.2,193.5,164z M196.4,151.7
			c0,2.7,0.6,4.6,1.6,5.8c1.1,1.3,2.4,1.8,4,1.8c1.6,0,2.9-0.6,4-1.8s1.7-3.1,1.7-5.7c0-2.5-0.6-4.4-1.7-5.7c-1.1-1.3-2.4-1.9-4-1.9
			c-1.6,0-2.8,0.6-3.9,1.9C197,147.4,196.4,149.3,196.4,151.7z"/>
		<path class="st0" d="M93.8,200.4l3.5-0.3c0.2,1.4,0.6,2.6,1.2,3.5c0.6,0.9,1.6,1.7,2.8,2.2c1.3,0.6,2.8,0.9,4.3,0.9
			c1.4,0,2.7-0.2,3.8-0.6s1.9-1,2.4-1.7c0.6-0.7,0.8-1.6,0.8-2.4c0-0.9-0.2-1.7-0.8-2.3s-1.3-1.2-2.5-1.7c-0.8-0.3-2.4-0.8-5-1.3
			c-2.6-0.6-4.4-1.2-5.4-1.7c-1.3-0.7-2.4-1.6-3-2.6c-0.6-1-1-2.2-1-3.5c0-1.4,0.4-2.8,1.2-4c0.8-1.3,2-2.2,3.5-2.8
			c1.6-0.6,3.3-0.9,5.2-0.9c2.1,0,3.9,0.3,5.5,1c1.6,0.7,2.8,1.7,3.7,3s1.3,2.8,1.4,4.4l-3.5,0.2c-0.2-1.8-0.9-3.1-2-4
			c-1.1-0.9-2.8-1.3-4.9-1.3c-2.3,0-3.9,0.4-5,1.3c-1,0.9-1.6,1.8-1.6,3c0,1,0.4,1.8,1.1,2.5c0.7,0.6,2.6,1.3,5.6,2
			c3,0.7,5.1,1.3,6.2,1.8c1.7,0.8,2.8,1.7,3.6,2.9c0.8,1.2,1.2,2.5,1.2,4s-0.4,2.9-1.3,4.2s-2.1,2.4-3.7,3.1
			c-1.6,0.7-3.4,1.1-5.4,1.1c-2.5,0-4.7-0.4-6.4-1.1c-1.7-0.7-3.1-1.9-4.1-3.4C94.3,204.1,93.9,202.3,93.8,200.4z"/>
		<path class="st0" d="M134.2,209.5v-3c-1.6,2.3-3.8,3.5-6.5,3.5c-1.2,0-2.4-0.2-3.4-0.7c-1-0.5-1.8-1-2.4-1.7
			c-0.5-0.7-0.9-1.6-1.1-2.6c-0.2-0.7-0.2-1.7-0.2-3.2V189h3.5v11.3c0,1.8,0.1,3,0.2,3.6c0.2,0.9,0.7,1.7,1.4,2.1
			c0.7,0.6,1.6,0.8,2.6,0.8c1,0,2-0.2,2.9-0.8c0.9-0.6,1.6-1.3,2-2.2c0.4-0.9,0.6-2.3,0.6-4V189h3.5v20.4h-3.1V209.5z"/>
		<path class="st0" d="M142.7,185.3v-4h3.5v4H142.7z M142.7,209.5v-20.4h3.5v20.4H142.7z"/>
		<path class="st0" d="M159,206.4l0.5,3.1c-0.9,0.2-1.8,0.3-2.6,0.3c-1.3,0-2.2-0.2-2.9-0.6s-1.2-0.9-1.5-1.6
			c-0.3-0.6-0.4-2-0.4-4.1v-11.7h-2.5v-2.7h2.5v-5l3.5-2v7.2h3.5v2.7h-3.5v12c0,1,0.1,1.7,0.2,1.9c0.2,0.3,0.3,0.5,0.6,0.7
			c0.2,0.2,0.7,0.2,1.2,0.2C157.9,206.6,158.4,206.5,159,206.4z"/>
		<path class="st0" d="M176.4,203l3.5,0.5c-0.6,2.1-1.6,3.7-3.1,4.9c-1.5,1.2-3.5,1.7-5.8,1.7c-3,0-5.4-0.9-7.1-2.8
			s-2.6-4.4-2.6-7.7c0-3.5,0.9-6.1,2.7-8c1.7-1.9,4.1-2.8,6.8-2.8s5,0.9,6.7,2.8c1.7,1.9,2.6,4.5,2.6,7.9c0,0.2,0,0.6,0,0.9h-15.2
			c0.2,2.2,0.8,3.9,1.9,5.1c1.1,1.2,2.6,1.8,4.2,1.8c1.3,0,2.4-0.3,3.2-1C175.2,205.5,175.9,204.4,176.4,203z M165,197.4h11.4
			c-0.2-1.7-0.6-3-1.3-3.9c-1.1-1.3-2.5-2-4.2-2c-1.6,0-2.9,0.6-4,1.6S165.2,195.6,165,197.4z"/>
	</g>
</g>
</svg>
