<?xml version="1.0" encoding="utf-8"?>
<!-- Generator: Adobe Illustrator 23.0.1, SVG Export Plug-In . SVG Version: 6.00 Build 0)  -->
<svg version="1.1" id="Layer_1" xmlns="http://www.w3.org/2000/svg" xmlns:xlink="http://www.w3.org/1999/xlink" x="0px" y="0px"
	 viewBox="0 0 187.6 221" style="enable-background:new 0 0 187.6 221;" xml:space="preserve">
<style type="text/css">
	.st0{fill:#002E5D;}
</style>
<g>
	<path class="st0" d="M129.5,54.7L146.9,37c-19.6-15.5-39.4-10.9-43.8-8.4c-6,3.5-11,8.3-12.9,14c-2.1,5.7-1.6,12,1.2,17.3
		c2.2,3.7,5.4,6.6,9.2,8.4c2.1,1.1,14.9,5.6,15.7,6H68.1V0H40.7c0,0,0,53.3,0,76.8S64,99.4,65.3,99.3c0,0,37.6,0,49,0
		s17.6-3.4,23.3-9.2c5.7-5.9,6.8-15.1,4.6-21.6C138.6,57.9,129.5,54.7,129.5,54.7z M133.6,88c-4.8,5.2-12.1,7.2-16.5,7.2
		c-5.4,0-37.3,0-51.9,0S44.8,84.9,44.8,76.8c0-7.7,0-71.1,0-71.1h19.3c0,0,0,68.8,0,70.7c0,2,1.2,3.2,3.2,3.2s48.2,0,48.2,0
		c1.2-0.1,6.3,0.5,6.4-4.4c0.1-3.6-6.2-6.2-12-7.7c-5.8-1.5-13.2-6.4-14.9-9.2c-2.1-4.3-2.4-9.2-0.8-13.7c1.2-4.6,5.6-8.6,9.6-11.2
		c8.2-5.3,25.6-3.3,36.2,4.8l-10,10.5c-2.4-2.3-5.5-3.9-8.8-4.4c-2.6-0.6-5.2-0.3-7.6,0.8c-1.7,0.6-3.2,2.4-3.1,4.1
		c0.1,1.6,0.8,4.2,6.6,5.7c18,4.7,19.9,9.5,21.4,15.5C140,76.4,138.4,82.8,133.6,88z M128.4,54.3c0,0-14.9-4.6-13.7-5.2
		C120.9,45.9,128.4,54.3,128.4,54.3z"/>
	<g>
		<path class="st0" d="M0,160.4v-35.8h4.7v31.6h17.6v4.2H0z"/>
		<path class="st0" d="M45.2,152.1l4.5,0.6c-0.7,2.7-2,4.7-4,6.2c-1.9,1.5-4.4,2.2-7.4,2.2c-3.8,0-6.8-1.2-9-3.5
			c-2.2-2.3-3.3-5.6-3.3-9.8c0-4.4,1.1-7.7,3.4-10.2c2.2-2.4,5.2-3.6,8.7-3.6c3.5,0,6.3,1.2,8.5,3.5c2.2,2.4,3.3,5.7,3.3,10
			c0,0.3,0,0.7,0,1.2H30.5c0.2,2.8,1,5,2.4,6.5c1.4,1.5,3.3,2.3,5.4,2.3c1.6,0,3-0.4,4.1-1.3C43.6,155.3,44.5,153.9,45.2,152.1z
			 M30.8,145h14.5c-0.2-2.2-0.7-3.8-1.7-4.9c-1.4-1.7-3.2-2.5-5.4-2.5c-2,0-3.7,0.7-5.1,2C31.7,140.9,30.9,142.7,30.8,145z"/>
		<path class="st0" d="M72.2,157.2c-1.6,1.4-3.2,2.4-4.7,2.9c-1.5,0.6-3.1,0.9-4.8,0.9c-2.8,0-5-0.7-6.6-2.1
			c-1.5-1.4-2.3-3.2-2.3-5.3c0-1.3,0.3-2.4,0.9-3.5c0.6-1,1.3-1.9,2.3-2.5c0.9-0.6,2-1.1,3.2-1.4c0.9-0.2,2.2-0.4,3.9-0.7
			c3.5-0.4,6.2-0.9,7.8-1.5c0-0.6,0-1,0-1.1c0-1.8-0.4-3.1-1.2-3.8c-1.1-1-2.8-1.5-5-1.5c-2.1,0-3.6,0.4-4.6,1.1
			c-1,0.7-1.7,2-2.2,3.8l-4.3-0.6c0.4-1.8,1-3.3,1.9-4.5c0.9-1.1,2.2-2,3.9-2.6c1.7-0.6,3.7-0.9,5.9-0.9c2.2,0,4,0.3,5.4,0.8
			c1.4,0.5,2.4,1.2,3.1,2c0.7,0.8,1.1,1.8,1.4,3c0.1,0.7,0.2,2.1,0.2,4.1v5.9c0,4.1,0.1,6.7,0.3,7.8c0.2,1.1,0.6,2.1,1.1,3.1H73
			C72.6,159.5,72.3,158.4,72.2,157.2z M71.8,147.4c-1.6,0.7-4,1.2-7.2,1.7c-1.8,0.3-3.1,0.6-3.8,0.9c-0.7,0.3-1.3,0.8-1.7,1.4
			c-0.4,0.6-0.6,1.3-0.6,2.1c0,1.2,0.4,2.1,1.3,2.9c0.9,0.8,2.2,1.2,3.9,1.2c1.7,0,3.2-0.4,4.5-1.1c1.3-0.7,2.3-1.8,2.9-3
			c0.5-1,0.7-2.5,0.7-4.4V147.4z"/>
		<path class="st0" d="M83,160.4v-25.9h4v3.9c1-1.8,1.9-3.1,2.8-3.6s1.8-0.9,2.8-0.9c1.5,0,3,0.5,4.5,1.4l-1.5,4.1
			c-1.1-0.6-2.1-1-3.2-1c-1,0-1.8,0.3-2.6,0.9c-0.8,0.6-1.3,1.4-1.6,2.4c-0.5,1.6-0.7,3.3-0.7,5.1v13.6H83z"/>
		<path class="st0" d="M99.7,160.4v-25.9h4v3.7c1.9-2.8,4.7-4.3,8.3-4.3c1.6,0,3,0.3,4.3,0.8c1.3,0.6,2.3,1.3,2.9,2.2
			c0.7,0.9,1.1,2,1.4,3.2c0.2,0.8,0.2,2.2,0.2,4.3v15.9h-4.4v-15.8c0-1.8-0.2-3.1-0.5-4c-0.3-0.9-0.9-1.6-1.8-2.1
			c-0.9-0.5-1.9-0.8-3.1-0.8c-1.9,0-3.5,0.6-4.8,1.8c-1.4,1.2-2,3.4-2,6.8v14.2H99.7z"/>
		<path class="st0" d="M127.5,129.7v-5.1h4.4v5.1H127.5z M127.5,160.4v-25.9h4.4v25.9H127.5z"/>
		<path class="st0" d="M138.6,160.4v-25.9h4v3.7c1.9-2.8,4.7-4.3,8.3-4.3c1.6,0,3,0.3,4.3,0.8c1.3,0.6,2.3,1.3,2.9,2.2
			c0.7,0.9,1.1,2,1.4,3.2c0.2,0.8,0.2,2.2,0.2,4.3v15.9h-4.4v-15.8c0-1.8-0.2-3.1-0.5-4c-0.3-0.9-0.9-1.6-1.8-2.1
			c-0.9-0.5-1.9-0.8-3.1-0.8c-1.9,0-3.5,0.6-4.8,1.8c-1.4,1.2-2,3.4-2,6.8v14.2H138.6z"/>
		<path class="st0" d="M165.6,162.6l4.3,0.6c0.2,1.3,0.7,2.3,1.5,2.9c1.1,0.8,2.6,1.2,4.5,1.2c2,0,3.6-0.4,4.7-1.2
			c1.1-0.8,1.9-2,2.2-3.4c0.2-0.9,0.3-2.8,0.3-5.6c-1.9,2.3-4.3,3.4-7.2,3.4c-3.6,0-6.3-1.3-8.3-3.9c-2-2.6-2.9-5.7-2.9-9.3
			c0-2.5,0.4-4.8,1.3-6.8c0.9-2.1,2.2-3.7,3.9-4.8c1.7-1.1,3.7-1.7,6-1.7c3.1,0,5.6,1.2,7.6,3.7v-3.1h4.1v22.4c0,4-0.4,6.9-1.2,8.6
			c-0.8,1.7-2.1,3-3.9,4s-4,1.5-6.6,1.5c-3.1,0-5.6-0.7-7.5-2.1C166.5,167.5,165.6,165.4,165.6,162.6z M169.3,147
			c0,3.4,0.7,5.9,2,7.4c1.4,1.6,3,2.3,5.1,2.3c2,0,3.7-0.8,5.1-2.3s2.1-4,2.1-7.3c0-3.2-0.7-5.6-2.1-7.2c-1.4-1.6-3.1-2.4-5.1-2.4
			c-2,0-3.6,0.8-5,2.4S169.3,143.9,169.3,147z"/>
		<path class="st0" d="M38.9,208.9l4.5-0.4c0.2,1.8,0.7,3.3,1.5,4.4c0.8,1.1,2,2.1,3.6,2.8c1.6,0.7,3.5,1.1,5.5,1.1
			c1.8,0,3.4-0.3,4.8-0.8c1.4-0.5,2.4-1.3,3.1-2.2c0.7-0.9,1-2,1-3.1c0-1.1-0.3-2.1-1-2.9c-0.7-0.8-1.7-1.5-3.2-2.1
			c-1-0.4-3.1-1-6.4-1.7c-3.3-0.8-5.6-1.5-6.9-2.2c-1.7-0.9-3-2-3.8-3.3c-0.8-1.3-1.3-2.8-1.3-4.5c0-1.8,0.5-3.5,1.5-5.1
			c1-1.6,2.5-2.8,4.5-3.6c2-0.8,4.2-1.2,6.6-1.2c2.7,0,5,0.4,7,1.3c2,0.9,3.6,2.1,4.7,3.8c1.1,1.7,1.7,3.5,1.8,5.6l-4.5,0.3
			c-0.2-2.3-1.1-4-2.5-5.1c-1.4-1.2-3.5-1.7-6.2-1.7c-2.9,0-5,0.5-6.3,1.6c-1.3,1.1-2,2.3-2,3.8c0,1.3,0.5,2.3,1.4,3.2
			c0.9,0.8,3.3,1.7,7.1,2.6c3.8,0.9,6.5,1.6,7.9,2.3c2.1,1,3.6,2.2,4.6,3.7c1,1.5,1.5,3.2,1.5,5.1c0,1.9-0.5,3.7-1.6,5.4
			c-1.1,1.7-2.7,3-4.7,3.9c-2,0.9-4.3,1.4-6.9,1.4c-3.2,0-6-0.5-8.1-1.4c-2.2-0.9-3.9-2.4-5.2-4.3C39.6,213.5,39,211.3,38.9,208.9z"
			/>
		<path class="st0" d="M90.3,220.4v-3.8c-2,2.9-4.8,4.4-8.2,4.4c-1.5,0-3-0.3-4.3-0.9c-1.3-0.6-2.3-1.3-3-2.2
			c-0.6-0.9-1.1-2-1.4-3.3c-0.2-0.9-0.3-2.2-0.3-4.1v-16.1h4.4v14.4c0,2.3,0.1,3.8,0.3,4.6c0.3,1.2,0.9,2.1,1.8,2.7
			c0.9,0.7,2,1,3.3,1s2.6-0.3,3.7-1c1.2-0.7,2-1.6,2.5-2.8c0.5-1.2,0.7-2.9,0.7-5.1v-13.9h4.4v25.9H90.3z"/>
		<path class="st0" d="M101.1,189.7v-5.1h4.4v5.1H101.1z M101.1,220.4v-25.9h4.4v25.9H101.1z"/>
		<path class="st0" d="M121.8,216.5l0.6,3.9c-1.2,0.3-2.3,0.4-3.3,0.4c-1.6,0-2.8-0.3-3.7-0.8s-1.5-1.2-1.9-2
			c-0.4-0.8-0.5-2.6-0.5-5.2v-14.9h-3.2v-3.4h3.2v-6.4l4.4-2.6v9.1h4.4v3.4h-4.4v15.2c0,1.3,0.1,2.1,0.2,2.4
			c0.2,0.4,0.4,0.6,0.8,0.9c0.3,0.2,0.9,0.3,1.5,0.3C120.4,216.7,121,216.6,121.8,216.5z"/>
		<path class="st0" d="M143.9,212.1l4.5,0.6c-0.7,2.7-2,4.7-4,6.2c-1.9,1.5-4.4,2.2-7.4,2.2c-3.8,0-6.8-1.2-9-3.5
			c-2.2-2.3-3.3-5.6-3.3-9.8c0-4.4,1.1-7.7,3.4-10.2c2.2-2.4,5.2-3.6,8.7-3.6c3.5,0,6.3,1.2,8.5,3.5c2.2,2.4,3.3,5.7,3.3,10
			c0,0.3,0,0.7,0,1.2h-19.3c0.2,2.8,1,5,2.4,6.5c1.4,1.5,3.3,2.3,5.4,2.3c1.6,0,3-0.4,4.1-1.3C142.3,215.3,143.2,213.9,143.9,212.1z
			 M129.4,205h14.5c-0.2-2.2-0.7-3.8-1.7-4.9c-1.4-1.7-3.2-2.5-5.4-2.5c-2,0-3.7,0.7-5.1,2C130.3,200.9,129.6,202.7,129.4,205z"/>
	</g>
</g>
</svg>
