<?xml version="1.0" encoding="utf-8"?>
<!-- Generator: Adobe Illustrator 23.0.0, SVG Export Plug-In . SVG Version: 6.00 Build 0)  -->
<svg version="1.1" id="Layer_1" xmlns="http://www.w3.org/2000/svg" xmlns:xlink="http://www.w3.org/1999/xlink" x="0px" y="0px"
	 viewBox="0 0 35.5 26.7" style="enable-background:new 0 0 35.5 26.7;" xml:space="preserve">
<style type="text/css">
	.st0{fill:#002E5D;}
</style>
<g>
	<path class="st0" d="M34.2,9C34.2,9,34.1,9,34.2,9l-0.8,0c-1.3,0-2.9-1.7-3.6-3.5c0.2-1.4,0.6-2.7,1.2-3.9c0.5-1,0.1-1.2-0.2-1.4
		c-0.9-0.5-3.2,0.2-4.9,1.5c-2.3-1.1-4.9-1.7-7.5-1.6C11,0.1,5.2,4.2,3.8,9.6c-0.3,1.1-0.4,2.3-0.4,3.4c0,0.7,0.1,1.1,0.1,1.3
		c-0.2,0-0.4-0.2-0.5-0.3c-0.1-0.1-0.2-0.3-0.2-0.5c0,0,0.1,0,0.1-0.1c0,0,0,0,0.1-0.1c0.2-0.3,0.2-0.7-0.1-0.9
		c-0.1,0-0.1-0.1-0.2-0.1c-0.3-0.1-0.7,0.1-0.8,0.4c0,0,0,0.1,0,0.1c-0.2,0-0.4,0-0.6,0c-0.3-0.1-0.6-0.4-0.5-0.7
		c0.1-0.5-0.7-0.7-0.8-0.2c0,0.1,0,0.2,0,0.3c0,0.9,0.7,1.6,1.6,1.5c0.1,0,0.2,0,0.3,0c0,0.1,0.1,0.2,0.2,0.4c0,0,0,0.1,0,0.1
		c0.3,0.7,1,1.1,1.7,1c0.1,0.2,0.2,0.6,0.4,1c0.7,1.7,1.7,3.1,3.1,4.3L9,25.7c0.2,0.6,0.8,1,1.4,1h1.9c0.7,0,1.3-0.4,1.4-1.1
		l0.4-1.6c1.4,0.3,2.8,0.5,4.2,0.5c1.5,0,3-0.2,4.5-0.5l0.4,1.6c0.2,0.6,0.7,1.1,1.4,1.1h1.9c0.6,0,1.2-0.4,1.4-1l1.5-4.4
		c1.6-1,3-2.1,4.4-3.4c1.7-1.4,1.7-1.5,1.7-3.8v-3.5C35.6,9.7,35,9,34.2,9z M34.5,10.5V14c0,1.9,0,1.9-1.3,3c-1.4,1.3-3,2.5-4.6,3.5
		L27,25.2c-0.1,0.2-0.3,0.4-0.5,0.4h-1.6c-0.2,0-0.5-0.2-0.5-0.4l-0.6-2.5c-1.7,0.5-3.5,0.7-5.3,0.7c-1.7,0-3.4-0.3-5-0.8l-0.6,2.6
		c-0.1,0.2-0.3,0.4-0.5,0.4h-1.6c-0.2,0-0.4-0.2-0.5-0.4l-1.8-5.4c-2.4-1.7-3.8-4.4-3.9-7.3c0-6.3,6.1-11.2,13.8-11.2
		c2.4-0.1,4.8,0.4,7,1.5L26,3.1l0.6-0.4c1-0.7,2.1-1.2,3.3-1.5H30v0.1c-0.6,1.3-1.1,2.7-1.3,4.1c0,0.2,0,0.3,0.1,0.5
		C29.7,8,31.5,10,33.4,10H34C34.3,9.9,34.5,10.1,34.5,10.5C34.5,10.4,34.5,10.4,34.5,10.5z"/>
	<path class="st0" d="M14.3,4L14.3,4c2.6-0.6,5.1-0.6,7.6,0c0.3,0.1,0.6-0.1,0.7-0.4c0.1-0.3-0.1-0.6-0.4-0.7c-2.6-0.7-5.4-0.7-8,0
		c-0.3,0-0.5,0.3-0.4,0.7C13.8,3.8,14.1,4,14.3,4z"/>
	<path class="st0" d="M27.6,7.9c-0.6,0-1.1,0.5-1.1,1.1c0,0.6,0.5,1.1,1.1,1.1c0.6,0,1.1-0.5,1.1-1.1C28.7,8.4,28.2,7.9,27.6,7.9z"
		/>
	<path class="st0" d="M18.6,9.3H19l-0.8,1.6l-0.8-1.6h0.4V6.6h-4.9v2.7h1l2.5,4.7v2.6h-0.8v0.7v2h5.2v-2.7h-0.9V14l0.6-1.1
		c0.3-0.6,0.7-1.3,1-1.9s0.6-1.2,0.9-1.7h1V6.6h-4.8V9.3z M19.3,7.4h3.2v1.1h-0.7l-0.1,0.2c-0.3,0.6-0.7,1.3-1,1.9
		c-0.3,0.6-0.7,1.3-1,1.9l-0.6,1.3v3.6h0.8h0.2v1.1h-3.6v-1.1h0.8v-3.7l-2.8-5.2h-0.7V7.4h3.1v1.1H16l2.1,4.2l2.1-4.2h-0.9V7.4z"/>
</g>
</svg>
