<?xml version="1.0" encoding="utf-8"?>
<!-- Generator: Adobe Illustrator 23.0.1, SVG Export Plug-In . SVG Version: 6.00 Build 0)  -->
<svg version="1.1" id="Layer_1" xmlns="http://www.w3.org/2000/svg" xmlns:xlink="http://www.w3.org/1999/xlink" x="0px" y="0px"
	 viewBox="0 0 273.4 221" style="enable-background:new 0 0 273.4 221;" xml:space="preserve">
<style type="text/css">
	.st0{fill:#002E5D;}
</style>
<g>
	<g id="Group_46" transform="translate(-54.172 -232.738)">
		<g id="Group_44">
			<path id="Path_50" class="st0" d="M135.5,279.2c0-23.5,22.8-41.8,51.5-41.8c9-0.3,18,1.6,26.1,5.6l2.2,1.1l2.2-1.5
				c3.7-2.7,7.9-4.6,12.3-5.6h0.4v0.4c-2.3,4.8-4,10-4.9,15.3c-0.1,0.6,0.1,1.3,0.4,1.9c3.4,7.8,10.1,15.3,17.2,15.3h2.2
				c1-0.1,1.8,0.7,1.9,1.7c0,0.1,0,0.1,0,0.2v13.1c0,7.1,0,7.1-4.9,11.2c-5.4,4.8-11.1,9.2-17.2,13.1l-6,17.5
				c-0.3,0.8-1,1.3-1.9,1.5h-6c-0.7,0-1.9-0.7-1.9-1.5l-2.2-9.3c-6.5,1.7-13.1,2.6-19.8,2.6c-6.3,0-12.6-1-18.7-3l-2.2,9.7
				c-0.3,0.8-1,1.3-1.9,1.5h-6c-0.9,0-1.7-0.6-1.9-1.5l-6.7-20.2C141.1,300.2,135.7,290.1,135.5,279.2z M131,281.1
				c0.4,6.7,0.4,4.9,3,11.9c2.5,6.2,6.4,11.7,11.6,16l6.3,19.4c0.8,2.2,2.9,3.7,5.2,3.7h7.1c2.5,0,4.7-1.7,5.2-4.1l1.5-6
				c5.1,1.2,10.4,1.8,15.7,1.9c5.7,0,11.3-0.6,16.8-1.9l1.5,6c0.6,2.4,2.8,4.1,5.2,4.1h7.1c2.4,0,4.4-1.5,5.2-3.7L228,312
				c5.8-3.7,11.3-8,16.4-12.7c6.3-5.2,6.3-5.6,6.3-14.2V272c0.2-3-2-5.7-5.1-6c-0.1,0-0.1,0-0.2,0h-3c-4.9,0-10.8-6.3-13.4-13.1
				c0.8-5,2.3-10,4.5-14.6c1.9-3.7,0.4-4.5-0.7-5.2c-3.4-1.9-11.9,0.7-18.3,5.6c-8.7-4.2-18.3-6.3-28-6c-27.2,0-48.9,15.3-54.1,35.5
				C131.4,272.6,130.9,276.8,131,281.1z M171.3,243.4c9.8-2.4,20.1-2.4,29.9,0c1.1,0.3,1.8,1.5,1.5,2.6s-1.5,1.8-2.6,1.5
				c-9.2-2.2-18.8-2.2-28,0h-0.4c-0.7,0-1.9-0.7-1.9-1.5C169.4,244.5,170.2,243.4,171.3,243.4L171.3,243.4z M217.2,266.2
				c0,2.3,1.8,4.1,4.1,4.1s4.1-1.8,4.1-4.1c0-2.3-1.8-4.1-4.1-4.1S217.2,263.9,217.2,266.2z"/>
		</g>
		<g id="Group_45">
			<path id="Path_51" class="st0" d="M176.5,297.2v-2.6h3v-9.7l-9.3-17.5h-3.7v-10.1h18.3v10.1h-1.5l3,6l3-6h-1.5v-10.1h17.9v10.1
				H202c-1.1,1.9-2.2,4.1-3.4,6.3s-2.6,4.9-3.7,7.1l-2.2,4.1v9.7h3.4v10.1h-19.4v-7.5H176.5z M192.6,297.5h-3v-13.4l2.2-4.9l0,0
				c1.1-2.2,2.6-4.9,3.7-7.1s2.6-4.9,3.7-7.1l0.4-0.7h2.6v-4.1h-11.9v4.1h3.4l-7.8,15.7l-7.8-15.7h3.4v-4.1h-11.6v4.1h2.6l10.4,19.4
				v13.8h-3v4.1h13.4v-4.1L192.6,297.5L192.6,297.5z"/>
		</g>
	</g>
	<g>
		<path class="st0" d="M0,160.4v-35.8h7.1l8.5,25.3c0.8,2.4,1.4,4.1,1.7,5.3c0.4-1.3,1-3.2,1.9-5.7l8.6-24.9h6.4v35.8h-4.6v-30
			l-10.4,30h-4.3L4.6,129.9v30.5H0z"/>
		<path class="st0" d="M41,170.4l-0.5-4.1c1,0.3,1.8,0.4,2.5,0.4c1,0,1.8-0.2,2.3-0.5c0.6-0.3,1.1-0.8,1.4-1.4
			c0.3-0.4,0.7-1.5,1.3-3.3c0.1-0.2,0.2-0.6,0.4-1.1l-9.8-26h4.7l5.4,15c0.7,1.9,1.3,3.9,1.9,6c0.5-2,1.1-4,1.8-5.9l5.5-15.1h4.4
			l-9.9,26.4c-1.1,2.8-1.9,4.8-2.5,5.9c-0.8,1.4-1.7,2.5-2.7,3.2s-2.2,1-3.6,1C43,170.9,42.1,170.8,41,170.4z"/>
		<path class="st0" d="M80.9,160.4v-35.8H105v4.2H85.7v11.1h16.8v4.2H85.7v16.3H80.9z"/>
		<path class="st0" d="M110.7,129.7v-5.1h4.4v5.1H110.7z M110.7,160.4v-25.9h4.4v25.9H110.7z"/>
		<path class="st0" d="M121.8,160.4v-25.9h4v3.7c1.9-2.8,4.7-4.3,8.3-4.3c1.6,0,3,0.3,4.3,0.8c1.3,0.6,2.3,1.3,2.9,2.2
			c0.7,0.9,1.1,2,1.4,3.2c0.2,0.8,0.2,2.2,0.2,4.3v15.9h-4.4v-15.8c0-1.8-0.2-3.1-0.5-4s-0.9-1.6-1.8-2.1c-0.9-0.5-1.9-0.8-3.1-0.8
			c-1.9,0-3.5,0.6-4.8,1.8c-1.4,1.2-2,3.4-2,6.8v14.2L121.8,160.4L121.8,160.4z"/>
		<path class="st0" d="M166.5,157.2c-1.6,1.4-3.2,2.4-4.7,2.9c-1.5,0.6-3.1,0.9-4.8,0.9c-2.8,0-5-0.7-6.6-2.1
			c-1.5-1.4-2.3-3.2-2.3-5.3c0-1.3,0.3-2.4,0.9-3.5c0.6-1,1.3-1.9,2.3-2.5c0.9-0.6,2-1.1,3.2-1.4c0.9-0.2,2.2-0.4,3.9-0.7
			c3.5-0.4,6.2-0.9,7.8-1.5c0-0.6,0-1,0-1.1c0-1.8-0.4-3.1-1.2-3.8c-1.1-1-2.8-1.5-5-1.5c-2.1,0-3.6,0.4-4.6,1.1
			c-1,0.7-1.7,2-2.2,3.8l-4.3-0.6c0.4-1.8,1-3.3,1.9-4.5c0.9-1.1,2.2-2,3.9-2.6s3.7-0.9,5.9-0.9s4,0.3,5.4,0.8s2.4,1.2,3.1,2
			c0.7,0.8,1.1,1.8,1.4,3c0.1,0.7,0.2,2.1,0.2,4.1v5.9c0,4.1,0.1,6.7,0.3,7.8s0.6,2.1,1.1,3.1h-4.6
			C166.9,159.5,166.6,158.4,166.5,157.2z M166.1,147.4c-1.6,0.7-4,1.2-7.2,1.7c-1.8,0.3-3.1,0.6-3.8,0.9c-0.7,0.3-1.3,0.8-1.7,1.4
			c-0.4,0.6-0.6,1.3-0.6,2.1c0,1.2,0.4,2.1,1.3,2.9c0.9,0.8,2.2,1.2,3.9,1.2s3.2-0.4,4.5-1.1c1.3-0.7,2.3-1.8,2.9-3
			c0.5-1,0.7-2.5,0.7-4.4L166.1,147.4L166.1,147.4z"/>
		<path class="st0" d="M177.4,160.4v-25.9h4v3.7c1.9-2.8,4.7-4.3,8.3-4.3c1.6,0,3,0.3,4.3,0.8c1.3,0.6,2.3,1.3,2.9,2.2
			c0.7,0.9,1.1,2,1.4,3.2c0.2,0.8,0.2,2.2,0.2,4.3v15.9h-4.4v-15.8c0-1.8-0.2-3.1-0.5-4s-0.9-1.6-1.8-2.1c-0.9-0.5-1.9-0.8-3.1-0.8
			c-1.9,0-3.5,0.6-4.8,1.8c-1.4,1.2-2,3.4-2,6.8v14.2L177.4,160.4L177.4,160.4z"/>
		<path class="st0" d="M222.1,150.9l4.3,0.6c-0.5,3-1.7,5.3-3.6,7c-1.9,1.7-4.3,2.5-7.2,2.5c-3.5,0-6.4-1.2-8.6-3.5
			c-2.2-2.3-3.2-5.6-3.2-10c0-2.8,0.5-5.2,1.4-7.3s2.3-3.7,4.2-4.7s4-1.6,6.2-1.6c2.8,0,5.1,0.7,6.9,2.1c1.8,1.4,2.9,3.4,3.4,6.1
			l-4.3,0.7c-0.4-1.7-1.1-3.1-2.2-3.9c-1-0.9-2.3-1.3-3.7-1.3c-2.2,0-4,0.8-5.4,2.4s-2.1,4.1-2.1,7.5c0,3.5,0.7,6,2,7.6
			s3.1,2.4,5.2,2.4c1.7,0,3.2-0.5,4.3-1.6C221.1,154.7,221.8,153.1,222.1,150.9z"/>
		<path class="st0" d="M230.2,129.7v-5.1h4.4v5.1H230.2z M230.2,160.4v-25.9h4.4v25.9H230.2z"/>
		<path class="st0" d="M258.2,157.2c-1.6,1.4-3.2,2.4-4.7,2.9c-1.5,0.6-3.1,0.9-4.8,0.9c-2.8,0-5-0.7-6.6-2.1
			c-1.5-1.4-2.3-3.2-2.3-5.3c0-1.3,0.3-2.4,0.9-3.5c0.6-1,1.3-1.9,2.3-2.5c0.9-0.6,2-1.1,3.2-1.4c0.9-0.2,2.2-0.4,3.9-0.7
			c3.5-0.4,6.2-0.9,7.8-1.5c0-0.6,0-1,0-1.1c0-1.8-0.4-3.1-1.2-3.8c-1.1-1-2.8-1.5-5-1.5c-2.1,0-3.6,0.4-4.6,1.1
			c-1,0.7-1.7,2-2.2,3.8l-4.3-0.6c0.4-1.8,1-3.3,1.9-4.5c0.9-1.1,2.2-2,3.9-2.6s3.7-0.9,5.9-0.9s4,0.3,5.4,0.8s2.4,1.2,3.1,2
			s1.1,1.8,1.4,3c0.1,0.7,0.2,2.1,0.2,4.1v5.9c0,4.1,0.1,6.7,0.3,7.8c0.2,1.1,0.6,2.1,1.1,3.1h-4.6
			C258.7,159.5,258.4,158.4,258.2,157.2z M257.9,147.4c-1.6,0.7-4,1.2-7.2,1.7c-1.8,0.3-3.1,0.6-3.8,0.9c-0.7,0.3-1.3,0.8-1.7,1.4
			c-0.4,0.6-0.6,1.3-0.6,2.1c0,1.2,0.4,2.1,1.3,2.9c0.9,0.8,2.2,1.2,3.9,1.2s3.2-0.4,4.5-1.1c1.3-0.7,2.3-1.8,2.9-3
			c0.5-1,0.7-2.5,0.7-4.4V147.4z"/>
		<path class="st0" d="M269,160.4v-35.8h4.4v35.8H269z"/>
		<path class="st0" d="M91,207.9l4.7,1.2c-1,3.9-2.8,6.9-5.4,8.9s-5.7,3.1-9.5,3.1c-3.9,0-7-0.8-9.4-2.4c-2.4-1.6-4.3-3.8-5.5-6.8
			c-1.3-3-1.9-6.2-1.9-9.6c0-3.7,0.7-7,2.1-9.8s3.5-4.9,6.1-6.3c2.6-1.4,5.5-2.2,8.7-2.2c3.6,0,6.6,0.9,9,2.7s4.1,4.4,5.1,7.7
			l-4.7,1.1c-0.8-2.6-2-4.5-3.6-5.7s-3.6-1.8-6-1.8c-2.8,0-5,0.7-6.9,2c-1.8,1.3-3.1,3.1-3.9,5.3c-0.7,2.2-1.1,4.5-1.1,6.9
			c0,3,0.4,5.7,1.3,8s2.3,4,4.1,5.1s3.9,1.7,6.1,1.7c2.7,0,4.9-0.8,6.7-2.3C89.1,213.1,90.3,210.9,91,207.9z"/>
		<path class="st0" d="M118.7,212.1l4.5,0.6c-0.7,2.7-2,4.7-4,6.2s-4.4,2.2-7.4,2.2c-3.8,0-6.8-1.2-9-3.5s-3.3-5.6-3.3-9.8
			c0-4.4,1.1-7.7,3.4-10.2c2.2-2.4,5.2-3.6,8.7-3.6s6.3,1.2,8.5,3.5c2.2,2.4,3.3,5.7,3.3,10c0,0.3,0,0.7,0,1.2h-19.3
			c0.2,2.8,1,5,2.4,6.5s3.3,2.3,5.4,2.3c1.6,0,3-0.4,4.1-1.3C117.2,215.3,118.1,213.9,118.7,212.1z M104.3,205h14.5
			c-0.2-2.2-0.7-3.8-1.7-4.9c-1.4-1.7-3.2-2.5-5.4-2.5c-2,0-3.7,0.7-5.1,2C105.2,200.9,104.4,202.7,104.3,205z"/>
		<path class="st0" d="M128.8,220.4v-25.9h4v3.7c1.9-2.8,4.7-4.3,8.3-4.3c1.6,0,3,0.3,4.3,0.8c1.3,0.6,2.3,1.3,2.9,2.2
			c0.7,0.9,1.1,2,1.4,3.2c0.2,0.8,0.2,2.2,0.2,4.3v15.9h-4.4v-15.8c0-1.8-0.2-3.1-0.5-4s-0.9-1.6-1.8-2.1c-0.9-0.5-1.9-0.8-3.1-0.8
			c-1.9,0-3.5,0.6-4.8,1.8c-1.4,1.2-2,3.4-2,6.8v14.2L128.8,220.4L128.8,220.4z"/>
		<path class="st0" d="M166.2,216.5l0.6,3.9c-1.2,0.3-2.3,0.4-3.3,0.4c-1.6,0-2.8-0.3-3.7-0.8s-1.5-1.2-1.9-2s-0.5-2.6-0.5-5.2
			v-14.9h-3.2v-3.4h3.2v-6.4l4.4-2.6v9.1h4.4v3.4h-4.4v15.2c0,1.3,0.1,2.1,0.2,2.4c0.2,0.4,0.4,0.6,0.8,0.9c0.3,0.2,0.8,0.3,1.5,0.3
			C164.7,216.7,165.4,216.6,166.2,216.5z"/>
		<path class="st0" d="M188.2,212.1l4.5,0.6c-0.7,2.7-2,4.7-4,6.2s-4.4,2.2-7.4,2.2c-3.8,0-6.8-1.2-9-3.5s-3.3-5.6-3.3-9.8
			c0-4.4,1.1-7.7,3.4-10.2c2.2-2.4,5.2-3.6,8.7-3.6s6.3,1.2,8.5,3.5c2.2,2.4,3.3,5.7,3.3,10c0,0.3,0,0.7,0,1.2h-19.3
			c0.2,2.8,1,5,2.4,6.5s3.3,2.3,5.4,2.3c1.6,0,3-0.4,4.1-1.3C186.7,215.3,187.6,213.9,188.2,212.1z M173.8,205h14.5
			c-0.2-2.2-0.7-3.8-1.7-4.9c-1.4-1.7-3.2-2.5-5.4-2.5c-2,0-3.7,0.7-5.1,2C174.7,200.9,174,202.7,173.8,205z"/>
		<path class="st0" d="M198.2,220.4v-25.9h4v3.9c1-1.8,1.9-3.1,2.8-3.6s1.8-0.9,2.8-0.9c1.5,0,3,0.5,4.5,1.4l-1.5,4.1
			c-1.1-0.6-2.1-1-3.2-1c-1,0-1.8,0.3-2.6,0.9c-0.8,0.6-1.3,1.4-1.6,2.4c-0.5,1.6-0.7,3.3-0.7,5.1v13.6H198.2z"/>
	</g>
</g>
</svg>
