<?xml version="1.0" encoding="utf-8"?>
<!-- Generator: Adobe Illustrator 23.0.6, SVG Export Plug-In . SVG Version: 6.00 Build 0)  -->
<svg version="1.1" id="Layer_1" xmlns="http://www.w3.org/2000/svg" xmlns:xlink="http://www.w3.org/1999/xlink" x="0px" y="0px"
	 viewBox="0 0 211.8 176.1" style="enable-background:new 0 0 211.8 176.1;" xml:space="preserve">
<style type="text/css">
	.st0{fill:#002E5D;}
</style>
<g id="Group_46" transform="translate(-54.172 -232.738)">
	<g id="Group_44">
		<path id="Path_50" class="st0" d="M62.2,315.4c0-41.6,40.3-73.9,91.1-73.9c15.9-0.5,31.8,2.8,46.2,9.9l3.9,1.9l3.9-2.7
			c6.5-4.8,14-8.1,21.8-9.9h0.7v0.7c-4.1,8.5-7.1,17.7-8.7,27.1c-0.2,1.1,0.2,2.3,0.7,3.4c6,13.8,17.9,27.1,30.4,27.1h3.9
			c1.8-0.2,3.2,1.2,3.4,3c0,0.2,0,0.2,0,0.4v23.2c0,12.6,0,12.6-8.7,19.8c-9.6,8.5-19.6,16.3-30.4,23.2l-10.6,31
			c-0.5,1.4-1.8,2.3-3.4,2.7h-10.6c-1.2,0-3.4-1.2-3.4-2.7l-3.9-16.4c-11.5,3-23.2,4.6-35,4.6c-11.1,0-22.3-1.8-33.1-5.3l-3.9,17.2
			c-0.5,1.4-1.8,2.3-3.4,2.7h-10.6c-1.6,0-3-1.1-3.4-2.7l-11.8-36C72.1,352.6,62.6,334.7,62.2,315.4z M54.2,318.8
			c0.7,11.8,0.7,8.7,5.3,21c4.4,11,11.3,20.7,20.5,28.3l11.1,34.3c1.4,3.9,5.1,6.5,9.2,6.5h12.6c4.4,0,8.3-3,9.2-7.3l2.7-10.6
			c9,2.1,18.4,3.2,27.8,3.4c10.1,0,20-1.1,29.7-3.4l2.7,10.6c1.1,4.2,5,7.3,9.2,7.3h12.6c4.2,0,7.8-2.7,9.2-6.5l9.9-29
			c10.3-6.5,20-14.1,29-22.5c11.1-9.2,11.1-9.9,11.1-25.1v-23.1c0.4-5.3-3.5-10.1-9-10.6c-0.2,0-0.2,0-0.4,0h-5.3
			c-8.7,0-19.1-11.1-23.7-23.2c1.4-8.8,4.1-17.7,8-25.8c3.4-6.5,0.7-8-1.2-9.2c-6-3.4-21,1.2-32.4,9.9
			c-15.4-7.4-32.4-11.1-49.5-10.6c-48.1,0-86.5,27.1-95.7,62.8C55,303.7,54.1,311.2,54.2,318.8z M125.5,252.1
			c17.3-4.2,35.5-4.2,52.9,0c1.9,0.5,3.2,2.7,2.7,4.6s-2.7,3.2-4.6,2.7c-16.3-3.9-33.3-3.9-49.5,0h-0.7c-1.2,0-3.4-1.2-3.4-2.7
			C122.2,254,123.6,252.1,125.5,252.1L125.5,252.1z M206.7,292.4c0,4.1,3.2,7.3,7.3,7.3s7.3-3.2,7.3-7.3c0-4.1-3.2-7.3-7.3-7.3
			C209.9,285.2,206.7,288.4,206.7,292.4z"/>
	</g>
	<g id="Group_45">
		<path id="Path_51" class="st0" d="M134.7,347.2v-4.6h5.3v-17.2l-16.4-31h-6.5v-17.7h32.4v17.9h-2.7l5.3,10.6l5.3-10.6h-2.7v-17.9
			h31.7v17.9h-6.6c-1.9,3.4-3.9,7.3-6,11.1c-2.1,3.9-4.6,8.7-6.5,12.6l-3.9,7.3v17.2h6v17.9h-34.3v-13.3h-0.4V347.2z M163.2,347.8
			h-5.3v-23.7l3.9-8.7l0,0c1.9-3.9,4.6-8.7,6.5-12.6s4.6-8.7,6.5-12.6l0.7-1.2h4.6v-7.3h-21v7.3h6l-13.8,27.8L137.5,289h6v-7.3H123
			v7.3h4.6l18.4,34.3v24.4h-5.3v7.3h23.7v-7.3h-1.2V347.8z"/>
	</g>
</g>
</svg>
