<?xml version="1.0" encoding="utf-8"?>
<!-- Generator: Adobe Illustrator 23.0.1, SVG Export Plug-In . SVG Version: 6.00 Build 0)  -->
<svg version="1.1" id="Layer_1" xmlns="http://www.w3.org/2000/svg" xmlns:xlink="http://www.w3.org/1999/xlink" x="0px" y="0px"
	 viewBox="0 0 274 223" style="enable-background:new 0 0 274 223;" xml:space="preserve">
<style type="text/css">
	.st0{fill:#002E5D;}
</style>
<g id="Group_46" transform="translate(-54.172 -232.738)">
	<g id="Group_44">
		<path id="Path_50" class="st0" d="M135.8,289c0-23.5,22.8-41.8,51.5-41.8c9-0.3,18,1.6,26.1,5.6l2.2,1.1l2.2-1.5
			c3.7-2.7,7.9-4.6,12.3-5.6h0.4v0.4c-2.3,4.8-4,10-4.9,15.3c-0.1,0.6,0.1,1.3,0.4,1.9c3.4,7.8,10.1,15.3,17.2,15.3h2.2
			c1-0.1,1.8,0.7,1.9,1.7c0,0.1,0,0.1,0,0.2v13.1c0,7.1,0,7.1-4.9,11.2c-5.4,4.8-11.1,9.2-17.2,13.1l-6,17.5c-0.3,0.8-1,1.3-1.9,1.5
			h-6c-0.7,0-1.9-0.7-1.9-1.5l-2.2-9.3c-6.5,1.7-13.1,2.6-19.8,2.6c-6.3,0-12.6-1-18.7-3l-2.2,9.7c-0.3,0.8-1,1.3-1.9,1.5h-6
			c-0.9,0-1.7-0.6-1.9-1.5l-6.7-20.2C141.4,310,136,299.9,135.8,289z M131.3,290.9c0.4,6.7,0.4,4.9,3,11.9c2.5,6.2,6.4,11.7,11.6,16
			l6.3,19.4c0.8,2.2,2.9,3.7,5.2,3.7h7.1c2.5,0,4.7-1.7,5.2-4.1l1.5-6c5.1,1.2,10.4,1.8,15.7,1.9c5.7,0,11.3-0.6,16.8-1.9l1.5,6
			c0.6,2.4,2.8,4.1,5.2,4.1h7.1c2.4,0,4.4-1.5,5.2-3.7l5.6-16.4c5.8-3.7,11.3-8,16.4-12.7c6.3-5.2,6.3-5.6,6.3-14.2v-13.1
			c0.2-3-2-5.7-5.1-6c-0.1,0-0.1,0-0.2,0h-3c-4.9,0-10.8-6.3-13.4-13.1c0.8-5,2.3-10,4.5-14.6c1.9-3.7,0.4-4.5-0.7-5.2
			c-3.4-1.9-11.9,0.7-18.3,5.6c-8.7-4.2-18.3-6.3-28-6c-27.2,0-48.9,15.3-54.1,35.5C131.7,282.4,131.2,286.6,131.3,290.9z
			 M171.6,253.2c9.8-2.4,20.1-2.4,29.9,0c1.1,0.3,1.8,1.5,1.5,2.6s-1.5,1.8-2.6,1.5c-9.2-2.2-18.8-2.2-28,0H172
			c-0.7,0-1.9-0.7-1.9-1.5C169.7,254.3,170.5,253.2,171.6,253.2L171.6,253.2z M217.5,276c0,2.3,1.8,4.1,4.1,4.1s4.1-1.8,4.1-4.1
			c0-2.3-1.8-4.1-4.1-4.1S217.5,273.7,217.5,276z"/>
	</g>
	<g id="Group_45">
		<path id="Path_51" class="st0" d="M176.8,307v-2.6h3v-9.7l-9.3-17.5h-3.7v-10.1h18.3v10.1h-1.5l3,6l3-6h-1.5v-10.1H206v10.1h-3.7
			c-1.1,1.9-2.2,4.1-3.4,6.3s-2.6,4.9-3.7,7.1l-2.2,4.1v9.7h3.4v10.1H177V307H176.8z M192.9,307.3h-3v-13.4l2.2-4.9l0,0
			c1.1-2.2,2.6-4.9,3.7-7.1s2.6-4.9,3.7-7.1l0.4-0.7h2.6V270h-11.9v4.1h3.4l-7.8,15.7l-7.8-15.7h3.4V270h-11.6v4.1h2.6l10.4,19.4
			v13.8h-3v4.1h13.4v-4.1L192.9,307.3L192.9,307.3z"/>
	</g>
</g>
<g>
	<path class="st0" d="M29.4,162.5v-28.2H35l6.7,19.9c0.6,1.9,1.1,3.2,1.3,4.2c0.3-1,0.8-2.5,1.5-4.5l6.8-19.6h5v28.2h-3.6v-23.6
		l-8.2,23.6h-3.4l-8.1-24v24H29.4z"/>
	<path class="st0" d="M61.7,170.4l-0.4-3.2c0.8,0.2,1.4,0.3,2,0.3c0.8,0,1.4-0.2,1.8-0.4c0.5-0.2,0.9-0.6,1.1-1.1
		c0.2-0.3,0.6-1.2,1-2.6c0.1-0.2,0.2-0.5,0.3-0.9L59.8,142h3.7l4.2,11.8c0.6,1.5,1,3.1,1.5,4.7c0.4-1.6,0.9-3.1,1.4-4.6L75,142h3.5
		l-7.8,20.8c-0.9,2.2-1.5,3.8-2,4.6c-0.6,1.1-1.3,2-2.1,2.5c-0.8,0.6-1.7,0.8-2.8,0.8C63.3,170.7,62.5,170.7,61.7,170.4z"/>
	<path class="st0" d="M93.1,162.5v-28.2h19v3.3H96.9v8.7h13.2v3.3H96.9v12.8H93.1z"/>
	<path class="st0" d="M116.5,138.3v-4h3.5v4H116.5z M116.5,162.5v-20.4h3.5v20.4H116.5z"/>
	<path class="st0" d="M125.3,162.5v-20.4h3.1v2.9c1.5-2.2,3.7-3.4,6.5-3.4c1.3,0,2.4,0.2,3.4,0.6c1,0.5,1.8,1,2.3,1.7
		c0.6,0.7,0.9,1.6,1.1,2.5c0.2,0.6,0.2,1.7,0.2,3.4v12.5h-3.5V150c0-1.4-0.2-2.4-0.4-3.1c-0.2-0.7-0.7-1.3-1.4-1.7
		c-0.7-0.4-1.5-0.6-2.4-0.6c-1.5,0-2.8,0.5-3.8,1.4c-1.1,0.9-1.6,2.7-1.6,5.4v11.2L125.3,162.5L125.3,162.5z"/>
	<path class="st0" d="M160.5,160c-1.3,1.1-2.5,1.9-3.7,2.3c-1.2,0.5-2.4,0.7-3.8,0.7c-2.2,0-3.9-0.6-5.2-1.7
		c-1.2-1.1-1.8-2.5-1.8-4.2c0-1,0.2-1.9,0.7-2.8c0.5-0.8,1-1.5,1.8-2c0.7-0.5,1.6-0.9,2.5-1.1c0.7-0.2,1.7-0.3,3.1-0.6
		c2.8-0.3,4.9-0.7,6.1-1.2c0-0.5,0-0.8,0-0.9c0-1.4-0.3-2.4-0.9-3c-0.9-0.8-2.2-1.2-3.9-1.2c-1.7,0-2.8,0.3-3.6,0.9s-1.3,1.6-1.7,3
		l-3.4-0.5c0.3-1.4,0.8-2.6,1.5-3.5c0.7-0.9,1.7-1.6,3.1-2c1.3-0.5,2.9-0.7,4.6-0.7c1.7,0,3.1,0.2,4.2,0.6c1.1,0.4,1.9,0.9,2.4,1.6
		c0.6,0.6,0.9,1.4,1.1,2.4c0.1,0.6,0.2,1.7,0.2,3.2v4.6c0,3.2,0.1,5.3,0.2,6.1c0.2,0.9,0.5,1.7,0.9,2.4h-3.6
		C160.8,161.8,160.5,160.9,160.5,160z M160.1,152.3c-1.3,0.6-3.1,0.9-5.7,1.3c-1.4,0.2-2.4,0.5-3,0.7c-0.6,0.2-1,0.6-1.3,1.1
		c-0.3,0.5-0.5,1-0.5,1.7c0,0.9,0.3,1.7,1,2.3c0.7,0.6,1.7,0.9,3.1,0.9s2.5-0.3,3.5-0.9c1-0.6,1.8-1.4,2.3-2.4
		c0.4-0.8,0.6-2,0.6-3.5L160.1,152.3L160.1,152.3z"/>
	<path class="st0" d="M169,162.5v-20.4h3.1v2.9c1.5-2.2,3.7-3.4,6.5-3.4c1.3,0,2.4,0.2,3.4,0.6c1,0.5,1.8,1,2.3,1.7
		c0.6,0.7,0.9,1.6,1.1,2.5c0.2,0.6,0.2,1.7,0.2,3.4v12.5h-3.5V150c0-1.4-0.2-2.4-0.4-3.1c-0.2-0.7-0.7-1.3-1.4-1.7s-1.5-0.6-2.4-0.6
		c-1.5,0-2.8,0.5-3.8,1.4c-1.1,0.9-1.6,2.7-1.6,5.4v11.2L169,162.5L169,162.5z"/>
	<path class="st0" d="M204.2,155l3.4,0.5c-0.4,2.4-1.3,4.2-2.8,5.5c-1.5,1.3-3.4,2-5.7,2c-2.8,0-5-0.9-6.8-2.8
		c-1.7-1.8-2.5-4.4-2.5-7.9c0-2.2,0.4-4.1,1.1-5.7s1.8-2.9,3.3-3.7s3.1-1.3,4.9-1.3c2.2,0,4,0.6,5.4,1.7c1.4,1.1,2.3,2.7,2.7,4.8
		l-3.4,0.6c-0.3-1.3-0.9-2.4-1.7-3.1c-0.8-0.7-1.8-1-2.9-1c-1.7,0-3.1,0.6-4.2,1.9c-1.1,1.3-1.7,3.2-1.7,5.9c0,2.8,0.6,4.7,1.6,6
		c1,1.3,2.4,1.9,4.1,1.9c1.3,0,2.5-0.4,3.4-1.3C203.4,158,204,156.7,204.2,155z"/>
	<path class="st0" d="M210.6,138.3v-4h3.5v4H210.6z M210.6,162.5v-20.4h3.5v20.4H210.6z"/>
	<path class="st0" d="M232.6,160c-1.3,1.1-2.5,1.9-3.7,2.3c-1.2,0.5-2.4,0.7-3.8,0.7c-2.2,0-3.9-0.6-5.2-1.7
		c-1.2-1.1-1.8-2.5-1.8-4.2c0-1,0.2-1.9,0.7-2.8c0.5-0.8,1-1.5,1.8-2c0.7-0.5,1.6-0.9,2.5-1.1c0.7-0.2,1.7-0.3,3.1-0.6
		c2.8-0.3,4.9-0.7,6.1-1.2c0-0.5,0-0.8,0-0.9c0-1.4-0.3-2.4-0.9-3c-0.9-0.8-2.2-1.2-3.9-1.2c-1.7,0-2.8,0.3-3.6,0.9s-1.3,1.6-1.7,3
		l-3.4-0.5c0.3-1.4,0.8-2.6,1.5-3.5c0.7-0.9,1.7-1.6,3.1-2c1.3-0.5,2.9-0.7,4.6-0.7c1.7,0,3.1,0.2,4.2,0.6c1.1,0.4,1.9,0.9,2.4,1.6
		c0.6,0.6,0.9,1.4,1.1,2.4c0.1,0.6,0.2,1.7,0.2,3.2v4.6c0,3.2,0.1,5.3,0.2,6.1c0.2,0.9,0.5,1.7,0.9,2.4h-3.6
		C233,161.8,232.8,160.9,232.6,160z M232.4,152.3c-1.3,0.6-3.1,0.9-5.7,1.3c-1.4,0.2-2.4,0.5-3,0.7c-0.6,0.2-1,0.6-1.3,1.1
		s-0.5,1-0.5,1.7c0,0.9,0.3,1.7,1,2.3s1.7,0.9,3.1,0.9c1.3,0,2.5-0.3,3.5-0.9c1-0.6,1.8-1.4,2.3-2.4c0.4-0.8,0.6-2,0.6-3.5V152.3z"
		/>
	<path class="st0" d="M241.1,162.5v-28.2h3.5v28.2H241.1z"/>
	<path class="st0" d="M101,199.9l3.7,0.9c-0.8,3.1-2.2,5.4-4.2,7c-2,1.6-4.5,2.4-7.5,2.4c-3.1,0-5.5-0.6-7.4-1.9
		c-1.9-1.3-3.4-3-4.3-5.4c-1-2.4-1.5-4.9-1.5-7.6c0-2.9,0.6-5.5,1.7-7.7s2.8-3.9,4.8-5c2-1.1,4.3-1.7,6.8-1.7c2.8,0,5.2,0.7,7.1,2.1
		c1.9,1.4,3.2,3.5,4,6.1l-3.7,0.9c-0.6-2-1.6-3.5-2.8-4.5c-1.3-0.9-2.8-1.4-4.7-1.4c-2.2,0-3.9,0.6-5.4,1.6c-1.4,1-2.4,2.4-3.1,4.2
		c-0.6,1.7-0.9,3.5-0.9,5.4c0,2.4,0.3,4.5,1,6.3c0.7,1.8,1.8,3.1,3.2,4s3.1,1.3,4.8,1.3c2.1,0,3.9-0.6,5.3-1.8
		C99.5,204,100.5,202.2,101,199.9z"/>
	<path class="st0" d="M122.8,203.2l3.5,0.5c-0.6,2.1-1.6,3.7-3.1,4.9c-1.6,1.2-3.5,1.7-5.8,1.7c-3,0-5.4-0.9-7.1-2.8
		c-1.7-1.8-2.6-4.4-2.6-7.7c0-3.5,0.9-6.1,2.7-8c1.7-1.9,4.1-2.8,6.8-2.8s5,0.9,6.7,2.8c1.7,1.9,2.6,4.5,2.6,7.9c0,0.2,0,0.6,0,0.9
		h-15.2c0.2,2.2,0.8,3.9,1.9,5.1s2.6,1.8,4.2,1.8c1.3,0,2.4-0.3,3.2-1C121.7,205.7,122.4,204.6,122.8,203.2z M111.5,197.6h11.4
		c-0.2-1.7-0.6-3-1.3-3.9c-1.1-1.3-2.5-2-4.2-2c-1.6,0-2.9,0.6-4,1.6C112.2,194.4,111.6,195.8,111.5,197.6z"/>
	<path class="st0" d="M130.8,209.7v-20.4h3.1v2.9c1.5-2.2,3.7-3.4,6.5-3.4c1.3,0,2.4,0.2,3.4,0.6c1,0.5,1.8,1,2.3,1.7
		c0.6,0.7,0.9,1.6,1.1,2.5c0.2,0.6,0.2,1.7,0.2,3.4v12.5h-3.5v-12.4c0-1.4-0.2-2.4-0.4-3.1c-0.2-0.7-0.7-1.3-1.4-1.7
		c-0.7-0.4-1.5-0.6-2.4-0.6c-1.5,0-2.8,0.5-3.8,1.4c-1.1,0.9-1.6,2.7-1.6,5.4v11.2L130.8,209.7L130.8,209.7z"/>
	<path class="st0" d="M160.2,206.6l0.5,3.1c-0.9,0.2-1.8,0.3-2.6,0.3c-1.3,0-2.2-0.2-2.9-0.6c-0.7-0.4-1.2-0.9-1.5-1.6
		c-0.3-0.6-0.4-2-0.4-4.1V192h-2.5v-2.7h2.5v-5l3.5-2v7.2h3.5v2.7h-3.5v12c0,1,0.1,1.7,0.2,1.9c0.2,0.3,0.3,0.5,0.6,0.7
		c0.2,0.2,0.6,0.2,1.2,0.2C159,206.8,159.6,206.7,160.2,206.6z"/>
	<path class="st0" d="M177.5,203.2l3.5,0.5c-0.6,2.1-1.6,3.7-3.1,4.9c-1.6,1.2-3.5,1.7-5.8,1.7c-3,0-5.4-0.9-7.1-2.8
		c-1.7-1.8-2.6-4.4-2.6-7.7c0-3.5,0.9-6.1,2.7-8c1.7-1.9,4.1-2.8,6.8-2.8c2.8,0,5,0.9,6.7,2.8c1.7,1.9,2.6,4.5,2.6,7.9
		c0,0.2,0,0.6,0,0.9H166c0.2,2.2,0.8,3.9,1.9,5.1c1.1,1.2,2.6,1.8,4.2,1.8c1.3,0,2.4-0.3,3.2-1C176.4,205.7,177.1,204.6,177.5,203.2
		z M166.2,197.6h11.4c-0.2-1.7-0.6-3-1.3-3.9c-1.1-1.3-2.5-2-4.2-2c-1.6,0-2.9,0.6-4,1.6C166.9,194.4,166.4,195.8,166.2,197.6z"/>
	<path class="st0" d="M185.4,209.7v-20.4h3.1v3.1c0.8-1.4,1.5-2.4,2.2-2.8c0.7-0.4,1.4-0.7,2.2-0.7c1.2,0,2.4,0.4,3.5,1.1l-1.2,3.2
		c-0.9-0.5-1.7-0.8-2.5-0.8c-0.8,0-1.4,0.2-2,0.7c-0.6,0.5-1,1.1-1.3,1.9c-0.4,1.3-0.6,2.6-0.6,4v10.7H185.4z"/>
</g>
</svg>
