<svg id="Layer_1" data-name="Layer 1" xmlns="http://www.w3.org/2000/svg" viewBox="0 0 140.78 42.01"><defs><style>.cls-1{fill:#fff;}</style></defs><title>MyBYU</title><path class="cls-1" d="M6.45,15h4.44l-.59,2.71a7.47,7.47,0,0,1,2.78-2.23,7.85,7.85,0,0,1,3.42-.79,4.76,4.76,0,0,1,1.66.25,3,3,0,0,1,1.11.66,2.47,2.47,0,0,1,.63,1,5.22,5.22,0,0,1,.26,1.25A8.41,8.41,0,0,1,23,15.53a7.18,7.18,0,0,1,3.35-.82,4.51,4.51,0,0,1,1.76.31,2.89,2.89,0,0,1,1.71,2,5.77,5.77,0,0,1,.17,1.4c0,.25,0,.57-.06,1a14.47,14.47,0,0,1-.25,1.46L27.43,31.19H22.5l1.94-9.08c0-.25.08-.48.11-.7a4.28,4.28,0,0,0,.05-.6,2,2,0,0,0-.37-1.32,1.24,1.24,0,0,0-1-.43,2.4,2.4,0,0,0-.95.21,4.81,4.81,0,0,0-1,.6,7.21,7.21,0,0,0-.93.91,5.76,5.76,0,0,0-.75,1.14L17.7,31.19H12.77l1.94-9.08c0-.25.08-.48.11-.7a4.22,4.22,0,0,0,0-.6,1.93,1.93,0,0,0-.38-1.32,1.27,1.27,0,0,0-1-.43,3.14,3.14,0,0,0-1.91.81A6.6,6.6,0,0,0,9.9,21.92l-2,9.27H3Z"/><path class="cls-1" d="M30,34.61a10.74,10.74,0,0,0,1.57-.14,5,5,0,0,0,1.14-.32,3.08,3.08,0,0,0,.89-.57,6.94,6.94,0,0,0,.84-.91l.89-1.14L33,15h5l.89,12,1-1.72a29.52,29.52,0,0,0,2.52-5A34.66,34.66,0,0,0,44,15h4.75c-.29,1-.59,1.91-.89,2.77a27.64,27.64,0,0,1-1.17,2.76c-.48,1-1.06,2.05-1.75,3.23S43.41,26.38,42.4,28l-2.46,4a21.49,21.49,0,0,1-2.13,3,10.63,10.63,0,0,1-2.15,1.94A8,8,0,0,1,33.32,38a10.13,10.13,0,0,1-2.72.34Z"/><g id="BYU_Academic_Navy" data-name="BYU Academic Navy"><path class="cls-1" d="M62.77,15.82v-4a3,3,0,0,0-.05-.54,4.49,4.49,0,0,0,.55,0h3c2.29,0,3.63.36,3.63,2.44,0,1.35-.83,2.56-3.54,2.56h-3.1c-.27,0-.54,0-.54,0A4,4,0,0,0,62.77,15.82Zm0,9.17V20.37a3.49,3.49,0,0,0,0-.54,4.22,4.22,0,0,0,.54,0h2.54c2,0,4.52,0,4.52,2.81,0,2.08-1.78,2.81-4.17,2.81H63.27a4,4,0,0,0-.53,0S62.77,25.25,62.77,25ZM55.47,8.85V28.07c0,.62,0,.85-.41,1.12a4.09,4.09,0,0,1-1.58.43h0c-.07,0-.06.28,0,.28H69c6.56,0,9.32-2.6,9.32-6.66,0-3-1.4-4.84-4.16-5.53-.05,0-.05-.07,0-.09,1.76-.55,3.38-1.82,3.38-4.95C77.56,8.45,74.7,7,68.45,7h-15c-.07,0-.09.27,0,.29h0a4.2,4.2,0,0,1,1.59.43C55.51,8,55.47,8.23,55.47,8.85Z"/><path class="cls-1" d="M133.82,8.85c0-.62,0-.84.41-1.12a4.09,4.09,0,0,1,1.58-.43h0c.08,0,.06-.29,0-.29H124.34c-.07,0-.08.27,0,.29h0a3.14,3.14,0,0,1,1.49.43c.45.28.41.5.41,1.12V20.4c0,2.64-1.51,4.66-4.5,4.66s-4.51-2-4.51-4.66V8.85c0-.62,0-.84.41-1.12a3.38,3.38,0,0,1,1.49-.43h0c.07,0,.06-.29,0-.29H108.3c-.08,0-.06.27,0,.29h0a1.41,1.41,0,0,1,.91.25,1.49,1.49,0,0,1,.42,1.3V20.2c0,5.48,3,10.13,12.09,10.13s12.08-4.65,12.08-10.13Z"/><path class="cls-1" d="M99.06,29.91c.08,0,.09-.27,0-.28h0a4.09,4.09,0,0,1-1.58-.43c-.44-.27-.41-.5-.41-1.12V20.78L105,9a5.87,5.87,0,0,1,1.07-1.28,2.59,2.59,0,0,1,.3-.21,1.62,1.62,0,0,1,.86-.21h0c.07,0,.09-.29,0-.29H96.55c-.08,0-.07.28,0,.29h0c.52,0,1.16,0,1.06.75s-3.15,5.18-4.24,6.87a2.28,2.28,0,0,0-.34.8,2.13,2.13,0,0,0-.35-.79c-1.53-2.28-4.15-6-4.23-6.88S89,7.3,89.53,7.3h0c.08,0,.1-.28,0-.28H78.32c-.06,0-.06.26,0,.28h0a3,3,0,0,1,1.31.29,2.2,2.2,0,0,1,.28.18,5.18,5.18,0,0,1,1,1.23l7.92,11.73v7.34c0,.62,0,.85-.4,1.12a4.2,4.2,0,0,1-1.59.43h0c-.08,0-.06.28,0,.28Z"/></g></svg>