<?xml version="1.0" encoding="utf-8"?>
<!-- Generator: Adobe Illustrator 23.0.1, SVG Export Plug-In . SVG Version: 6.00 Build 0)  -->
<svg version="1.1" id="Layer_1" xmlns="http://www.w3.org/2000/svg" xmlns:xlink="http://www.w3.org/1999/xlink" x="0px" y="0px"
	 viewBox="0 0 158.2 170.9" style="enable-background:new 0 0 158.2 170.9;" xml:space="preserve">
<style type="text/css">
	.st0{fill:#002E5D;}
</style>
<g>
	<path class="st0" d="M130.5,0.3c-1-0.4-2.1-0.4-3,0l-6.9,2.3l-24,8h-1.9C85.2,7.1,75.3,4.1,64.3,0.3c-1.2-0.4-2.6-0.4-3.8,0l-24,8
		L28.9,11c-1.9,0.8-2.3,1.1-2.3,3.4v79.5c0,1,0.4,2,1.1,2.7c0.4,0,0.8,0.4,1.5,0.4c0.7,0,1.3-0.1,1.9-0.4l6.1-1.9
		c8-3,16.4-5.7,24.7-8.4h1.9c4.9,1.5,10.3,3.4,15.2,4.9c5.3,1.9,10.3,3.4,15.6,5.3c0.8,0.4,1.8,0.4,2.7,0c9.1-2.7,17.9-5.7,26.6-8.8
		l5.3-1.9c1.9-0.8,2.3-1.1,2.3-3.4V3.3C131.6,1.8,131.2,0.7,130.5,0.3z M60.1,81c0,0.8,0,0.8-0.8,1.1L38.8,89l-6.5,2.3h-0.4V15.5
		L60.1,6V81z M93.6,90.9h-0.8l-7.2-2.3c-6.5-2.3-13.3-4.2-19.8-6.5C65,82.1,65,81.7,65,81V5.9c0,0,19.5,6.6,27.4,9.2
		c0.8,0.4,1.1,0.8,1.1,1.5V90.9z M126.3,81.7l-28.2,9.5V16.7c0-0.8,0-0.8,0.8-1.1c7.2-2.7,14.1-4.9,21.3-7.2l6.1-1.9l0,0V81.7z"/>
	<g>
		<path class="st0" d="M0,160.4v-35.8h7.1l8.5,25.3c0.8,2.4,1.4,4.1,1.7,5.3c0.4-1.3,1-3.2,1.9-5.7l8.6-24.9h6.4v35.8h-4.6v-30
			l-10.4,30h-4.3L4.6,129.9v30.5H0z"/>
		<path class="st0" d="M41,170.4l-0.5-4.1c1,0.3,1.8,0.4,2.5,0.4c1,0,1.8-0.2,2.3-0.5c0.6-0.3,1.1-0.8,1.4-1.4
			c0.3-0.4,0.7-1.5,1.3-3.3c0.1-0.2,0.2-0.6,0.4-1.1l-9.8-26h4.7l5.4,15c0.7,1.9,1.3,3.9,1.9,6c0.5-2,1.1-4,1.8-5.9l5.5-15.1h4.4
			l-9.9,26.4c-1.1,2.8-1.9,4.8-2.5,5.9c-0.8,1.4-1.7,2.5-2.7,3.2c-1,0.7-2.2,1-3.6,1C43,170.9,42.1,170.8,41,170.4z"/>
		<path class="st0" d="M66.7,160.4v-35.8h7.1l8.5,25.3c0.8,2.4,1.4,4.1,1.7,5.3c0.4-1.3,1-3.2,1.9-5.7l8.6-24.9h6.4v35.8h-4.6v-30
			l-10.4,30h-4.3l-10.4-30.5v30.5H66.7z"/>
		<path class="st0" d="M124.8,157.2c-1.6,1.4-3.2,2.4-4.7,2.9s-3.1,0.9-4.8,0.9c-2.8,0-5-0.7-6.6-2.1c-1.5-1.4-2.3-3.2-2.3-5.3
			c0-1.3,0.3-2.4,0.9-3.5s1.3-1.9,2.3-2.5s2-1.1,3.2-1.4c0.9-0.2,2.2-0.4,3.9-0.7c3.5-0.4,6.2-0.9,7.8-1.5c0-0.6,0-1,0-1.1
			c0-1.8-0.4-3.1-1.2-3.8c-1.1-1-2.8-1.5-5-1.5c-2.1,0-3.6,0.4-4.6,1.1c-1,0.7-1.7,2-2.2,3.8l-4.3-0.6c0.4-1.8,1-3.3,1.9-4.5
			c0.9-1.1,2.2-2,3.9-2.6c1.7-0.6,3.7-0.9,5.9-0.9c2.2,0,4,0.3,5.4,0.8c1.4,0.5,2.4,1.2,3.1,2c0.7,0.8,1.1,1.8,1.4,3
			c0.1,0.7,0.2,2.1,0.2,4.1v5.9c0,4.1,0.1,6.7,0.3,7.8c0.2,1.1,0.6,2.1,1.1,3.1h-4.6C125.2,159.5,124.9,158.4,124.8,157.2z
			 M124.4,147.4c-1.6,0.7-4,1.2-7.2,1.7c-1.8,0.3-3.1,0.6-3.8,0.9c-0.7,0.3-1.3,0.8-1.7,1.4c-0.4,0.6-0.6,1.3-0.6,2.1
			c0,1.2,0.4,2.1,1.3,2.9s2.2,1.2,3.9,1.2c1.7,0,3.2-0.4,4.5-1.1c1.3-0.7,2.3-1.8,2.9-3c0.5-1,0.7-2.5,0.7-4.4V147.4z"/>
		<path class="st0" d="M135.7,170.4v-35.9h4v3.4c0.9-1.3,2-2.3,3.2-3c1.2-0.7,2.6-1,4.3-1c2.2,0,4.2,0.6,5.9,1.7
			c1.7,1.1,3,2.7,3.8,4.8c0.9,2.1,1.3,4.4,1.3,6.8c0,2.7-0.5,5-1.4,7.2c-1,2.1-2.3,3.8-4.2,4.9c-1.8,1.1-3.7,1.7-5.7,1.7
			c-1.5,0-2.8-0.3-3.9-0.9s-2.1-1.4-2.9-2.3v12.6H135.7z M139.7,147.6c0,3.3,0.7,5.8,2,7.4c1.4,1.6,3,2.4,4.9,2.4c2,0,3.6-0.8,5-2.5
			c1.4-1.7,2.1-4.2,2.1-7.7c0-3.3-0.7-5.8-2-7.4c-1.4-1.6-3-2.5-4.9-2.5c-1.9,0-3.5,0.9-5,2.6C140.4,141.7,139.7,144.3,139.7,147.6z
			"/>
	</g>
</g>
</svg>
