<?xml version="1.0" encoding="utf-8"?>
<!-- Generator: Adobe Illustrator 23.0.1, SVG Export Plug-In . SVG Version: 6.00 Build 0)  -->
<svg version="1.1" id="Layer_1" xmlns="http://www.w3.org/2000/svg" xmlns:xlink="http://www.w3.org/1999/xlink" x="0px" y="0px"
	 viewBox="0 0 274 223" style="enable-background:new 0 0 274 223;" xml:space="preserve">
<style type="text/css">
	.st0{fill:#002E5D;}
</style>
<path class="st0" d="M188.4,9.8c-1-0.4-2.1-0.4-3,0l-6.9,2.3l-24,8h-1.9c-9.5-3.5-19.4-6.5-30.4-10.3c-1.2-0.4-2.6-0.4-3.8,0l-24,8
	l-7.6,2.7c-1.9,0.8-2.3,1.1-2.3,3.4v79.5c0,1,0.4,2,1.1,2.7c0.4,0,0.8,0.4,1.5,0.4c0.7,0,1.3-0.1,1.9-0.4l6.1-1.9
	c8-3,16.4-5.7,24.7-8.4h1.9c4.9,1.5,10.3,3.4,15.2,4.9c5.3,1.9,10.3,3.4,15.6,5.3c0.8,0.4,1.8,0.4,2.7,0c9.1-2.7,17.9-5.7,26.6-8.8
	l5.3-1.9c1.9-0.8,2.3-1.1,2.3-3.4V12.8C189.5,11.3,189.1,10.2,188.4,9.8z M118,90.5c0,0.8,0,0.8-0.8,1.1l-20.5,6.9l-6.5,2.3h-0.4V25
	l28.2-9.5V90.5z M151.5,100.4h-0.8l-7.2-2.3c-6.5-2.3-13.3-4.2-19.8-6.5c-0.8,0-0.8-0.4-0.8-1.1V15.4c0,0,19.5,6.6,27.4,9.2
	c0.8,0.4,1.1,0.8,1.1,1.5L151.5,100.4L151.5,100.4z M184.2,91.2l-28.2,9.5V26.2c0-0.8,0-0.8,0.8-1.1c7.2-2.7,14.1-4.9,21.3-7.2
	l6.1-1.9l0,0C184.2,16,184.2,91.2,184.2,91.2z"/>
<g>
	<path class="st0" d="M74.7,162.3v-28.2h5.6L87,154c0.6,1.9,1.1,3.2,1.3,4.2c0.3-1,0.8-2.5,1.5-4.5l6.8-19.6h5v28.2H98v-23.6
		l-8.2,23.6h-3.4l-8.1-24v24H74.7z"/>
	<path class="st0" d="M107,170.1l-0.4-3.2c0.8,0.2,1.4,0.3,2,0.3c0.8,0,1.4-0.2,1.8-0.4c0.5-0.2,0.9-0.6,1.1-1.1
		c0.2-0.3,0.6-1.2,1-2.6c0.1-0.2,0.2-0.5,0.3-0.9l-7.7-20.5h3.7l4.2,11.8c0.6,1.5,1,3.1,1.5,4.7c0.4-1.6,0.9-3.1,1.4-4.6l4.3-11.9
		h3.5l-7.8,20.8c-0.9,2.2-1.5,3.8-2,4.6c-0.6,1.1-1.3,2-2.1,2.5c-0.8,0.6-1.7,0.8-2.8,0.8C108.6,170.5,107.9,170.5,107,170.1z"/>
	<path class="st0" d="M127.2,162.3v-28.2h5.6l6.7,19.9c0.6,1.9,1.1,3.2,1.3,4.2c0.3-1,0.8-2.5,1.5-4.5l6.8-19.6h5v28.2h-3.6v-23.6
		l-8.2,23.6H139l-8.2-24v24H127.2z"/>
	<path class="st0" d="M173,159.8c-1.3,1.1-2.5,1.9-3.7,2.3s-2.4,0.7-3.8,0.7c-2.2,0-3.9-0.6-5.2-1.7c-1.2-1.1-1.8-2.5-1.8-4.2
		c0-1,0.2-1.9,0.7-2.8c0.5-0.9,1-1.5,1.8-2c0.8-0.5,1.6-0.9,2.5-1.1c0.7-0.2,1.7-0.3,3.1-0.6c2.8-0.3,4.9-0.7,6.1-1.2
		c0-0.5,0-0.8,0-0.9c0-1.4-0.3-2.4-0.9-3c-0.9-0.8-2.2-1.2-3.9-1.2c-1.7,0-2.8,0.3-3.6,0.9c-0.8,0.6-1.3,1.6-1.7,3l-3.4-0.5
		c0.3-1.4,0.8-2.6,1.5-3.5c0.7-0.9,1.7-1.6,3.1-2c1.3-0.5,2.9-0.7,4.6-0.7s3.1,0.2,4.2,0.6c1.1,0.4,1.9,0.9,2.4,1.6
		c0.6,0.6,0.9,1.4,1.1,2.4c0.1,0.6,0.2,1.7,0.2,3.2v4.6c0,3.2,0.1,5.3,0.2,6.1c0.2,0.9,0.5,1.7,0.9,2.4h-3.6
		C173.3,161.6,173,160.7,173,159.8z M172.7,152c-1.3,0.6-3.1,0.9-5.7,1.3c-1.4,0.2-2.4,0.5-3,0.7c-0.6,0.2-1,0.6-1.3,1.1
		s-0.5,1-0.5,1.7c0,0.9,0.3,1.7,1,2.3c0.7,0.6,1.7,0.9,3.1,0.9c1.3,0,2.5-0.3,3.5-0.9c1-0.6,1.8-1.4,2.3-2.4c0.4-0.8,0.6-2,0.6-3.5
		C172.7,153.4,172.7,152,172.7,152z"/>
	<path class="st0" d="M181.5,170.1v-28.3h3.1v2.7c0.7-1,1.6-1.8,2.5-2.4s2-0.8,3.4-0.8c1.7,0,3.3,0.5,4.6,1.3c1.3,0.9,2.4,2.1,3,3.8
		c0.7,1.7,1,3.5,1,5.4c0,2.1-0.4,3.9-1.1,5.7c-0.8,1.7-1.8,3-3.3,3.9c-1.4,0.9-2.9,1.3-4.5,1.3c-1.2,0-2.2-0.2-3.1-0.7
		c-0.9-0.5-1.7-1.1-2.3-1.8v9.9H181.5z M184.7,152.2c0,2.6,0.6,4.6,1.6,5.8c1.1,1.3,2.4,1.9,3.9,1.9c1.6,0,2.8-0.6,3.9-2
		c1.1-1.3,1.7-3.3,1.7-6.1c0-2.6-0.6-4.6-1.6-5.8c-1.1-1.3-2.4-2-3.9-2c-1.5,0-2.8,0.7-3.9,2C185.2,147.6,184.7,149.6,184.7,152.2z"
		/>
</g>
</svg>
