<?xml version="1.0" encoding="utf-8"?>
<!-- Generator: Adobe Illustrator 23.0.6, SVG Export Plug-In . SVG Version: 6.00 Build 0)  -->
<svg version="1.1" id="Layer_1" xmlns="http://www.w3.org/2000/svg" xmlns:xlink="http://www.w3.org/1999/xlink" x="0px" y="0px"
	 viewBox="0 0 190.3 176" style="enable-background:new 0 0 190.3 176;" xml:space="preserve">
<style type="text/css">
	.st0{fill:#002E5D;}
</style>
<path class="st0" d="M188.5,0.5c-1.8-0.7-3.8-0.7-5.4,0l-12.5,4.2l-43.5,14.5h-3.4C106.3,12.9,88.4,7.4,68.4,0.5
	c-2.2-0.7-4.7-0.7-6.9,0L18,15.1L4.2,20C0.8,21.5,0,22,0,26.2v144.2c0,1.8,0.7,3.6,2,4.9c0.7,0,1.5,0.7,2.7,0.7s2.4-0.2,3.4-0.7
	l11.1-3.4c14.5-5.4,29.7-10.3,44.8-15.2h3.4c8.9,2.7,18.7,6.2,27.6,8.9c9.6,3.4,18.7,6.2,28.3,9.6c1.5,0.7,3.3,0.7,4.9,0
	c16.5-4.9,32.5-10.3,48.2-16l9.6-3.4c3.4-1.5,4.2-2,4.2-6.2V6C190.5,3.3,189.7,1.3,188.5,0.5z M60.8,146.9c0,1.5,0,1.5-1.5,2
	l-37.2,12.5l-11.8,4.2H9.6V28.1l51.2-17.2V146.9z M121.5,164.8H120l-13.1-4.2c-11.8-4.2-24.1-7.6-35.9-11.8c-1.5,0-1.5-0.7-1.5-2
	V10.7c0,0,35.4,12,49.7,16.7c1.5,0.7,2,1.5,2,2.7L121.5,164.8L121.5,164.8z M180.8,148.2l-51.1,17.2V30.3c0-1.5,0-1.5,1.5-2
	c13.1-4.9,25.6-8.9,38.6-13.1l11.1-3.4l0,0C180.8,11.8,180.8,148.2,180.8,148.2z"/>
</svg>
