<?xml version="1.0" encoding="utf-8"?>
<!-- Generator: Adobe Illustrator 23.0.0, SVG Export Plug-In . SVG Version: 6.00 Build 0)  -->
<svg version="1.1" id="Layer_1" xmlns="http://www.w3.org/2000/svg" xmlns:xlink="http://www.w3.org/1999/xlink" x="0px" y="0px"
	 viewBox="0 0 27.6 25.5" style="enable-background:new 0 0 27.6 25.5;" xml:space="preserve">
<style type="text/css">
	.st0{fill:#002E5D;}
</style>
<path class="st0" d="M27.3,0.1C27,0,26.8,0,26.5,0.1l-1.8,0.6l-6.3,2.1h-0.5c-2.5-0.9-5.1-1.7-8-2.7C9.6,0,9.2,0,8.9,0.1L2.6,2.2
	l-2,0.7C0.1,3.1,0,3.2,0,3.8v20.9c0,0.3,0.1,0.5,0.3,0.7c0.1,0,0.2,0.1,0.4,0.1c0.2,0,0.3,0,0.5-0.1l1.6-0.5
	c2.1-0.8,4.3-1.5,6.5-2.2h0.5c1.3,0.4,2.7,0.9,4,1.3c1.4,0.5,2.7,0.9,4.1,1.4c0.2,0.1,0.5,0.1,0.7,0c2.4-0.7,4.7-1.5,7-2.3l1.4-0.5
	c0.5-0.2,0.6-0.3,0.6-0.9V0.9C27.6,0.5,27.5,0.2,27.3,0.1z M8.8,21.3c0,0.2,0,0.2-0.2,0.3l-5.4,1.8L1.5,24H1.4V4.1l7.4-2.5V21.3z
	 M10.1,1.7c0.1,0,0.1,0,0.2-0.1c2.4,0.8,4.7,1.6,7,2.4c0.2,0.1,0.3,0.2,0.3,0.4v19.5h-0.2l-1.9-0.6c-1.7-0.6-3.5-1.1-5.2-1.7
	c-0.2,0-0.2-0.1-0.2-0.3V1.7z M26.2,21.5L18.8,24V4.4c0-0.2,0-0.2,0.2-0.3c1.9-0.7,3.7-1.3,5.6-1.9l1.6-0.5V21.5z"/>
</svg>
