<?xml version="1.0" encoding="utf-8"?>
<!-- Generator: Adobe Illustrator 23.0.0, SVG Export Plug-In . SVG Version: 6.00 Build 0)  -->
<svg version="1.1" id="Layer_1" xmlns="http://www.w3.org/2000/svg" xmlns:xlink="http://www.w3.org/1999/xlink" x="0px" y="0px"
	 viewBox="0 0 17.4 17.6" style="enable-background:new 0 0 17.4 17.6;" xml:space="preserve">
<style type="text/css">
	.st0{fill:#8D8D8D;}
</style>
<path id="Path_20" class="st0" d="M11.4,12.6c-3.1,2.4-7.5,1.8-9.9-1.3C-0.7,8.5-0.4,4.5,2.1,2c2.5-2.5,6.5-2.7,9.2-0.5
	c2.3,1.8,4,5.7,1.2,9.9l3.9,3.9l0.6,0.6c0.4,0.4,0.6,0.9,0.1,1.4s-0.9,0.3-1.4-0.1l-2.4-2.4C12.7,14,12,13.3,11.4,12.6z M7,12.3
	c2.9,0,5.3-2.3,5.3-5.2c0,0,0,0,0,0c0-2.9-2.3-5.3-5.3-5.4C4.1,1.7,1.7,4.1,1.7,7C1.7,9.9,4,12.3,7,12.3C6.9,12.3,7,12.3,7,12.3z"/>
</svg>
