<?xml version="1.0" encoding="utf-8"?>
<!-- Generator: Adobe Illustrator 23.0.6, SVG Export Plug-In . SVG Version: 6.00 Build 0)  -->
<svg version="1.1" id="Layer_1" xmlns="http://www.w3.org/2000/svg" xmlns:xlink="http://www.w3.org/1999/xlink" x="0px" y="0px"
	 viewBox="0 0 175 187.8" style="enable-background:new 0 0 175 187.8;" xml:space="preserve">
<style type="text/css">
	.st0{fill:#002D5D;}
</style>
<g>
	<path class="st0" d="M135,26.9l1-1.7l5.8,3.3c0.4,0.3,0.8,0.4,1.3,0.4c0.2,0,0.4,0,0.6-0.1c0.7-0.2,1.2-0.6,1.5-1.2l0.4-0.7
		c0.4-0.6,0.5-1.3,0.3-1.9c-0.2-0.7-0.6-1.2-1.2-1.5L126.3,13c-0.5-0.4-1.2-0.5-1.8-0.3c-0.7,0.2-1.2,0.6-1.6,1.2l-0.4,0.7
		c-0.4,0.6-0.5,1.3-0.3,1.9c0.2,0.7,0.6,1.2,1.2,1.5l5.8,3.3l-0.9,1.6c-11.1-5.8-23.5-9.4-36.7-10V10h8.6c1.4,0,2.5-1.1,2.5-2.5v-5
		c0-1.4-1.1-2.5-2.5-2.5H73.4c-1.4,0-2.5,1.1-2.5,2.5v5c0,1.4,1.1,2.5,2.5,2.5h8.7v3c-12.5,0.8-24.3,4.2-34.9,9.7l-0.9-1.5l5.8-3.3
		l0,0c0.5-0.4,0.9-0.9,1.1-1.5c0.2-0.7,0.1-1.3-0.3-1.8l-0.4-0.7c-0.3-0.6-0.9-1-1.5-1.2c-0.6-0.2-1.3-0.1-1.9,0.3L30.9,23.5
		c-1.1,0.6-1.5,2.1-0.9,3.4l0.4,0.7c0.4,0.8,1.2,1.2,2.1,1.2c0.4,0,0.9-0.1,1.3-0.3l5.8-3.3l0.9,1.5C16.1,42.2,0,69.4,0,100.3
		c0,48.2,39.3,87.5,87.5,87.5s87.5-39.3,87.5-87.5C175,69.6,159.1,42.5,135,26.9z M87.5,179.8C43.7,179.8,8,144.1,8,100.3
		c0-43.8,35.7-79.5,79.5-79.5S167,56.5,167,100.3C167,144.1,131.3,179.8,87.5,179.8z"/>
	<path class="st0" d="M86.2,40.3h2.5c1.4,0,2.5-0.8,2.5-1.7V27.1c0-1-1.1-1.8-2.5-1.8h-2.5c-1.4,0-2.5,0.8-2.5,1.8v11.4
		C83.7,39.5,84.8,40.3,86.2,40.3z"/>
	<path class="st0" d="M41,59.5c0.3,0.3,0.7,0.4,1.1,0.4c0.6,0,1.3-0.3,1.9-0.9l1.8-1.8c0.5-0.5,0.8-1,0.9-1.5c0.1-0.6,0-1.1-0.4-1.5
		L38.3,46c-0.4-0.4-0.9-0.5-1.5-0.4c-0.5,0.1-1.1,0.4-1.5,0.9l-1.8,1.8c-1,1-1.2,2.3-0.5,3L41,59.5z"/>
	<path class="st0" d="M25.7,96.9H14.2c-1,0-1.8,1.1-1.8,2.5v2.5c0,1.4,0.8,2.5,1.8,2.5h11.4c1,0,1.8-1.1,1.8-2.5v-2.5
		C27.4,98,26.7,96.9,25.7,96.9z"/>
	<path class="st0" d="M44.3,142.2c-1-1-2.3-1.2-3-0.5l-8.1,8.1c-0.7,0.7-0.5,2,0.5,3l1.8,1.8c0.6,0.6,1.3,0.9,1.9,0.9
		c0.4,0,0.8-0.1,1.1-0.4l8.1-8.1c0.7-0.7,0.5-2-0.5-3L44.3,142.2z"/>
	<path class="st0" d="M89,160.6h-2.5c-1.4,0-2.5,0.8-2.5,1.8v11.5c0,1,1.1,1.8,2.5,1.8H89c1.4,0,2.5-0.8,2.5-1.8v-11.5
		C91.5,161.4,90.4,160.6,89,160.6z"/>
	<path class="st0" d="M134.2,141.4c-0.7-0.7-2-0.5-3,0.5l-1.8,1.8c-0.6,0.6-1,1.4-0.9,2.1c0,0.4,0.2,0.7,0.4,0.9l8.1,8.1
		c0.3,0.3,0.7,0.4,1.1,0.4c0.6,0,1.3-0.3,1.9-0.9l1.8-1.8c1-1,1.2-2.3,0.5-3L134.2,141.4z"/>
	<path class="st0" d="M161.1,96.6h-11.5c-1,0-1.8,1.1-1.8,2.5v2.5c0,1.4,0.8,2.5,1.8,2.5h11.5c1,0,1.8-1.1,1.8-2.5v-2.5
		C162.9,97.7,162.1,96.6,161.1,96.6z"/>
	<path class="st0" d="M130.9,58.7c0.6,0.6,1.3,1,1.9,1c0,0,0.1,0,0.1,0c0.4,0,0.8-0.2,1-0.5l8.1-8.1c0.4-0.4,0.5-0.9,0.4-1.5
		c-0.1-0.5-0.4-1.1-0.9-1.5l-1.8-1.8c-1-1-2.3-1.2-3-0.5l-8.1,8.1c-0.4,0.4-0.5,0.9-0.4,1.5c0.1,0.5,0.4,1.1,0.9,1.5L130.9,58.7z"/>
	<path class="st0" d="M90.6,79.9h3.1l-6.2,12l-6.2-12h3.2v-20H48.3v20.3h7.1l19,34.6v19.8h-6.3v20.1H107v-20.1h-6.4v-19.8l19.1-34.6
		h7V59.9H90.6V79.9z M96.6,65.9h24.1v8.3h-4.6l-21.5,39v27.4h6.4v8.1H74.1v-8.1h6.3v-27.4L59,74.2h-4.7v-8.3h24.2v8h-7l16,31.2
		l16-31.2h-6.9V65.9z"/>
</g>
</svg>
